<svg width="440" height="183" viewBox="0 0 440 183" fill="none" xmlns="http://www.w3.org/2000/svg" xmlns:xlink="http://www.w3.org/1999/xlink">
<rect y="89.291" width="440" height="92.9897" fill="url(#pattern0_781_670)"/>
<path d="M66.8899 60.6582C65.9329 60.6582 65.2265 60.1911 64.7708 59.2568C64.4062 58.5277 64.2239 57.582 64.2239 56.4199C64.2239 54.9844 64.7138 52.5007 65.6936 48.9688C66.1949 47.123 66.8101 45.1862 67.5393 43.1582C69.8407 37.1198 72.3131 31.6738 74.9563 26.8203C77.3261 22.3314 79.5136 18.8678 81.5188 16.4297C82.0201 15.9967 82.51 15.7803 82.9885 15.7803C83.9228 15.7803 84.538 16.2474 84.8342 17.1816C84.9026 17.3639 84.9368 17.5462 84.9368 17.7285C84.9368 18.207 84.7089 18.6855 84.2532 19.1641C82.9771 20.5085 81.8492 21.9554 80.8694 23.5049C79.6161 25.4417 78.4996 27.3216 77.5198 29.1445C74.831 34.0436 72.5295 39.1022 70.6155 44.3203C70.0458 45.847 69.4762 47.6927 68.9065 49.8574C68.109 52.7741 67.7102 54.7109 67.7102 55.668C67.7102 56.0326 67.79 56.2148 67.9495 56.2148C68.1773 56.2148 68.5647 55.8617 69.1116 55.1553C69.5673 54.5856 70.8547 52.7399 72.9739 49.6182C73.498 48.8662 73.9309 48.2282 74.2727 47.7041C75.1386 46.4281 75.5829 45.79 75.6057 45.79C75.4234 45.9951 75.1956 46.3141 74.9221 46.7471C77.7704 42.5544 80.539 38.7604 83.2278 35.3652C85.9166 31.9473 88.4915 29.2129 90.9524 27.1621L91.5676 26.6494C92.5702 25.9886 93.4817 25.6582 94.302 25.6582C94.8717 25.6582 95.4071 25.8177 95.9084 26.1367C96.9111 26.7975 97.4124 27.8571 97.4124 29.3154C97.4124 30.1813 97.2642 31.8333 96.968 34.2715L96.6262 36.7666C96.1705 40.2074 95.9426 42.9189 95.9426 44.9014C95.9426 45.8812 95.9882 46.861 96.0793 47.8408C96.2161 49.6637 96.7629 51.3727 97.72 52.9678C98.6542 54.1299 99.691 54.7109 100.83 54.7109C102.129 54.7109 103.462 54.3577 104.829 53.6514C106.835 52.6032 108.623 51.2474 110.196 49.584C110.879 48.8548 111.756 47.818 112.827 46.4736C113.557 45.5166 114.388 44.3089 115.323 42.8506C119.082 36.6071 121.577 29.9876 122.808 22.9922L123.15 20.292C123.195 19.9274 123.218 19.4831 123.218 18.959L123.252 17.4893C123.389 16.3271 123.981 15.7461 125.03 15.7461C126.192 15.7461 126.773 16.3841 126.773 17.6602L126.67 19.3008C126.625 20.1667 126.533 20.93 126.397 21.5908C125.121 29.6117 122.318 37.2907 117.989 44.6279C117.419 45.5166 116.826 46.3939 116.211 47.2598C115.915 47.6699 115.619 48.1029 115.323 48.5586L114.365 49.7207C111.95 52.8652 109.147 55.2464 105.957 56.8643C104.271 57.7301 102.642 58.1631 101.07 58.1631C100.477 58.1631 99.8733 58.0947 99.2581 57.958C97.1845 57.2744 95.6122 56.0667 94.5413 54.335C93.4703 52.3298 92.8778 50.1992 92.7639 47.9434C92.6956 46.8724 92.6614 45.8128 92.6614 44.7646C92.6614 42.5088 92.8095 40.2643 93.1057 38.0312C93.1969 36.8919 93.2994 35.7982 93.4133 34.75C93.6184 32.5625 93.7209 31.0814 93.7209 30.3066L93.7551 29.8623C93.7551 29.6344 93.7096 29.5205 93.6184 29.5205C93.4817 29.5205 92.9918 29.9079 92.1487 30.6826C89.8245 32.7334 87.7053 34.9665 85.7913 37.3818C82.7834 41.1644 80.2428 44.6621 78.1692 47.875L75.7766 51.4639L75.1956 52.3867C73.3271 55.235 72.2333 56.8187 71.9143 57.1377C70.8206 58.7555 69.6471 59.8151 68.3938 60.3164C67.8697 60.5443 67.3684 60.6582 66.8899 60.6582ZM130.908 53.8223C130.134 53.8223 129.348 53.6969 128.55 53.4463C127.001 52.8311 126.135 51.7031 125.952 50.0625C125.952 49.4928 125.975 49.0713 126.021 48.7979L126.328 47.5674C127.741 43.9671 129.724 41.21 132.276 39.2959C133.164 38.6351 134.201 38.2705 135.386 38.2021C135.682 38.2021 135.967 38.2363 136.24 38.3047C137.676 38.6693 138.485 39.6149 138.667 41.1416C138.667 41.415 138.633 41.7113 138.565 42.0303C138.109 44.0811 136.958 45.7217 135.113 46.9521C134.019 47.7952 132.503 48.4788 130.567 49.0029L130.156 49.0371C129.906 49.0371 129.678 48.9915 129.473 48.9004C129.382 49.2194 129.336 49.4473 129.336 49.584C129.405 50.2448 129.951 50.5752 130.977 50.5752C131.501 50.5752 131.922 50.5524 132.241 50.5068C134.862 50.3018 137.425 49.8688 139.932 49.208C144.785 47.9548 148.272 46.8496 150.391 45.8926C151.371 45.4824 152.009 45.2773 152.305 45.2773C152.692 45.2773 153.023 45.4027 153.296 45.6533C153.661 45.9951 153.843 46.4281 153.843 46.9521C153.843 46.9977 153.832 47.18 153.809 47.499C153.786 47.818 153.421 48.1257 152.715 48.4219L149.741 49.5156C145.891 50.7461 142.769 51.6803 140.376 52.3184C137.71 53.0247 135.021 53.5146 132.31 53.7881C131.831 53.7881 131.364 53.7995 130.908 53.8223ZM131.455 45.0723C132.162 44.776 132.834 44.4001 133.472 43.9443C134.657 42.9645 135.249 42.3379 135.249 42.0645C135.249 41.9733 135.192 41.9277 135.078 41.9277C134.942 41.9277 134.645 42.0531 134.19 42.3037C133.369 42.7367 132.458 43.6595 131.455 45.0723ZM153.091 58.334C152.932 58.334 152.704 58.3226 152.407 58.2998C152.111 58.2542 151.667 58.015 151.074 57.582C150.209 56.8301 149.776 55.7705 149.776 54.4033C149.776 53.4463 149.844 52.5348 149.981 51.6689C149.981 51.6234 149.992 51.5892 150.015 51.5664C150.083 51.1562 150.163 50.7575 150.254 50.3701C149.867 50.0055 149.673 49.584 149.673 49.1055C149.673 48.6953 149.844 48.2965 150.186 47.9092C150.505 47.5218 150.835 47.1458 151.177 46.7812C152.613 42.3379 154.652 37.5755 157.295 32.4941C160.235 26.8887 163.06 23.596 165.772 22.6162L166.66 22.5479C166.797 22.5479 166.934 22.582 167.071 22.6504C167.914 23.1517 168.347 23.71 168.369 24.3252C168.369 24.9632 168.233 25.6696 167.959 26.4443C167.071 29.0876 165.965 31.6169 164.644 34.0322C162.57 37.9287 160.109 41.5745 157.261 44.9697L153.911 48.9004C153.729 49.584 153.535 50.4499 153.33 51.498L153.159 52.8311C153.091 53.264 153.057 53.7083 153.057 54.1641C153.057 54.6198 153.171 55.0072 153.399 55.3262C154.265 55.0299 154.937 54.7793 155.415 54.5742C155.598 54.4831 155.814 54.3919 156.065 54.3008C159.597 52.8652 163.983 50.484 169.224 47.1572C169.976 46.6104 170.773 46.0635 171.616 45.5166C171.958 45.3115 172.289 45.209 172.608 45.209C172.836 45.209 173.12 45.3001 173.462 45.4824C173.895 45.7331 174.112 46.1774 174.112 46.8154C174.112 47.2939 173.85 47.7155 173.325 48.0801L170.83 49.7549C163.334 54.3577 158.286 57.0693 155.689 57.8896C155.438 57.958 155.199 58.0378 154.971 58.1289C154.652 58.1517 154.367 58.1859 154.116 58.2314C153.752 58.2998 153.41 58.334 153.091 58.334ZM157.261 39.8086C159.995 36.0033 162.092 32.3118 163.55 28.7344C162.434 30.0788 161.26 31.9017 160.03 34.2031C158.822 36.4818 157.899 38.3503 157.261 39.8086ZM177.085 54.6084C176.835 54.6084 176.06 54.54 174.761 54.4033L174.077 54.1641C173.189 53.9362 172.448 53.4919 171.856 52.8311C171.195 52.0563 170.865 51.2018 170.865 50.2676C170.865 49.4701 170.978 48.6725 171.206 47.875C171.275 47.7611 171.332 47.6357 171.377 47.499C171.468 47.2484 171.571 47.0091 171.685 46.7812C173.462 43.1126 176.071 40.2871 179.512 38.3047C180.173 37.9401 180.811 37.7578 181.426 37.7578C182.11 37.7578 182.759 37.9743 183.374 38.4072C184.012 39.0452 184.331 39.7516 184.331 40.5264C184.331 40.891 184.263 41.2669 184.126 41.6543C183.716 42.9987 183.112 44.252 182.315 45.4141C181.631 45.9382 181.05 46.2002 180.572 46.2002C180.526 46.2002 180.366 46.1774 180.093 46.1318C179.842 46.0863 179.637 45.8356 179.478 45.3799C179.432 45.2204 179.409 45.0609 179.409 44.9014C179.409 44.6279 179.489 44.3317 179.649 44.0127C180.401 42.7367 180.879 41.8024 181.084 41.21C179.968 41.8936 178.942 42.7139 178.008 43.6709C176.345 45.3343 175.137 47.1572 174.385 49.1396C174.294 49.4814 174.248 49.8232 174.248 50.165C174.248 50.917 175.296 51.3044 177.393 51.3271C180.651 51.3271 184.479 50.7005 188.877 49.4473C191.634 48.8092 194.665 47.7269 197.969 46.2002C198.265 46.0863 198.539 46.0293 198.789 46.0293C199.131 46.0293 199.427 46.1432 199.678 46.3711C200.065 46.6901 200.259 47.1003 200.259 47.6016C200.259 47.6699 200.248 47.8636 200.225 48.1826C200.225 48.4788 199.894 48.7865 199.234 49.1055C193.856 51.3841 188.023 53.0703 181.734 54.1641C180.207 54.4603 178.657 54.6084 177.085 54.6084ZM201.592 55.2236C200.977 55.2236 200.35 55.0527 199.712 54.7109C198.003 53.6855 197.149 51.9993 197.149 49.6523C197.171 49.5156 197.183 49.3675 197.183 49.208C197.342 47.0661 198.094 45.1178 199.439 43.3633C199.849 42.9987 200.259 42.805 200.669 42.7822C200.669 41.8024 200.954 40.9365 201.524 40.1846C202.184 39.3187 203.039 38.8743 204.087 38.8516C204.566 38.8516 205.124 38.9541 205.762 39.1592C207.015 39.7972 207.927 40.7542 208.496 42.0303C208.998 43.238 209.248 44.5254 209.248 45.8926C210.752 46.166 212.279 46.3027 213.828 46.3027C216.494 46.3027 219.069 45.9268 221.553 45.1748L222.066 45.1406C222.567 45.1406 222.954 45.3001 223.228 45.6191C223.501 45.9382 223.638 46.3027 223.638 46.7129C223.638 46.8268 223.604 47.0661 223.535 47.4307C223.467 47.7725 223.068 48.0573 222.339 48.2852C219.559 49.0599 216.677 49.4473 213.692 49.4473C212.028 49.4473 210.422 49.3105 208.872 49.0371C208.189 51.498 206.742 53.3551 204.531 54.6084C204.19 54.7679 203.837 54.9046 203.472 55.0186C203.267 55.0641 203.073 55.1211 202.891 55.1895L201.592 55.2236ZM205.796 44.6621C205.568 43.3633 205.067 42.5316 204.292 42.167L203.985 42.1328L203.916 42.3037H203.95C203.973 42.3037 203.985 42.3493 203.985 42.4404L203.95 42.6455C203.95 43.0101 204.19 43.4089 204.668 43.8418C204.919 44.1152 205.295 44.3887 205.796 44.6621ZM201.865 51.9082C201.979 51.9082 202.253 51.874 202.686 51.8057C204.19 51.0537 205.192 49.8574 205.694 48.2168C204.577 47.8066 203.586 47.2484 202.72 46.542C202.447 46.3369 202.207 46.0977 202.002 45.8242L201.934 45.8584C201.205 46.7926 200.76 47.8636 200.601 49.0713C200.555 49.2764 200.532 49.4814 200.532 49.6865C200.532 49.8005 200.521 49.903 200.498 49.9941C200.567 51.2702 201.022 51.9082 201.865 51.9082ZM220.254 58.8125C219.479 58.8125 219.069 58.2542 219.024 57.1377C219.229 55.2464 219.639 53.3893 220.254 51.5664C220.528 50.6777 220.778 49.7777 221.006 48.8662C221.804 46.109 222.681 43.3861 223.638 40.6973C224.071 40.0365 224.584 39.7061 225.176 39.7061C225.199 39.7061 225.37 39.7174 225.689 39.7402C226.031 39.763 226.384 40.0365 226.748 40.5605C226.908 40.8112 226.988 41.0846 226.988 41.3809C226.988 41.6999 226.896 42.0531 226.714 42.4404C226.167 43.762 225.666 45.0837 225.21 46.4053C225.917 45.3343 226.657 44.2747 227.432 43.2266C228.662 41.5404 230.087 40.0592 231.704 38.7832C232.206 38.5326 232.639 38.4072 233.003 38.4072C234.644 38.4072 235.464 39.3643 235.464 41.2783C235.464 42.2354 235.213 43.9102 234.712 46.3027C234.348 48.0345 234.165 49.1738 234.165 49.7207C234.165 50.0169 234.211 50.165 234.302 50.165L234.37 50.1309C235.897 48.9004 237.355 47.6016 238.745 46.2344C239.383 45.6191 240.044 45.0153 240.728 44.4229C242.642 42.6455 244.1 41.7568 245.103 41.7568C245.832 41.8252 246.356 42.0075 246.675 42.3037C247.017 42.5771 247.313 42.9531 247.564 43.4316C247.7 43.7734 247.86 44.3203 248.042 45.0723C248.407 46.7357 248.908 47.8408 249.546 48.3877C250.207 49.0485 251.061 49.3789 252.11 49.3789C253.317 49.3789 254.616 49.1169 256.006 48.5928C258.946 47.4079 261.669 45.847 264.175 43.9102C264.562 43.6595 264.927 43.5342 265.269 43.5342C265.497 43.5342 265.793 43.6367 266.157 43.8418C266.636 44.0697 266.875 44.5368 266.875 45.2432C266.875 45.7217 266.613 46.166 266.089 46.5762C263.264 48.6725 260.222 50.3815 256.963 51.7031L256.109 51.9766C254.696 52.4551 253.363 52.6943 252.11 52.6943C249.877 52.6943 248.122 51.9196 246.846 50.3701C246.504 49.96 246.299 49.6979 246.231 49.584C245.593 48.6042 245.057 47.2598 244.624 45.5508C244.579 45.4141 244.545 45.3457 244.522 45.3457C244.248 45.7103 243.337 46.5762 241.787 47.9434C238.893 50.7689 236.911 52.5348 235.84 53.2412C235.111 53.7881 234.439 54.0615 233.823 54.0615C231.841 54.0615 230.85 52.8652 230.85 50.4727C230.918 49.0143 231.112 47.5674 231.431 46.1318C231.613 45.1292 231.761 44.1152 231.875 43.0898C231.784 43.2266 231.67 43.3633 231.533 43.5C230.918 44.3203 230.44 44.9014 230.098 45.2432C228.002 47.9775 226.19 50.8714 224.663 53.9248C224.481 54.2666 224.139 54.9388 223.638 55.9414C223.137 56.9212 222.726 57.6048 222.407 57.9922C221.929 58.5163 221.211 58.7897 220.254 58.8125ZM268.584 53.8223C267.809 53.8223 267.023 53.6969 266.226 53.4463C264.676 52.8311 263.81 51.7031 263.628 50.0625C263.628 49.4928 263.651 49.0713 263.697 48.7979L264.004 47.5674C265.417 43.9671 267.399 41.21 269.951 39.2959C270.84 38.6351 271.877 38.2705 273.062 38.2021C273.358 38.2021 273.643 38.2363 273.916 38.3047C275.352 38.6693 276.161 39.6149 276.343 41.1416C276.343 41.415 276.309 41.7113 276.24 42.0303C275.785 44.0811 274.634 45.7217 272.788 46.9521C271.695 47.7952 270.179 48.4788 268.242 49.0029L267.832 49.0371C267.582 49.0371 267.354 48.9915 267.149 48.9004C267.058 49.2194 267.012 49.4473 267.012 49.584C267.08 50.2448 267.627 50.5752 268.653 50.5752C269.177 50.5752 269.598 50.5524 269.917 50.5068C272.538 50.3018 275.101 49.8688 277.608 49.208C282.461 47.9548 285.948 46.8496 288.067 45.8926C289.046 45.4824 289.684 45.2773 289.981 45.2773C290.368 45.2773 290.698 45.4027 290.972 45.6533C291.337 45.9951 291.519 46.4281 291.519 46.9521C291.519 46.9977 291.507 47.18 291.485 47.499C291.462 47.818 291.097 48.1257 290.391 48.4219L287.417 49.5156C283.566 50.7461 280.445 51.6803 278.052 52.3184C275.386 53.0247 272.697 53.5146 269.986 53.7881C269.507 53.7881 269.04 53.7995 268.584 53.8223ZM269.131 45.0723C269.837 44.776 270.51 44.4001 271.148 43.9443C272.333 42.9645 272.925 42.3379 272.925 42.0645C272.925 41.9733 272.868 41.9277 272.754 41.9277C272.617 41.9277 272.321 42.0531 271.865 42.3037C271.045 42.7367 270.134 43.6595 269.131 45.0723ZM310.078 58.6074C309.623 58.5618 309.178 58.4479 308.745 58.2656L308.062 58.0605L307.583 57.6846C306.398 56.7275 305.806 55.349 305.806 53.5488C305.806 51.3385 306.125 49.1624 306.763 47.0205L307.515 44.3887C308.426 41.4948 309.566 38.6921 310.933 35.9805C309.11 36.0944 307.298 36.1742 305.498 36.2197C304.678 36.2197 304.12 35.9235 303.823 35.3311C303.687 35.0348 303.618 34.75 303.618 34.4766C303.618 33.3145 304.245 32.7334 305.498 32.7334C306.706 32.779 307.902 32.8018 309.087 32.8018C310.295 32.8018 311.503 32.779 312.71 32.7334C313.075 32.0042 313.861 30.8193 315.069 29.1787C316.299 27.5381 317.564 26.4215 318.863 25.8291C319.227 25.6468 319.649 25.5557 320.127 25.5557C320.993 25.5557 321.688 25.9658 322.212 26.7861C322.303 26.9456 322.36 27.0938 322.383 27.2305C322.406 27.3444 322.417 27.4242 322.417 27.4697C322.44 27.4925 322.486 27.7432 322.554 28.2217C322.463 29.5889 322.11 30.8877 321.494 32.1182V32.1523L327.715 31.6055C328.399 31.6055 328.877 31.8333 329.151 32.2891C329.31 32.5625 329.39 32.8359 329.39 33.1094C329.39 33.3372 329.322 33.6335 329.185 33.998C329.048 34.3626 328.615 34.5905 327.886 34.6816L319.683 35.3311C316.538 40.2757 313.531 44.3089 310.659 47.4307C310.386 47.7041 310.101 47.875 309.805 47.9434C309.782 47.9889 309.771 48.0459 309.771 48.1143C309.315 49.7321 309.087 51.3841 309.087 53.0703V53.5146C309.087 54.335 309.292 54.9274 309.702 55.292C309.748 55.3376 309.794 55.3604 309.839 55.3604C309.976 55.3604 310.067 55.3717 310.113 55.3945L311.104 55.1895C313.474 54.6654 316.96 52.8766 321.563 49.8232C322.337 49.2764 322.907 48.889 323.272 48.6611C323.636 48.4105 323.91 48.2168 324.092 48.0801C324.274 47.9434 324.457 47.8066 324.639 47.6699C325.026 47.4193 325.801 46.8268 326.963 45.8926C327.328 45.6419 327.67 45.5166 327.989 45.5166C328.194 45.5166 328.467 45.5964 328.809 45.7559C329.265 45.9837 329.492 46.4281 329.492 47.0889C329.492 47.5218 329.265 47.932 328.809 48.3193L326.348 50.1309C322.337 53.1387 318.475 55.5312 314.761 57.3086C313.029 58.1745 311.468 58.6074 310.078 58.6074ZM312.539 39.9795C313.587 38.5667 314.601 37.1312 315.581 35.6729L314.693 35.7412C313.895 37.1084 313.177 38.5212 312.539 39.9795ZM316.778 32.4941L317.53 32.4258C318.054 31.4915 318.395 30.7965 318.555 30.3408C317.917 31.0016 317.324 31.7194 316.778 32.4941ZM330.723 55.2236C330.108 55.2236 329.481 55.0527 328.843 54.7109C327.134 53.6855 326.28 51.9993 326.28 49.6523C326.302 49.5156 326.314 49.3675 326.314 49.208C326.473 47.0661 327.225 45.1178 328.57 43.3633C328.98 42.9987 329.39 42.805 329.8 42.7822C329.8 41.8024 330.085 40.9365 330.655 40.1846C331.315 39.3187 332.17 38.8743 333.218 38.8516C333.697 38.8516 334.255 38.9541 334.893 39.1592C336.146 39.7972 337.058 40.7542 337.627 42.0303C338.128 43.238 338.379 44.5254 338.379 45.8926C339.883 46.166 341.41 46.3027 342.959 46.3027C345.625 46.3027 348.2 45.9268 350.684 45.1748L351.197 45.1406C351.698 45.1406 352.085 45.3001 352.359 45.6191C352.632 45.9382 352.769 46.3027 352.769 46.7129C352.769 46.8268 352.735 47.0661 352.666 47.4307C352.598 47.7725 352.199 48.0573 351.47 48.2852C348.69 49.0599 345.808 49.4473 342.823 49.4473C341.159 49.4473 339.553 49.3105 338.003 49.0371C337.32 51.498 335.873 53.3551 333.662 54.6084C333.321 54.7679 332.967 54.9046 332.603 55.0186C332.398 55.0641 332.204 55.1211 332.022 55.1895L330.723 55.2236ZM334.927 44.6621C334.699 43.3633 334.198 42.5316 333.423 42.167L333.115 42.1328L333.047 42.3037H333.081C333.104 42.3037 333.115 42.3493 333.115 42.4404L333.081 42.6455C333.081 43.0101 333.321 43.4089 333.799 43.8418C334.05 44.1152 334.426 44.3887 334.927 44.6621ZM330.996 51.9082C331.11 51.9082 331.384 51.874 331.817 51.8057C333.321 51.0537 334.323 49.8574 334.824 48.2168C333.708 47.8066 332.717 47.2484 331.851 46.542C331.577 46.3369 331.338 46.0977 331.133 45.8242L331.065 45.8584C330.336 46.7926 329.891 47.8636 329.732 49.0713C329.686 49.2764 329.663 49.4814 329.663 49.6865C329.663 49.8005 329.652 49.903 329.629 49.9941C329.698 51.2702 330.153 51.9082 330.996 51.9082Z" fill="#FFE54D"/>
<defs>
<pattern id="pattern0_781_670" patternContentUnits="objectBoundingBox" width="1" height="1">
</pattern>
</defs>
</svg>
