<svg width="36" height="36" viewBox="0 0 36 36" fill="none" xmlns="http://www.w3.org/2000/svg">
<g id="camera 1">
<g id="_x30_9_camera_photography">
<g id="Group">
<path id="Vector" d="M18 14.7188C14.9845 14.7188 12.5312 17.172 12.5312 20.1875C12.5312 23.203 14.9845 25.6562 18 25.6562C21.0155 25.6562 23.4688 23.203 23.4688 20.1875C23.4688 17.172 21.0155 14.7188 18 14.7188ZM21.2812 21.2812C20.6764 21.2812 20.1875 20.7912 20.1875 20.1875C20.1875 18.9811 19.2064 18 18 18C17.3952 18 16.9062 17.51 16.9062 16.9062C16.9062 16.3025 17.3952 15.8125 18 15.8125C20.4128 15.8125 22.375 17.7747 22.375 20.1875C22.375 20.7912 21.8861 21.2812 21.2812 21.2812Z" fill="#9A28CD"/>
<g id="Group_2">
<path id="Vector_2" d="M24.0484 8.15625L23.4359 5.70297C23.3134 5.21734 22.877 4.875 22.375 4.875H13.625C13.1229 4.875 12.6865 5.21734 12.564 5.70297L11.9515 8.15625H24.0484Z" fill="#9A28CD"/>
<path id="Vector_3" d="M31.125 9.25H24.3219H11.6781H4.875C3.06594 9.25 1.59375 10.7222 1.59375 12.5312V27.8438C1.59375 29.6528 3.06594 31.125 4.875 31.125H31.125C32.9341 31.125 34.4062 29.6528 34.4062 27.8438V12.5312C34.4062 10.7222 32.9341 9.25 31.125 9.25ZM7.0625 15.8125C6.45766 15.8125 5.96875 15.3225 5.96875 14.7188C5.96875 14.115 6.45766 13.625 7.0625 13.625C7.66734 13.625 8.15625 14.115 8.15625 14.7188C8.15625 15.3225 7.66734 15.8125 7.0625 15.8125ZM18 27.8438C13.7792 27.8438 10.3438 24.4094 10.3438 20.1875C10.3438 15.9656 13.7792 12.5312 18 12.5312C22.2208 12.5312 25.6562 15.9656 25.6562 20.1875C25.6562 24.4094 22.2208 27.8438 18 27.8438Z" fill="#9A28CD"/>
</g>
</g>
</g>
</g>
</svg>
