<svg width="33" height="33" viewBox="0 0 33 33" fill="none" xmlns="http://www.w3.org/2000/svg">
<g clip-path="url(#clip0_781_692)">
<path d="M16.6757 32.5135C13.4684 32.5135 10.3332 31.5624 7.66645 29.7806C4.99971 27.9987 2.92123 25.4661 1.69387 22.503C0.466499 19.5398 0.145364 16.2793 0.77107 13.1337C1.39678 9.98802 2.94122 7.09856 5.2091 4.83068C7.47698 2.5628 10.3664 1.01836 13.5121 0.392652C16.6577 -0.233054 19.9182 0.0880809 22.8814 1.31545C25.8445 2.54282 28.3771 4.62129 30.159 7.28803C31.9409 9.95478 32.8919 13.09 32.8919 16.2973C32.8871 20.5966 31.1771 24.7185 28.137 27.7586C25.0969 30.7987 20.975 32.5087 16.6757 32.5135ZM7.37164 15.4662L4.51353 18.3243L12.6216 26.4324L28.8379 10.2162L25.9798 7.33782L12.6216 20.6959L7.37164 15.4662Z" fill="white"/>
</g>
<defs>
<clipPath id="clip0_781_692">
<rect width="32.4324" height="32.4324" fill="white" transform="translate(0.459473 0.0810547)"/>
</clipPath>
</defs>
</svg>
