<svg width="33" height="26" viewBox="0 0 33 26" fill="none" xmlns="http://www.w3.org/2000/svg">
<path d="M30.1225 0.945312H3.39103C1.82123 0.945312 0.540527 2.22462 0.540527 3.79582V22.7992C0.540527 24.3651 1.81553 25.6497 3.39103 25.6497H30.1225C31.6883 25.6497 32.973 24.3747 32.973 22.7992V3.79582C32.973 2.22994 31.698 0.945312 30.1225 0.945312ZM29.7288 2.84565L16.8172 15.7574L3.79384 2.84565H29.7288ZM2.44087 22.4057V4.18026L11.5928 13.2537L2.44087 22.4057ZM3.78459 23.7494L12.9423 14.5916L16.1512 17.7729C16.5226 18.1412 17.1221 18.14 17.492 17.77L20.6208 14.6412L29.7289 23.7494H3.78459ZM31.0726 22.4056L21.9645 13.2975L31.0726 4.18932V22.4056Z" fill="white"/>
</svg>
