<svg xmlns="http://www.w3.org/2000/svg" width="28" height="28" viewBox="0 0 28 28" fill="none">
  <path d="M23.5434 0.553711H4.7466C2.38724 0.553711 0.474609 2.46635 0.474609 4.8257V23.6225C0.474609 25.9818 2.38724 27.8944 4.7466 27.8944H23.5434C25.9027 27.8944 27.8153 25.9818 27.8153 23.6225V4.8257C27.8153 2.46635 25.9027 0.553711 23.5434 0.553711Z" fill="#1877F2"/>
  <path d="M20.9799 14.2241C20.9799 10.4647 17.9041 7.38892 14.1448 7.38892C10.3854 7.38892 7.30957 10.4647 7.30957 14.2241C7.30957 17.6417 9.78732 20.4612 13.034 20.9738V16.1892H11.3252V14.2241H13.034V12.6862C13.034 10.9774 14.0593 10.0376 15.5972 10.0376C16.3662 10.0376 17.1351 10.2084 17.1351 10.2084V11.9172H16.2807C15.4264 11.9172 15.17 12.4299 15.17 12.9425V14.2241H17.0497L16.7079 16.1892H15.0846V21.0593C18.5022 20.5466 20.9799 17.6417 20.9799 14.2241Z" fill="white"/>
</svg>