<svg width="79" height="79" viewBox="0 0 79 79" fill="none" xmlns="http://www.w3.org/2000/svg">
<path d="M17.1394 78.957C8.88938 78.9324 1.89038 74.1645 0.316608 65.8821C0.10964 64.7966 0.00615356 62.7547 0.00615356 59.7563C0.00410438 46.2411 0.00204919 32.7249 0 19.2077C0 16.2625 0.10657 14.2206 0.319685 13.0819C1.74285 5.47537 8.40679 0.0746092 16.2357 0.0531045C31.6251 0.00804698 47.0135 -0.0083387 62.4008 0.00394971C70.1437 0.0100939 76.9121 4.99305 78.5904 12.5719C78.8568 13.7864 78.991 15.8253 78.9931 18.6885C78.9992 32.4044 79.0013 46.1203 78.9992 59.8362C78.9992 62.7506 78.8876 64.7915 78.6642 65.9589C77.1796 73.7037 70.3097 79 62.3824 79C39.9909 78.9918 24.9099 78.9775 17.1394 78.957ZM16.3925 46.6999L16.5154 48.9303C16.5216 49.0327 16.5759 49.0839 16.6783 49.0839L20.2562 49.0808C20.2739 49.0808 20.2913 49.0773 20.3075 49.0703C20.3236 49.0634 20.3381 49.0532 20.35 49.0405C20.3619 49.0277 20.3709 49.0127 20.3764 48.9964C20.382 48.98 20.384 48.9627 20.3822 48.9456L19.0513 30.2396C19.0443 30.1426 19.0011 30.052 18.9303 29.9858C18.8596 29.9197 18.7666 29.883 18.6701 29.8832H12.9898C12.8857 29.883 12.7853 29.9225 12.7089 29.9937C12.6325 30.065 12.5857 30.1627 12.5779 30.2672L11.3392 48.2913C11.332 48.3911 11.3454 48.4913 11.3786 48.5857C11.4118 48.6801 11.464 48.7667 11.532 48.8401C11.6 48.9136 11.6823 48.9723 11.7739 49.0126C11.8656 49.053 11.9645 49.0741 12.0646 49.0746L15.0216 49.1023C15.0607 49.1023 15.0982 49.0868 15.1259 49.0591C15.1536 49.0315 15.1691 48.994 15.1691 48.9548L15.1476 46.6999C15.1476 46.5996 15.1978 46.5494 15.2982 46.5494H16.2326C16.333 46.5494 16.3863 46.5996 16.3925 46.6999ZM25.0359 45.594C24.8433 45.5673 24.747 45.4567 24.747 45.2622V30.1536C24.747 30.0819 24.7185 30.0131 24.6678 29.9624C24.6171 29.9117 24.5483 29.8832 24.4765 29.8832H21.289C21.2075 29.8832 21.1293 29.9156 21.0717 29.9732C21.014 30.0308 20.9816 30.109 20.9816 30.1904V48.577C20.9816 48.7114 21.0354 48.8403 21.1311 48.9354C21.2268 49.0305 21.3565 49.0839 21.4919 49.0839H27.0616C27.1618 49.0839 27.258 49.0441 27.3289 48.9732C27.3998 48.9023 27.4396 48.8062 27.4396 48.706C27.4396 47.8745 27.4294 47.0266 27.4089 46.1623C27.3874 45.2745 25.6323 45.6769 25.0359 45.594ZM28.829 49.0439C29.8065 49.0931 30.7798 49.1115 31.7491 49.0992C31.7958 49.0984 31.8404 49.0793 31.8732 49.046C31.9059 49.0126 31.9243 48.9678 31.9243 48.921L31.9058 46.7736C31.9058 46.6241 31.9806 46.5494 32.1302 46.5494H33.0001C33.1231 46.5494 33.1856 46.6108 33.1876 46.7337L33.2245 48.9057C33.2265 49.0245 33.287 49.0839 33.4058 49.0839H36.9407C36.9675 49.084 36.994 49.0785 37.0185 49.0678C37.0431 49.0571 37.0652 49.0415 37.0834 49.0219C37.1016 49.0022 37.1155 48.979 37.1243 48.9538C37.133 48.9285 37.1365 48.9016 37.1343 48.875L35.8034 30.1474C35.7987 30.0757 35.7669 30.0085 35.7143 29.9594C35.6618 29.9103 35.5925 29.8831 35.5206 29.8832H29.745C29.6457 29.883 29.5501 29.9205 29.4771 29.9883C29.4041 30.0561 29.3593 30.1491 29.3515 30.2488C28.9191 36.1964 28.5093 42.1419 28.122 48.0854C28.0821 48.7121 28.122 49.0101 28.829 49.0439ZM41.496 33.8278C41.4956 33.7762 41.5054 33.725 41.5248 33.6771C41.5442 33.6292 41.5729 33.5856 41.6091 33.5488C41.6454 33.512 41.6885 33.4827 41.7361 33.4626C41.7837 33.4425 41.8347 33.4319 41.8864 33.4315L43.8014 33.4069C43.9046 33.4053 44.0032 33.3632 44.0756 33.2896C44.1481 33.216 44.1887 33.1169 44.1887 33.0137V30.2765C44.1887 30.1722 44.1472 30.0721 44.0734 29.9984C43.9997 29.9246 43.8996 29.8832 43.7952 29.8832H38.1333C38.029 29.8832 37.9289 29.9246 37.8551 29.9984C37.7813 30.0721 37.7399 30.1722 37.7399 30.2765L37.7307 48.6906C37.7307 48.7949 37.7721 48.895 37.8459 48.9687C37.9197 49.0424 38.0198 49.0839 38.1241 49.0839H41.1057C41.21 49.0839 41.3101 49.0424 41.3839 48.9687C41.4577 48.895 41.4991 48.7949 41.4991 48.6906V41.677C41.4991 41.5743 41.5393 41.4757 41.6111 41.4022C41.6829 41.3287 41.7806 41.2862 41.8833 41.2838L43.8044 41.2346C43.9072 41.2322 44.0049 41.1897 44.0767 41.1163C44.1485 41.0428 44.1887 40.9441 44.1887 40.8414V38.1103C44.1887 38.006 44.1472 37.906 44.0734 37.8323C43.9997 37.7585 43.8996 37.7171 43.7952 37.7171H41.9049C41.8005 37.7171 41.7004 37.6757 41.6266 37.6019C41.5529 37.5282 41.5114 37.4281 41.5114 37.3238L41.496 33.8278ZM48.8608 45.6093C48.7847 45.6085 48.712 45.5777 48.6585 45.5237C48.605 45.4696 48.575 45.3966 48.575 45.3205L48.5688 41.6279C48.5687 41.5534 48.5975 41.4817 48.649 41.4279C48.7006 41.3741 48.771 41.3423 48.8455 41.3391L50.9049 41.2562C50.9794 41.253 51.0497 41.2212 51.1013 41.1674C51.1528 41.1135 51.1816 41.0419 51.1815 40.9674V38.055C51.1816 37.98 51.1524 37.9079 51.1002 37.854C51.048 37.8001 50.9768 37.7686 50.9018 37.7662L48.8485 37.7017C48.7735 37.6993 48.7024 37.6679 48.6502 37.614C48.5979 37.5601 48.5688 37.488 48.5688 37.4129V33.7295C48.5688 33.654 48.5984 33.5814 48.6512 33.5274C48.7041 33.4735 48.776 33.4423 48.8516 33.4407L50.8987 33.3977C50.9743 33.3961 51.0462 33.365 51.0991 33.311C51.1519 33.257 51.1815 33.1845 51.1815 33.1089V30.172C51.1815 30.0954 51.1511 30.022 51.0969 29.9678C51.0427 29.9137 50.9692 29.8832 50.8926 29.8832H45.0924C45.0157 29.8832 44.9422 29.9137 44.8881 29.9678C44.8339 30.022 44.8034 30.0954 44.8034 30.172V48.7951C44.8034 48.8717 44.8339 48.9451 44.8881 48.9993C44.9422 49.0534 45.0157 49.0839 45.0924 49.0839H50.8864C50.9244 49.0839 50.9619 49.0764 50.997 49.0619C51.0321 49.0474 51.0639 49.0261 51.0907 48.9993C51.1176 48.9725 51.1389 48.9406 51.1534 48.9056C51.1679 48.8706 51.1754 48.833 51.1754 48.7951L51.1846 45.9257C51.1846 45.8497 51.1546 45.7767 51.1011 45.7226C51.0475 45.6686 50.9748 45.6378 50.8987 45.637L48.8608 45.6093ZM61.574 36.9613L63.2523 48.9425C63.2646 49.0368 63.3189 49.0839 63.4152 49.0839H67.5832C67.6174 49.0839 67.6503 49.0703 67.6745 49.0461C67.6987 49.0219 67.7123 48.9891 67.7123 48.9548L67.6846 30.1044C67.6846 29.9569 67.6109 29.8832 67.4633 29.8832L64.0484 29.8863C64.0337 29.8863 64.0192 29.8892 64.0057 29.895C63.9923 29.9008 63.9801 29.9093 63.9701 29.9199C63.96 29.9306 63.9522 29.9432 63.9471 29.9569C63.9421 29.9707 63.9399 29.9853 63.9408 30C64.1723 34.006 64.406 38.0141 64.6416 42.0242C64.6447 42.0979 64.5524 42.2607 64.4971 42.2484C64.4377 42.2368 64.3833 42.2066 64.3414 42.162C64.2996 42.1175 64.2724 42.0607 64.2635 41.9996L62.4992 30.0338C62.4848 29.9334 62.4264 29.8832 62.324 29.8832H58.4817C58.4002 29.8832 58.322 29.9156 58.2644 29.9732C58.2068 30.0308 58.1744 30.109 58.1744 30.1904V48.577C58.1744 48.7114 58.2281 48.8403 58.3238 48.9354C58.4195 49.0305 58.5493 49.0839 58.6846 49.0839H61.7092C61.8568 49.0839 61.9254 49.0112 61.9152 48.8657C61.6529 44.9355 61.4049 40.9889 61.1713 37.0259C61.1611 36.8436 61.2461 36.7709 61.4264 36.8077C61.5125 36.8241 61.5617 36.8753 61.574 36.9613ZM51.8823 44.3221C51.8301 45.4127 53.536 45.3666 54.4121 45.3973C55.1682 45.425 55.3711 45.1731 55.4787 44.4726C56.1364 40.1 56.7799 35.7233 57.409 31.3425C57.4981 30.7096 57.3383 30.3717 56.6713 30.2826C55.5463 30.129 54.4438 30.0184 53.3639 29.9508C53.263 29.9446 53.1619 29.9585 53.0664 29.9917C52.971 30.0249 52.8831 30.0767 52.8079 30.1442C52.7326 30.2117 52.6716 30.2934 52.6282 30.3847C52.5849 30.4759 52.5602 30.5749 52.5555 30.6758C52.3383 35.1918 52.1139 39.7406 51.8823 44.3221ZM55.1006 47.5724C55.1006 47.1699 54.9406 46.7839 54.6558 46.4993C54.3711 46.2147 53.9849 46.0548 53.5821 46.0548C53.1794 46.0548 52.7932 46.2147 52.5084 46.4993C52.2237 46.7839 52.0637 47.1699 52.0637 47.5724C52.0637 47.9749 52.2237 48.3609 52.5084 48.6455C52.7932 48.9301 53.1794 49.09 53.5821 49.09C53.9849 49.09 54.3711 48.9301 54.6558 48.6455C54.9406 48.3609 55.1006 47.9749 55.1006 47.5724Z" fill="#0000F5"/>
<path d="M16.2326 46.5495H15.2982C15.1978 46.5495 15.1476 46.5996 15.1476 46.7L15.1691 48.9549C15.1691 48.994 15.1535 49.0315 15.1259 49.0592C15.0982 49.0868 15.0607 49.1024 15.0215 49.1024L12.0646 49.0747C11.9644 49.0741 11.8655 49.053 11.7739 49.0127C11.6823 48.9724 11.5999 48.9136 11.5319 48.8402C11.4639 48.7668 11.4117 48.6802 11.3786 48.5858C11.3454 48.4913 11.332 48.3911 11.3392 48.2913L12.5779 30.2673C12.5856 30.1628 12.6324 30.065 12.7089 29.9938C12.7853 29.9226 12.8857 29.8831 12.9898 29.8833H18.6701C18.7666 29.8831 18.8596 29.9198 18.9303 29.9859C19.001 30.052 19.0443 30.1427 19.0513 30.2397L20.3822 48.9457C20.3839 48.9628 20.3819 48.9801 20.3764 48.9964C20.3708 49.0128 20.3618 49.0278 20.35 49.0405C20.3381 49.0533 20.3236 49.0635 20.3074 49.0704C20.2913 49.0774 20.2738 49.0809 20.2562 49.0809L16.6783 49.0839C16.5758 49.0839 16.5215 49.0327 16.5154 48.9303L16.3924 46.7C16.3863 46.5996 16.333 46.5495 16.2326 46.5495ZM15.5164 34.1627C15.4406 37.0382 15.3668 39.8646 15.2951 42.6418C15.2922 42.7451 15.3201 42.847 15.3752 42.9345C15.4303 43.0219 15.5101 43.0911 15.6046 43.1332C15.6991 43.1754 15.8039 43.1885 15.9059 43.171C16.0078 43.1535 16.1023 43.1062 16.1773 43.035C16.5799 42.654 16.1004 34.728 16.0543 33.5668C16.0531 33.5208 16.0364 33.4769 16.007 33.4418C15.9777 33.4067 15.9372 33.3825 15.8921 33.3729C15.847 33.3634 15.7998 33.3692 15.7579 33.3893C15.716 33.4093 15.6819 33.4426 15.6609 33.4838C15.5728 33.664 15.5246 33.8903 15.5164 34.1627Z" fill="#FF73C6"/>
<path d="M25.0359 45.594C25.6323 45.677 27.3874 45.2745 27.4089 46.1624C27.4294 47.0267 27.4396 47.8746 27.4396 48.7061C27.4396 48.8063 27.3998 48.9024 27.3289 48.9733C27.258 49.0441 27.1618 49.0839 27.0616 49.0839H21.4919C21.3565 49.0839 21.2268 49.0305 21.1311 48.9355C21.0354 48.8404 20.9816 48.7115 20.9816 48.577V30.1905C20.9816 30.109 21.014 30.0309 21.0717 29.9733C21.1293 29.9157 21.2075 29.8833 21.289 29.8833H24.4765C24.5483 29.8833 24.6171 29.9118 24.6678 29.9625C24.7185 30.0132 24.747 30.0819 24.747 30.1536V45.2622C24.747 45.4568 24.8433 45.5674 25.0359 45.594Z" fill="#FF73C6"/>
<path d="M28.829 49.044C28.122 49.0102 28.0821 48.7122 28.122 48.0855C28.5093 42.142 28.9192 36.1965 29.3515 30.2489C29.3593 30.1492 29.4041 30.0562 29.4771 29.9884C29.5501 29.9206 29.6458 29.8831 29.745 29.8833H35.5206C35.5925 29.8831 35.6618 29.9104 35.7143 29.9595C35.7669 30.0085 35.7987 30.0758 35.8034 30.1475L37.1344 48.875C37.1365 48.9017 37.1331 48.9285 37.1243 48.9538C37.1155 48.9791 37.1016 49.0023 37.0834 49.0219C37.0652 49.0416 37.0431 49.0572 37.0185 49.0679C36.994 49.0786 36.9675 49.084 36.9407 49.0839H33.4059C33.287 49.0839 33.2266 49.0245 33.2245 48.9058L33.1876 46.7338C33.1856 46.6109 33.1231 46.5495 33.0001 46.5495H32.1302C31.9807 46.5495 31.9059 46.6242 31.9059 46.7737L31.9243 48.9211C31.9243 48.9678 31.9059 49.0127 31.8732 49.046C31.8404 49.0794 31.7959 49.0985 31.7491 49.0993C30.7798 49.1116 29.8065 49.0932 28.829 49.044ZM32.2686 34.1627C32.1948 37.0321 32.1241 39.8666 32.0565 42.6663C32.0545 42.7818 32.0879 42.9012 32.1512 43.0049C32.2144 43.1085 32.3038 43.1902 32.4045 43.2364C32.5052 43.2826 32.6112 43.2906 32.7049 43.259C32.7987 43.2274 32.8746 43.1581 32.9202 43.0626C32.9448 43.0073 32.9725 42.9653 33.0032 42.9367C33.0893 42.8547 33.1302 42.7534 33.1262 42.6325L32.8157 33.5821C32.814 33.5341 32.7963 33.488 32.7654 33.4512C32.7344 33.4144 32.692 33.389 32.645 33.3791C32.5979 33.3692 32.5489 33.3754 32.5057 33.3966C32.4626 33.4178 32.4278 33.4528 32.4069 33.4961C32.3229 33.6743 32.2768 33.8965 32.2686 34.1627Z" fill="#FF73C6"/>
<path d="M41.496 33.8279L41.5114 37.3239C41.5114 37.4282 41.5529 37.5283 41.6266 37.602C41.7004 37.6757 41.8005 37.7172 41.9049 37.7172H43.7952C43.8996 37.7172 43.9997 37.7586 44.0734 37.8323C44.1472 37.9061 44.1887 38.0061 44.1887 38.1104V40.8415C44.1887 40.9442 44.1485 41.0428 44.0767 41.1163C44.0049 41.1898 43.9072 41.2323 43.8044 41.2347L41.8833 41.2839C41.7806 41.2863 41.6829 41.3288 41.6111 41.4023C41.5393 41.4757 41.4991 41.5744 41.4991 41.6771V48.6907C41.4991 48.795 41.4577 48.895 41.3839 48.9688C41.3101 49.0425 41.21 49.0839 41.1057 49.0839H38.1241C38.0198 49.0839 37.9197 49.0425 37.8459 48.9688C37.7721 48.895 37.7307 48.795 37.7307 48.6907L37.7399 30.2765C37.7399 30.1722 37.7813 30.0722 37.8551 29.9985C37.9289 29.9247 38.029 29.8833 38.1333 29.8833H43.7952C43.8996 29.8833 43.9997 29.9247 44.0734 29.9985C44.1472 30.0722 44.1887 30.1722 44.1887 30.2765V33.0138C44.1887 33.117 44.1481 33.2161 44.0756 33.2897C44.0032 33.3632 43.9046 33.4054 43.8014 33.407L41.8864 33.4316C41.8347 33.432 41.7837 33.4425 41.7361 33.4627C41.6885 33.4828 41.6454 33.5121 41.6091 33.5489C41.5729 33.5857 41.5442 33.6293 41.5248 33.6772C41.5054 33.725 41.4956 33.7762 41.496 33.8279Z" fill="#FF73C6"/>
<path d="M48.8608 45.6094L50.8987 45.6371C50.9748 45.6379 51.0475 45.6686 51.101 45.7227C51.1546 45.7768 51.1846 45.8498 51.1846 45.9258L51.1753 48.7952C51.1753 48.8331 51.1679 48.8706 51.1534 48.9057C51.1388 48.9407 51.1175 48.9725 51.0907 48.9994C51.0639 49.0262 51.032 49.0475 50.997 49.062C50.9619 49.0765 50.9244 49.0839 50.8864 49.0839H45.0923C45.0157 49.0839 44.9422 49.0535 44.888 48.9994C44.8339 48.9452 44.8034 48.8718 44.8034 48.7952V30.1721C44.8034 30.0955 44.8339 30.022 44.888 29.9679C44.9422 29.9137 45.0157 29.8833 45.0923 29.8833H50.8926C50.9692 29.8833 51.0427 29.9137 51.0969 29.9679C51.1511 30.022 51.1815 30.0955 51.1815 30.1721V33.109C51.1815 33.1845 51.1519 33.2571 51.0991 33.3111C51.0462 33.365 50.9743 33.3962 50.8987 33.3978L48.8516 33.4408C48.776 33.4424 48.7041 33.4735 48.6512 33.5275C48.5984 33.5815 48.5688 33.654 48.5688 33.7296V37.413C48.5687 37.488 48.5979 37.5601 48.6501 37.614C48.7023 37.6679 48.7735 37.6994 48.8485 37.7018L50.9018 37.7663C50.9768 37.7687 51.0479 37.8002 51.1002 37.8541C51.1524 37.908 51.1815 37.9801 51.1815 38.0551V40.9675C51.1816 41.042 51.1528 41.1136 51.1013 41.1674C51.0497 41.2212 50.9793 41.2531 50.9049 41.2562L48.8454 41.3392C48.771 41.3423 48.7006 41.3742 48.649 41.428C48.5975 41.4818 48.5687 41.5534 48.5688 41.6279L48.5749 45.3206C48.5749 45.3967 48.6049 45.4697 48.6585 45.5237C48.712 45.5778 48.7847 45.6086 48.8608 45.6094Z" fill="#FF73C6"/>
<path d="M61.4264 36.8078C61.2461 36.7709 61.1611 36.8437 61.1713 37.0259C61.4049 40.989 61.6529 44.9356 61.9152 48.8658C61.9254 49.0112 61.8568 49.0839 61.7092 49.0839H58.6846C58.5493 49.0839 58.4195 49.0305 58.3238 48.9355C58.2281 48.8404 58.1744 48.7115 58.1744 48.577V30.1905C58.1744 30.109 58.2068 30.0309 58.2644 29.9733C58.3221 29.9157 58.4002 29.8833 58.4818 29.8833H62.324C62.4264 29.8833 62.4848 29.9335 62.4992 30.0338L64.2636 41.9997C64.2724 42.0608 64.2996 42.1175 64.3414 42.1621C64.3833 42.2067 64.4377 42.2369 64.4971 42.2485C64.5525 42.2608 64.6447 42.098 64.6416 42.0243C64.406 38.0141 64.1724 34.0061 63.9408 30C63.94 29.9854 63.9421 29.9708 63.9471 29.957C63.9522 29.9432 63.96 29.9307 63.9701 29.92C63.9801 29.9094 63.9923 29.9009 64.0057 29.8951C64.0192 29.8893 64.0337 29.8864 64.0484 29.8864L67.4633 29.8833C67.6109 29.8833 67.6846 29.957 67.6846 30.1045L67.7123 48.9549C67.7123 48.9891 67.6987 49.022 67.6745 49.0462C67.6503 49.0704 67.6175 49.0839 67.5832 49.0839H63.4152C63.3189 49.0839 63.2646 49.0368 63.2523 48.9426L61.574 36.9614C61.5617 36.8754 61.5125 36.8242 61.4264 36.8078Z" fill="#FF73C6"/>
<path d="M54.4121 45.3974C53.536 45.3667 51.8301 45.4128 51.8823 44.3222C52.1139 39.7407 52.3383 35.1919 52.5555 30.6759C52.5602 30.575 52.5849 30.476 52.6282 30.3848C52.6716 30.2935 52.7326 30.2118 52.8078 30.1443C52.8831 30.0768 52.971 30.025 53.0664 29.9918C53.1619 29.9586 53.263 29.9447 53.3639 29.9509C54.4438 30.0185 55.5463 30.1291 56.6713 30.2827C57.3383 30.3718 57.4981 30.7097 57.409 31.3426C56.7799 35.7234 56.1364 40.1001 55.4786 44.4727C55.3711 45.1732 55.1682 45.4251 54.4121 45.3974Z" fill="#FF73C6"/>
<path d="M15.5164 34.1627C15.5246 33.8903 15.5728 33.664 15.6609 33.4837C15.6819 33.4425 15.716 33.4093 15.7579 33.3892C15.7998 33.3691 15.847 33.3634 15.8921 33.3729C15.9373 33.3824 15.9777 33.4066 16.0071 33.4417C16.0364 33.4768 16.0531 33.5208 16.0543 33.5667C16.1004 34.7279 16.58 42.654 16.1773 43.0349C16.1023 43.1061 16.0078 43.1535 15.9059 43.1709C15.8039 43.1884 15.6991 43.1753 15.6046 43.1332C15.5102 43.0911 15.4303 43.0219 15.3752 42.9344C15.3201 42.8469 15.2922 42.745 15.2951 42.6417C15.3668 39.8645 15.4406 37.0382 15.5164 34.1627Z" fill="#0000F5"/>
<path d="M32.2686 34.1627C32.2768 33.8965 32.3229 33.6743 32.4069 33.4961C32.4278 33.4528 32.4626 33.4178 32.5057 33.3966C32.5489 33.3754 32.5979 33.3692 32.645 33.3791C32.692 33.389 32.7344 33.4144 32.7654 33.4512C32.7963 33.488 32.814 33.5341 32.8157 33.5821L33.1262 42.6325C33.1302 42.7534 33.0893 42.8547 33.0032 42.9367C32.9725 42.9653 32.9448 43.0073 32.9202 43.0626C32.8746 43.1581 32.7987 43.2274 32.7049 43.259C32.6112 43.2906 32.5052 43.2826 32.4045 43.2364C32.3038 43.1902 32.2144 43.1085 32.1512 43.0049C32.0879 42.9012 32.0545 42.7818 32.0565 42.6663C32.1241 39.8666 32.1948 37.0321 32.2686 34.1627Z" fill="#0000F5"/>
<path d="M53.5822 49.0902C54.4208 49.0902 55.1006 48.4107 55.1006 47.5726C55.1006 46.7344 54.4208 46.0549 53.5822 46.0549C52.7436 46.0549 52.0637 46.7344 52.0637 47.5726C52.0637 48.4107 52.7436 49.0902 53.5822 49.0902Z" fill="#FF73C6"/>
</svg>
