<svg width="27" height="24" viewBox="0 0 27 24" fill="none" xmlns="http://www.w3.org/2000/svg">
<path d="M12.6627 20.8264V23.9585C12.6627 23.9695 12.6583 23.9801 12.6504 23.9879C12.6426 23.9956 12.6319 24 12.6208 24H8.48076C8.46194 24 8.44334 23.9962 8.42606 23.989C8.40879 23.9817 8.39319 23.9711 8.38021 23.9577L7.8272 23.3844C7.80709 23.3639 7.79815 23.3396 7.80038 23.3113C8.26039 15.9693 8.80251 8.63058 9.32871 1.29268C9.36892 0.732629 9.31781 0.00166103 9.9479 0.00166103C12.2443 0.00110789 14.541 0.000553136 16.8379 0C17.4211 0 17.4764 0.173409 17.5149 0.685336C18.1081 8.43421 18.6698 16.1903 19.1999 23.9535C19.2004 23.9595 19.1996 23.9654 19.1976 23.9711C19.1955 23.9767 19.1923 23.9818 19.1882 23.9862C19.184 23.9906 19.1789 23.994 19.1733 23.9964C19.1677 23.9988 19.1616 24 19.1555 24H14.3711C14.3231 24 14.2982 23.9762 14.2966 23.9286L14.16 20.8305C14.1583 20.8001 14.1421 20.7849 14.1114 20.7849H12.7046C12.6766 20.7849 12.6627 20.7987 12.6627 20.8264ZM13.0372 16.4514C13.4972 16.8115 14.1751 16.5003 14.1558 15.9311C14.0257 12.1328 13.8949 8.33382 13.7637 4.53433C13.7632 4.5201 13.7572 4.50659 13.7469 4.49668C13.7366 4.48676 13.7227 4.48122 13.7084 4.48123H13.1889C13.1621 4.48123 13.1484 4.4945 13.1478 4.52106C13.0316 8.05614 12.9185 11.5915 12.8085 15.1272C12.7951 15.5379 12.6593 16.156 13.0372 16.4514Z" fill="#7C7C7C"/>
</svg>
