<svg width="1620" height="1033" viewBox="0 0 1620 1033" fill="none" xmlns="http://www.w3.org/2000/svg">
<path d="M1774.11 578.686L-150.626 378.286L-156.353 453.351L1768.39 653.75L1774.11 578.686Z" fill="#FFE42C"/>
<path d="M341.981 472.996C341.577 474.183 340.853 475.041 340.13 475.898C339.406 476.756 338.296 477.481 337.186 478.207C336.143 478.735 334.906 479.197 333.477 479.593C332.115 479.792 330.753 479.99 329.332 479.727C327.264 479.464 325.457 479.069 324.045 478.146C322.566 477.422 321.221 476.301 320.138 475.049C319.054 473.797 318.425 472.478 317.93 470.764C317.561 469.313 317.327 467.467 317.673 465.819C317.825 464.104 318.297 462.719 319.029 461.203C319.762 459.686 320.814 458.499 321.991 457.575C323.236 456.454 324.54 455.794 326.23 455.266C327.921 454.737 329.669 454.671 331.611 454.67C333.486 454.867 335.1 455.196 336.386 455.855C337.672 456.514 338.958 457.173 339.722 458.095C340.68 459.084 341.444 460.007 341.88 461.26C342.384 462.314 342.627 463.501 342.803 464.886L339.44 464.623C339.323 463.7 339.138 462.975 338.761 462.184C338.383 461.393 337.938 460.8 337.299 460.14C336.661 459.481 335.955 459.02 334.988 458.691C334.022 458.361 333.055 458.032 331.828 457.835C330.34 457.769 328.852 457.704 327.615 458.166C326.379 458.628 325.336 459.156 324.419 459.948C323.502 460.739 322.711 461.795 322.114 462.916C321.516 464.037 321.112 465.224 321.094 466.543C320.883 467.796 321.058 469.18 321.301 470.367C321.544 471.554 322.241 472.674 323.006 473.597C323.77 474.52 324.795 475.311 325.82 476.102C327.106 476.76 328.459 477.222 329.948 477.287C330.788 477.352 331.629 477.418 332.537 477.286C333.445 477.154 334.227 476.758 334.942 476.56C335.724 476.164 336.313 475.702 336.969 475.042C337.558 474.58 338.021 473.855 338.291 473.064L341.981 472.996Z" fill="#9A28CD"/>
<path d="M352.476 482.091C351.248 481.894 350.021 481.697 349.122 481.17C348.223 480.642 347.391 479.917 346.559 479.192C345.988 478.335 345.417 477.479 345.106 476.49C344.796 475.501 344.746 474.38 344.89 473.325C345.034 472.27 345.371 471.28 345.901 470.357C346.431 469.434 347.155 468.576 347.811 467.917C348.661 467.323 349.51 466.729 350.679 466.465C351.848 466.201 352.949 466.135 354.244 466.134C355.471 466.331 356.699 466.529 357.791 467.122C358.69 467.649 359.522 468.374 360.354 469.099C361.186 469.824 361.496 470.813 361.807 471.801C362.117 472.79 362.167 473.911 362.023 474.966C361.879 476.021 361.542 477.011 361.012 477.934C360.482 478.857 359.758 479.715 358.908 480.308C358.059 480.902 357.209 481.496 356.041 481.76C354.872 482.024 353.77 482.091 352.476 482.091ZM352.772 479.322C353.613 479.387 354.26 479.387 354.975 479.189C355.689 478.991 356.278 478.529 356.8 478.265C357.388 477.803 357.784 477.276 357.986 476.682C358.382 476.155 358.458 475.297 358.66 474.704C358.736 473.847 358.745 473.187 358.561 472.462C358.376 471.737 358.125 471.21 357.679 470.616C357.234 470.023 356.722 469.628 356.016 469.166C355.31 468.705 354.73 468.507 353.889 468.442C353.049 468.376 352.401 468.377 351.686 468.575C350.972 468.773 350.383 469.234 349.861 469.498C349.273 469.96 348.877 470.488 348.675 471.081C348.279 471.609 348.203 472.466 348.001 473.06C347.925 473.917 347.916 474.576 348.1 475.302C348.285 476.027 348.536 476.554 348.982 477.147C349.427 477.741 349.939 478.136 350.452 478.531C351.158 478.993 351.931 479.256 352.772 479.322Z" fill="#9A28CD"/>
<path d="M376.696 471.796L370.777 483.469L368.709 483.206L364.265 467.119L367.627 467.381L370.453 478.721L375.774 468.169L378.876 468.564L381.701 479.904L387.022 469.352L390.384 469.614L382.353 484.321L380.285 484.058L376.696 471.796Z" fill="#9A28CD"/>
<path d="M397.536 486.623C396.309 486.426 395.082 486.229 394.182 485.702C393.283 485.175 392.451 484.45 391.62 483.725C391.048 482.868 390.477 482.011 390.167 481.022C389.857 480.033 389.807 478.912 389.951 477.857C390.094 476.802 390.431 475.813 390.962 474.889C391.492 473.966 392.216 473.109 392.872 472.449C393.721 471.855 394.571 471.261 395.74 470.997C396.908 470.733 398.01 470.667 399.305 470.666C400.532 470.863 401.759 471.061 402.852 471.654C403.751 472.181 404.583 472.906 405.415 473.631C405.986 474.488 406.557 475.345 406.867 476.334C407.177 477.323 407.227 478.443 407.083 479.499C406.94 480.554 406.603 481.543 406.072 482.466C405.542 483.389 404.819 484.247 403.969 484.841C403.119 485.434 402.27 486.028 401.101 486.292C399.865 486.754 398.763 486.821 397.536 486.623ZM397.765 484.052C398.606 484.117 399.253 484.117 399.968 483.919C400.683 483.721 401.271 483.259 401.793 482.995C402.382 482.534 402.777 482.006 402.979 481.412C403.375 480.885 403.451 480.027 403.653 479.434C403.73 478.577 403.738 477.917 403.554 477.192C403.37 476.467 403.118 475.939 402.673 475.346C402.227 474.753 401.715 474.358 401.009 473.896C400.303 473.435 399.723 473.238 398.882 473.172C398.042 473.106 397.394 473.107 396.68 473.305C395.965 473.503 395.376 473.965 394.855 474.228C394.266 474.69 393.87 475.218 393.668 475.811C393.273 476.339 393.196 477.196 392.994 477.79C392.918 478.647 392.909 479.306 393.093 480.032C393.278 480.757 393.53 481.284 393.975 481.878C394.42 482.471 394.933 482.866 395.445 483.262C396.151 483.723 396.924 483.986 397.765 484.052Z" fill="#9A28CD"/>
<path d="M421.697 475.866C421.311 475.735 421.117 475.669 420.924 475.603C420.731 475.537 420.537 475.471 420.083 475.537C418.209 475.34 416.972 475.802 415.795 476.726C414.81 477.715 414.078 479.232 413.925 480.947L413.122 487.738L410.02 487.344L411.847 471.848L414.949 472.242L414.585 475.21C415.115 474.286 416.032 473.495 417.008 473.165C418.051 472.637 419.152 472.57 420.254 472.504C420.901 472.504 421.288 472.636 421.868 472.833L421.697 475.866Z" fill="#9A28CD"/>
<path d="M430.42 481.929L436.846 490.3L432.903 489.84L426.922 482.062L426.051 489.052L422.949 488.657L425.665 464.853L428.767 465.248L426.94 480.743L434.469 474.476L438.412 474.937L430.42 481.929Z" fill="#9A28CD"/>
<path d="M441.593 469.396C441.602 468.737 441.998 468.209 442.587 467.747C443.175 467.285 443.629 467.219 444.47 467.285C445.118 467.285 445.63 467.68 446.143 468.075C446.588 468.669 446.84 469.196 446.637 469.79C446.629 470.449 446.233 470.977 445.644 471.439C445.055 471.9 444.408 471.901 443.761 471.901C443.113 471.901 442.601 471.506 442.088 471.11C441.643 470.517 441.584 470.055 441.593 469.396ZM441.968 475.264L445.07 475.659L443.243 491.154L440.141 490.76L441.968 475.264Z" fill="#9A28CD"/>
<path d="M450.5 476.184L453.602 476.579L453.306 479.348C453.836 478.425 454.686 477.831 455.729 477.303C456.772 476.775 457.873 476.709 459.361 476.774C460.395 476.906 461.362 477.235 462.328 477.565C463.034 478.026 463.74 478.487 464.118 479.278C464.563 479.871 464.748 480.597 464.932 481.322C465.116 482.047 465.04 482.904 464.896 483.959L463.932 493.125L460.83 492.73L461.718 484.422C461.727 483.763 461.736 483.103 461.745 482.444C461.754 481.785 461.502 481.257 461.25 480.73C460.998 480.202 460.679 479.873 460.166 479.477C459.654 479.082 459.074 478.884 458.233 478.819C457.392 478.753 456.745 478.754 456.224 479.018C455.702 479.281 455.181 479.545 454.592 480.007C454.196 480.535 453.801 481.062 453.599 481.656C453.397 482.249 453.194 482.843 453.118 483.7L452.171 491.547L449.069 491.153L450.5 476.184Z" fill="#9A28CD"/>
<path d="M484.41 496.348C484.131 497.798 483.988 498.854 483.457 499.777C482.927 500.7 482.271 501.36 481.421 501.954C480.572 502.547 479.596 502.877 478.495 502.944C477.393 503.01 476.292 503.076 474.804 503.011C473.383 502.748 472.349 502.616 471.257 502.023C470.358 501.496 469.458 500.969 468.82 500.31C468.181 499.651 467.804 498.86 467.493 497.871C467.116 497.08 467.192 496.223 467.268 495.366L470.37 495.76C470.361 496.419 470.42 496.881 470.672 497.408C470.923 497.936 470.982 498.397 471.495 498.792C471.814 499.122 472.326 499.518 472.839 499.913C473.419 500.111 474.192 500.374 475.033 500.44C476.714 500.571 478.076 500.372 479.187 499.647C480.297 498.921 480.895 497.8 481.114 495.887L481.487 492.261C480.957 493.184 480.107 493.778 478.871 494.24C477.828 494.768 476.727 494.834 475.499 494.637C474.272 494.44 473.045 494.242 472.145 493.715C471.246 493.188 470.414 492.463 469.843 491.606C469.272 490.749 468.701 489.892 468.391 488.903C468.08 487.914 468.031 486.793 468.174 485.738C468.318 484.683 468.655 483.694 469.185 482.771C469.716 481.848 470.439 480.99 471.096 480.33C471.945 479.737 472.795 479.143 473.963 478.879C474.939 478.549 476.234 478.548 477.528 478.548C478.756 478.745 479.722 479.074 480.815 479.667C481.907 480.26 482.478 481.117 482.982 482.172L483.211 479.6L486.313 479.995L484.41 496.348ZM477.493 481.185C476.652 481.12 476.005 481.12 475.29 481.318C474.575 481.516 473.987 481.978 473.465 482.242C472.876 482.703 472.481 483.231 472.279 483.825C471.883 484.352 471.807 485.21 471.605 485.803C471.402 486.397 471.519 487.32 471.704 488.045C471.888 488.77 472.14 489.297 472.585 489.891C473.03 490.484 473.543 490.879 474.056 491.275C474.568 491.67 475.341 491.934 476.182 491.999C477.023 492.065 477.67 492.065 478.452 491.669C479.167 491.471 479.756 491.009 480.277 490.745C480.866 490.283 481.262 489.755 481.464 489.162C481.859 488.634 481.936 487.777 482.138 487.184C482.214 486.326 482.223 485.667 482.039 484.942C481.854 484.216 481.602 483.689 481.157 483.096C480.712 482.503 480.199 482.107 479.494 481.646C479.107 481.514 478.334 481.251 477.493 481.185Z" fill="#9A28CD"/>
<path d="M523.052 491.848C522.648 493.035 521.924 493.892 521.201 494.75C520.477 495.607 519.367 496.333 518.256 497.059C517.213 497.587 515.977 498.049 514.548 498.445C513.186 498.643 511.824 498.842 510.403 498.578C508.335 498.315 506.528 497.92 505.116 496.998C503.637 496.273 502.292 495.153 501.209 493.9C500.125 492.648 499.495 491.33 499.001 489.616C498.632 488.165 498.398 486.319 498.743 484.67C498.896 482.956 499.368 481.571 500.1 480.054C500.833 478.537 501.885 477.35 503.062 476.427C504.307 475.305 505.611 474.645 507.301 474.117C508.991 473.589 510.74 473.522 512.682 473.522C514.557 473.719 516.171 474.048 517.457 474.707C518.742 475.365 520.028 476.024 520.793 476.947C521.75 477.936 522.515 478.859 522.951 480.111C523.455 481.166 523.698 482.353 523.873 483.737L520.511 483.475C520.394 482.552 520.209 481.827 519.831 481.035C519.454 480.244 519.008 479.651 518.37 478.992C517.731 478.333 517.026 477.872 516.059 477.542C515.092 477.213 514.126 476.884 512.898 476.686C511.41 476.621 509.922 476.556 508.686 477.018C507.45 477.48 506.407 478.008 505.49 478.799C504.573 479.591 503.782 480.646 503.184 481.767C502.587 482.889 502.182 484.076 502.165 485.394C501.954 486.647 502.129 488.032 502.372 489.219C502.615 490.405 503.312 491.526 504.077 492.449C504.841 493.372 505.866 494.162 506.891 494.953C508.177 495.612 509.53 496.073 511.018 496.138C511.859 496.204 512.7 496.27 513.608 496.137C514.516 496.005 515.298 495.609 516.013 495.411C516.795 495.015 517.384 494.553 518.04 493.894C518.629 493.432 519.092 492.707 519.361 491.915L523.052 491.848Z" fill="#9A28CD"/>
<path d="M543.848 485.905L542.021 501.401L538.919 501.007L539.215 498.237C538.685 499.161 537.835 499.755 536.599 500.217C535.556 500.744 534.455 500.811 533.228 500.614C532 500.416 530.773 500.219 529.874 499.692C528.975 499.165 528.143 498.44 527.572 497.583C527.001 496.726 526.429 495.869 526.119 494.88C525.809 493.891 525.759 492.77 525.903 491.715C526.046 490.66 526.383 489.671 526.914 488.747C527.444 487.824 528.168 486.967 528.824 486.307C529.673 485.713 530.523 485.12 531.692 484.855C532.667 484.525 533.962 484.525 535.257 484.524C536.484 484.722 537.451 485.051 538.543 485.644C539.636 486.237 540.207 487.094 540.71 488.149L540.939 485.577L543.848 485.905ZM533.843 498.174C534.684 498.239 535.331 498.239 536.046 498.041C536.761 497.843 537.349 497.381 537.871 497.117C538.46 496.655 538.855 496.128 539.057 495.534C539.453 495.006 539.529 494.149 539.731 493.556C539.808 492.699 539.817 492.039 539.632 491.314C539.448 490.589 539.196 490.061 538.751 489.468C538.305 488.875 537.793 488.479 537.087 488.018C536.381 487.557 535.801 487.359 534.96 487.294C534.12 487.228 533.472 487.228 532.758 487.426C532.043 487.625 531.454 488.086 530.933 488.35C530.344 488.812 529.948 489.34 529.746 489.933C529.351 490.461 529.274 491.318 529.072 491.912C528.996 492.769 528.987 493.428 529.171 494.153C529.356 494.879 529.608 495.406 530.053 495.999C530.498 496.592 531.011 496.988 531.523 497.383C532.229 497.845 533.002 498.108 533.843 498.174Z" fill="#9A28CD"/>
<path d="M559.119 481.614C558.925 481.549 558.539 481.417 558.345 481.351C558.152 481.285 557.765 481.153 557.311 481.22C556.925 481.088 556.664 481.22 556.277 481.088C555.823 481.154 555.63 481.088 555.302 481.418C555.041 481.55 554.713 481.88 554.578 482.276C554.443 482.671 554.241 483.265 554.232 483.924L553.869 486.891L558.459 487.351L558.23 489.923L553.64 489.463L552.235 502.453L549.133 502.059L550.538 489.069L546.982 488.74L547.211 486.169L550.767 486.497L551.063 483.728C551.341 482.277 551.485 481.222 551.948 480.496C552.411 479.771 553 479.309 553.589 478.847C554.11 478.583 554.825 478.385 555.472 478.385C556.119 478.385 556.767 478.385 557.153 478.516C557.607 478.45 557.994 478.582 558.381 478.713C558.767 478.845 558.961 478.911 559.347 479.043L559.119 481.614Z" fill="#9A28CD"/>
<path d="M562.093 496.317C562.084 496.976 562.075 497.636 562.327 498.163C562.511 498.888 562.763 499.416 563.082 499.745C563.334 500.273 563.847 500.668 564.427 500.866C564.939 501.261 565.78 501.327 566.621 501.392C567.848 501.59 568.756 501.457 569.345 500.996C569.934 500.534 570.523 500.072 570.986 499.346L574.088 499.741C573.885 500.334 573.49 500.862 573.027 501.588C572.631 502.115 572.043 502.577 571.26 502.973C570.672 503.435 569.764 503.567 569.049 503.765C568.141 503.897 567.233 504.029 566.199 503.898C564.971 503.701 563.744 503.503 562.651 502.91C561.752 502.383 560.92 501.658 560.282 500.999C559.711 500.142 559.333 499.351 559.023 498.362C558.712 497.373 558.663 496.252 558.806 495.197C558.95 494.142 559.161 492.889 559.691 491.966C560.222 491.043 560.752 490.119 561.602 489.526C562.258 488.866 563.301 488.338 564.276 488.008C565.252 487.678 566.353 487.612 567.841 487.677C568.875 487.808 569.842 488.138 570.808 488.467C571.707 488.994 572.413 489.455 573.052 490.115C573.69 490.774 574.068 491.565 574.378 492.554C574.689 493.543 574.806 494.466 574.73 495.323C574.662 495.521 574.595 495.719 574.653 496.18C574.519 496.576 574.451 496.774 574.51 497.235L562.093 496.317ZM567.612 490.249C566.192 489.985 564.955 490.447 564.106 491.041C563.189 491.833 562.659 492.756 562.38 494.207L571.754 495.192C571.965 493.939 571.528 492.687 570.764 491.764C570 490.841 568.907 490.248 567.612 490.249Z" fill="#9A28CD"/>
<path d="M586.528 503.758C586.537 503.099 586.932 502.571 587.521 502.11C588.11 501.648 588.564 501.582 589.404 501.647C590.052 501.647 590.564 502.042 591.077 502.438C591.522 503.031 591.774 503.558 591.572 504.152C591.563 504.811 591.167 505.339 590.579 505.801C589.99 506.263 589.342 506.263 588.695 506.263C588.048 506.263 587.535 505.868 587.023 505.472C586.771 504.945 586.519 504.418 586.528 503.758Z" fill="#9A28CD"/>
<path d="M638.316 503.737C637.912 504.924 637.188 505.782 636.465 506.639C635.741 507.497 634.631 508.223 633.521 508.948C632.478 509.476 631.241 509.938 629.812 510.334C628.45 510.533 627.088 510.731 625.667 510.468C623.599 510.205 621.792 509.81 620.38 508.888C618.901 508.163 617.556 507.042 616.473 505.79C615.389 504.538 614.76 503.219 614.265 501.505C613.896 500.055 613.662 498.208 614.008 496.56C614.16 494.846 614.632 493.461 615.364 491.944C616.097 490.427 617.149 489.24 618.326 488.316C619.571 487.195 620.875 486.535 622.565 486.007C624.255 485.479 626.004 485.412 627.946 485.411C629.821 485.608 631.435 485.937 632.721 486.596C634.007 487.255 635.293 487.914 636.057 488.837C637.015 489.825 637.779 490.748 638.215 492.001C638.719 493.056 638.962 494.242 639.138 495.627L635.775 495.365C635.658 494.441 635.473 493.716 635.096 492.925C634.718 492.134 634.273 491.541 633.634 490.882C632.996 490.223 632.29 489.761 631.323 489.432C630.357 489.103 629.39 488.773 628.163 488.576C626.675 488.511 625.187 488.445 623.95 488.907C622.714 489.369 621.671 489.897 620.754 490.689C619.837 491.481 619.046 492.536 618.449 493.657C617.851 494.778 617.447 495.965 617.429 497.284C617.218 498.537 617.393 499.921 617.636 501.108C617.879 502.295 618.576 503.416 619.341 504.338C620.105 505.261 621.13 506.052 622.155 506.843C623.441 507.502 624.794 507.963 626.283 508.028C627.123 508.094 627.964 508.159 628.872 508.027C629.78 507.895 630.562 507.499 631.277 507.301C632.059 506.905 632.648 506.443 633.304 505.783C633.893 505.322 634.356 504.596 634.626 503.805L638.316 503.737Z" fill="#9A28CD"/>
<path d="M648.618 512.766C647.39 512.569 646.163 512.371 645.264 511.844C644.365 511.317 643.533 510.592 642.701 509.867C642.13 509.01 641.559 508.153 641.248 507.164C640.938 506.176 640.888 505.055 641.032 504C641.176 502.944 641.513 501.955 642.043 501.032C642.573 500.109 643.297 499.251 643.953 498.592C644.803 497.998 645.652 497.404 646.821 497.14C647.99 496.876 649.091 496.809 650.386 496.809C651.613 497.006 652.841 497.203 653.933 497.796C654.832 498.324 655.664 499.049 656.496 499.773C657.067 500.63 657.638 501.487 657.949 502.476C658.259 503.465 658.309 504.586 658.165 505.641C658.021 506.696 657.684 507.685 657.154 508.609C656.624 509.532 655.9 510.389 655.051 510.983C654.201 511.577 653.351 512.171 652.183 512.435C651.207 512.765 650.106 512.831 648.618 512.766ZM649.107 510.062C649.948 510.128 650.595 510.128 651.31 509.93C652.025 509.732 652.614 509.27 653.135 509.006C653.724 508.544 654.119 508.016 654.322 507.423C654.717 506.895 654.793 506.038 654.996 505.445C655.072 504.587 655.081 503.928 654.896 503.203C654.712 502.478 654.46 501.95 654.015 501.357C653.57 500.764 653.057 500.368 652.351 499.907C651.645 499.446 651.065 499.248 650.225 499.183C649.384 499.117 648.737 499.117 648.022 499.315C647.307 499.513 646.718 499.975 646.197 500.239C645.608 500.701 645.212 501.229 645.01 501.822C644.615 502.35 644.538 503.207 644.336 503.8C644.134 504.394 644.251 505.317 644.436 506.042C644.62 506.767 644.872 507.295 645.317 507.888C645.762 508.481 646.275 508.877 646.787 509.272C647.493 509.733 648.267 509.997 649.107 510.062Z" fill="#9A28CD"/>
<path d="M673.031 502.537L667.112 514.21L665.044 513.947L660.6 497.86L663.962 498.123L666.788 509.463L672.108 498.911L675.21 499.305L678.036 510.645L683.357 500.093L686.719 500.356L678.688 515.063L676.62 514.8L673.031 502.537Z" fill="#9A28CD"/>
<path d="M693.677 517.298C692.449 517.101 691.222 516.904 690.323 516.376C689.424 515.849 688.592 515.124 687.76 514.399C687.189 513.542 686.618 512.686 686.308 511.697C685.997 510.708 685.948 509.587 686.091 508.532C686.235 507.477 686.572 506.488 687.102 505.564C687.632 504.641 688.356 503.783 689.012 503.124C689.862 502.53 690.711 501.936 691.88 501.672C693.049 501.408 694.15 501.342 695.445 501.341C696.672 501.538 697.9 501.736 698.992 502.329C699.892 502.856 700.723 503.581 701.555 504.306C702.126 505.163 702.697 506.02 703.008 507.008C703.318 507.997 703.368 509.118 703.224 510.173C703.08 511.228 702.743 512.218 702.213 513.141C701.683 514.064 700.959 514.922 700.11 515.515C699.26 516.109 698.41 516.703 697.242 516.967C696.199 517.495 695.097 517.561 693.677 517.298ZM694.099 514.793C694.94 514.858 695.587 514.858 696.302 514.66C697.016 514.462 697.605 514 698.127 513.736C698.716 513.274 699.111 512.747 699.313 512.153C699.709 511.625 699.785 510.768 699.987 510.175C700.064 509.317 700.072 508.658 699.888 507.933C699.703 507.208 699.452 506.68 699.006 506.087C698.561 505.494 698.049 505.098 697.343 504.637C696.637 504.176 696.057 503.978 695.216 503.913C694.376 503.847 693.728 503.847 693.014 504.045C692.299 504.243 691.71 504.705 691.189 504.969C690.6 505.431 690.204 505.959 690.002 506.552C689.606 507.08 689.53 507.937 689.328 508.531C689.252 509.388 689.243 510.047 689.427 510.772C689.612 511.498 689.864 512.025 690.309 512.618C690.754 513.211 691.266 513.607 691.779 514.002C692.485 514.463 693.258 514.727 694.099 514.793Z" fill="#9A28CD"/>
<path d="M718.032 506.607C717.645 506.476 717.452 506.41 717.258 506.344C717.065 506.278 716.872 506.212 716.418 506.278C714.543 506.081 713.307 506.543 712.129 507.467C711.145 508.456 710.412 509.973 710.26 511.688L709.456 518.479L706.354 518.085L708.181 502.589L711.283 502.984L710.92 505.951C711.45 505.028 712.367 504.236 713.342 503.906C714.385 503.378 715.487 503.312 716.588 503.245C717.235 503.245 717.622 503.377 718.202 503.574L718.032 506.607Z" fill="#9A28CD"/>
<path d="M726.755 512.67L733.18 521.041L729.238 520.582L723.257 512.803L722.386 519.793L719.284 519.399L722 495.594L725.102 495.989L723.275 511.485L730.804 505.218L734.746 505.678L726.755 512.67Z" fill="#9A28CD"/>
<path d="M737.996 499.94C738.005 499.281 738.4 498.753 738.989 498.291C739.578 497.829 740.032 497.763 740.873 497.829C741.52 497.829 742.033 498.224 742.545 498.619C742.99 499.213 743.242 499.74 743.04 500.334C743.031 500.993 742.636 501.521 742.047 501.982C741.458 502.444 740.811 502.444 740.163 502.445C739.516 502.445 739.003 502.05 738.491 501.654C737.978 501.259 737.726 500.731 737.996 499.94ZM738.109 505.94L741.211 506.335L739.384 521.83L736.282 521.436L738.109 505.94Z" fill="#9A28CD"/>
<path d="M746.835 506.926L749.937 507.32L749.641 510.09C750.171 509.166 751.02 508.573 752.063 508.045C753.106 507.517 754.208 507.45 755.696 507.516C756.73 507.647 757.696 507.976 758.663 508.306C759.629 508.635 760.075 509.228 760.452 510.019C760.898 510.613 761.082 511.338 761.266 512.063C761.451 512.788 761.375 513.646 761.164 514.898L760.199 524.064L757.097 523.67L757.985 515.361C757.994 514.702 758.003 514.042 758.012 513.383C758.021 512.724 757.769 512.196 757.517 511.669C757.265 511.142 756.946 510.812 756.433 510.417C755.921 510.021 755.341 509.824 754.5 509.758C753.66 509.692 753.012 509.693 752.491 509.957C751.969 510.221 751.448 510.485 750.859 510.946C750.464 511.474 750.068 512.002 749.866 512.595C749.664 513.189 749.461 513.782 749.385 514.639L748.438 522.486L745.336 522.092L746.835 506.926Z" fill="#9A28CD"/>
<path d="M780.55 527.023C780.272 528.473 780.128 529.528 779.598 530.452C779.068 531.375 778.411 532.035 777.562 532.628C776.712 533.222 775.737 533.552 774.635 533.618C773.534 533.685 772.433 533.751 770.945 533.686C769.524 533.423 768.49 533.291 767.397 532.698C766.498 532.171 765.599 531.644 764.961 530.985C764.322 530.326 763.944 529.535 763.634 528.546C763.256 527.755 763.332 526.897 763.409 526.04L766.511 526.435C766.502 527.094 766.56 527.556 766.812 528.083C767.064 528.61 767.123 529.072 767.635 529.467C767.954 529.797 768.467 530.192 768.979 530.588C769.559 530.785 770.333 531.049 771.173 531.114C772.855 531.246 774.217 531.047 775.327 530.321C776.437 529.596 777.035 528.475 777.255 526.562L777.628 522.936C777.097 523.859 776.248 524.453 775.011 524.915C773.969 525.443 772.867 525.509 771.64 525.312C770.413 525.114 769.185 524.917 768.286 524.39C767.387 523.863 766.555 523.138 765.984 522.281C765.413 521.424 764.842 520.567 764.531 519.578C764.221 518.589 764.171 517.468 764.315 516.413C764.459 515.358 764.796 514.369 765.326 513.446C765.856 512.522 766.58 511.665 767.236 511.005C768.086 510.411 768.935 509.818 770.104 509.554C771.08 509.223 772.374 509.223 773.669 509.222C774.896 509.42 775.863 509.749 776.955 510.342C778.048 510.935 778.619 511.792 779.123 512.847L779.352 510.275L782.454 510.67L780.55 527.023ZM773.827 511.926C772.986 511.86 772.339 511.86 771.624 512.058C770.909 512.257 770.32 512.718 769.799 512.982C769.21 513.444 768.815 513.972 768.612 514.565C768.217 515.093 768.141 515.95 767.939 516.544C767.736 517.137 767.853 518.06 768.038 518.785C768.222 519.511 768.474 520.038 768.919 520.631C769.364 521.225 769.877 521.62 770.39 522.015C770.902 522.411 771.675 522.674 772.516 522.74C773.357 522.805 774.004 522.805 774.719 522.607C775.434 522.409 776.022 521.947 776.544 521.683C777.133 521.221 777.528 520.694 777.73 520.1C778.126 519.573 778.202 518.715 778.404 518.122C778.481 517.265 778.49 516.605 778.305 515.88C778.121 515.155 777.869 514.628 777.424 514.034C776.979 513.441 776.466 513.046 775.76 512.584C775.248 512.189 774.668 511.991 773.827 511.926Z" fill="#9A28CD"/>
<path d="M819.387 522.59C818.982 523.777 818.259 524.634 817.535 525.492C816.811 526.349 815.701 527.075 814.591 527.801C813.548 528.329 812.312 528.791 810.882 529.187C809.52 529.385 808.158 529.584 806.737 529.321C804.669 529.058 802.862 528.663 801.45 527.74C799.971 527.015 798.627 525.895 797.543 524.643C796.459 523.39 795.83 522.072 795.335 520.358C794.966 518.907 794.732 517.061 795.078 515.413C795.23 513.698 795.702 512.313 796.435 510.796C797.167 509.28 798.219 508.092 799.397 507.169C800.642 506.047 801.945 505.388 803.636 504.859C805.326 504.331 807.075 504.265 809.017 504.264C810.891 504.461 812.505 504.79 813.791 505.449C815.077 506.108 816.363 506.766 817.127 507.689C818.085 508.678 818.849 509.601 819.286 510.853C819.789 511.908 820.032 513.095 820.208 514.479L816.845 514.217C816.728 513.294 816.544 512.569 816.166 511.778C815.788 510.987 815.343 510.393 814.704 509.734C814.066 509.075 813.36 508.614 812.394 508.285C811.427 507.955 810.46 507.626 809.233 507.429C807.745 507.363 806.257 507.298 805.021 507.76C803.784 508.222 802.742 508.75 801.825 509.542C800.908 510.333 800.117 511.388 799.519 512.51C798.921 513.631 798.517 514.818 798.499 516.136C798.288 517.389 798.464 518.774 798.707 519.961C798.95 521.148 799.647 522.268 800.411 523.191C801.175 524.114 802.201 524.905 803.226 525.695C804.512 526.354 805.865 526.815 807.353 526.881C808.193 526.946 809.034 527.012 809.942 526.88C810.85 526.747 811.632 526.351 812.347 526.153C813.129 525.757 813.718 525.296 814.374 524.636C814.963 524.174 815.426 523.449 815.696 522.657L819.387 522.59Z" fill="#9A28CD"/>
<path d="M840.183 516.647L838.356 532.142L835.254 531.748L835.55 528.979C835.02 529.902 834.17 530.496 832.934 530.958C831.891 531.486 830.79 531.552 829.562 531.355C828.335 531.157 827.108 530.96 826.208 530.433C825.309 529.906 824.477 529.181 823.906 528.324C823.335 527.467 822.764 526.61 822.454 525.621C822.143 524.632 822.094 523.511 822.237 522.456C822.381 521.401 822.718 520.412 823.248 519.489C823.779 518.565 824.502 517.708 825.159 517.048C826.008 516.454 826.858 515.861 828.026 515.597C829.002 515.266 830.297 515.266 831.591 515.265C832.819 515.463 833.785 515.792 834.878 516.385C835.97 516.978 836.541 517.835 837.045 518.89L837.274 516.318L840.183 516.647ZM830.178 528.915C831.018 528.98 831.666 528.98 832.381 528.782C833.095 528.584 833.684 528.122 834.206 527.858C834.794 527.396 835.19 526.869 835.392 526.275C835.788 525.748 835.864 524.89 836.066 524.297C836.142 523.44 836.151 522.78 835.967 522.055C835.782 521.33 835.53 520.803 835.085 520.209C834.64 519.616 834.128 519.221 833.422 518.759C832.716 518.298 832.136 518.1 831.295 518.035C830.455 517.969 829.807 517.97 829.092 518.168C828.378 518.366 827.789 518.827 827.267 519.091C826.679 519.553 826.283 520.081 826.081 520.674C825.685 521.202 825.609 522.059 825.407 522.653C825.331 523.51 825.322 524.169 825.506 524.895C825.691 525.62 825.942 526.147 826.388 526.74C826.833 527.334 827.345 527.729 827.858 528.124C828.564 528.586 829.337 528.849 830.178 528.915Z" fill="#9A28CD"/>
<path d="M855.453 512.355C855.26 512.289 854.873 512.157 854.679 512.091C854.486 512.025 854.1 511.894 853.645 511.96C853.259 511.828 852.998 511.96 852.612 511.828C852.157 511.894 851.964 511.829 851.636 512.158C851.375 512.29 851.047 512.62 850.912 513.016C850.778 513.412 850.575 514.005 850.567 514.664L850.203 517.632L854.793 518.091L854.564 520.663L849.974 520.203L848.569 533.193L845.467 532.799L846.872 519.809L843.316 519.481L843.545 516.909L847.101 517.237L847.397 514.468C847.676 513.017 847.819 511.962 848.282 511.237C848.745 510.511 849.334 510.049 849.923 509.588C850.444 509.324 851.159 509.125 851.806 509.125C852.454 509.125 853.101 509.125 853.488 509.256C853.942 509.19 854.328 509.322 854.715 509.454C855.102 509.585 855.295 509.651 855.682 509.783L855.453 512.355Z" fill="#9A28CD"/>
<path d="M858.427 527.057C858.419 527.717 858.41 528.376 858.662 528.903C858.846 529.629 859.098 530.156 859.417 530.486C859.669 531.013 860.182 531.408 860.762 531.606C861.274 532.001 862.115 532.067 862.955 532.132C864.183 532.33 865.091 532.198 865.68 531.736C866.268 531.274 866.857 530.812 867.32 530.087L870.422 530.481C870.22 531.075 869.825 531.602 869.362 532.328C868.966 532.855 868.377 533.317 867.595 533.713C867.006 534.175 866.098 534.307 865.383 534.505C864.475 534.637 863.567 534.77 862.533 534.638C861.306 534.441 860.079 534.244 858.986 533.651C858.087 533.124 857.255 532.399 856.617 531.739C856.046 530.882 855.668 530.091 855.357 529.102C855.047 528.114 854.997 526.993 855.141 525.938C855.285 524.883 855.689 523.696 856.026 522.706C856.556 521.783 857.087 520.86 857.936 520.266C858.593 519.606 859.635 519.078 860.611 518.748C861.586 518.418 862.688 518.352 864.176 518.417C865.21 518.549 866.176 518.878 867.143 519.207C868.042 519.734 868.748 520.196 869.387 520.855C870.025 521.514 870.403 522.305 870.713 523.294C871.024 524.283 871.141 525.206 871.064 526.063C870.997 526.261 870.93 526.459 870.988 526.92C870.853 527.316 870.786 527.514 870.844 527.975L858.427 527.057ZM863.947 520.989C862.526 520.726 861.29 521.188 860.441 521.781C859.524 522.573 858.993 523.496 858.715 524.947L868.088 525.932C868.299 524.68 867.863 523.427 867.099 522.504C866.334 521.581 865.242 520.988 863.947 520.989Z" fill="#9A28CD"/>
<path d="M882.93 534.3C882.938 533.641 883.334 533.113 883.923 532.652C884.512 532.19 884.966 532.124 885.806 532.189C886.454 532.189 886.966 532.584 887.479 532.98C887.924 533.573 888.176 534.1 887.974 534.694C887.965 535.353 887.569 535.881 886.98 536.343C886.392 536.805 885.744 536.805 885.097 536.805C884.449 536.805 883.937 536.41 883.424 536.014C883.105 535.685 882.921 534.96 882.93 534.3Z" fill="#9A28CD"/>
<path d="M934.651 534.479C934.247 535.666 933.523 536.523 932.799 537.381C932.076 538.238 930.966 538.964 929.855 539.69C928.812 540.217 927.576 540.679 926.147 541.076C924.785 541.274 923.422 541.472 922.002 541.209C919.934 540.946 918.126 540.551 916.715 539.629C915.236 538.904 913.891 537.784 912.808 536.531C911.724 535.279 911.094 533.96 910.599 532.246C910.231 530.796 909.996 528.95 910.342 527.301C910.495 525.587 910.967 524.202 911.699 522.685C912.432 521.168 913.483 519.981 914.661 519.057C915.906 517.936 917.21 517.276 918.9 516.748C920.59 516.22 922.339 516.153 924.281 516.152C926.156 516.35 927.77 516.679 929.056 517.337C930.341 517.996 931.627 518.655 932.392 519.578C933.349 520.567 934.114 521.489 934.55 522.742C935.054 523.797 935.297 524.984 935.472 526.368L932.11 526.106C931.993 525.183 931.808 524.457 931.43 523.666C931.053 522.875 930.607 522.282 929.969 521.623C929.33 520.964 928.625 520.503 927.658 520.173C926.691 519.844 925.725 519.515 924.497 519.317C923.009 519.252 921.521 519.187 920.285 519.649C919.049 520.111 918.006 520.639 917.089 521.43C916.172 522.222 915.381 523.277 914.783 524.398C914.186 525.519 913.781 526.706 913.764 528.025C913.553 529.278 913.728 530.663 913.971 531.849C914.214 533.036 914.911 534.157 915.675 535.08C916.44 536.002 917.465 536.793 918.49 537.584C919.776 538.243 921.129 538.704 922.617 538.769C923.458 538.835 924.299 538.901 925.207 538.768C926.115 538.636 926.897 538.24 927.612 538.042C928.394 537.646 928.983 537.184 929.639 536.525C930.228 536.063 930.691 535.337 930.96 534.546L934.651 534.479Z" fill="#9A28CD"/>
<path d="M945.019 543.309C943.792 543.112 942.564 542.914 941.665 542.387C940.766 541.86 939.934 541.135 939.102 540.41C938.531 539.553 937.96 538.696 937.65 537.707C937.339 536.718 937.29 535.598 937.433 534.542C937.577 533.487 937.914 532.498 938.444 531.575C938.975 530.652 939.698 529.794 940.355 529.135C941.204 528.541 942.054 527.947 943.222 527.683C944.391 527.419 945.493 527.352 946.787 527.352C948.015 527.549 949.242 527.746 950.335 528.339C951.234 528.867 952.066 529.591 952.897 530.316C953.469 531.173 954.04 532.03 954.35 533.019C954.66 534.008 954.71 535.129 954.566 536.184C954.423 537.239 954.086 538.228 953.555 539.152C953.025 540.075 952.301 540.932 951.452 541.526C950.602 542.12 949.753 542.714 948.584 542.978C947.541 543.506 946.246 543.506 945.019 543.309ZM945.248 540.737C946.089 540.803 946.736 540.803 947.451 540.605C948.165 540.407 948.754 539.945 949.276 539.681C949.865 539.219 950.26 538.691 950.462 538.098C950.858 537.57 950.934 536.713 951.136 536.12C951.338 535.526 951.221 534.603 951.037 533.878C950.852 533.152 950.601 532.625 950.155 532.032C949.71 531.439 949.198 531.043 948.492 530.582C947.786 530.121 947.206 529.923 946.365 529.857C945.525 529.792 944.877 529.792 944.163 529.99C943.448 530.188 942.859 530.65 942.337 530.914C941.749 531.376 941.353 531.903 941.151 532.497C940.755 533.025 940.679 533.882 940.477 534.475C940.401 535.333 940.392 535.992 940.576 536.717C940.761 537.442 941.013 537.97 941.458 538.563C941.903 539.156 942.415 539.552 942.928 539.947C943.827 540.474 944.407 540.672 945.248 540.737Z" fill="#9A28CD"/>
<path d="M969.173 533.212L963.254 544.885L961.186 544.622L956.742 528.535L960.104 528.797L962.93 540.137L968.251 529.586L971.353 529.98L974.178 541.32L979.499 530.768L982.861 531.03L974.83 545.737L972.762 545.474L969.173 533.212Z" fill="#9A28CD"/>
<path d="M990.012 548.041C988.784 547.843 987.557 547.646 986.658 547.119C985.758 546.592 984.927 545.867 984.095 545.142C983.524 544.285 982.953 543.428 982.642 542.439C982.332 541.45 982.282 540.329 982.426 539.274C982.57 538.219 982.907 537.23 983.437 536.306C983.967 535.383 984.691 534.526 985.347 533.866C986.197 533.272 987.046 532.679 988.215 532.414C989.384 532.15 990.485 532.084 991.78 532.083C993.007 532.281 994.235 532.478 995.327 533.071C996.226 533.598 997.058 534.323 997.89 535.048C998.461 535.905 999.032 536.762 999.342 537.751C999.653 538.74 999.702 539.861 999.559 540.916C999.415 541.971 999.078 542.96 998.548 543.883C998.018 544.806 997.294 545.664 996.444 546.258C995.595 546.851 994.745 547.445 993.576 547.709C992.601 548.04 991.239 548.238 990.012 548.041ZM990.24 545.469C991.081 545.535 991.728 545.534 992.443 545.336C993.158 545.138 993.747 544.676 994.268 544.412C994.857 543.951 995.252 543.423 995.455 542.829C995.85 542.302 995.926 541.445 996.129 540.851C996.205 539.994 996.214 539.334 996.029 538.609C995.845 537.884 995.593 537.357 995.148 536.763C994.703 536.17 994.19 535.775 993.484 535.313C992.778 534.852 992.198 534.655 991.358 534.589C990.517 534.523 989.87 534.524 989.155 534.722C988.44 534.92 987.851 535.382 987.33 535.646C986.741 536.107 986.346 536.635 986.143 537.229C985.748 537.756 985.672 538.613 985.469 539.207C985.393 540.064 985.384 540.723 985.569 541.449C985.753 542.174 986.005 542.701 986.45 543.294C986.895 543.888 987.408 544.283 987.92 544.679C988.82 545.206 989.4 545.403 990.24 545.469Z" fill="#9A28CD"/>
<path d="M1014.17 537.282C1013.79 537.151 1013.59 537.085 1013.4 537.019C1013.21 536.953 1013.01 536.887 1012.56 536.953C1010.69 536.756 1009.45 537.218 1008.27 538.142C1007.29 539.131 1006.55 540.648 1006.4 542.362L1005.6 549.154L1002.5 548.76L1004.32 533.264L1007.43 533.659L1007.06 536.626C1007.59 535.702 1008.51 534.911 1009.48 534.581C1010.53 534.053 1011.63 533.987 1012.73 533.92C1013.38 533.92 1013.76 534.052 1014.34 534.249L1014.17 537.282Z" fill="#9A28CD"/>
<path d="M1023.09 543.41L1029.52 551.782L1025.57 551.322L1019.59 543.544L1018.72 550.533L1015.62 550.139L1018.34 526.335L1021.44 526.729L1019.61 542.225L1027.14 535.958L1031.08 536.418L1023.09 543.41Z" fill="#9A28CD"/>
<path d="M1034.14 530.615C1034.15 529.955 1034.54 529.428 1035.13 528.966C1035.72 528.504 1036.17 528.438 1037.01 528.504C1037.66 528.503 1038.17 528.899 1038.69 529.294C1039.13 529.888 1039.38 530.415 1039.18 531.008C1039.17 531.668 1038.78 532.195 1038.19 532.657C1037.6 533.119 1036.95 533.119 1036.3 533.12C1035.66 533.12 1035.14 532.724 1034.63 532.329C1034.31 531.999 1034.13 531.274 1034.14 530.615ZM1034.44 536.681L1037.55 537.075L1035.72 552.571L1032.62 552.177L1034.44 536.681Z" fill="#9A28CD"/>
<path d="M1042.98 537.601L1046.08 537.995L1045.78 540.764C1046.31 539.841 1047.16 539.247 1048.21 538.719C1049.25 538.192 1050.35 538.125 1051.84 538.191C1052.87 538.322 1053.84 538.651 1054.8 538.981C1055.51 539.442 1056.22 539.903 1056.59 540.694C1057.04 541.287 1057.22 542.013 1057.41 542.738C1057.59 543.463 1057.52 544.32 1057.37 545.375L1056.41 554.541L1053.31 554.147L1054.19 545.838C1054.2 545.179 1054.21 544.519 1054.22 543.86C1054.23 543.201 1053.98 542.673 1053.73 542.146C1053.47 541.619 1053.16 541.289 1052.64 540.894C1052.13 540.498 1051.55 540.301 1050.71 540.235C1049.87 540.169 1049.22 540.17 1048.7 540.434C1048.18 540.698 1047.66 540.962 1047.07 541.423C1046.67 541.951 1046.28 542.479 1046.08 543.072C1045.87 543.666 1045.67 544.259 1045.59 545.116L1044.65 552.963L1041.55 552.569L1042.98 537.601Z" fill="#9A28CD"/>
<path d="M1076.89 557.764C1076.61 559.214 1076.46 560.269 1075.93 561.193C1075.4 562.116 1074.75 562.776 1073.9 563.369C1073.05 563.963 1072.07 564.293 1070.97 564.36C1069.87 564.426 1068.77 564.492 1067.28 564.427C1065.86 564.164 1064.83 564.032 1063.73 563.439C1062.83 562.912 1061.93 562.385 1061.3 561.726C1060.66 561.067 1060.28 560.276 1059.97 559.287C1059.59 558.496 1059.67 557.639 1059.74 556.781L1062.85 557.176C1062.84 557.835 1062.9 558.297 1063.15 558.824C1063.4 559.352 1063.46 559.813 1063.97 560.208C1064.29 560.538 1064.8 560.933 1065.32 561.329C1065.89 561.526 1066.67 561.79 1067.51 561.856C1069.19 561.987 1070.55 561.788 1071.66 561.063C1072.77 560.337 1073.37 559.216 1073.59 557.303L1073.96 553.677C1073.43 554.6 1072.58 555.194 1071.35 555.656C1070.3 556.184 1069.2 556.25 1067.98 556.053C1066.75 555.856 1065.52 555.658 1064.62 555.131C1063.72 554.604 1062.89 553.879 1062.32 553.022C1061.75 552.165 1061.18 551.308 1060.87 550.319C1060.56 549.33 1060.51 548.209 1060.65 547.154C1060.79 546.099 1061.13 545.11 1061.66 544.187C1062.19 543.264 1062.92 542.406 1063.57 541.746C1064.42 541.153 1065.27 540.559 1066.44 540.295C1067.42 539.965 1068.71 539.964 1070 539.964C1071.23 540.161 1072.2 540.49 1073.29 541.083C1074.38 541.676 1074.95 542.533 1075.46 543.588L1075.69 541.016L1078.79 541.411L1076.89 557.764ZM1069.97 542.601C1069.13 542.535 1068.48 542.536 1067.77 542.734C1067.05 542.932 1066.46 543.394 1065.94 543.658C1065.35 544.119 1064.96 544.647 1064.75 545.241C1064.36 545.768 1064.28 546.625 1064.08 547.219C1063.88 547.812 1064 548.736 1064.18 549.461C1064.36 550.186 1064.62 550.713 1065.06 551.307C1065.51 551.9 1066.02 552.295 1066.53 552.691C1067.04 553.086 1067.82 553.35 1068.66 553.415C1069.5 553.481 1070.15 553.481 1070.86 553.282C1071.58 553.084 1072.16 552.623 1072.69 552.359C1073.27 551.897 1073.67 551.369 1073.87 550.776C1074.27 550.248 1074.34 549.391 1074.55 548.797C1074.75 548.204 1074.63 547.281 1074.45 546.556C1074.26 545.83 1074.01 545.303 1073.57 544.71C1073.12 544.116 1072.61 543.721 1071.9 543.26C1071.58 542.93 1070.81 542.667 1069.97 542.601Z" fill="#9A28CD"/>
<path d="M1115.72 553.33C1115.32 554.517 1114.59 555.375 1113.87 556.232C1113.15 557.09 1112.04 557.815 1110.93 558.541C1109.88 559.069 1108.65 559.531 1107.22 559.927C1105.86 560.126 1104.49 560.324 1103.07 560.061C1101.01 559.798 1099.2 559.403 1097.79 558.48C1096.31 557.756 1094.96 556.635 1093.88 555.383C1092.8 554.131 1092.17 552.812 1091.67 551.098C1091.3 549.647 1091.07 547.801 1091.41 546.153C1091.57 544.438 1092.04 543.054 1092.77 541.537C1093.5 540.02 1094.55 538.833 1095.73 537.909C1096.98 536.788 1098.28 536.128 1099.97 535.6C1101.66 535.071 1103.41 535.005 1105.35 535.004C1107.23 535.201 1108.84 535.53 1110.13 536.189C1111.41 536.848 1112.7 537.507 1113.46 538.429C1114.42 539.418 1115.19 540.341 1115.62 541.594C1116.13 542.648 1116.37 543.835 1116.54 545.22L1113.18 544.957C1113.06 544.034 1112.88 543.309 1112.5 542.518C1112.12 541.727 1111.68 541.134 1111.04 540.474C1110.4 539.815 1109.7 539.354 1108.73 539.025C1107.76 538.695 1106.8 538.366 1105.57 538.169C1104.08 538.104 1102.59 538.038 1101.36 538.5C1100.12 538.962 1099.08 539.49 1098.16 540.282C1097.24 541.073 1096.45 542.129 1095.85 543.25C1095.26 544.371 1094.85 545.558 1094.84 546.877C1094.62 548.13 1094.8 549.514 1095.04 550.701C1095.29 551.888 1095.98 553.008 1096.75 553.931C1097.51 554.854 1098.54 555.645 1099.56 556.436C1100.85 557.094 1102.2 557.556 1103.69 557.621C1104.53 557.686 1105.37 557.752 1106.28 557.62C1107.19 557.488 1107.97 557.092 1108.68 556.894C1109.47 556.498 1110.05 556.036 1110.71 555.376C1111.3 554.914 1111.76 554.189 1112.03 553.398L1115.72 553.33Z" fill="#9A28CD"/>
<path d="M1136.39 547.124L1134.56 562.62L1131.46 562.226L1131.76 559.456C1131.23 560.38 1130.38 560.973 1129.14 561.435C1128.1 561.963 1127 562.03 1125.77 561.832C1124.54 561.635 1123.32 561.438 1122.42 560.91C1121.52 560.383 1120.69 559.658 1120.12 558.801C1119.54 557.944 1118.97 557.088 1118.66 556.099C1118.35 555.11 1118.3 553.989 1118.45 552.934C1118.59 551.879 1118.93 550.889 1119.46 549.966C1119.99 549.043 1120.71 548.185 1121.37 547.526C1122.22 546.932 1123.07 546.338 1124.24 546.074C1125.21 545.744 1126.51 545.743 1127.8 545.743C1129.03 545.94 1129.99 546.27 1131.09 546.863C1132.18 547.456 1132.75 548.312 1133.25 549.367L1133.48 546.796L1136.39 547.124ZM1126.32 559.59C1127.16 559.656 1127.81 559.656 1128.52 559.457C1129.24 559.259 1129.83 558.798 1130.35 558.534C1130.94 558.072 1131.33 557.544 1131.53 556.951C1131.93 556.423 1132.01 555.566 1132.21 554.972C1132.28 554.115 1132.29 553.456 1132.11 552.731C1131.92 552.005 1131.67 551.478 1131.23 550.885C1130.78 550.291 1130.27 549.896 1129.56 549.435C1128.86 548.973 1128.28 548.776 1127.44 548.71C1126.6 548.645 1125.95 548.645 1125.23 548.843C1124.52 549.041 1123.93 549.503 1123.41 549.767C1122.82 550.229 1122.42 550.756 1122.22 551.35C1121.83 551.877 1121.75 552.735 1121.55 553.328C1121.47 554.185 1121.46 554.845 1121.65 555.57C1121.83 556.295 1122.08 556.823 1122.53 557.416C1122.97 558.009 1123.49 558.404 1124 558.8C1124.9 559.327 1125.55 559.327 1126.32 559.59Z" fill="#9A28CD"/>
<path d="M1151.79 543.097C1151.59 543.031 1151.21 542.899 1151.01 542.833C1150.82 542.768 1150.43 542.636 1149.98 542.702C1149.59 542.57 1149.33 542.702 1148.95 542.57C1148.49 542.637 1148.3 542.571 1147.97 542.901C1147.71 543.033 1147.38 543.362 1147.25 543.758C1147.11 544.154 1146.91 544.747 1146.9 545.407L1146.54 548.374L1151.13 548.834L1150.9 551.405L1146.18 550.682L1144.78 563.672L1141.68 563.277L1143.08 550.287L1139.53 549.959L1139.75 547.388L1143.31 547.716L1143.61 544.946C1143.89 543.496 1144.03 542.441 1144.49 541.715C1144.95 540.99 1145.54 540.528 1146.13 540.066C1146.65 539.802 1147.37 539.604 1148.02 539.604C1148.66 539.603 1149.31 539.603 1149.7 539.735C1150.15 539.669 1150.54 539.801 1150.92 539.932C1151.31 540.064 1151.5 540.13 1151.89 540.262L1151.79 543.097Z" fill="#9A28CD"/>
<path d="M1154.57 557.732C1154.56 558.391 1154.55 559.051 1154.8 559.578C1154.99 560.303 1155.24 560.831 1155.56 561.16C1155.81 561.688 1156.32 562.083 1156.9 562.281C1157.42 562.676 1158.26 562.742 1159.1 562.807C1160.32 563.005 1161.23 562.872 1161.82 562.411C1162.41 561.949 1163 561.487 1163.46 560.762L1166.56 561.156C1166.36 561.749 1165.97 562.277 1165.5 563.003C1165.11 563.53 1164.52 563.992 1163.74 564.388C1163.15 564.85 1162.24 564.982 1161.53 565.18C1160.62 565.312 1159.71 565.445 1158.67 565.313C1157.45 565.116 1156.22 564.918 1155.13 564.325C1154.23 563.798 1153.4 563.073 1152.76 562.414C1152.19 561.557 1151.81 560.766 1151.5 559.777C1151.19 558.788 1151.14 557.667 1151.28 556.612C1151.43 555.557 1151.83 554.37 1152.17 553.381C1152.7 552.458 1153.23 551.534 1154.08 550.941C1154.73 550.281 1155.78 549.753 1156.75 549.423C1157.73 549.093 1158.83 549.027 1160.32 549.092C1161.35 549.223 1162.32 549.553 1163.28 549.882C1164.18 550.409 1164.89 550.87 1165.53 551.53C1166.17 552.189 1166.54 552.98 1166.85 553.969C1167.17 554.958 1167.28 555.881 1167.21 556.738C1167.14 556.936 1167.07 557.134 1167.13 557.595C1166.99 557.991 1166.93 558.189 1166.99 558.65L1154.57 557.732ZM1160.35 551.532C1158.93 551.269 1157.69 551.731 1156.84 552.324C1155.93 553.116 1155.4 554.039 1155.12 555.49L1164.49 556.475C1164.7 555.222 1164.27 553.97 1163.5 553.047C1162.67 552.322 1161.58 551.729 1160.35 551.532Z" fill="#9A28CD"/>
<path d="M1179.26 565.042C1179.27 564.382 1179.67 563.855 1180.26 563.393C1180.85 562.931 1181.3 562.865 1182.14 562.93C1182.79 562.93 1183.3 563.326 1183.81 563.721C1184.26 564.314 1184.51 564.842 1184.31 565.435C1184.3 566.095 1183.9 566.622 1183.32 567.084C1182.73 567.546 1182.08 567.546 1181.43 567.546C1180.78 567.547 1180.27 567.151 1179.76 566.756C1179.25 566.36 1179.26 565.701 1179.26 565.042Z" fill="#9A28CD"/>
<path d="M1230.99 565.219C1230.58 566.406 1229.86 567.263 1229.13 568.121C1228.41 568.978 1227.3 569.704 1226.19 570.43C1225.15 570.958 1223.91 571.42 1222.48 571.816C1221.12 572.014 1219.76 572.213 1218.34 571.949C1216.27 571.686 1214.46 571.292 1213.05 570.369C1211.57 569.644 1210.23 568.524 1209.14 567.272C1208.06 566.019 1207.43 564.701 1206.93 562.987C1206.57 561.536 1206.33 559.69 1206.68 558.041C1206.83 556.327 1207.3 554.942 1208.03 553.425C1208.77 551.909 1209.82 550.721 1211 549.798C1212.24 548.676 1213.54 548.016 1215.23 547.488C1216.92 546.96 1218.67 546.893 1220.62 546.893C1222.49 547.09 1224.1 547.419 1225.39 548.078C1226.68 548.736 1227.96 549.395 1228.73 550.318C1229.68 551.307 1230.45 552.23 1230.88 553.482C1231.39 554.537 1231.63 555.724 1231.81 557.108L1228.44 556.846C1228.33 555.923 1228.14 555.198 1227.77 554.407C1227.39 553.615 1226.94 553.022 1226.3 552.363C1225.67 551.704 1224.96 551.243 1223.99 550.913C1223.03 550.584 1222.06 550.255 1220.83 550.058C1219.34 549.992 1217.86 549.927 1216.62 550.389C1215.38 550.851 1214.34 551.379 1213.42 552.17C1212.51 552.962 1211.72 554.017 1211.12 555.138C1210.52 556.26 1210.12 557.447 1210.1 558.765C1209.89 560.018 1210.06 561.403 1210.31 562.59C1210.55 563.776 1211.25 564.897 1212.01 565.82C1212.77 566.743 1213.8 567.533 1214.82 568.324C1216.11 568.983 1217.46 569.444 1218.95 569.509C1219.79 569.575 1220.63 569.641 1221.54 569.508C1222.45 569.376 1223.23 568.98 1223.95 568.782C1224.73 568.386 1225.32 567.925 1225.97 567.265C1226.56 566.803 1227.03 566.078 1227.29 565.286L1230.99 565.219Z" fill="#9A28CD"/>
</svg>
