<svg width="1620" height="707" viewBox="0 0 1620 707" fill="none" xmlns="http://www.w3.org/2000/svg">
<path d="M1662.27 204.921L-175.547 426.135L-166.423 501.941L1671.4 280.727L1662.27 204.921Z" fill="#FFD2D1"/>
<path d="M353.988 412.117C352.253 412.332 351.368 411.947 351.287 410.776C351.108 410.025 351.394 409.56 351.68 409.095C352.154 408.585 353.191 407.941 354.98 407.118C354.336 406.081 354.067 404.954 353.799 403.828C350.321 405.053 346.279 406.413 341.531 408.139C341.576 408.327 341.665 408.702 341.71 408.89C341.889 409.641 341.692 410.482 341.496 411.322C341.254 411.975 340.968 412.44 340.262 412.807L339.412 413.406C338.706 413.773 338 414.139 337.016 414.175C336.032 414.211 335.049 414.247 333.976 413.907C333.743 413.764 333.555 413.809 333.323 413.666L333.09 413.523C333.046 413.335 332.858 413.38 332.858 413.38C332.393 413.094 332.071 412.575 331.937 412.012C331.811 410.652 332.857 409.213 335.397 408.211C336.667 407.71 337.936 407.209 339.018 406.753C338.616 405.063 338.303 403.749 338.079 402.81C337.864 401.075 338.114 399.626 338.83 398.464C339.545 397.301 340.537 396.47 342.084 396.3C343.444 396.174 344.847 396.237 346.01 396.952C346.663 397.193 347.173 397.667 347.727 398.329C347.959 398.472 348.049 398.847 348.094 399.035C348.138 399.223 347.995 399.456 347.897 399.876C347.754 400.108 347.423 400.386 347.048 400.475C346.672 400.564 346.207 400.278 345.93 399.948C345.42 399.474 344.723 399.044 343.694 398.893C343.274 398.794 342.898 398.884 342.29 398.83C341.494 398.821 340.833 399.376 340.493 400.449C340.252 401.102 340.243 401.897 340.279 402.881C340.315 403.865 340.583 404.991 341.039 406.073C342.872 405.438 344.893 404.758 346.726 404.123C347.996 403.622 350.392 402.853 353.87 401.628C353.826 401.44 353.969 401.208 354.112 400.975C354.595 399.67 355.498 398.462 356.723 397.774C357.241 397.452 357.804 397.317 358.556 397.139C359.915 397.013 360.711 397.022 361.408 397.451L362.106 397.88C362.24 398.444 362.472 398.587 362.517 398.775C362.642 400.134 360.613 401.609 356.24 403.246C356.321 404.418 356.777 405.499 357.188 406.394C358.646 405.848 359.916 405.347 361.23 405.034C364.002 404.175 366.684 402.941 369.367 401.707C370.073 401.34 370.592 401.018 371.11 400.696C371.629 400.374 371.96 400.097 372.148 400.052C372.335 400.008 372.568 400.151 372.8 400.294C373.033 400.437 373.31 400.768 373.212 401.188C373.301 401.563 373.015 402.028 372.684 402.306C371.504 403.182 370.61 403.594 370.279 403.871C367.784 405.06 365.102 406.294 362.33 407.153C361.391 407.377 359.934 407.922 358.101 408.558C358.145 408.745 358.19 408.933 358.235 409.121C358.369 409.684 358.083 410.149 357.842 410.802C357.555 411.267 357.037 411.589 356.518 411.911C355.49 411.759 354.739 411.938 353.988 412.117ZM336.81 411.645C337.373 411.51 337.937 411.376 338.5 411.242C339.206 410.875 339.636 410.178 339.555 409.006L339.51 408.819C336.64 410.098 335.039 410.876 334.566 411.385C334.566 411.385 334.566 411.385 334.378 411.43C335.263 411.815 336.059 411.823 336.81 411.645ZM355.517 409.371C355.892 409.282 355.892 409.282 355.99 408.862L355.284 409.228C355.329 409.416 355.329 409.416 355.517 409.371Z" fill="#9A28CD"/>
<path d="M374.902 404.954C374.526 405.043 374.106 404.945 373.498 404.891C372.049 404.641 371.074 403.881 370.529 402.424C370.484 402.236 370.439 402.048 370.395 401.86C370.314 400.689 370.332 399.097 370.868 397.184L371.118 395.735C371.36 395.082 371.646 394.617 372.254 394.671C372.63 394.581 372.862 394.724 373.095 394.867C373.327 395.011 373.604 395.341 373.506 395.762C373.551 395.949 373.595 396.137 373.452 396.37L373.256 397.21C372.916 398.283 372.621 399.544 372.514 400.76C372.416 401.181 372.46 401.368 372.505 401.556C372.594 401.932 372.684 402.307 372.916 402.45C373.149 402.593 373.757 402.647 374.365 402.701C374.928 402.566 375.304 402.477 375.679 402.387C378.264 401.574 380.714 400.196 382.886 398.488C383.029 398.256 383.36 397.978 383.503 397.746C383.977 397.236 384.353 397.147 384.54 397.102C385.292 396.923 385.614 397.442 385.792 398.193C385.882 398.568 385.739 398.801 385.265 399.311C382.663 401.716 379.551 403.648 375.885 404.918L374.902 404.954ZM373.836 391.317C373.836 391.317 373.649 391.362 373.461 391.407C373.273 391.452 372.996 391.121 372.719 390.79C372.674 390.602 372.441 390.459 372.584 390.227C372.54 390.039 372.638 389.619 372.781 389.386C372.924 389.154 373.022 388.733 373.165 388.501C373.452 388.036 373.782 387.759 374.158 387.669C374.158 387.669 374.346 387.624 374.578 387.767C374.811 387.91 375.043 388.054 375.32 388.384C375.365 388.572 375.598 388.715 375.455 388.948C375.499 389.135 375.401 389.556 375.258 389.788L374.829 390.486C374.543 390.951 374.212 391.228 373.836 391.317Z" fill="#9A28CD"/>
<path d="M385.928 407.089C385.74 407.134 385.32 407.036 384.757 407.17C383.308 406.92 382.145 406.204 381.036 404.881C380.759 404.55 380.67 404.175 380.58 403.799C380.401 403.048 380.875 402.538 381.394 402.216C381.725 401.939 382.288 401.805 383.227 401.581L385.48 401.045C385.158 400.526 385.069 400.15 384.747 399.632C384.425 399.113 384.336 398.738 384.291 398.55C383.602 397.325 383.191 396.431 383.2 395.635C383.164 394.651 383.36 393.811 383.933 392.881C384.594 392.326 385.488 391.915 386.239 391.736C387.411 391.655 388.627 391.763 389.602 392.522C389.879 392.853 390.156 393.184 390.201 393.372C390.335 393.935 390.049 394.4 389.53 394.722C389.343 394.767 389.343 394.767 389.155 394.812C388.779 394.901 388.547 394.758 388.082 394.472C387.617 394.186 387.009 394.132 386.401 394.079C385.837 394.213 385.462 394.302 385.363 394.723C385.408 394.91 385.453 395.098 385.31 395.331C385.444 395.894 385.9 396.976 386.678 398.576C387 399.095 387.367 399.801 387.501 400.365C391.963 399.104 395.209 397.735 397.194 396.072C397.525 395.794 397.855 395.517 398.043 395.473C398.231 395.428 398.464 395.571 398.696 395.714C398.929 395.857 399.206 396.188 399.295 396.563C399.385 396.939 399.242 397.171 398.768 397.681C397.444 398.79 395.182 400.123 391.892 401.303C391.516 401.393 390.246 401.894 388.038 402.618L388.127 402.994C388.261 403.557 388.208 404.165 388.154 404.773C387.815 405.846 387.198 406.588 386.116 407.045C386.304 407 386.116 407.045 385.928 407.089ZM385.579 404.791C385.767 404.747 386.142 404.657 386.098 404.469C386.241 404.237 386.151 403.861 386.205 403.253C385.266 403.477 384.515 403.656 383.576 403.879L383.388 403.924C383.853 404.21 384.318 404.496 384.738 404.595C385.159 404.693 385.347 404.648 385.579 404.791Z" fill="#9A28CD"/>
<path d="M400.941 404.306C400.566 404.396 400.333 404.253 399.913 404.154L399.492 404.056L399.027 403.77C398.097 403.198 397.454 402.161 397.373 400.989C397.203 399.442 397.221 397.851 397.426 396.214L397.73 394.157C398.177 391.868 398.668 389.767 399.393 387.808C398.078 388.122 396.719 388.247 395.404 388.56C394.841 388.694 394.376 388.408 394.099 388.077C394.054 387.889 393.822 387.746 393.965 387.514C393.786 386.763 394.26 386.253 395.199 386.029C396.182 385.994 396.933 385.815 397.917 385.779C398.901 385.743 399.652 385.564 400.591 385.34C400.832 384.688 401.216 383.802 401.932 382.64C402.602 381.289 403.595 380.458 404.444 379.859C404.587 379.626 404.963 379.537 405.383 379.635C405.946 379.501 406.599 379.742 406.966 380.449C407.01 380.636 407.01 380.636 407.055 380.824L407.1 381.012C407.1 381.012 407.145 381.2 407.234 381.575C407.27 382.559 407.118 383.587 406.734 384.472L411.285 383.587C411.848 383.453 412.081 383.596 412.358 383.926C412.403 384.114 412.635 384.257 412.68 384.445C412.725 384.633 412.769 384.821 412.626 385.053C412.483 385.286 412.34 385.518 411.777 385.652L405.911 386.851C404.043 390.669 402.228 393.88 400.466 396.482C400.323 396.715 400.136 396.759 399.993 396.992C399.993 396.992 399.993 396.992 400.037 397.18C399.93 398.396 399.823 399.612 399.903 400.783L399.993 401.159C400.127 401.722 400.217 402.098 400.682 402.384C400.869 402.339 400.869 402.339 400.869 402.339L401.62 402.16C403.266 401.57 405.671 400.005 408.791 397.277C409.265 396.767 409.596 396.49 409.927 396.213C410.07 395.98 410.446 395.891 410.401 395.703C410.589 395.658 410.544 395.471 410.732 395.426C411.063 395.149 411.536 394.639 412.341 393.852C412.484 393.62 412.86 393.53 413.048 393.485C413.235 393.441 413.468 393.584 413.656 393.539C414.076 393.637 414.165 394.013 414.255 394.388C414.344 394.764 414.201 394.996 413.87 395.274L412.261 396.848C409.704 399.441 407.012 401.471 404.419 403.081C403.15 403.582 402.068 404.038 400.941 404.306ZM401.047 390.589C401.762 389.427 402.29 388.309 402.817 387.191L402.254 387.325C401.87 388.211 401.53 389.284 401.047 390.589ZM403.595 384.625L404.158 384.491C404.4 383.838 404.641 383.185 404.784 382.952C404.31 383.462 403.836 383.972 403.595 384.625Z" fill="#9A28CD"/>
<path d="M412.745 399.708C411.993 399.887 411.296 399.458 410.929 398.752C410.885 398.564 410.84 398.376 410.75 398.001C410.616 397.437 410.813 396.597 411.385 395.667L411.582 394.826C412.064 393.52 412.78 392.358 413.915 391.294C414.577 390.739 415.471 390.328 416.267 390.337C417.25 390.301 418.279 390.453 419.441 391.168C419.441 391.168 419.906 391.454 420.559 391.695C420.836 392.026 421.114 392.357 421.06 392.965C421.194 393.529 421.328 394.092 421.793 394.378C422.491 394.807 423.287 394.816 424.27 394.78C426.381 394.476 428.357 393.608 430.199 392.177C430.672 391.668 431.146 391.158 431.432 390.693C431.432 390.693 431.432 390.693 431.576 390.46C431.576 390.46 431.719 390.228 431.862 389.995C432.148 389.53 432.479 389.253 432.899 389.351C433.462 389.217 433.927 389.503 434.249 390.022C434.294 390.21 434.339 390.398 434.383 390.585C434.428 390.773 434.33 391.193 434.187 391.426L433.57 392.168C433.427 392.401 433.239 392.445 432.953 392.91C431.388 394.672 429.501 395.915 426.917 396.729C426.73 396.774 426.542 396.819 426.542 396.819C425.791 396.998 425.227 397.132 424.664 397.266C422.742 397.525 421.293 397.275 420.273 396.327L420.041 396.184C419.486 395.523 419.209 395.192 419.12 394.816C417.698 396.346 416.276 397.875 414.578 399.073L414.39 399.118C413.683 399.485 413.165 399.807 412.745 399.708ZM413.764 396.489C414.613 395.89 415.704 394.638 417.17 393.296C416.938 393.153 416.75 393.198 416.562 393.243C416.187 393.332 415.623 393.466 415.292 393.744C414.631 394.298 414.103 395.416 413.764 396.489Z" fill="#9A28CD"/>
<path d="M432.515 398.572C432.327 398.617 431.907 398.518 431.674 398.375C431.209 398.089 431.12 397.714 431.075 397.526C430.896 396.775 431.2 394.718 431.844 391.588C432.138 390.327 432.29 389.299 432.398 388.083C432.594 387.242 432.925 386.965 433.488 386.831C433.864 386.742 434.096 386.885 434.329 387.028C434.561 387.171 434.839 387.502 434.928 387.877C434.973 388.065 434.973 388.065 434.83 388.297C434.392 389.791 434.142 391.239 433.891 392.688C433.891 392.688 433.891 392.688 434.034 392.455C434.177 392.223 434.222 392.411 434.177 392.223C435.84 390.041 437.736 388.002 439.864 386.106C440.526 385.552 441.232 385.185 441.795 385.051C442.359 384.917 442.824 385.203 443.378 385.864C443.655 386.195 443.79 386.758 444.013 387.697C444.103 388.073 444.004 388.493 444.094 388.869C444.183 389.244 444.228 389.432 444.13 389.852C444.219 390.228 444.309 390.604 444.443 391.167C444.577 391.73 444.854 392.061 445.176 392.58C445.874 393.009 446.526 393.25 447.278 393.071C448.261 393.035 449.674 392.302 451.516 390.871C453.027 389.717 454.162 388.653 455.253 387.401C455.584 387.124 455.915 386.847 456.29 386.757C456.854 386.623 457.319 386.909 457.498 387.66L457.542 387.848C457.632 388.224 457.489 388.456 457.158 388.733C455.879 390.03 454.413 391.372 452.902 392.525C452.714 392.57 452.571 392.802 452.383 392.847C450.309 394.135 448.896 394.868 447.725 394.949C447.161 395.083 446.553 395.03 445.945 394.976C444.917 394.824 443.987 394.252 443.433 393.59C442.878 392.929 442.279 392.079 442.1 391.328C441.921 390.577 441.787 390.014 441.796 389.218L441.715 388.046L441.67 387.859C438.836 390.121 436.511 392.858 434.553 396.3C434.553 396.3 434.267 396.765 434.026 397.418C433.454 398.348 433.123 398.626 432.515 398.572Z" fill="#9A28CD"/>
<path d="M459.546 397.094C459.17 397.184 458.938 397.041 458.517 396.942L458.097 396.844L457.632 396.558C456.702 395.986 456.058 394.949 455.978 393.777C455.808 392.23 455.825 390.639 456.031 389.002L456.335 386.946C456.782 384.656 457.273 382.555 457.997 380.597C456.683 380.91 455.324 381.035 454.009 381.348C453.446 381.482 452.981 381.196 452.704 380.865C452.659 380.678 452.426 380.535 452.569 380.302C452.391 379.551 452.864 379.041 453.803 378.818C454.787 378.782 455.538 378.603 456.522 378.567C457.505 378.531 458.256 378.352 459.195 378.128C459.437 377.476 459.821 376.59 460.536 375.428C461.207 374.078 462.199 373.246 463.049 372.647C463.192 372.414 463.567 372.325 463.988 372.423C464.551 372.289 465.204 372.53 465.57 373.237C465.615 373.424 465.615 373.424 465.66 373.612L465.705 373.8C465.705 373.8 465.749 373.988 465.839 374.363C465.875 375.347 465.723 376.375 465.338 377.261L469.89 376.375C470.453 376.241 470.686 376.384 470.963 376.715C471.008 376.902 471.24 377.045 471.285 377.233C471.329 377.421 471.374 377.609 471.231 377.841C471.088 378.074 470.945 378.306 470.382 378.44L464.516 379.639C462.647 383.458 460.832 386.668 459.071 389.27C458.928 389.503 458.74 389.547 458.597 389.78C458.597 389.78 458.597 389.78 458.642 389.968C458.535 391.184 458.428 392.4 458.508 393.571L458.598 393.947C458.732 394.51 458.821 394.886 459.286 395.172C459.474 395.127 459.474 395.127 459.474 395.127L460.225 394.948C461.87 394.358 464.276 392.793 467.396 390.065C467.87 389.555 468.201 389.278 468.532 389.001C468.675 388.769 469.05 388.679 469.006 388.491C469.193 388.447 469.149 388.259 469.336 388.214C469.667 387.937 470.141 387.427 470.946 386.64C471.089 386.408 471.464 386.318 471.652 386.273C471.84 386.229 472.073 386.372 472.26 386.327C472.681 386.425 472.77 386.801 472.86 387.176C472.949 387.552 472.806 387.784 472.475 388.062L470.866 389.636C468.309 392.229 465.617 394.259 463.024 395.869C461.611 396.602 460.529 397.059 459.546 397.094ZM459.652 383.377C460.367 382.215 460.895 381.097 461.422 379.979L460.859 380.113C460.286 381.043 459.947 382.117 459.652 383.377ZM462.012 377.458L462.575 377.323C462.817 376.671 463.058 376.018 463.201 375.785C462.727 376.295 462.486 376.948 462.012 377.458Z" fill="#9A28CD"/>
<path d="M486.532 395.429C485.879 395.187 485.647 395.044 485.459 395.089C484.994 394.803 484.905 394.427 484.815 394.052C484.726 393.676 484.824 393.256 484.922 392.836C485.164 392.183 485.45 391.718 486.013 391.584C486.389 391.494 486.809 391.593 487.086 391.924C487.319 392.067 487.784 392.353 487.873 392.728L487.918 392.916C487.963 393.104 488.007 393.292 488.007 393.292C488.097 393.667 487.954 393.9 487.856 394.32C487.614 394.973 487.283 395.25 486.72 395.384L486.532 395.429Z" fill="#9A28CD"/>
<path d="M503.773 394.496C503.397 394.586 503.165 394.443 502.744 394.344C502.512 394.201 502.235 393.87 502.145 393.495C502.1 393.307 502.056 393.119 502.243 393.074C502.592 391.206 503.128 389.292 503.852 387.334L504.049 386.493C505.837 381.503 507.768 376.281 509.788 371.434C510.513 369.476 511.523 367.052 512.587 364.021C513.454 361.83 514.178 359.872 514.804 358.334C514.804 358.334 514.947 358.101 514.902 357.913C515.385 356.608 515.769 355.722 516.377 355.776C516.565 355.731 516.565 355.731 516.797 355.874C517.45 356.116 517.915 356.402 518.193 356.733C518.237 356.92 518.282 357.108 518.282 357.108C518.461 357.859 517.871 360.381 516.977 364.959C516.432 367.669 515.985 369.958 515.681 372.015C515.27 375.288 514.859 378.56 514.869 381.932L515.012 381.699C515.012 381.699 515.441 381.002 515.825 380.116C516.782 378.301 517.881 376.253 519.124 373.973C521.136 369.922 523.237 366.247 525.239 362.991C525.669 362.294 526.241 361.364 526.813 360.434C527.528 359.271 528.243 358.109 528.771 356.991L529.388 356.249C529.862 355.739 529.96 355.319 530.148 355.274C530.336 355.229 530.711 355.14 530.899 355.095C531.462 354.961 531.927 355.247 532.249 355.766C532.526 356.096 532.616 356.472 532.705 356.848C532.795 357.223 532.652 357.456 532.553 357.876C532.455 358.296 532.312 358.529 532.214 358.949C532.017 359.79 531.722 361.05 531.043 363.197C530.024 366.416 529.532 368.517 529.38 369.545C528.978 372.022 528.531 374.312 528.549 376.887C528.496 377.495 528.63 378.058 528.576 378.666C528.523 379.274 528.845 379.793 528.979 380.356C529.068 380.732 529.346 381.063 529.48 381.626C529.48 381.626 529.712 381.769 529.757 381.957C530.311 382.619 530.964 382.86 531.715 382.681C532.466 382.502 533.218 382.323 533.736 382.001C534.442 381.635 534.961 381.313 535.667 380.946C535.855 380.901 535.998 380.669 535.998 380.669L537.84 379.238C538.171 378.961 538.359 378.916 538.547 378.871C538.734 378.826 538.967 378.969 539.387 379.068C539.62 379.211 539.897 379.542 539.986 379.917C540.076 380.293 539.79 380.758 539.459 381.035L537.474 382.698C537.143 382.976 536.955 383.02 536.812 383.253C536.294 383.575 535.775 383.897 535.256 384.219C534.362 384.63 533.28 385.086 532.297 385.122C531.733 385.256 531.125 385.203 530.285 385.006C529.489 384.997 528.791 384.568 528.004 383.763C527.727 383.433 527.45 383.102 527.405 382.914L527.083 382.395C527.039 382.208 526.994 382.02 526.949 381.832C526.582 381.126 526.359 380.187 526.278 379.015C526.287 378.219 526.063 377.281 526.26 376.44C526.331 374.24 526.447 372.228 526.939 370.127C527.243 368.07 527.779 366.157 528.271 364.055L528.861 361.534C528.002 362.929 527.287 364.091 526.617 365.441C526.089 366.559 525.374 367.722 524.703 369.072C521.986 373.49 519.786 377.585 518.061 381.171C517.39 382.521 516.675 383.684 515.96 384.847C515.531 385.544 514.869 386.098 513.885 386.134C513.698 386.179 513.277 386.081 513.089 386.125C512.857 385.982 512.392 385.696 512.213 384.945C512.168 384.757 512.124 384.57 512.124 384.57L512.222 384.149L512.177 383.962C512.222 379.982 512.641 375.914 513.106 372.033C513.16 371.425 513.41 369.976 513.857 367.687L511.979 372.301C509.959 377.148 507.983 382.183 506.428 387.315C505.748 389.462 505.257 391.563 504.908 393.432C505.042 393.995 504.569 394.505 503.773 394.496Z" fill="#9A28CD"/>
<path d="M541.249 401.047C540.874 401.137 540.221 400.895 539.711 400.422C539.157 399.76 538.745 398.866 538.709 397.882C538.62 397.507 538.674 396.898 538.584 396.523C538.763 393.107 540.059 390.219 542.008 387.572C543.197 385.899 544.619 384.37 546.273 382.984C546.621 381.115 546.97 379.246 547.086 377.234C547.14 376.626 547.05 376.251 547.193 376.018C545.056 378.71 543.823 380.194 543.724 380.615C542.678 382.054 541.918 383.029 541.444 383.539C541.113 383.816 540.783 384.093 540.362 383.995C539.611 384.174 538.914 383.745 538.404 383.271C538.359 383.083 538.27 382.708 538.18 382.332C538.001 381.581 538.153 380.553 538.162 379.757C538.421 377.512 539.047 375.974 539.95 374.767C540.281 374.49 540.424 374.257 540.844 374.356C541.595 374.177 542.105 374.65 542.329 375.589C542.418 375.965 542.275 376.197 541.989 376.662C541.319 378.013 540.836 379.318 540.773 380.722L543.482 377.1C544.529 375.661 545.619 374.409 546.898 373.112L547.041 372.88C547.184 372.647 547.56 372.558 547.935 372.468C548.919 372.432 549.384 372.718 549.75 373.425C549.795 373.612 549.84 373.8 549.885 373.988C549.974 374.364 549.867 375.58 549.849 377.171C549.742 378.388 549.635 379.604 549.295 380.677C551.799 378.691 554.91 376.76 558.773 374.649C559.998 373.96 560.749 373.781 560.937 373.737C561.125 373.692 561.545 373.79 561.777 373.933C562.01 374.076 562.099 374.452 562.189 374.827C562.189 374.827 562.234 375.015 562.278 375.203C562.323 375.391 561.992 375.668 561.661 375.945C560.249 376.679 558.979 377.179 557.942 377.823C554.41 379.657 551.531 381.732 549.072 383.905C548.187 387.687 547.257 391.282 546.05 394.546C544.888 397.998 543.601 400.09 542.376 400.779C541.625 400.958 541.437 401.003 541.249 401.047ZM541.329 398.052C541.329 398.052 541.472 397.819 541.803 397.542C543.091 395.449 544.396 391.765 545.621 386.91C543.77 389.136 542.295 391.274 541.66 393.608C541.222 395.101 541.159 396.505 541.24 397.676C541.285 397.864 541.329 398.052 541.329 398.052Z" fill="#9A28CD"/>
<path d="M579.788 383.732C579.224 383.866 578.804 383.768 578.151 383.527C577.266 383.142 576.756 382.668 576.345 381.774C575.746 380.925 575.522 379.986 575.441 378.815C575.352 378.439 575.406 377.831 575.414 377.035C575.423 376.239 575.477 375.631 575.531 375.023C574.645 374.639 573.903 374.022 573.492 373.128L572.937 372.466L572.758 371.715C572.624 371.152 572.347 370.821 572.213 370.257C571.917 367.351 572.561 364.221 574.286 360.636C575.243 358.82 576.244 357.193 577.478 355.708C579.141 353.526 581.037 351.487 583.066 350.012C585.239 348.304 587.403 347.391 589.701 347.042C589.889 346.998 590.264 346.908 590.452 346.863C590.872 346.962 591.06 346.917 591.248 346.872C591.856 346.926 592.276 347.024 592.696 347.122C593.117 347.221 593.582 347.507 594.279 347.936C595.719 348.982 596.542 350.77 596.891 353.069C596.971 354.24 597.007 355.223 597.043 356.207C596.99 356.815 596.936 357.423 596.838 357.844C596.427 361.116 595.64 364.479 594.576 367.51C594.952 367.421 595.095 367.188 595.47 367.099C595.846 367.009 595.989 366.777 596.177 366.732C596.552 366.642 596.785 366.786 597.017 366.929C597.25 367.072 597.339 367.447 597.429 367.823C597.429 367.823 597.473 368.01 597.518 368.198C597.563 368.386 597.232 368.663 596.901 368.941L593.182 370.819C591.742 373.94 589.793 376.587 587.942 378.813C586.19 380.62 584.536 382.006 582.747 382.829L582.041 383.195C581.853 383.24 581.478 383.33 581.29 383.374C580.539 383.553 580.163 383.643 579.788 383.732ZM580.189 372.921C581.736 372.751 583.989 372.215 586.341 371.257C587.468 370.989 588.88 370.256 591.044 369.343C592.341 366.455 593.404 363.424 593.86 360.339C594.057 359.498 594.066 358.702 594.164 358.282C594.325 356.458 594.387 355.054 594.164 354.115C594.029 353.552 593.851 352.8 593.672 352.049C593.493 351.298 592.938 350.637 592.196 350.02C591.963 349.877 591.543 349.778 591.311 349.635C591.078 349.492 590.515 349.626 590.095 349.528L589.531 349.662C587.797 349.877 585.865 350.932 584.023 352.363C581.994 353.839 580.429 355.601 578.909 357.55L578.292 358.292C576.343 360.939 575.19 363.595 574.6 366.117C574.305 367.378 574.198 368.594 574.278 369.765C574.368 370.141 574.502 370.704 574.591 371.08L574.868 371.411L575.423 372.072C575.673 370.624 576.156 369.318 576.639 368.012C576.639 368.012 576.782 367.78 576.737 367.592C576.692 367.404 576.88 367.36 576.835 367.172C576.835 367.172 576.978 366.939 577.166 366.895C578.525 366.769 579.178 367.011 579.312 367.574C579.357 367.762 579.357 367.762 579.402 367.95C579.491 368.325 579.438 368.933 579.196 369.586C578.91 370.051 578.767 370.284 578.392 370.373C578.15 371.026 577.953 371.866 577.712 372.519C578.642 373.091 579.393 372.912 580.189 372.921ZM579.725 380.969C580.1 380.88 580.476 380.79 580.852 380.701L581.227 380.611C581.79 380.477 582.121 380.2 582.64 379.878C585.376 378.036 587.745 375.487 589.417 372.509C588.711 372.876 587.96 373.055 587.066 373.466C584.338 374.513 581.897 375.094 580.162 375.309C579.411 375.488 578.616 375.479 577.82 375.47C577.766 376.078 577.712 376.686 577.748 377.67L577.883 378.233C578.017 378.796 578.106 379.172 578.285 379.923C578.419 380.486 578.929 380.96 579.537 381.014L579.725 380.969Z" fill="#9A28CD"/>
<path d="M598.352 394.192C597.181 394.273 596.626 393.611 596.501 392.252C596.411 391.876 596.465 391.268 596.519 390.66C596.617 390.24 596.572 390.052 596.483 389.677C596.661 386.261 597.072 382.988 597.671 379.67C598.163 377.569 598.467 375.512 599.191 373.554C599.146 373.366 599.289 373.134 599.432 372.901C599.825 371.22 600.406 369.494 601.032 367.956C601.131 367.536 601.417 367.071 601.658 366.418C602.042 365.533 602.382 364.46 602.767 363.574C603.535 361.804 604.483 360.784 605.467 360.748C605.655 360.704 606.075 360.802 606.307 360.945C606.772 361.231 607.05 361.562 606.951 361.982C607.041 362.358 606.987 362.966 606.79 363.806C606.013 366.373 605.047 368.984 603.617 371.309L604.27 371.55C605.298 371.702 606.702 371.765 608.061 371.639C608.624 371.505 609.796 371.425 611.11 371.112C613.363 370.575 615.241 370.128 616.887 369.537C617.781 369.126 618.299 368.804 618.532 368.947C618.907 368.857 619.14 369 619.372 369.144C619.605 369.287 619.694 369.662 619.739 369.85C619.739 369.85 619.784 370.038 619.641 370.27C619.685 370.458 619.355 370.735 618.836 371.057C617.942 371.469 617.235 371.835 616.86 371.925C615.215 372.515 612.961 373.052 610.145 373.723C609.394 373.902 608.642 374.081 607.847 374.072C606.487 374.197 605.316 374.278 604.288 374.126C604.861 381.53 603.806 387.932 600.659 393.047C599.953 393.414 599.103 394.013 598.352 394.192ZM598.718 390.731C600.149 388.406 600.971 386.028 601.472 383.13C601.883 379.858 602.106 376.63 601.578 373.58C601.292 374.045 601.149 374.278 601.149 374.278C599.585 380.207 598.915 385.724 598.718 390.731Z" fill="#9A28CD"/>
<path d="M615.887 392C614.716 392.08 614.161 391.419 614.036 390.059C613.947 389.684 614 389.076 614.054 388.468C614.152 388.047 614.107 387.86 614.018 387.484C614.197 384.068 614.608 380.795 615.206 377.478C615.698 375.377 616.002 373.32 616.726 371.361C616.681 371.174 616.824 370.941 616.967 370.709C617.361 369.028 617.942 367.302 618.567 365.764C618.666 365.343 618.952 364.878 619.193 364.226C619.578 363.34 619.917 362.267 620.302 361.382C621.071 359.611 622.018 358.592 623.002 358.556C623.19 358.511 623.61 358.609 623.842 358.753C624.307 359.039 624.585 359.369 624.486 359.79C624.576 360.165 624.522 360.773 624.326 361.614C623.548 364.18 622.582 366.792 621.152 369.117L621.805 369.358C622.833 369.51 624.237 369.572 625.596 369.447C626.159 369.313 627.331 369.232 628.645 368.919C630.899 368.382 632.776 367.935 634.422 367.345C635.316 366.933 635.834 366.611 636.067 366.754C636.442 366.665 636.675 366.808 636.908 366.951C637.14 367.094 637.229 367.47 637.274 367.657C637.274 367.657 637.319 367.845 637.176 368.078C637.221 368.266 636.89 368.543 636.371 368.865C635.477 369.276 634.771 369.643 634.395 369.732C632.75 370.323 630.496 370.859 627.68 371.53C626.929 371.709 626.178 371.888 625.382 371.879C624.023 372.005 622.851 372.085 621.823 371.933C622.396 379.337 621.341 385.74 618.194 390.855C617.345 391.454 616.638 391.821 615.887 392ZM616.298 388.727C617.729 386.402 618.551 384.023 619.052 381.126C619.463 377.853 619.686 374.625 619.158 371.576C618.872 372.041 618.729 372.273 618.729 372.273C617.165 378.202 616.262 383.576 616.298 388.727Z" fill="#9A28CD"/>
<path d="M638.902 372.826C638.527 372.916 638.106 372.817 637.498 372.764C636.05 372.514 635.075 371.754 634.529 370.296C634.485 370.108 634.44 369.921 634.395 369.733C634.315 368.561 634.332 366.97 634.869 365.056L635.119 363.607C635.36 362.955 635.646 362.49 636.255 362.543C636.63 362.454 636.863 362.597 637.095 362.74C637.328 362.883 637.605 363.214 637.506 363.634C637.551 363.822 637.596 364.01 637.453 364.242L637.256 365.083C636.917 366.156 636.622 367.417 636.514 368.633C636.416 369.053 636.461 369.241 636.506 369.429C636.595 369.804 636.684 370.18 636.917 370.323C637.149 370.466 637.758 370.519 638.366 370.573C638.929 370.439 639.304 370.349 639.68 370.26C642.264 369.446 644.714 368.069 646.887 366.36C647.03 366.128 647.361 365.851 647.504 365.618C647.978 365.108 648.353 365.019 648.541 364.974C649.292 364.795 649.614 365.314 649.793 366.065C649.882 366.441 649.739 366.673 649.266 367.183C646.664 369.589 643.552 371.52 639.886 372.79L638.902 372.826ZM637.98 358.957C637.98 358.957 637.792 359.002 637.604 359.047C637.417 359.092 637.139 358.761 636.862 358.43C636.817 358.242 636.585 358.099 636.728 357.867C636.683 357.679 636.782 357.258 636.925 357.026C637.068 356.793 637.166 356.373 637.309 356.141C637.595 355.676 637.926 355.398 638.302 355.309C638.302 355.309 638.489 355.264 638.722 355.407C638.91 355.363 639.187 355.693 639.464 356.024C639.509 356.212 639.741 356.355 639.598 356.588C639.643 356.775 639.545 357.196 639.402 357.428L638.972 358.126C638.686 358.591 638.356 358.868 637.98 358.957Z" fill="#9A28CD"/>
<path d="M652.834 370.5C652.646 370.544 652.038 370.491 651.054 370.527L650.634 370.428C650.026 370.375 649.373 370.133 648.863 369.659C648.354 369.186 647.987 368.479 647.853 367.916C647.719 367.353 647.772 366.744 647.826 366.136L647.969 365.904C647.924 365.716 648.067 365.484 648.022 365.296C648.943 362.497 650.561 360.127 652.922 358.374C653.441 358.052 653.771 357.775 654.192 357.873C654.755 357.739 655.175 357.838 655.64 358.124C656.15 358.598 656.427 358.928 656.561 359.492C656.606 359.679 656.508 360.1 656.553 360.288C656.401 361.316 656.016 362.201 655.632 363.086C655.158 363.596 654.782 363.686 654.407 363.775C654.407 363.775 654.219 363.82 654.031 363.865C653.843 363.909 653.611 363.766 653.522 363.391C653.477 363.203 653.477 363.203 653.432 363.015C653.387 362.827 653.53 362.595 653.486 362.407C653.825 361.334 654.254 360.637 654.353 360.216C653.503 360.815 652.886 361.558 652.27 362.3C651.223 363.74 650.553 365.09 650.115 366.583C650.16 366.771 650.061 367.191 650.106 367.379C650.24 367.942 650.893 368.184 652.44 368.014C654.738 367.665 657.555 366.994 660.613 365.67C662.634 364.99 664.753 363.89 667.015 362.558C667.203 362.513 667.39 362.468 667.578 362.424C667.766 362.379 667.999 362.522 668.231 362.665C668.464 362.808 668.741 363.139 668.83 363.514C668.83 363.514 668.875 363.702 668.92 363.89C668.964 364.078 668.634 364.355 668.303 364.632C664.628 366.698 660.488 368.478 656.071 369.927C654.944 370.195 654.005 370.419 652.834 370.5Z" fill="#9A28CD"/>
<path d="M671.031 367.754C670.467 367.888 669.859 367.834 669.251 367.781C667.99 367.486 667.391 366.636 667.123 365.51C667.033 365.134 667.132 364.714 667.087 364.526L667.239 363.498C667.972 360.744 669.214 358.463 670.824 356.889C671.486 356.335 672.192 355.968 672.943 355.789C673.131 355.744 673.319 355.7 673.551 355.843C674.579 355.995 675.322 356.612 675.59 357.738C675.635 357.926 675.679 358.114 675.536 358.346C675.331 359.983 674.616 361.145 673.48 362.209C672.863 362.952 671.638 363.64 670.369 364.141L669.993 364.231C669.805 364.275 669.617 364.32 669.385 364.177C669.43 364.365 669.287 364.597 669.331 364.785C669.465 365.348 669.886 365.447 670.637 365.268C671.012 365.178 671.388 365.089 671.576 365.044C673.454 364.597 675.331 364.15 677.12 363.327C680.553 361.914 683.093 360.912 684.461 359.991C685.167 359.624 685.498 359.347 685.686 359.302C685.873 359.257 686.294 359.356 686.526 359.499C686.759 359.642 687.036 359.973 687.125 360.348C687.125 360.348 687.17 360.536 687.215 360.724C687.26 360.912 686.929 361.189 686.41 361.511L684.291 362.611C681.609 363.845 679.445 364.757 677.656 365.58C675.868 366.403 673.802 366.895 671.925 367.342C671.594 367.62 671.406 367.664 671.031 367.754ZM670.681 361.289C671.2 360.967 671.531 360.69 672.049 360.368C672.854 359.581 673.14 359.116 673.283 358.883C673.283 358.883 673.238 358.695 673.051 358.74C672.863 358.785 672.675 358.829 672.344 359.107C671.826 359.429 671.209 360.171 670.681 361.289Z" fill="#9A28CD"/>
<path d="M709.982 372.166C709.419 372.3 709.187 372.157 708.909 371.827C708.677 371.683 708.632 371.496 708.543 371.12C708.408 370.557 708.989 368.831 709.91 366.032C709.722 366.077 709.347 366.166 708.641 366.533C707.889 366.712 706.951 366.935 706.199 367.114C705.824 367.204 705.216 367.15 704.84 367.24C703.249 367.222 701.943 366.739 701.254 365.514C700.932 364.996 700.655 364.665 700.709 364.057C700.619 363.681 700.673 363.073 700.726 362.465L700.78 361.857L701.021 361.204C701.602 359.478 702.702 357.431 704.553 355.204C706.547 352.745 708.585 350.473 710.901 348.532L711.563 347.978C712.555 347.146 713.548 346.315 714.585 345.671C714.352 345.528 714.165 345.572 713.932 345.429C713.7 345.286 713.512 345.331 713.279 345.188C711.088 344.321 709.792 343.042 709.765 341.263C709.631 340.699 709.872 340.047 710.113 339.394C710.355 338.741 710.641 338.276 710.927 337.811C712.304 336.094 714.235 335.039 716.632 334.269C716.783 333.241 717.168 332.356 717.508 331.283C717.794 330.818 718.125 330.54 718.5 330.451C718.5 330.451 718.688 330.406 718.876 330.362C719.063 330.317 719.296 330.46 719.806 330.934C719.85 331.122 720.083 331.265 720.128 331.452C720.172 331.64 720.074 332.06 719.931 332.293C719.645 332.758 719.591 333.366 719.305 333.831C720.477 333.75 721.55 334.09 722.48 334.662C722.945 334.948 723.222 335.279 723.124 335.7C723.258 336.263 722.972 336.728 722.453 337.05C722.265 337.095 722.078 337.139 721.89 337.184C721.514 337.274 721.282 337.13 720.817 336.844C720.164 336.603 719.744 336.505 719.136 336.451C718.76 336.541 718.34 336.442 718.152 336.487C717.168 336.523 716.086 336.979 714.861 337.668C713.824 338.312 712.975 338.911 712.59 339.796C712.447 340.028 712.349 340.449 712.394 340.637C712.528 341.2 712.805 341.531 713.315 342.005C713.78 342.291 714.433 342.532 714.898 342.818L715.318 342.916C715.971 343.158 716.767 343.167 717.795 343.319C718.966 343.238 719.664 343.667 719.753 344.043C719.843 344.418 719.744 344.839 719.503 345.491C719.503 345.491 719.36 345.724 718.984 345.813C718.797 345.858 718.278 346.18 717.715 346.314C715.926 347.137 714.415 348.291 712.904 349.444L712.243 349.999C709.927 351.939 707.843 354.023 706.225 356.393C705.134 357.645 704.321 359.228 703.65 360.578C703.409 361.231 703.311 361.651 703.069 362.304L703.159 362.679C703.203 362.867 703.06 363.1 703.105 363.287C703.239 363.851 703.517 364.182 704.125 364.235C704.733 364.289 705.341 364.342 705.904 364.208C706.655 364.029 707.406 363.85 708.345 363.627C708.533 363.582 708.721 363.537 708.908 363.493C712.95 362.133 716.813 360.022 720.166 357.438C720.354 357.393 720.684 357.116 720.872 357.071C721.06 357.026 721.48 357.125 721.713 357.268C721.945 357.411 722.223 357.742 722.169 358.35C722.258 358.725 721.972 359.19 721.641 359.467C719.093 361.265 716.312 362.92 713.442 364.199L713.344 364.619C712.53 366.202 711.761 367.972 711.413 369.841L711.315 370.261C710.832 371.567 710.546 372.032 709.982 372.166Z" fill="#9A28CD"/>
<path d="M747.439 363.642C746.268 363.722 745.052 363.615 743.791 363.32C743.371 363.222 742.906 362.936 742.628 362.605L742.163 362.319L741.841 361.8C741.055 360.995 740.554 359.726 740.384 358.179C740.169 356.444 740.473 354.387 741.152 352.241C741.25 351.821 741.447 350.98 741.93 349.675L743.083 347.019C745.524 342.27 748.429 337.808 752.265 333.918L752.927 333.363C754.348 331.834 755.86 330.681 757.603 329.67C759.347 328.659 760.759 327.926 762.306 327.756C763.666 327.631 764.694 327.783 765.579 328.167C766.697 328.694 767.341 329.732 767.422 330.903C767.511 331.279 767.314 332.119 767.118 332.96C766.975 333.192 766.876 333.612 766.921 333.8C765.911 336.224 764.391 338.173 762.638 339.98C761.834 340.767 761.315 341.089 760.984 341.366C760.466 341.688 759.947 342.01 759.339 341.956C758.588 342.135 758.123 341.849 757.658 341.563C757.425 341.42 757.336 341.044 757.247 340.669C757.112 340.105 757.354 339.453 757.64 338.987C758.212 338.057 759.017 337.271 759.866 336.671C760.054 336.627 760.385 336.349 760.617 336.492C760.993 336.403 761.413 336.501 761.735 337.02C762.826 335.768 763.684 334.373 764.31 332.835C764.453 332.602 764.408 332.414 764.551 332.182L764.65 331.762C764.605 331.574 764.748 331.341 764.658 330.966C764.569 330.59 764.292 330.26 763.684 330.206C763.308 330.295 763.076 330.152 762.888 330.197C762.7 330.242 762.325 330.331 761.949 330.421C759.883 330.913 757.997 332.156 756.012 333.819C755.538 334.329 754.876 334.883 754.215 335.438C750.048 339.605 746.812 344.345 744.881 349.567C744.398 350.873 743.915 352.178 743.665 353.627C743.227 355.12 743.164 356.524 743.433 357.651C743.612 358.402 743.791 359.153 744.113 359.672C744.157 359.859 744.39 360.002 744.622 360.145C744.622 360.145 744.855 360.289 744.9 360.476C745.087 360.432 745.132 360.619 745.132 360.619C745.83 361.048 746.858 361.2 748.029 361.12C749.013 361.084 750.14 360.816 751.221 360.359C752.679 359.814 754.136 359.268 755.692 358.302C756.023 358.025 756.399 357.936 756.917 357.614C760.78 355.503 764.133 352.919 767.066 350.236C767.397 349.958 767.54 349.726 767.87 349.449C768.201 349.171 768.389 349.127 768.577 349.082C768.765 349.037 768.997 349.18 769.185 349.136C769.605 349.234 769.695 349.609 769.784 349.985C769.874 350.361 769.73 350.593 769.4 350.87L768.595 351.657C765.519 354.573 761.934 357.014 757.928 359.357L756.891 360.001C754.253 361.423 751.713 362.425 749.085 363.051C748.19 363.463 747.815 363.552 747.439 363.642Z" fill="#9A28CD"/>
<path d="M771.117 356.414C770.741 356.503 770.133 356.45 769.668 356.163C768.318 355.493 767.486 354.5 767.272 352.766C767.227 352.578 767.227 352.578 767.182 352.39C767.2 350.798 767.45 349.35 768.308 347.955C768.639 347.678 768.782 347.445 769.158 347.356C768.979 346.605 769.22 345.952 769.506 345.487C769.936 344.789 770.454 344.467 771.205 344.288C771.581 344.199 772.001 344.297 772.421 344.396C773.307 344.78 774.237 345.352 774.648 346.246C775.06 347.14 775.471 348.035 775.507 349.018C776.723 349.125 777.707 349.09 778.878 349.009C780.8 348.749 782.678 348.302 784.467 347.479L784.842 347.39C785.218 347.3 785.45 347.444 785.683 347.587C785.915 347.73 786.005 348.105 786.049 348.293C786.049 348.293 786.094 348.481 785.996 348.901C786.041 349.089 785.71 349.366 785.191 349.688C783.215 350.556 781.149 351.048 779.039 351.352C777.868 351.432 776.696 351.513 775.48 351.406C775.132 353.275 774.273 354.67 772.762 355.823C772.575 355.868 772.244 356.145 772.056 356.19C771.868 356.235 771.68 356.279 771.68 356.279L771.117 356.414ZM770.956 354.071C770.956 354.071 771.144 354.026 771.519 353.937C772.556 353.293 773.129 352.363 773.424 351.102C772.583 350.905 771.698 350.521 771 350.092C770.768 349.949 770.535 349.806 770.49 349.618C770.061 350.315 769.865 351.156 769.901 352.14C769.945 352.327 769.99 352.515 769.802 352.56L769.847 352.748C770.071 353.686 770.393 354.205 770.956 354.071ZM773.173 348.384C772.949 347.445 772.44 346.971 771.787 346.729L771.599 346.774L771.644 346.962C771.644 346.962 771.644 346.962 771.688 347.15L771.733 347.337C771.778 347.525 772.055 347.856 772.332 348.187C772.52 348.142 772.753 348.285 773.173 348.384Z" fill="#9A28CD"/>
<path d="M783.449 371.533C782.278 371.614 781.723 370.952 781.41 369.638C781.321 369.262 781.374 368.654 781.428 368.046C781.526 367.626 781.482 367.438 781.392 367.062C781.571 363.647 781.982 360.374 782.58 357.056C783.072 354.955 783.376 352.898 784.1 350.94C784.055 350.752 784.198 350.52 784.341 350.287C784.735 348.606 785.316 346.88 785.941 345.342C786.04 344.922 786.326 344.457 786.567 343.804C786.952 342.919 787.291 341.846 787.676 340.96C788.445 339.19 789.392 338.17 790.376 338.134C790.564 338.09 790.984 338.188 791.217 338.331C791.682 338.617 791.959 338.948 791.86 339.368C791.95 339.744 791.896 340.352 791.7 341.192C790.922 343.759 789.956 346.37 788.526 348.695L789.179 348.936C790.207 349.088 791.611 349.151 792.97 349.025C793.534 348.891 794.705 348.811 796.019 348.498C798.273 347.961 800.15 347.514 801.796 346.923C802.69 346.512 803.208 346.19 803.441 346.333C803.817 346.243 804.049 346.386 804.282 346.529C804.514 346.673 804.604 347.048 804.648 347.236C804.648 347.236 804.693 347.424 804.55 347.656C804.595 347.844 804.264 348.121 803.745 348.443C802.851 348.855 802.145 349.221 801.769 349.311C800.124 349.901 797.871 350.438 795.054 351.109C794.303 351.288 793.552 351.467 792.756 351.458C791.397 351.583 790.225 351.664 789.197 351.512C789.77 358.916 788.715 365.318 785.568 370.433C784.907 370.988 784.2 371.354 783.449 371.533ZM783.86 368.26C785.291 365.935 786.113 363.557 786.614 360.66C787.025 357.387 787.248 354.159 786.72 351.109C786.434 351.575 786.291 351.807 786.291 351.807C784.726 357.736 783.824 363.11 783.86 368.26Z" fill="#9A28CD"/>
<path d="M800.984 369.341C799.813 369.421 799.258 368.76 798.945 367.445C798.856 367.07 798.909 366.462 798.963 365.854C799.061 365.433 799.016 365.246 798.927 364.87C799.105 361.454 799.516 358.181 800.115 354.864C800.607 352.763 800.911 350.706 801.635 348.747C801.59 348.56 801.733 348.327 801.876 348.095C802.269 346.414 802.851 344.688 803.476 343.15C803.575 342.729 803.861 342.264 804.102 341.611C804.487 340.726 804.826 339.653 805.211 338.768C805.98 336.997 806.927 335.978 807.911 335.942C808.099 335.897 808.519 335.996 808.751 336.139C809.216 336.425 809.494 336.756 809.395 337.176C809.485 337.551 809.431 338.159 809.235 339C808.457 341.566 807.491 344.178 806.061 346.503L806.714 346.744C807.742 346.896 809.146 346.958 810.505 346.833C811.068 346.699 812.24 346.618 813.554 346.305C815.808 345.768 817.685 345.321 819.331 344.731C820.225 344.319 820.743 343.997 820.976 344.14C821.351 344.051 821.584 344.194 821.816 344.337C822.049 344.48 822.138 344.856 822.183 345.044C822.183 345.044 822.228 345.231 822.085 345.464C822.13 345.652 821.799 345.929 821.28 346.251C820.386 346.662 819.68 347.029 819.304 347.118C817.659 347.709 815.405 348.245 812.589 348.916C811.838 349.095 811.087 349.274 810.291 349.265C808.932 349.391 807.76 349.471 806.732 349.319C807.305 356.723 806.25 363.126 803.103 368.241C802.442 368.795 801.78 369.35 800.984 369.341ZM801.395 366.068C802.826 363.743 803.648 361.364 804.148 358.467C804.559 355.194 804.783 351.966 804.255 348.917C803.969 349.382 803.826 349.615 803.826 349.615C802.261 355.543 801.359 360.918 801.395 366.068Z" fill="#9A28CD"/>
<path d="M823.731 349.041C823.168 349.175 822.56 349.121 821.952 349.068C820.691 348.773 820.092 347.923 819.823 346.797C819.734 346.421 819.832 346.001 819.787 345.813L819.939 344.785C820.672 342.031 821.915 339.75 823.524 338.176C824.186 337.622 824.892 337.255 825.643 337.076C825.831 337.032 826.019 336.987 826.252 337.13C827.28 337.282 828.022 337.899 828.29 339.025C828.335 339.213 828.38 339.401 828.237 339.633C828.031 341.27 827.316 342.432 826.181 343.497C825.564 344.239 824.339 344.927 823.069 345.428L822.693 345.518C822.506 345.563 822.318 345.607 822.085 345.464C822.13 345.652 821.987 345.885 822.032 346.072C822.166 346.636 822.586 346.734 823.337 346.555C823.713 346.466 824.088 346.376 824.276 346.331C826.154 345.884 828.032 345.437 829.82 344.614C833.254 343.201 835.793 342.199 837.161 341.278C837.868 340.911 838.198 340.634 838.386 340.589C838.574 340.545 838.994 340.643 839.227 340.786C839.459 340.929 839.736 341.26 839.826 341.635C839.826 341.635 839.871 341.823 839.915 342.011C839.96 342.199 839.629 342.476 839.111 342.798L836.991 343.898C834.309 345.132 832.145 346.045 830.357 346.867C828.569 347.69 826.503 348.182 824.625 348.629C824.294 348.907 824.107 348.951 823.731 349.041ZM823.382 342.576C823.9 342.254 824.231 341.977 824.75 341.655C825.554 340.868 825.841 340.403 825.984 340.17C825.984 340.17 825.939 339.982 825.751 340.027C825.563 340.072 825.376 340.117 825.045 340.394C824.526 340.716 823.909 341.458 823.382 342.576Z" fill="#9A28CD"/>
<path d="M842.061 346.856C841.498 346.99 840.89 346.937 840.282 346.883C839.021 346.588 838.422 345.739 838.153 344.612C838.064 344.237 838.162 343.816 838.118 343.629L838.27 342.6C839.003 339.846 840.245 337.566 841.855 335.992C842.516 335.437 843.223 335.071 843.974 334.892C844.162 334.847 844.349 334.802 844.582 334.945C845.61 335.097 846.352 335.714 846.621 336.841C846.666 337.029 846.71 337.216 846.567 337.449C846.362 339.085 845.646 340.248 844.511 341.312C843.894 342.054 842.669 342.743 841.399 343.244L841.024 343.333C840.836 343.378 840.648 343.423 840.416 343.28C840.46 343.467 840.317 343.7 840.362 343.888C840.496 344.451 840.917 344.549 841.668 344.37C842.043 344.281 842.419 344.192 842.607 344.147C844.484 343.7 846.362 343.252 848.15 342.429C851.584 341.016 854.123 340.015 855.491 339.093C856.198 338.727 856.529 338.449 856.716 338.405C856.904 338.36 857.325 338.458 857.557 338.601C857.79 338.744 858.067 339.075 858.156 339.451C858.156 339.451 858.201 339.639 858.246 339.826C858.29 340.014 857.96 340.291 857.441 340.613L855.322 341.713C852.639 342.948 850.475 343.86 848.687 344.683C846.899 345.506 844.833 345.998 842.956 346.445C842.812 346.677 842.437 346.767 842.061 346.856ZM841.712 340.391C842.231 340.069 842.561 339.792 843.08 339.47C843.885 338.683 844.171 338.218 844.314 337.986C844.314 337.986 844.269 337.798 844.081 337.843C843.894 337.887 843.706 337.932 843.375 338.209C842.856 338.531 842.427 339.229 841.712 340.391Z" fill="#9A28CD"/>
<path d="M889.276 349.301L888.9 349.391C888.712 349.435 888.48 349.292 888.435 349.105C888.39 348.917 888.113 348.586 887.979 348.023C887.031 344.875 885.841 342.38 884.464 339.93C884.419 339.743 884.187 339.6 884.142 339.412C884.097 339.224 883.865 339.081 883.775 338.705C882.416 338.831 881.245 338.911 880.261 338.947C878.875 341.46 877.677 343.928 876.524 346.584C876.283 347.237 875.952 347.514 875.389 347.648C874.825 347.782 874.36 347.496 874.083 347.165C873.851 347.022 873.761 346.647 873.716 346.459C873.672 346.271 873.815 346.039 873.725 345.663C874.78 343.428 876.023 341.147 877.31 339.055C875.951 339.18 875.155 339.171 874.547 339.118C873 339.288 871.552 339.037 869.728 338.877C868.091 338.671 866.598 338.233 865.578 337.285C865.346 337.142 865.069 336.812 865.024 336.624L864.747 336.293L864.612 335.73C864.523 335.354 864.478 335.166 864.389 334.791C864.344 334.603 864.442 334.183 864.353 333.807C864.791 332.314 865.551 331.339 866.964 330.606L867.294 330.328L867.858 330.194C868.233 330.105 868.564 329.828 868.752 329.783C869.315 329.649 869.879 329.514 870.63 329.336C872.74 329.031 874.797 329.335 876.755 330.059L877.453 330.488C877.918 330.774 878.338 330.873 878.803 331.159C879.456 331.4 880.198 332.017 880.94 332.634C883.613 328.029 886.519 323.566 889.237 319.149C891.285 316.082 893.099 312.871 894.914 309.661C895.343 308.963 895.674 308.686 896.05 308.597C896.05 308.597 896.238 308.552 896.425 308.507C896.613 308.462 897.123 308.936 897.955 309.929L897.999 310.117C898.044 310.304 897.856 310.349 897.901 310.537L897.758 310.769L896.98 313.336C894.737 321.411 892.967 328.976 892.091 336.129C892.279 336.085 892.699 336.183 893.638 335.959C894.434 335.968 894.899 336.254 894.89 337.05C894.935 337.238 894.792 337.47 894.836 337.658C894.738 338.078 894.363 338.168 893.987 338.257C893.799 338.302 893.379 338.204 892.628 338.383L891.832 338.374C891.466 341.834 891.108 344.499 891.091 346.091L890.939 347.119L890.983 347.307C891.073 347.683 890.93 347.915 890.787 348.148C890.832 348.335 890.688 348.568 890.501 348.613C890.072 349.31 889.696 349.399 889.276 349.301ZM878.786 336.918C879.215 336.22 879.456 335.567 879.885 334.87C878.678 333.967 877.748 333.394 876.63 332.867C876.398 332.724 876.21 332.769 875.977 332.626C874.439 332 873.035 331.937 871.488 332.107C870.317 332.188 869.423 332.599 868.717 332.966L868.341 333.056C867.492 333.655 866.83 334.209 866.964 334.773C867.009 334.96 867.054 335.148 867.331 335.479C868.306 336.239 869.379 336.579 871.015 336.784C871.856 336.981 873.027 336.9 874.431 336.963C875.414 336.927 876.818 336.989 878.786 336.918ZM881.924 336.765L881.647 336.434L881.504 336.667L881.924 336.765ZM889.981 336.434C890.884 331.059 892.081 324.424 893.994 316.627L891.517 320.392C888.612 324.854 885.751 329.504 882.89 334.154C883.677 334.959 884.276 335.808 885.063 336.613L889.981 336.434ZM888.962 343.82C889.168 342.183 889.373 340.547 889.722 338.678L886.583 338.83C887.549 340.386 888.327 341.987 888.962 343.82Z" fill="#9A28CD"/>
<path d="M914.483 343.497C912.748 343.711 911.863 343.327 911.782 342.156C911.603 341.405 911.889 340.94 912.176 340.475C912.649 339.965 913.687 339.321 915.475 338.498C914.831 337.461 914.563 336.334 914.294 335.207C910.816 336.433 906.774 337.792 902.026 339.519C902.071 339.706 902.16 340.082 902.205 340.27C902.384 341.021 902.187 341.861 901.991 342.702C901.749 343.355 901.463 343.82 900.757 344.187L899.907 344.786C899.201 345.152 898.495 345.519 897.511 345.555C896.528 345.591 895.544 345.627 894.471 345.287C894.238 345.144 894.051 345.189 893.818 345.046L893.586 344.903C893.541 344.715 893.353 344.76 893.353 344.76C892.888 344.473 892.566 343.955 892.432 343.391C892.307 342.032 893.353 340.593 895.892 339.591C897.162 339.09 898.431 338.589 899.513 338.133C899.111 336.443 898.798 335.128 898.574 334.19C898.359 332.455 898.61 331.006 899.325 329.844C900.04 328.681 901.033 327.849 902.58 327.679C903.939 327.554 905.343 327.617 906.505 328.332C907.158 328.573 907.668 329.047 908.222 329.709C908.455 329.852 908.544 330.227 908.589 330.415C908.634 330.603 908.49 330.835 908.392 331.256C908.249 331.488 907.918 331.765 907.543 331.855C907.167 331.944 906.702 331.658 906.425 331.327C905.915 330.854 905.218 330.424 904.189 330.272C903.769 330.174 903.394 330.264 902.785 330.21C901.99 330.201 901.328 330.756 900.988 331.829C900.747 332.481 900.738 333.277 900.774 334.261C900.81 335.245 901.078 336.371 901.534 337.453C903.367 336.818 905.388 336.138 907.221 335.503C908.491 335.002 910.887 334.233 914.366 333.008C914.321 332.82 914.464 332.587 914.607 332.355C915.09 331.049 915.993 329.842 917.218 329.153C917.736 328.832 918.3 328.697 919.051 328.518C920.41 328.393 921.206 328.402 921.903 328.831L922.601 329.26C922.735 329.824 922.967 329.967 923.012 330.154C923.137 331.514 921.108 332.989 916.735 334.626C916.816 335.797 917.272 336.879 917.683 337.773C919.141 337.228 920.411 336.727 921.725 336.414C924.497 335.555 927.18 334.321 929.862 333.087C930.568 332.72 931.087 332.398 931.606 332.076C932.124 331.754 932.455 331.477 932.643 331.432C932.831 331.387 933.063 331.53 933.296 331.674C933.528 331.817 933.805 332.147 933.707 332.568C933.796 332.943 933.51 333.408 933.18 333.685C931.999 334.562 931.105 334.973 930.774 335.251C928.28 336.44 925.597 337.674 922.825 338.533C921.886 338.757 920.429 339.302 918.596 339.937C918.641 340.125 918.685 340.313 918.73 340.501C918.864 341.064 918.578 341.529 918.337 342.182C918.051 342.647 917.532 342.969 917.013 343.291C916.03 343.327 915.279 343.506 914.483 343.497ZM897.35 343.212C897.913 343.078 898.477 342.944 899.04 342.81C899.746 342.443 900.175 341.745 900.095 340.574L900.05 340.386C897.18 341.665 895.579 342.443 895.105 342.953C895.105 342.953 895.105 342.953 894.918 342.998C895.758 343.194 896.554 343.203 897.35 343.212ZM916.056 340.939C916.432 340.85 916.432 340.85 916.53 340.429L915.824 340.796C915.824 340.796 915.869 340.984 916.056 340.939Z" fill="#9A28CD"/>
<path d="M935.442 336.52C935.066 336.609 934.646 336.511 934.038 336.457C932.589 336.207 931.615 335.447 931.069 333.989C931.024 333.802 930.98 333.614 930.935 333.426C930.854 332.255 930.872 330.663 931.408 328.749L931.659 327.301C931.9 326.648 932.186 326.183 932.794 326.237C933.17 326.147 933.402 326.29 933.635 326.433C933.867 326.576 934.144 326.907 934.046 327.327C934.091 327.515 934.136 327.703 933.992 327.935L933.796 328.776C933.456 329.849 933.161 331.11 933.054 332.326C932.956 332.746 933 332.934 933.045 333.122C933.135 333.497 933.224 333.873 933.457 334.016C933.689 334.159 934.297 334.213 934.905 334.266C935.468 334.132 935.844 334.043 936.22 333.953C938.804 333.139 941.254 331.762 943.426 330.054C943.57 329.821 943.9 329.544 944.043 329.312C944.517 328.802 944.893 328.712 945.081 328.668C945.832 328.489 946.154 329.007 946.333 329.758C946.422 330.134 946.279 330.366 945.805 330.876C943.203 333.282 940.092 335.214 936.425 336.484L935.442 336.52ZM934.332 322.695C934.332 322.695 934.144 322.74 933.956 322.785C933.768 322.83 933.491 322.499 933.214 322.168C933.169 321.98 932.937 321.837 933.08 321.605C933.035 321.417 933.133 320.996 933.276 320.764C933.419 320.531 933.518 320.111 933.661 319.879C933.947 319.414 934.278 319.136 934.653 319.047C934.653 319.047 934.841 319.002 935.074 319.145C935.261 319.101 935.539 319.431 935.816 319.762C935.861 319.95 936.093 320.093 935.95 320.326C935.995 320.513 935.896 320.934 935.753 321.166L935.324 321.864C935.038 322.329 934.707 322.606 934.332 322.695Z" fill="#9A28CD"/>
<path d="M946.422 338.468C946.235 338.513 945.814 338.415 945.251 338.549C943.802 338.299 942.64 337.583 941.531 336.26C941.254 335.929 941.164 335.554 941.075 335.178C940.896 334.427 941.37 333.917 941.888 333.595C942.219 333.318 942.782 333.184 943.721 332.96L945.975 332.423C945.653 331.905 945.563 331.529 945.241 331.011C944.919 330.492 944.83 330.117 944.785 329.929C944.096 328.704 943.685 327.81 943.694 327.014C943.658 326.03 943.855 325.19 944.427 324.26C945.089 323.705 945.983 323.294 946.734 323.115C947.905 323.034 949.121 323.141 950.096 323.901C950.373 324.232 950.651 324.563 950.695 324.751C950.83 325.314 950.543 325.779 950.025 326.101C949.837 326.146 949.837 326.146 949.649 326.191C949.274 326.28 949.041 326.137 948.576 325.851C948.111 325.565 947.503 325.511 946.895 325.458C946.332 325.592 945.956 325.681 945.858 326.101C945.903 326.289 945.947 326.477 945.804 326.71C945.938 327.273 946.395 328.355 947.173 329.955C947.495 330.474 947.861 331.18 947.995 331.744C952.457 330.482 955.703 329.114 957.688 327.451C958.019 327.173 958.35 326.896 958.538 326.851C958.725 326.807 958.958 326.95 959.19 327.093C959.423 327.236 959.7 327.567 959.79 327.942C959.879 328.318 959.736 328.55 959.262 329.06C957.939 330.169 955.677 331.502 952.386 332.682C952.011 332.772 950.741 333.272 948.532 333.997L948.622 334.373C948.756 334.936 948.702 335.544 948.649 336.152C948.309 337.225 947.692 337.967 946.61 338.423C946.843 338.567 946.655 338.611 946.422 338.468ZM946.073 336.17C946.261 336.125 946.637 336.036 946.592 335.848C946.735 335.616 946.646 335.24 946.699 334.632C945.76 334.856 945.009 335.035 944.07 335.258L943.883 335.303C944.348 335.589 944.813 335.875 945.233 335.973C945.698 336.26 945.886 336.215 946.073 336.17Z" fill="#9A28CD"/>
<path d="M961.436 335.686C961.061 335.776 960.828 335.633 960.408 335.534L959.988 335.436L959.523 335.15C958.593 334.578 957.949 333.54 957.868 332.369C957.698 330.822 957.716 329.23 957.921 327.594L958.225 325.537C958.672 323.248 959.164 321.147 959.888 319.188C958.573 319.502 957.214 319.627 955.9 319.94C955.336 320.074 954.871 319.788 954.594 319.457C954.549 319.269 954.317 319.126 954.46 318.894C954.281 318.143 954.755 317.633 955.694 317.409C956.677 317.373 957.428 317.195 958.412 317.159C959.396 317.123 960.147 316.944 961.086 316.72C961.327 316.068 961.711 315.182 962.427 314.02C963.097 312.669 964.09 311.838 964.939 311.238C965.082 311.006 965.458 310.916 965.878 311.015C966.441 310.881 967.094 311.122 967.461 311.828C967.506 312.016 967.506 312.016 967.55 312.204L967.595 312.392C967.595 312.392 967.64 312.58 967.729 312.955C967.765 313.939 967.613 314.967 967.229 315.852L971.78 314.967C972.343 314.832 972.576 314.975 972.853 315.306C972.898 315.494 973.13 315.637 973.175 315.825C973.22 316.013 973.265 316.2 973.122 316.433C972.978 316.665 972.835 316.898 972.272 317.032L966.406 318.231C964.538 322.049 962.723 325.26 960.962 327.862C960.818 328.095 960.631 328.139 960.488 328.372C960.488 328.372 960.488 328.372 960.532 328.56C960.425 329.776 960.318 330.992 960.399 332.163L960.488 332.539C960.622 333.102 960.712 333.478 961.177 333.764C961.365 333.719 961.364 333.719 961.364 333.719L962.116 333.54C963.761 332.95 966.166 331.385 969.287 328.657C969.76 328.147 970.091 327.87 970.422 327.593C970.565 327.36 970.941 327.271 970.896 327.083C971.084 327.038 971.039 326.851 971.227 326.806C971.558 326.529 972.032 326.019 972.836 325.232C972.979 324.999 973.355 324.91 973.543 324.865C973.73 324.821 973.963 324.964 974.151 324.919C974.571 325.017 974.66 325.393 974.75 325.768C974.839 326.144 974.696 326.376 974.365 326.654L972.756 328.227C970.199 330.821 967.508 332.851 964.915 334.461C963.502 335.194 962.42 335.65 961.436 335.686ZM961.542 321.969C962.257 320.807 962.785 319.689 963.312 318.571L962.749 318.705C962.409 319.778 961.882 320.896 961.542 321.969ZM964.09 316.005L964.653 315.87C964.895 315.218 965.136 314.565 965.279 314.332C964.618 314.887 964.376 315.54 964.09 316.005Z" fill="#9A28CD"/>
<path d="M973.284 331.277C972.533 331.455 971.836 331.026 971.469 330.32C971.424 330.132 971.379 329.944 971.29 329.569C971.156 329.006 971.352 328.165 971.925 327.235L972.121 326.394C972.604 325.089 973.319 323.926 974.455 322.862C975.116 322.308 976.011 321.896 976.806 321.905C977.79 321.869 978.818 322.021 979.981 322.736C979.981 322.736 980.446 323.022 981.099 323.264C981.376 323.595 981.653 323.925 981.6 324.534C981.734 325.097 981.868 325.66 982.333 325.946C983.03 326.375 983.826 326.384 984.81 326.348C986.92 326.044 988.896 325.177 990.738 323.746C991.212 323.236 991.686 322.726 991.972 322.261C991.972 322.261 991.972 322.261 992.115 322.029C992.115 322.029 992.258 321.796 992.401 321.564C992.687 321.099 993.018 320.822 993.438 320.92C994.002 320.786 994.467 321.072 994.789 321.59C994.833 321.778 994.878 321.966 994.923 322.154C994.968 322.341 994.869 322.762 994.726 322.994L994.109 323.737C993.966 323.969 993.779 324.014 993.492 324.479C991.928 326.24 990.041 327.484 987.457 328.298C987.269 328.342 987.081 328.387 987.081 328.387C986.33 328.566 985.767 328.7 985.204 328.834C983.281 329.094 981.832 328.844 980.813 327.896L980.58 327.753C980.026 327.091 979.749 326.76 979.659 326.385C978.238 327.914 976.816 329.443 975.117 330.642L974.929 330.686C974.223 331.053 973.66 331.187 973.284 331.277ZM974.258 327.87C975.108 327.27 976.199 326.018 977.665 324.677C977.433 324.534 977.245 324.579 977.057 324.623C976.681 324.713 976.118 324.847 975.787 325.124C975.17 325.867 974.598 326.797 974.258 327.87Z" fill="#9A28CD"/>
<path d="M993.055 330.138C992.867 330.183 992.447 330.085 992.214 329.942C991.749 329.656 991.66 329.28 991.615 329.092C991.436 328.341 991.74 326.284 992.383 323.155C992.678 321.894 992.83 320.866 992.937 319.649C993.134 318.809 993.465 318.532 994.028 318.397C994.404 318.308 994.636 318.451 994.869 318.594C995.101 318.737 995.378 319.068 995.468 319.444C995.513 319.631 995.513 319.631 995.37 319.864C994.932 321.357 994.681 322.806 994.431 324.254C994.431 324.254 994.431 324.254 994.574 324.022C994.574 324.022 994.762 323.977 994.717 323.789C996.38 321.607 998.276 319.568 1000.4 317.673C1001.07 317.118 1001.77 316.751 1002.34 316.617C1002.9 316.483 1003.36 316.769 1003.92 317.431C1004.2 317.762 1004.33 318.325 1004.55 319.264C1004.64 319.639 1004.54 320.06 1004.63 320.435C1004.72 320.811 1004.77 320.999 1004.67 321.419C1004.76 321.794 1004.85 322.17 1004.98 322.733C1005.12 323.297 1005.39 323.627 1005.72 324.146C1006.41 324.575 1007.07 324.817 1007.82 324.638C1008.8 324.602 1010.21 323.868 1012.06 322.438C1013.57 321.284 1014.7 320.22 1015.79 318.968C1016.12 318.69 1016.45 318.413 1016.83 318.324C1017.39 318.19 1017.86 318.476 1018.04 319.227L1018.08 319.415C1018.17 319.79 1018.03 320.023 1017.7 320.3C1016.42 321.597 1014.95 322.938 1013.44 324.092C1013.25 324.136 1013.11 324.369 1012.92 324.414C1010.85 325.701 1009.44 326.435 1008.26 326.515C1007.7 326.65 1007.09 326.596 1006.49 326.542C1005.46 326.39 1004.53 325.818 1003.97 325.157C1003.42 324.495 1002.82 323.646 1002.64 322.894C1002.46 322.143 1002.33 321.58 1002.34 320.784L1002.25 319.613L1002.21 319.425C999.376 321.688 997.051 324.424 995.093 327.867C995.093 327.867 994.807 328.332 994.566 328.985C993.949 329.727 993.618 330.004 993.055 330.138Z" fill="#9A28CD"/>
<path d="M1020.04 328.473C1019.67 328.563 1019.43 328.42 1019.01 328.321L1018.59 328.223L1018.13 327.937C1017.2 327.365 1016.55 326.328 1016.47 325.156C1016.3 323.609 1016.32 322.018 1016.53 320.381L1016.83 318.324C1017.28 316.035 1017.77 313.934 1018.49 311.975C1017.18 312.289 1015.82 312.414 1014.51 312.727C1013.94 312.861 1013.48 312.575 1013.2 312.244C1013.15 312.056 1012.92 311.913 1013.07 311.681C1012.89 310.93 1013.36 310.42 1014.3 310.196C1015.28 310.161 1016.03 309.982 1017.02 309.946C1018 309.91 1018.75 309.731 1019.69 309.507C1019.93 308.855 1020.32 307.969 1021.03 306.807C1021.7 305.456 1022.7 304.625 1023.54 304.026C1023.69 303.793 1024.06 303.704 1024.48 303.802C1025.05 303.668 1025.7 303.909 1026.07 304.615C1026.11 304.803 1026.11 304.803 1026.16 304.991L1026.2 305.179C1026.2 305.179 1026.25 305.367 1026.33 305.742C1026.37 306.726 1026.22 307.754 1025.83 308.639L1030.39 307.754C1030.95 307.619 1031.18 307.763 1031.46 308.093C1031.5 308.281 1031.74 308.424 1031.78 308.612C1031.83 308.8 1031.87 308.988 1031.73 309.22C1031.58 309.453 1031.44 309.685 1030.88 309.819L1025.01 311.018C1023.14 314.836 1021.33 318.047 1019.57 320.649C1019.42 320.882 1019.24 320.926 1019.09 321.159C1019.09 321.159 1019.09 321.159 1019.14 321.347C1019.03 322.563 1018.92 323.779 1019 324.95L1019.09 325.326C1019.23 325.889 1019.32 326.265 1019.78 326.551C1019.97 326.506 1019.97 326.506 1019.97 326.506L1020.72 326.327C1022.37 325.737 1024.77 324.172 1027.89 321.444C1028.37 320.934 1028.7 320.657 1029.03 320.38C1029.17 320.147 1029.55 320.058 1029.5 319.87C1029.69 319.825 1029.64 319.638 1029.83 319.593C1030.16 319.316 1030.64 318.806 1031.44 318.019C1031.58 317.787 1031.96 317.697 1032.15 317.652C1032.34 317.608 1032.57 317.751 1032.76 317.706C1033.18 317.804 1033.27 318.18 1033.36 318.555C1033.44 318.931 1033.3 319.163 1032.97 319.441L1031.36 321.015C1028.8 323.608 1026.11 325.638 1023.52 327.248C1022.11 327.981 1021.03 328.437 1020.04 328.473ZM1020.15 314.756C1020.86 313.594 1021.39 312.476 1021.92 311.358L1021.35 311.492C1020.83 312.61 1020.49 313.683 1020.15 314.756ZM1022.55 309.024L1023.12 308.89C1023.36 308.237 1023.6 307.584 1023.74 307.352C1023.27 307.862 1022.98 308.327 1022.55 309.024Z" fill="#9A28CD"/>
<path d="M1047.07 326.994C1046.42 326.753 1046.19 326.61 1046 326.654C1045.53 326.368 1045.45 325.993 1045.36 325.617C1045.27 325.242 1045.36 324.821 1045.46 324.401C1045.7 323.748 1045.99 323.283 1046.55 323.149C1046.93 323.06 1047.35 323.158 1047.63 323.489C1047.86 323.632 1048.32 323.918 1048.41 324.294L1048.46 324.481C1048.5 324.669 1048.55 324.857 1048.55 324.857C1048.64 325.233 1048.49 325.465 1048.4 325.885C1048.15 326.538 1047.82 326.815 1047.26 326.949L1047.07 326.994Z" fill="#9A28CD"/>
<path d="M1064.31 326.062C1063.94 326.152 1063.7 326.009 1063.28 325.911C1063.05 325.767 1062.77 325.437 1062.68 325.061C1062.64 324.873 1062.6 324.686 1062.78 324.641C1063.13 322.772 1063.67 320.858 1064.39 318.9L1064.59 318.059C1066.38 313.07 1068.31 307.847 1070.33 303C1071.05 301.042 1072.06 298.619 1073.13 295.587C1073.99 293.396 1074.72 291.438 1075.34 289.9C1075.34 289.9 1075.49 289.668 1075.44 289.48C1075.92 288.174 1076.31 287.289 1076.92 287.342C1077.1 287.298 1077.1 287.298 1077.34 287.441C1077.99 287.682 1078.46 287.968 1078.73 288.299C1078.78 288.487 1078.82 288.675 1078.82 288.675C1079 289.426 1078.41 291.947 1077.52 296.526C1076.97 299.235 1076.52 301.524 1076.22 303.581C1075.81 306.854 1075.4 310.127 1075.41 313.498L1075.55 313.265C1075.55 313.265 1075.98 312.568 1076.36 311.683C1077.32 309.867 1078.42 307.819 1079.66 305.539C1081.68 301.488 1083.78 297.813 1085.78 294.558C1086.21 293.86 1086.78 292.93 1087.35 292C1088.07 290.838 1088.78 289.675 1089.31 288.557L1089.93 287.815C1090.4 287.305 1090.5 286.885 1090.69 286.84C1090.88 286.796 1091.25 286.706 1091.44 286.661C1092 286.527 1092.47 286.813 1092.79 287.332C1093.07 287.663 1093.16 288.038 1093.25 288.414C1093.33 288.789 1093.19 289.022 1093.09 289.442C1092.99 289.863 1092.85 290.095 1092.75 290.515C1092.56 291.356 1092.26 292.617 1091.58 294.763C1090.56 297.982 1090.07 300.084 1089.92 301.112C1089.52 303.589 1089.07 305.878 1089.09 308.453C1089.04 309.061 1089.17 309.625 1089.12 310.233C1089.25 310.796 1089.38 311.359 1089.52 311.923C1089.61 312.298 1089.89 312.629 1090.02 313.192C1090.02 313.192 1090.25 313.336 1090.3 313.523C1090.85 314.185 1091.5 314.426 1092.26 314.247C1093.01 314.069 1093.76 313.89 1094.28 313.568C1094.98 313.201 1095.5 312.879 1096.21 312.512C1096.4 312.468 1096.54 312.235 1096.54 312.235L1098.38 310.804C1098.71 310.527 1098.9 310.482 1099.09 310.437C1099.27 310.393 1099.51 310.536 1099.93 310.634C1100.16 310.777 1100.44 311.108 1100.53 311.484C1100.62 311.859 1100.33 312.324 1100 312.601L1098.01 314.265C1097.68 314.542 1097.5 314.587 1097.35 314.819C1096.83 315.141 1096.31 315.463 1095.8 315.785C1094.9 316.196 1093.82 316.653 1092.84 316.689C1092.27 316.823 1091.67 316.769 1090.82 316.572C1090.03 316.564 1089.33 316.134 1088.54 315.33C1088.27 314.999 1087.99 314.668 1087.95 314.48L1087.62 313.962C1087.58 313.774 1087.53 313.586 1087.49 313.398C1087.12 312.692 1086.9 311.753 1086.82 310.582C1086.83 309.786 1086.6 308.847 1086.8 308.006C1086.87 305.807 1086.99 303.795 1087.48 301.693C1087.78 299.637 1088.32 297.723 1088.81 295.622L1089.4 293.1C1088.54 294.495 1087.83 295.657 1087.16 297.008C1086.63 298.126 1085.91 299.288 1085.24 300.638C1082.53 305.056 1080.33 309.152 1078.6 312.738C1077.93 314.088 1077.21 315.25 1076.5 316.413C1076.07 317.11 1075.41 317.665 1074.43 317.701C1074.24 317.745 1073.82 317.647 1073.63 317.692C1073.4 317.549 1072.93 317.263 1072.75 316.512C1072.71 316.324 1072.66 316.136 1072.66 316.136L1072.76 315.716L1072.72 315.528C1072.76 311.549 1073.18 307.48 1073.65 303.599C1073.7 302.991 1073.95 301.543 1074.4 299.253L1072.52 303.868C1070.5 308.714 1068.52 313.749 1066.97 318.882C1066.29 321.028 1065.8 323.129 1065.45 324.998C1065.54 325.374 1065.06 325.884 1064.31 326.062Z" fill="#9A28CD"/>
<path d="M1101.79 332.615C1101.41 332.704 1100.76 332.463 1100.25 331.989C1099.7 331.327 1099.29 330.433 1099.25 329.45C1099.16 329.074 1099.21 328.466 1099.12 328.09C1099.3 324.674 1100.6 321.786 1102.55 319.139C1103.74 317.467 1105.16 315.938 1106.81 314.551C1107.16 312.683 1107.51 310.814 1107.63 308.802C1107.68 308.194 1107.59 307.818 1107.73 307.586C1105.6 310.277 1104.36 311.762 1104.26 312.182C1103.22 313.622 1102.46 314.597 1101.98 315.106C1101.65 315.384 1101.32 315.661 1100.9 315.562C1100.15 315.741 1099.45 315.312 1098.94 314.838C1098.9 314.651 1098.81 314.275 1098.72 313.899C1098.54 313.148 1098.69 312.12 1098.7 311.324C1098.96 309.08 1099.59 307.542 1100.49 306.334C1100.82 306.057 1100.96 305.825 1101.38 305.923C1102.14 305.744 1102.64 306.218 1102.87 307.157C1102.96 307.532 1102.82 307.765 1102.53 308.23C1101.86 309.58 1101.38 310.886 1101.31 312.29L1104.02 308.668C1105.07 307.228 1106.16 305.976 1107.44 304.679L1107.58 304.447C1107.72 304.214 1108.1 304.125 1108.47 304.035C1109.46 304 1109.92 304.286 1110.29 304.992C1110.33 305.18 1110.38 305.368 1110.42 305.555C1110.51 305.931 1110.41 307.147 1110.39 308.739C1110.28 309.955 1110.17 311.171 1109.83 312.244C1112.34 310.259 1115.45 308.327 1119.31 306.216C1120.54 305.528 1121.29 305.349 1121.48 305.304C1121.66 305.259 1122.08 305.358 1122.32 305.501C1122.55 305.644 1122.64 306.019 1122.73 306.395C1122.73 306.395 1122.77 306.583 1122.82 306.77C1122.86 306.958 1122.53 307.235 1122.2 307.513C1120.79 308.246 1119.52 308.747 1118.48 309.391C1114.95 311.224 1112.07 313.299 1109.61 315.472C1108.73 319.255 1107.8 322.849 1106.59 326.113C1105.43 329.565 1104.14 331.658 1102.92 332.346C1102.16 332.525 1101.98 332.57 1101.79 332.615ZM1101.87 329.619C1101.87 329.619 1102.01 329.387 1102.34 329.109C1103.63 327.017 1104.94 323.333 1106.16 318.477C1104.31 320.704 1102.83 322.841 1102.2 325.175C1101.76 326.668 1101.7 328.072 1101.78 329.244C1101.64 329.476 1101.87 329.619 1101.87 329.619Z" fill="#9A28CD"/>
<path d="M1140.28 315.112C1139.72 315.246 1139.3 315.148 1138.65 314.907C1137.76 314.522 1137.25 314.048 1136.84 313.154C1136.24 312.305 1136.02 311.366 1135.94 310.194C1135.85 309.819 1135.9 309.211 1135.91 308.415C1135.92 307.619 1135.97 307.011 1136.03 306.403C1135.14 306.019 1134.4 305.402 1133.99 304.507L1133.43 303.846L1133.25 303.095C1133.12 302.531 1132.84 302.201 1132.71 301.637C1132.41 298.731 1133.06 295.601 1134.78 292.015C1135.74 290.2 1136.74 288.573 1137.97 287.088C1139.64 284.906 1141.53 282.867 1143.56 281.392C1145.73 279.683 1147.9 278.771 1150.2 278.422C1150.38 278.377 1150.76 278.288 1150.95 278.243C1151.37 278.342 1151.56 278.297 1151.74 278.252C1152.35 278.306 1152.77 278.404 1153.19 278.502C1153.61 278.601 1154.08 278.887 1154.77 279.316C1156.21 280.362 1157.04 282.15 1157.39 284.448C1157.47 285.62 1157.5 286.603 1157.54 287.587C1157.48 288.195 1157.43 288.803 1157.33 289.223C1156.92 292.496 1156.14 295.858 1155.07 298.89C1155.45 298.8 1155.59 298.568 1155.97 298.478C1156.34 298.389 1156.48 298.157 1156.67 298.112C1157.05 298.022 1157.28 298.165 1157.51 298.308C1157.74 298.451 1157.83 298.827 1157.92 299.203C1157.92 299.203 1157.97 299.39 1158.01 299.578C1158.06 299.766 1157.73 300.043 1157.4 300.32L1153.68 302.199C1152.24 305.319 1150.29 307.966 1148.44 310.193C1146.68 312 1145.03 313.386 1143.24 314.209L1142.54 314.575C1142.35 314.62 1141.97 314.709 1141.79 314.754C1141.08 315.121 1140.7 315.21 1140.28 315.112ZM1140.68 304.301C1142.23 304.131 1144.48 303.594 1146.84 302.637C1147.96 302.369 1149.38 301.636 1151.54 300.723C1152.84 297.835 1153.9 294.804 1154.36 291.718C1154.55 290.878 1154.56 290.082 1154.66 289.662C1154.82 287.838 1154.88 286.434 1154.66 285.495C1154.52 284.931 1154.35 284.18 1154.17 283.429C1153.99 282.678 1153.43 282.016 1152.69 281.4C1152.46 281.256 1152.04 281.158 1151.81 281.015C1151.57 280.872 1151.01 281.006 1150.59 280.908L1150.03 281.042C1148.29 281.257 1146.36 282.312 1144.52 283.743C1142.49 285.219 1140.92 286.98 1139.4 288.93L1138.79 289.672C1136.84 292.319 1135.68 294.975 1135.09 297.497C1134.8 298.758 1134.69 299.974 1134.77 301.145C1134.86 301.521 1135 302.084 1135.09 302.46L1135.36 302.79L1135.92 303.452C1136.17 302.003 1136.65 300.698 1137.13 299.392C1137.13 299.392 1137.28 299.16 1137.23 298.972C1137.19 298.784 1137.38 298.74 1137.33 298.552C1137.33 298.552 1137.47 298.319 1137.66 298.275C1139.02 298.149 1139.67 298.391 1139.81 298.954C1139.85 299.142 1139.85 299.142 1139.9 299.329C1139.99 299.705 1139.93 300.313 1139.69 300.966C1139.41 301.431 1139.26 301.663 1138.89 301.753C1138.65 302.406 1138.45 303.246 1138.21 303.899C1139.14 304.471 1139.93 304.48 1140.68 304.301ZM1140.26 312.537C1140.64 312.447 1141.02 312.358 1141.39 312.268L1141.77 312.179C1142.33 312.045 1142.66 311.767 1143.18 311.446C1145.92 309.603 1148.29 307.055 1149.96 304.077C1149.25 304.443 1148.5 304.622 1147.61 305.034C1144.88 306.08 1142.44 306.662 1140.7 306.876C1139.95 307.055 1139.16 307.046 1138.36 307.038C1138.31 307.646 1138.25 308.254 1138.29 309.237L1138.42 309.801C1138.56 310.364 1138.65 310.74 1138.82 311.491C1139 312.242 1139.47 312.528 1140.08 312.581L1140.26 312.537Z" fill="#9A28CD"/>
<path d="M1158.85 325.572C1157.68 325.653 1157.12 324.991 1156.81 323.677C1156.72 323.301 1156.77 322.693 1156.83 322.085C1156.92 321.665 1156.88 321.477 1156.79 321.102C1156.97 317.686 1157.38 314.413 1157.98 311.095C1158.47 308.994 1158.77 306.937 1159.5 304.979C1159.45 304.791 1159.6 304.559 1159.74 304.326C1160.13 302.645 1160.71 300.919 1161.34 299.381C1161.44 298.961 1161.72 298.496 1161.97 297.843C1162.35 296.958 1162.69 295.885 1163.07 294.999C1163.84 293.229 1164.79 292.209 1165.77 292.173C1165.96 292.129 1166.38 292.227 1166.61 292.37C1167.08 292.656 1167.36 292.987 1167.26 293.407C1167.35 293.783 1167.29 294.391 1167.1 295.231C1166.32 297.798 1165.35 300.409 1163.92 302.734L1164.58 302.975C1165.61 303.127 1167.01 303.19 1168.37 303.064C1168.93 302.93 1170.1 302.85 1171.42 302.537C1173.67 302 1175.55 301.553 1177.19 300.962C1178.09 300.551 1178.61 300.229 1178.84 300.372C1179.21 300.282 1179.45 300.426 1179.68 300.569C1179.91 300.712 1180 301.087 1180.05 301.275C1180.05 301.275 1180.09 301.463 1179.95 301.695C1179.99 301.883 1179.66 302.16 1179.14 302.482C1178.25 302.894 1177.54 303.26 1177.17 303.35C1175.52 303.94 1173.27 304.477 1170.45 305.148C1169.7 305.327 1168.95 305.506 1168.15 305.497C1166.79 305.622 1165.62 305.703 1164.59 305.551C1165.17 312.955 1164.11 319.357 1160.97 324.472C1160.3 325.027 1159.64 325.581 1158.85 325.572ZM1159.26 322.3C1160.69 319.975 1161.51 317.596 1162.01 314.699C1162.42 311.426 1162.65 308.198 1162.12 305.149C1161.83 305.614 1161.69 305.846 1161.69 305.846C1160.12 311.775 1159.22 317.149 1159.26 322.3Z" fill="#9A28CD"/>
<path d="M1176.43 323.567C1175.26 323.648 1174.7 322.986 1174.58 321.627C1174.49 321.251 1174.54 320.643 1174.59 320.035C1174.69 319.615 1174.65 319.427 1174.56 319.052C1174.74 315.636 1175.15 312.363 1175.75 309.045C1176.24 306.944 1176.54 304.887 1177.27 302.929C1177.22 302.741 1177.36 302.509 1177.51 302.276C1177.9 300.595 1178.48 298.869 1179.11 297.331C1179.21 296.911 1179.49 296.446 1179.73 295.793C1180.12 294.908 1180.46 293.835 1180.84 292.949C1181.61 291.179 1182.56 290.159 1183.54 290.123C1183.73 290.079 1184.15 290.177 1184.38 290.32C1184.85 290.606 1185.13 290.937 1185.03 291.357C1185.12 291.733 1185.06 292.341 1184.87 293.181C1184.09 295.748 1183.12 298.359 1181.69 300.684L1182.35 300.925C1183.37 301.077 1184.78 301.14 1186.14 301.014C1186.7 300.88 1187.87 300.8 1189.19 300.487C1191.44 299.95 1193.32 299.503 1194.96 298.912C1195.86 298.501 1196.37 298.179 1196.61 298.322C1196.98 298.232 1197.22 298.375 1197.45 298.519C1197.68 298.662 1197.77 299.037 1197.81 299.225C1197.81 299.225 1197.86 299.413 1197.72 299.645C1197.76 299.833 1197.43 300.11 1196.91 300.432C1196.02 300.844 1195.31 301.21 1194.94 301.3C1193.29 301.89 1191.04 302.427 1188.22 303.098C1187.47 303.277 1186.72 303.456 1185.92 303.447C1184.56 303.572 1183.39 303.653 1182.36 303.501C1182.94 310.905 1181.88 317.307 1178.73 322.422C1177.84 322.834 1177.18 323.388 1176.43 323.567ZM1176.79 320.106C1178.22 317.781 1179.05 315.403 1179.55 312.506C1179.96 309.233 1180.18 306.005 1179.65 302.955C1179.37 303.42 1179.22 303.653 1179.22 303.653C1177.66 309.582 1176.8 315.144 1176.79 320.106Z" fill="#9A28CD"/>
<path d="M1199.4 304.205C1199.02 304.295 1198.6 304.196 1197.99 304.143C1196.54 303.892 1195.57 303.132 1195.02 301.675C1194.98 301.487 1194.94 301.299 1194.89 301.112C1194.81 299.94 1194.83 298.349 1195.36 296.435L1195.61 294.986C1195.86 294.333 1196.14 293.868 1196.75 293.922C1197.13 293.833 1197.36 293.976 1197.59 294.119C1197.82 294.262 1198.1 294.593 1198 295.013C1198.05 295.201 1198.09 295.388 1197.95 295.621L1197.75 296.462C1197.41 297.535 1197.12 298.795 1197.01 300.012C1196.91 300.432 1196.96 300.62 1197 300.807C1197.09 301.183 1197.18 301.559 1197.41 301.702C1197.64 301.845 1198.25 301.898 1198.86 301.952C1199.42 301.818 1199.8 301.728 1200.18 301.639C1202.76 300.825 1205.21 299.447 1207.38 297.739C1207.53 297.507 1207.86 297.23 1208 296.997C1208.47 296.487 1208.85 296.398 1209.04 296.353C1209.79 296.174 1210.11 296.693 1210.29 297.444C1210.38 297.819 1210.23 298.052 1209.76 298.562C1207.16 300.967 1204.05 302.899 1200.38 304.169L1199.4 304.205ZM1198.29 290.381C1198.29 290.381 1198.1 290.426 1197.91 290.47C1197.72 290.515 1197.45 290.184 1197.17 289.853C1197.12 289.666 1196.89 289.523 1197.04 289.29C1196.99 289.102 1197.09 288.682 1197.23 288.45C1197.33 288.029 1197.47 287.797 1197.62 287.564C1197.9 287.099 1198.23 286.822 1198.61 286.733C1198.61 286.733 1198.8 286.688 1199.03 286.831C1199.22 286.786 1199.49 287.117 1199.77 287.448C1199.82 287.636 1200.05 287.779 1199.91 288.011C1199.95 288.199 1199.85 288.619 1199.71 288.852L1199.28 289.549C1199.23 290.157 1198.9 290.435 1198.29 290.381Z" fill="#9A28CD"/>
</svg>
