<svg width="1620" height="194" viewBox="0 0 1620 194" fill="none" xmlns="http://www.w3.org/2000/svg">
<path d="M1727.19 1.81526L-186 90.752L-181.276 192.379L1731.91 103.442L1727.19 1.81526Z" fill="#FFA380"/>
<path d="M355.272 121.061C355.076 121.083 354.88 121.106 354.661 120.931C354.269 120.976 354.028 120.605 353.569 120.061C353.547 119.865 353.306 119.494 353.262 119.102C353.236 117.117 353.907 114.258 355.275 110.525C355.579 109.695 355.905 109.062 356.405 108.21C356.775 107.97 357.146 107.729 357.342 107.707C357.931 107.64 358.368 107.989 358.631 108.555C358.653 108.752 358.653 108.752 358.675 108.948C358.719 109.34 358.545 109.559 358.197 109.996C357.326 111.088 356.893 112.529 356.459 113.969C355.851 115.628 355.614 117.047 355.703 117.832C356.747 116.521 358.14 114.773 359.641 112.218C360.141 111.367 360.686 110.907 361.078 110.863C361.471 110.819 361.908 111.167 362.563 111.689C362.563 111.689 362.804 112.06 362.826 112.256L362.74 113.26C362.611 113.871 362.677 114.46 362.722 114.852C362.744 115.048 362.766 115.245 362.788 115.441C362.832 115.834 363.051 116.008 363.292 116.378C363.51 116.552 363.706 116.53 363.903 116.508C365.647 116.112 367.651 114.494 370.285 111.413C370.263 111.217 370.263 111.217 370.241 111.021C370.108 109.843 370.563 108.599 371.412 107.31L371.608 107.288C371.934 106.655 372.304 106.414 372.501 106.392C373.482 106.281 374.115 106.607 374.356 106.978C374.378 107.174 374.4 107.37 374.423 107.566C374.511 108.352 374.033 109.399 373.055 111.299L373.251 111.277C374.081 111.581 375.281 111.644 376.459 111.511C378.814 111.245 381.17 110.979 383.481 110.32L383.677 110.298C384.07 110.254 384.484 110.406 384.725 110.776C384.943 110.95 384.988 111.343 385.01 111.539C385.032 111.735 385.054 111.932 384.88 112.15C384.706 112.368 384.532 112.587 383.965 112.85C380.869 113.597 378.121 113.908 375.962 114.152C375.177 114.24 374.566 114.11 373.78 114.199C372.973 114.092 372.166 113.984 371.51 113.462C370.988 114.117 370.488 114.969 369.769 115.646L368.506 116.783C366.872 118.16 365.172 118.949 363.798 119.104C363.602 119.126 363.209 119.171 362.991 118.996C361.354 118.585 360.436 117.496 360.04 115.751C359.192 117.04 358.517 118.11 357.451 119.225L357.276 119.443C356.995 120.469 356.058 120.972 355.272 121.061Z" fill="#9A28CD"/>
<path d="M386.898 117.688C386.505 117.732 385.894 117.603 385.479 117.451C384.213 116.798 383.469 115.491 383.465 113.702C383.443 113.506 383.443 113.506 383.421 113.31C383.44 111.717 384.07 110.254 384.896 108.769C385.266 108.529 385.441 108.31 385.833 108.266C385.744 107.481 386.071 106.848 386.397 106.214C386.919 105.559 387.463 105.1 388.271 105.207C388.663 105.163 389.078 105.315 389.493 105.467C390.541 105.945 391.218 106.664 391.722 107.601C392.225 108.538 392.336 109.519 392.447 110.501C393.647 110.564 394.651 110.649 395.851 110.713C397.836 110.687 399.776 110.269 401.695 109.655L402.088 109.61C402.48 109.566 402.699 109.74 402.917 109.914C403.135 110.088 403.18 110.481 403.202 110.677C403.202 110.677 403.224 110.873 403.072 111.288C403.094 111.485 402.724 111.725 402.157 111.988C400.042 112.624 397.905 113.065 395.724 113.112C394.546 113.245 393.346 113.182 392.124 112.923C391.735 114.756 390.713 116.263 389.035 117.248C388.861 117.466 388.468 117.51 388.272 117.533C388.075 117.555 387.879 117.577 387.879 117.577L386.898 117.688ZM387.024 115.288C387.024 115.288 387.22 115.266 387.613 115.222C388.746 114.696 389.421 113.626 389.68 112.404C388.851 112.1 388.021 111.796 387.366 111.274C387.147 111.099 386.929 110.925 386.71 110.751C386.188 111.407 385.884 112.236 385.799 113.24C385.821 113.436 385.843 113.632 385.843 113.632L385.865 113.829C386.172 114.788 386.435 115.355 387.024 115.288ZM389.784 109.807C389.477 108.848 389.214 108.282 388.581 107.955L388.385 107.978L388.407 108.174C388.407 108.174 388.407 108.174 388.429 108.37L388.451 108.566C388.474 108.763 388.714 109.133 388.955 109.504C389.129 109.285 389.348 109.459 389.784 109.807Z" fill="#9A28CD"/>
<path d="M411.092 118.93C410.307 119.019 409.674 118.693 409.018 118.17C408.8 117.996 408.778 117.8 408.559 117.626C408.537 117.429 408.537 117.43 408.341 117.452C408.078 116.885 407.793 116.122 407.923 115.511C407.92 113.722 408.635 111.256 410.461 108.067C410.091 108.308 409.721 108.549 409.154 108.812C408.391 109.097 407.846 109.556 407.083 109.841C406.32 110.126 405.58 110.607 405.013 110.87C404.25 111.155 403.487 111.44 402.702 111.529L402.309 111.573C401.917 111.617 401.502 111.465 401.065 111.117C400.606 110.572 400.147 110.028 400.276 109.417C400.166 108.436 400.447 107.41 401.144 106.536C401.688 106.077 402.059 105.836 402.451 105.792C402.648 105.77 402.844 105.747 402.866 105.944C403.696 106.248 403.958 106.814 404.025 107.403C404.047 107.599 403.895 108.014 403.743 108.429C404.877 107.903 406.184 107.159 408.255 106.13C410.129 105.123 411.262 104.598 411.829 104.335L412.396 104.072L412.984 104.005C413.181 103.983 413.203 104.179 413.399 104.157C414.01 104.287 414.251 104.658 414.317 105.246C414.384 105.835 414.058 106.468 413.361 107.342C412.165 109.068 411.361 110.749 410.557 112.43C410.101 113.675 409.797 114.504 409.864 115.093C409.93 115.682 409.974 116.074 410.389 116.226L410.585 116.204C410.782 116.182 410.782 116.182 410.978 116.16C411.174 116.138 411.174 116.138 411.371 116.115L411.567 116.093C411.937 115.853 412.526 115.786 413.071 115.327C413.267 115.305 413.441 115.086 413.637 115.064C416.623 113.335 419.368 111.236 421.894 108.963C422.264 108.722 422.461 108.7 422.657 108.678C423.442 108.589 423.879 108.937 423.99 109.919C424.034 110.311 423.86 110.53 423.512 110.967C420.789 113.262 417.87 115.58 414.907 117.505C413.229 118.49 411.9 119.038 411.092 118.93Z" fill="#9A28CD"/>
<path d="M421.084 119.393C420.692 119.437 420.473 119.263 420.255 119.089C420.036 118.915 419.796 118.544 419.751 118.152C419.685 117.563 420.4 115.096 421.853 110.36C421.831 110.164 421.809 109.967 422.005 109.945C423.458 105.209 425.151 100.843 427.26 96.6285C427.889 95.1658 428.934 93.855 429.76 92.3701C430.979 90.8408 431.872 89.9448 432.657 89.8561C432.853 89.8339 433.268 89.9859 433.683 90.1378C434.142 90.6824 434.383 91.0527 434.427 91.4452C434.471 91.8378 434.342 92.4489 434.038 93.2784C434.06 93.4747 433.864 93.4969 433.886 93.6932C432.411 98.2334 429.976 103.081 426.364 108.061C428.435 107.032 430.113 106.047 431.376 104.911C431.746 104.67 431.92 104.451 432.313 104.407C433.098 104.318 433.557 104.863 433.646 105.648C433.69 106.041 433.516 106.259 433.168 106.696C431.534 108.073 429.29 109.321 426.827 110.394C428.66 110.784 430.667 110.954 432.456 110.951C432.849 110.907 433.241 110.862 433.634 110.818C433.83 110.796 434.026 110.774 434.223 110.752C435.989 110.552 437.734 110.156 439.237 109.39C439.804 109.127 440.174 108.886 440.371 108.864C440.567 108.842 440.763 108.82 440.96 108.798C441.156 108.776 441.571 108.927 441.789 109.102C442.008 109.276 442.248 109.646 442.293 110.039C442.293 110.039 442.315 110.235 442.337 110.431C442.359 110.627 441.989 110.868 441.618 111.109C438.589 112.445 435.689 113.17 432.526 113.329C429.952 113.421 427.333 113.12 424.889 112.601L424.475 112.449C424.06 112.297 423.667 112.342 423.449 112.168C422.711 114.438 422.344 116.467 421.933 118.104C422.044 119.085 421.695 119.522 421.084 119.393ZM426.662 103.654C428.684 100.443 430.163 97.6921 431.074 95.2035C429.53 97.366 428.051 100.117 426.662 103.654Z" fill="#9A28CD"/>
<path d="M453.475 117.522C452.887 117.588 452.646 117.218 452.535 116.236C452.576 114.84 452.813 113.422 453.247 111.981C453.377 111.37 453.484 110.563 453.811 109.93C454.374 107.878 454.937 105.826 455.501 103.775C455.849 103.338 456.197 102.901 456.612 103.053C456.612 103.053 456.808 103.031 457.005 103.009C457.201 102.986 457.419 103.16 457.856 103.509C458.075 103.683 458.097 103.879 458.119 104.075C458.141 104.272 457.989 104.686 458.011 104.883C457.73 105.909 457.252 106.957 456.97 107.982C457.47 107.131 457.97 106.279 458.493 105.623C459.341 104.335 460.408 103.22 461.475 102.106C461.845 101.865 462.238 101.821 462.434 101.799C463.612 101.666 464.289 102.384 464.467 103.955C464.556 104.74 464.296 105.962 464.103 107.773C463.844 108.995 463.758 109.999 463.802 110.391C463.825 110.587 463.847 110.784 463.847 110.784C464.936 109.866 466.003 108.751 467.07 107.636C467.614 107.177 467.962 106.74 468.507 106.281C469.944 104.926 470.859 104.226 471.644 104.138C472.233 104.071 472.648 104.223 472.866 104.397C473.085 104.571 473.325 104.942 473.566 105.312C473.588 105.508 473.829 105.879 473.895 106.468C474.225 107.623 474.728 108.56 475.165 108.909C475.624 109.453 476.235 109.583 477.02 109.494C478.002 109.383 478.983 109.273 479.92 108.769C481.991 107.74 484.039 106.515 485.847 104.919C486.217 104.678 486.414 104.656 486.61 104.634C486.806 104.612 487.025 104.786 487.221 104.764C487.636 104.915 487.876 105.286 487.747 105.897C487.791 106.29 487.617 106.508 487.269 106.945C485.265 108.563 483.042 110.007 480.579 111.08L480.012 111.343C479.053 111.65 477.898 111.98 477.112 112.068C475.52 112.049 474.079 111.616 473.161 110.527C472.921 110.156 472.702 109.982 472.702 109.982C472.221 109.241 471.717 108.304 471.366 106.952C471.344 106.756 471.344 106.756 471.344 106.756C471.169 106.975 470.451 107.652 469.384 108.767C467.25 110.996 465.813 112.351 465.094 113.028C464.55 113.487 463.983 113.75 463.591 113.795C461.998 113.776 461.32 113.057 461.317 111.268C461.38 110.068 461.466 109.065 461.551 108.061C461.659 107.254 461.766 106.446 461.7 105.858L461.526 106.076C461.003 106.731 460.655 107.168 460.481 107.387C458.936 109.549 457.784 111.667 456.654 113.982C456.48 114.2 456.35 114.811 456.024 115.445C455.72 116.274 455.372 116.711 455.22 117.126C454.85 117.366 454.283 117.629 453.475 117.522Z" fill="#9A28CD"/>
<path d="M486.892 115.934C486.107 116.023 485.278 115.719 484.819 115.174L484.382 114.826L484.141 114.456C483.878 113.889 483.615 113.322 483.549 112.733C483.482 112.145 483.59 111.337 483.916 110.704C484.85 108.412 486.046 106.686 487.702 105.505C487.68 105.309 487.439 104.938 487.613 104.72C487.547 104.131 487.895 103.694 488.243 103.257C488.962 102.58 489.921 102.273 491.295 102.117L491.688 102.073C493.673 102.048 494.961 102.896 495.75 104.596C495.772 104.792 496.013 105.163 496.079 105.752C496.101 105.948 496.124 106.144 496.146 106.34C498.372 106.685 500.553 106.638 502.931 106.568C503.716 106.479 504.305 106.413 505.09 106.324C505.875 106.235 506.245 105.995 506.442 105.972C506.66 106.147 507.097 106.495 507.338 106.865C507.819 107.606 508.06 107.976 508.082 108.173C508.082 108.173 508.082 108.173 507.908 108.391C507.189 109.069 506.689 109.92 506.407 110.946C506.233 111.165 506.255 111.361 506.277 111.557C506.3 111.754 506.322 111.95 506.518 111.928C508.066 111.554 509.374 110.81 510.222 109.521L510.57 109.084C509.326 108.628 508.234 107.758 507.73 106.821C507.49 106.45 507.445 106.058 507.401 105.665C507.268 104.488 507.942 103.417 509.031 102.499C509.598 102.236 509.968 101.996 510.142 101.777C510.513 101.537 511.102 101.47 511.691 101.404C512.672 101.293 513.524 101.793 514.223 102.708C514.442 102.882 514.464 103.078 514.508 103.471C514.531 103.667 514.531 103.667 514.749 103.841L514.838 104.626C514.926 105.411 514.645 106.437 514.363 107.463L515.344 107.352C517.133 107.349 519.074 106.931 520.818 106.535L521.015 106.513C522.759 106.117 524.678 105.503 526.378 104.714C526.574 104.692 526.77 104.67 526.967 104.648C527.359 104.603 527.578 104.777 527.796 104.952C528.015 105.126 528.255 105.496 528.3 105.889C528.3 105.889 528.322 106.085 528.344 106.281C528.366 106.478 527.996 106.718 527.625 106.959C525.729 107.769 523.81 108.384 521.87 108.802C519.34 109.286 517.399 109.704 515.807 109.686C515.022 109.774 514.411 109.644 513.626 109.733C512.125 112.288 510.121 113.906 507.614 114.587C507.417 114.609 507.221 114.631 507.025 114.654C505.847 114.787 505.192 114.264 504.688 113.327C504.425 112.76 504.163 112.194 504.074 111.409C504.029 111.016 504.159 110.405 504.311 109.99L504.789 108.942C501.823 109.079 499.03 108.996 496.193 108.522C495.389 110.203 494.367 111.71 493.104 112.847C491.666 114.202 490.359 114.946 489.029 115.494C487.874 115.823 487.285 115.89 486.892 115.934ZM486.604 113.382C486.8 113.36 486.997 113.338 486.974 113.142L487.171 113.119C488.5 112.572 489.808 111.827 490.897 110.909C491.812 110.21 492.486 109.139 492.964 108.091C491.96 108.006 490.935 107.724 490.105 107.42C489.931 107.639 489.538 107.683 489.146 107.728C488.579 107.99 487.861 108.668 487.36 109.52C486.86 110.371 486.36 111.223 486.078 112.249C486.101 112.445 486.123 112.641 485.949 112.86C486.167 113.034 486.189 113.23 486.604 113.382C486.408 113.404 486.408 113.404 486.604 113.382ZM493.505 105.844L493.483 105.647C493.22 105.08 492.391 104.777 491.191 104.713C490.995 104.736 490.798 104.758 490.602 104.78L490.798 104.758C491.454 105.28 492.283 105.584 493.505 105.844ZM511.723 106.966C512.026 106.137 512.33 105.307 512.219 104.326C512.175 103.933 512.153 103.737 511.957 103.759C511.564 103.803 511.194 104.044 510.453 104.525C510.105 104.962 509.93 105.181 509.975 105.573C509.997 105.77 510.019 105.966 510.238 106.14C510.238 106.14 510.675 106.488 511.112 106.836C511.308 106.814 511.504 106.792 511.723 106.966Z" fill="#9A28CD"/>
<path d="M526.173 111.695C525.388 111.783 524.755 111.457 524.514 111.087C524.273 110.716 524.033 110.346 523.966 109.757L523.922 109.365C524.159 107.946 524.615 106.702 525.463 105.413C526.616 103.295 527.812 101.57 529.424 99.996L529.598 99.7776C530.142 99.3185 530.709 99.0557 531.298 98.9892C531.887 98.9227 532.52 99.2487 533.175 99.7711C533.416 100.141 533.657 100.512 533.679 100.708C534.179 99.8565 534.527 99.4195 534.505 99.2232C535.132 95.9717 536.369 92.8499 538.392 89.6394C539.241 88.3508 539.915 87.2807 540.459 86.8215C541.178 86.144 541.526 85.7071 541.941 85.8591C542.945 85.9445 543.578 86.2704 543.711 87.4482C543.755 87.8408 543.603 88.2556 543.451 88.6704C543.147 89.4999 542.821 90.133 542.321 90.9847C542.169 91.3995 541.843 92.0327 541.691 92.4475C540.561 94.7619 538.887 97.5354 536.645 100.572C536.538 101.379 536.43 102.186 536.519 102.972C536.63 103.953 536.915 104.716 537.374 105.261C537.833 105.805 538.662 106.109 539.862 106.172C541.236 106.017 542.61 105.862 543.94 105.314C545.27 104.766 546.599 104.218 547.733 103.693C547.929 103.671 548.125 103.648 548.322 103.626C548.518 103.604 548.736 103.778 548.933 103.756C549.151 103.93 549.392 104.3 549.436 104.693L549.481 105.086C549.525 105.478 547.651 106.485 544.228 107.866C542.899 108.413 541.328 108.591 539.562 108.79L537.925 108.379L537.51 108.227C537.095 108.075 536.877 107.901 536.462 107.749C535.174 106.901 534.626 105.571 534.448 104.001C532.903 106.163 531.14 108.152 529.158 109.966L528.984 110.184C527.895 111.103 526.958 111.606 526.173 111.695ZM526.822 108.639C526.996 108.421 526.996 108.421 527.192 108.399C528.848 107.218 530.459 105.644 532.004 103.482C531.982 103.285 531.96 103.089 531.915 102.696C531.849 102.108 531.608 101.737 531.608 101.737C531.412 101.759 531.412 101.759 531.042 102C528.886 104.033 527.537 106.173 526.822 108.639Z" fill="#9A28CD"/>
<path d="M548.733 114.313C548.537 114.336 548.145 114.38 547.534 114.25C546.093 113.817 545.001 112.946 543.864 111.683C543.623 111.313 543.579 110.92 543.535 110.527C543.446 109.742 543.794 109.305 544.535 108.824C544.905 108.583 545.494 108.517 546.476 108.406L548.831 108.14C548.568 107.573 548.524 107.181 548.261 106.614C547.998 106.047 547.758 105.677 547.736 105.48C547.188 104.151 546.881 103.192 546.792 102.406C546.681 101.425 547.159 100.377 547.878 99.6994C548.618 99.2181 549.381 98.9331 550.363 98.8222C551.541 98.6892 552.785 99.1449 553.659 99.8414C553.899 100.212 554.118 100.386 554.162 100.778C554.229 101.367 553.88 101.804 553.314 102.067C553.117 102.089 553.117 102.089 552.921 102.112C552.529 102.156 552.31 101.982 551.873 101.634C551.436 101.285 550.825 101.155 550.236 101.222C549.647 101.289 549.277 101.529 549.103 101.748C549.125 101.944 549.147 102.14 549.17 102.336C549.236 102.925 549.565 104.081 550.332 105.585C550.594 106.151 550.879 106.914 551.142 107.481C555.809 106.556 559.253 105.372 561.28 103.95C561.65 103.71 562.02 103.469 562.217 103.447C562.413 103.425 562.631 103.599 562.85 103.773C563.068 103.947 563.309 104.317 563.353 104.71C563.398 105.103 563.246 105.517 562.875 105.758C561.416 106.917 558.931 107.794 555.66 108.76C555.29 109.001 553.916 109.156 551.605 109.814L551.649 110.207C551.716 110.796 551.586 111.407 551.456 112.018C550.978 113.066 550.259 113.744 549.3 114.051C549.322 114.247 548.93 114.291 548.733 114.313ZM548.664 111.936C548.86 111.914 549.252 111.869 549.23 111.673C549.404 111.455 549.36 111.062 549.49 110.451C548.508 110.562 547.745 110.847 546.764 110.958L546.568 110.98C547.005 111.328 547.442 111.676 547.856 111.828C548.249 111.784 548.467 111.958 548.664 111.936Z" fill="#9A28CD"/>
<path d="M563.358 118.825C562.965 118.869 562.747 118.695 562.332 118.543C562.113 118.369 561.873 117.998 561.806 117.409C561.762 117.017 561.74 116.821 561.914 116.602L561.869 116.209C562.173 115.38 562.544 115.139 563.329 115.051C563.721 115.006 563.94 115.18 564.355 115.332C564.573 115.506 564.814 115.877 564.858 116.269C564.902 116.662 564.925 116.858 564.751 117.077L564.773 117.273C564.513 118.495 563.969 118.954 563.358 118.825ZM564.285 112.955C563.892 112.999 563.674 112.825 563.455 112.651C563.237 112.477 562.996 112.106 562.974 111.91C562.952 111.714 562.952 111.714 562.93 111.517C564.249 105.603 565.766 99.6669 567.478 93.7083C567.782 92.8788 567.912 92.2678 568.215 91.4383C569.776 85.8945 570.817 82.7949 570.925 81.9875L571.033 81.1803L571.01 80.9839C571.118 80.1766 571.662 79.7175 572.448 79.6288C572.84 79.5845 573.059 79.7586 573.277 79.9327C573.692 80.0847 573.933 80.455 573.803 81.0661C573.847 81.4586 573.436 83.0955 572.35 85.8025C571.894 87.0467 571.157 89.3169 570.137 92.6128L569.53 94.2718C567.795 100.034 566.279 105.97 565.155 111.862C565.244 112.647 564.874 112.888 564.285 112.955Z" fill="#9A28CD"/>
<path d="M596.379 115.491C595.79 115.558 595.376 115.406 595.135 115.035C594.916 114.861 594.872 114.469 594.85 114.272C594.828 114.076 594.806 113.88 594.98 113.661C595.132 113.247 595.306 113.028 595.458 112.613C597.173 108.444 598.889 104.274 600.823 100.278C600.997 100.06 600.953 99.6672 601.127 99.4487L602.409 96.7196C599.465 97.0522 596.543 97.5811 593.817 98.0879C593.228 98.1544 592.595 97.8283 592.354 97.4579C592.136 97.2838 592.091 96.8913 592.069 96.695C592.047 96.4987 592.221 96.2802 592.177 95.8876C592.329 95.4729 592.699 95.2322 593.288 95.1657C595.447 94.9218 597.41 94.7 599.569 94.4561L603.495 94.0126L603.843 93.5756C605.929 89.1652 607.493 85.4103 608.36 82.5292C608.642 81.5034 608.75 80.696 608.857 79.8887C608.813 79.4961 608.965 79.0813 608.92 78.6887C608.876 78.2961 608.832 77.9036 608.395 77.5554L607.739 77.0331C607.543 77.0552 607.543 77.0552 607.325 76.8811C606.691 76.555 605.71 76.6659 604.706 76.5805C604.314 76.6248 603.921 76.6692 603.529 76.7135C600.388 77.0684 597.532 78.1862 594.525 79.7187C593.413 80.4406 592.302 81.1626 591.432 82.255C591.258 82.4734 591.083 82.6918 591.128 83.0844L591.15 83.2808C591.391 83.6512 591.413 83.8475 591.457 84.24C591.479 84.4363 591.305 84.6547 591.153 85.0695C591.001 85.4842 590.631 85.7248 590.042 85.7914C589.649 85.8357 589.235 85.6839 588.776 85.1393C588.513 84.5726 588.25 84.0059 588.183 83.417C588.139 83.0245 588.269 82.4134 588.421 81.9986C588.595 81.7802 588.747 81.3655 588.921 81.147L589.095 80.9285C589.966 79.8361 591.229 78.6995 593.125 77.8889C596.525 76.312 599.774 75.1498 603.11 74.7728C603.699 74.7063 604.288 74.6398 604.681 74.5954C605.859 74.4624 606.862 74.5477 607.692 74.8516L608.303 74.9815C609.132 75.2853 609.569 75.6335 609.569 75.6335C610.661 76.5041 611.187 77.6375 611.365 79.2078C611.498 80.3856 611.064 81.8261 610.478 83.6815L610.349 84.2925C608.981 88.0253 607.569 91.3655 606.091 94.1169C607.269 93.9838 608.446 93.8507 609.646 93.914C610.235 93.8474 610.672 94.1957 610.913 94.5661C610.935 94.7624 611.153 94.9365 611.176 95.1328C611.264 95.918 610.72 96.377 609.935 96.4657C608.364 96.6431 606.576 96.6465 605.005 96.8239L603.397 100.186C601.441 103.986 599.573 108.57 597.598 113.962L597.316 114.988C597.142 115.206 596.772 115.447 596.379 115.491Z" fill="#9A28CD"/>
<path d="M616.98 107.796C616.587 107.841 615.976 107.711 615.561 107.559C614.295 106.907 613.551 105.599 613.547 103.811C613.525 103.614 613.525 103.614 613.503 103.418C613.522 101.825 614.152 100.363 614.978 98.8778C615.349 98.6372 615.523 98.4188 615.915 98.3744C615.827 97.5893 616.153 96.9561 616.479 96.3228C617.001 95.6674 617.545 95.2083 618.353 95.3159C618.745 95.2715 619.16 95.4235 619.575 95.5754C620.623 96.0534 621.3 96.7721 621.804 97.7092C622.307 98.6463 622.418 99.6277 622.529 100.609C623.729 100.672 624.733 100.758 625.933 100.821C627.918 100.796 629.858 100.377 631.777 99.7632L632.17 99.7188C632.562 99.6745 632.781 99.8486 632.999 100.023C633.218 100.197 633.262 100.589 633.284 100.786C633.284 100.786 633.306 100.982 633.154 101.397C633.176 101.593 632.806 101.834 632.239 102.096C630.125 102.733 627.987 103.173 625.806 103.221C624.628 103.354 623.428 103.291 622.206 103.031C621.817 104.864 620.795 106.371 619.117 107.356C618.943 107.575 618.55 107.619 618.354 107.641C618.157 107.663 617.961 107.685 617.961 107.685L616.98 107.796ZM616.91 105.419C616.91 105.419 617.106 105.396 617.499 105.352C618.632 104.827 619.306 103.756 619.566 102.534C618.736 102.23 617.907 101.927 617.251 101.404C617.033 101.23 616.815 101.056 616.596 100.882C616.074 101.537 615.77 102.367 615.684 103.37C615.707 103.567 615.729 103.763 615.729 103.763L615.751 103.959C616.058 104.919 616.321 105.485 616.91 105.419ZM619.648 99.7418C619.341 98.7825 619.078 98.2158 618.445 97.8898L618.249 97.912L618.271 98.1083C618.271 98.1083 618.271 98.1083 618.293 98.3046L618.315 98.5008C618.337 98.6971 618.578 99.0675 618.818 99.4379C619.015 99.4157 619.233 99.5899 619.648 99.7418Z" fill="#9A28CD"/>
<path d="M640.977 109.062C640.192 109.151 639.559 108.825 638.904 108.302C638.685 108.128 638.663 107.932 638.445 107.758C638.422 107.561 638.422 107.561 638.226 107.584C637.963 107.017 637.678 106.254 637.808 105.643C637.805 103.854 638.52 101.388 640.347 98.1994C639.976 98.4401 639.606 98.6807 639.039 98.9435C638.276 99.2285 637.732 99.6877 636.969 99.9727C636.206 100.258 635.465 100.739 634.898 101.002C634.135 101.287 633.372 101.572 632.587 101.66L632.194 101.705C631.802 101.749 631.387 101.597 630.95 101.249C630.491 100.704 630.032 100.16 630.162 99.5488C630.051 98.5674 630.333 97.5416 631.029 96.6678C631.574 96.2087 631.944 95.9679 632.337 95.9236C632.533 95.9014 632.729 95.8793 632.751 96.0756C633.581 96.3795 633.844 96.9461 633.91 97.535C633.932 97.7313 633.78 98.146 633.628 98.5608C634.762 98.0352 636.069 97.291 638.14 96.2619C640.014 95.255 641.147 94.7295 641.714 94.4667L642.281 94.2038L642.87 94.1372C643.066 94.1151 643.088 94.3114 643.284 94.2892C643.896 94.419 644.136 94.7894 644.203 95.3782C644.269 95.9671 643.943 96.6003 643.247 97.4742C642.05 99.1997 641.246 100.881 640.442 102.562C639.986 103.806 639.682 104.636 639.749 105.225C639.815 105.814 639.86 106.206 640.274 106.358L640.471 106.336C640.667 106.314 640.667 106.314 640.863 106.292C641.06 106.269 641.06 106.269 641.256 106.247L641.452 106.225C641.823 105.984 642.411 105.918 642.956 105.459C643.152 105.437 643.326 105.218 643.523 105.196C646.508 103.467 649.253 101.368 651.779 99.0946C652.15 98.8539 652.346 98.8318 652.542 98.8096C653.327 98.7209 653.764 99.0692 653.875 100.051C653.919 100.443 653.745 100.662 653.397 101.099C650.675 103.394 647.756 105.712 644.792 107.637C643.092 108.425 641.763 108.973 640.977 109.062Z" fill="#9A28CD"/>
<path d="M664.988 105.157C664.203 105.245 663.57 104.919 663.285 104.156C663.263 103.96 663.241 103.764 663.196 103.371C663.13 102.782 663.434 101.953 663.934 101.101L664.238 100.271C664.868 98.8087 665.738 97.7165 666.827 96.7982C667.568 96.317 668.331 96.032 669.313 95.9211C670.294 95.8102 671.342 96.2883 672.412 96.9625C672.412 96.9625 672.849 97.3107 673.46 97.4405C673.701 97.8109 673.941 98.1813 674.008 98.7702C674.074 99.3591 674.141 99.9479 674.578 100.296C675.211 100.622 676.041 100.926 677.022 100.815C679.203 100.767 681.296 99.9347 683.322 98.513C683.867 98.0539 684.411 97.5949 684.76 97.1579C684.76 97.1579 684.76 97.1579 684.934 96.9394C684.934 96.9394 685.108 96.721 685.086 96.5247C685.434 96.0878 685.804 95.8471 686.197 95.8027C686.786 95.7362 687.223 96.0845 687.463 96.4549C687.485 96.6512 687.704 96.8253 687.53 97.0437C687.552 97.24 687.4 97.6548 687.226 97.8733L686.529 98.7471C686.355 98.9655 686.181 99.1841 685.811 99.4247C684.003 101.021 681.955 102.246 679.447 102.927C679.251 102.949 679.055 102.971 679.055 102.971C678.27 103.06 677.681 103.126 677.092 103.193C675.107 103.218 673.666 102.785 672.77 101.892L672.552 101.718C672.093 101.173 671.83 100.607 671.785 100.214C670.37 101.765 668.518 102.969 666.863 104.15L666.666 104.172C665.97 105.046 665.403 105.308 664.988 105.157ZM666.204 101.839C667.119 101.139 668.208 100.221 669.841 98.8433C669.645 98.8655 669.427 98.6913 669.23 98.7135C668.838 98.7578 668.249 98.8244 667.879 99.0651C667.182 99.9389 666.682 100.791 666.204 101.839Z" fill="#9A28CD"/>
<path d="M686.938 107.646C686.742 107.668 686.742 107.668 686.349 107.713C686.153 107.735 685.738 107.583 685.301 107.235C684.646 106.712 684.361 105.949 684.272 105.164C684.161 104.183 684.269 103.375 684.202 102.787L684.31 101.979C684.092 101.805 683.851 101.435 683.829 101.238C683.784 100.846 683.936 100.431 684.11 100.213L684.807 99.3387C685.63 96.065 687.019 92.5285 688.931 88.3366C690.821 83.9484 692.933 81.5231 695.025 80.6903C695.222 80.6681 695.222 80.6681 695.418 80.6459C695.614 80.6238 695.614 80.6238 695.811 80.6016C696.007 80.5794 696.007 80.5794 696.203 80.5572C696.836 80.8833 697.273 81.2315 697.144 81.8426C697.21 82.4315 697.058 82.8462 696.928 83.4572L696.951 83.6535C696.387 85.7051 695.605 87.5827 694.823 89.4602C693.367 92.4078 691.715 95.3776 689.625 97.9992C689.103 98.6546 688.581 99.3099 688.058 99.9653L687.188 101.058C687.058 101.669 686.951 102.476 686.865 103.48C686.735 104.091 686.78 104.483 686.802 104.68C686.868 105.268 686.913 105.661 687.131 105.835C688.091 105.528 688.657 105.265 689.028 105.025C691.665 103.733 694.846 101.982 698.528 99.3789L699.136 97.7199L699.744 96.0609C701.285 92.1096 703.438 88.288 706.202 84.5963L706.376 84.3779C707.769 82.6302 709.01 81.2972 710.099 80.379C710.469 80.1384 710.84 79.8977 711.232 79.8533C711.232 79.8533 711.625 79.8089 712.039 79.9609C712.062 80.1572 712.258 80.135 712.476 80.3091C712.695 80.4832 712.913 80.6574 713.154 81.0278C713.176 81.2241 713.198 81.4203 713.243 81.8129L713.265 82.0093C713.331 82.5981 713.005 83.2313 712.331 84.3015C712.179 84.7162 712.005 84.9347 711.831 85.1532C709.83 88.5599 707.633 91.9889 705.436 95.4178L705.262 95.6362C703.891 97.5802 702.521 99.5243 700.931 101.294C700.757 101.513 700.561 101.535 700.365 101.557C700.257 102.364 700.127 102.975 700.216 103.761C700.283 104.349 700.327 104.742 700.568 105.112L700.786 105.287L700.982 105.264C703.534 104.976 706.368 103.662 709.287 101.344C709.461 101.126 709.635 100.907 710.027 100.863L711.313 99.9225L712.228 99.2228C712.424 99.2006 712.598 98.9821 712.772 98.7637C712.946 98.5452 713.317 98.3046 713.861 97.8455C714.232 97.6049 714.428 97.5826 714.624 97.5605C715.213 97.4939 715.65 97.8422 715.716 98.431L715.739 98.6274C715.783 99.02 715.609 99.2385 715.261 99.6754L714.194 100.79C713.846 101.227 713.301 101.686 712.757 102.145L711.297 103.304C708.726 105.185 706.504 106.629 704.804 107.417C703.474 107.965 702.319 108.294 701.534 108.383C700.945 108.449 700.53 108.297 699.897 107.971C699.7 107.994 699.482 107.819 699.286 107.842L698.849 107.493C698.63 107.319 698.39 106.949 698.171 106.775C697.908 106.208 697.842 105.619 697.753 104.834C697.709 104.441 697.687 104.245 697.838 103.83L697.816 103.634C694.309 106.018 691.694 107.506 689.797 108.317C689.034 108.602 688.467 108.865 688.271 108.887L687.682 108.954C687.331 107.602 687.157 107.82 686.938 107.646ZM689.334 93.6586C691.183 90.6666 692.661 87.9153 693.747 85.2083L693.573 85.4267C692.202 87.3707 690.724 90.1221 689.334 93.6586ZM702.707 94.1358C704.752 91.1216 706.775 87.9111 708.798 84.7006L707.927 85.793C705.838 88.4145 704.163 91.1881 702.707 94.1358Z" fill="#9A28CD"/>
<path d="M727.863 119.722C727.274 119.789 726.837 119.44 726.204 119.114C725.722 118.373 725.437 117.611 725.304 116.433C725.26 116.04 725.193 115.451 725.345 115.037C725.754 111.611 727.21 108.663 729.692 105.997C730.91 104.468 732.544 103.091 734.374 101.691C734.959 99.8359 735.327 97.8066 735.694 95.7771C735.823 95.1661 735.779 94.7734 735.757 94.5771C733.449 97.0246 732.034 98.576 731.882 98.9908C730.641 100.324 729.945 101.198 729.226 101.875C728.856 102.116 728.485 102.356 728.093 102.401C727.307 102.49 726.674 102.164 726.193 101.423C726.171 101.226 725.93 100.856 726.082 100.441C725.993 99.6561 726.079 98.6525 726.383 97.823C726.924 95.5751 727.532 93.916 728.598 92.8015C728.969 92.5609 729.143 92.3424 729.536 92.298C730.321 92.2093 730.78 92.7539 730.869 93.5391C730.913 93.9316 730.761 94.3464 730.391 94.587C729.542 95.8756 729.086 97.12 728.849 98.5383L731.853 95.217C733.094 93.884 734.335 92.551 735.598 91.4144L735.772 91.1958C735.947 90.9774 736.339 90.9331 736.732 90.8887C737.713 90.7778 738.369 91.3002 738.457 92.0854C738.48 92.2816 738.502 92.4779 738.524 92.6742C738.568 93.0668 738.505 94.2666 738.093 95.9035C737.834 97.1256 737.574 98.3477 737.293 99.3735C739.886 97.689 743.264 95.9159 747.427 94.054C748.756 93.5062 749.519 93.2212 749.716 93.199C749.912 93.1768 750.327 93.3287 750.545 93.5028C750.764 93.6769 751.004 94.0473 750.852 94.4621C750.852 94.4621 750.875 94.6584 750.897 94.8547C750.919 95.051 750.548 95.2916 750.178 95.5322C748.652 96.1022 747.322 96.6501 746.189 97.1757C742.593 98.7748 739.237 100.744 736.666 102.625C735.517 106.532 734.324 110.046 732.912 113.386C731.5 116.727 729.933 118.693 728.626 119.437C728.255 119.678 728.059 119.7 727.863 119.722ZM728.119 116.711C728.119 116.711 728.293 116.493 728.663 116.252C730.208 114.09 731.794 110.531 733.443 105.772C731.287 107.805 729.743 109.967 728.809 112.26C728.179 113.722 727.941 115.141 728.097 116.515C727.923 116.733 727.923 116.733 728.119 116.711Z" fill="#9A28CD"/>
<path d="M751.913 102.094C751.521 102.139 750.91 102.009 750.495 101.857C749.229 101.205 748.485 99.8972 748.481 98.1084C748.459 97.9121 748.459 97.9121 748.437 97.7158C748.456 96.1233 749.086 94.6607 749.912 93.1758C750.282 92.9351 750.456 92.7166 750.849 92.6723C750.76 91.8871 751.086 91.2539 751.412 90.6207C751.935 89.9653 752.479 89.5061 753.287 89.6137C753.679 89.5694 754.094 89.7213 754.509 89.8733C755.557 90.3513 756.234 91.0699 756.738 92.007C757.241 92.9441 757.352 93.9256 757.463 94.907C758.663 94.9703 759.667 95.0556 760.866 95.1189C762.852 95.0934 764.792 94.6753 766.711 94.061L767.103 94.0167C767.496 93.9723 767.714 94.1464 767.933 94.3206C768.151 94.4947 768.196 94.8873 768.218 95.0836C768.218 95.0836 768.24 95.2799 768.088 95.6946C768.11 95.8909 767.74 96.1315 767.173 96.3943C765.058 97.0309 762.921 97.4711 760.74 97.5187C759.562 97.6518 758.362 97.5886 757.14 97.3291C756.751 99.1622 755.728 100.669 754.051 101.654C753.876 101.872 753.484 101.917 753.288 101.939C753.091 101.961 752.895 101.983 752.895 101.983L751.913 102.094ZM752.018 99.4981C752.018 99.4981 752.214 99.4759 752.607 99.4316C753.74 98.9059 754.414 97.8358 754.674 96.6137C753.844 96.3098 753.015 96.0059 752.359 95.4836C752.141 95.3095 751.923 95.1354 751.704 94.9613C751.182 95.6167 750.878 96.4461 750.792 97.4497C750.815 97.646 750.837 97.8423 750.837 97.8423L750.859 98.0387C750.97 99.0201 751.429 99.5646 752.018 99.4981ZM754.778 94.0175C754.471 93.0582 754.208 92.4915 753.575 92.1655L753.379 92.1876L753.401 92.384C753.401 92.384 753.401 92.384 753.423 92.5802L753.445 92.7766C753.467 92.9729 753.708 93.3433 753.949 93.7137C754.123 93.4952 754.363 93.8656 754.778 94.0175Z" fill="#9A28CD"/>
<path d="M767.991 101.869C767.598 101.913 767.183 101.762 766.965 101.587L766.55 101.436C766.528 101.239 766.332 101.261 766.309 101.065C765.85 100.521 765.784 99.9318 765.717 99.3429C765.629 98.5577 765.888 97.3356 766.518 95.8729C766.648 95.2618 767.126 94.2139 767.8 93.1437C768.104 92.3142 768.626 91.6588 769.345 90.9812C769.715 90.7406 769.912 90.7184 770.304 90.674C770.5 90.6518 770.719 90.826 771.134 90.9779C771.352 91.152 771.593 91.5224 771.637 91.915C771.704 92.5039 771.552 92.9186 770.985 93.1814C770.289 94.0553 769.614 95.1254 769.159 96.3697C769.181 96.566 769.007 96.7845 769.007 96.7845C768.681 97.4177 768.573 98.2251 768.465 99.0324C769.032 98.7696 769.751 98.0919 770.84 97.1737C772.081 95.8408 772.799 95.1632 772.973 94.9447C773.67 94.0709 774.389 93.3933 775.107 92.7157C775.478 92.4751 775.87 92.4308 776.044 92.2123C776.241 92.1902 776.655 92.342 777.07 92.494C777.507 92.8422 777.748 93.2127 778.033 93.9757C778.077 94.3682 778.295 94.5424 778.34 94.9349C778.843 95.872 779.673 96.1759 780.676 96.2613C781.462 96.1726 782.05 96.1061 782.836 96.0174L783.228 95.973C785.539 95.3143 788.002 94.2409 790.203 92.6008C790.377 92.3823 790.769 92.3379 790.966 92.3157C791.162 92.2935 791.38 92.4677 791.795 92.6196C792.014 92.7937 792.254 93.1641 792.299 93.5567C792.343 93.9493 792.191 94.364 791.624 94.6269C789.206 96.0929 786.568 97.3848 783.887 98.2842C782.928 98.5913 781.946 98.7022 781.161 98.7909C779.568 98.772 778.128 98.3383 777.036 97.4677C776.795 97.0973 776.336 96.5529 775.855 95.8121L775.506 96.249C773.199 98.6965 771.413 100.489 770.128 101.429C769.146 101.54 768.383 101.825 767.991 101.869Z" fill="#9A28CD"/>
<path d="M799.055 102.336C798.27 102.425 797.637 102.099 796.982 101.577C796.763 101.402 796.741 101.206 796.522 101.032C796.5 100.836 796.5 100.836 796.304 100.858C796.041 100.291 795.756 99.5283 795.886 98.9172C795.883 97.1284 796.598 94.662 798.425 91.4737C798.054 91.7144 797.684 91.955 797.117 92.2178C796.354 92.5028 795.81 92.962 795.047 93.2469C794.284 93.5319 793.543 94.0133 792.976 94.2761C792.213 94.5611 791.45 94.846 790.665 94.9347L790.272 94.979C789.88 95.0234 789.465 94.8715 789.028 94.5232C788.569 93.9787 788.11 93.4343 788.24 92.8232C788.129 91.8418 788.41 90.8159 789.107 89.9421C789.651 89.483 790.022 89.2423 790.414 89.198C790.611 89.1758 790.807 89.1536 790.829 89.3499C791.659 89.6538 791.921 90.2204 791.988 90.8093C792.01 91.0056 791.858 91.4203 791.706 91.8351C792.84 91.3095 794.147 90.5654 796.218 89.5363C798.092 88.5294 799.225 88.0038 799.792 87.7409L800.359 87.4782L800.948 87.4116C801.144 87.3895 801.166 87.5857 801.362 87.5635C801.973 87.6933 802.214 88.0637 802.281 88.6525C802.347 89.2414 802.021 89.8746 801.325 90.7485C800.128 92.474 799.324 94.1553 798.52 95.8365C798.064 97.0808 797.76 97.9102 797.827 98.4991C797.893 99.088 797.938 99.4806 798.352 99.6326L798.549 99.6104C798.745 99.5882 798.745 99.5882 798.941 99.5661C799.137 99.5439 799.137 99.5439 799.334 99.5217L799.53 99.4995C799.9 99.2589 800.489 99.1923 801.034 98.7332C801.23 98.711 801.404 98.4926 801.601 98.4704C804.586 96.7415 807.331 94.6423 809.857 92.369C810.227 92.1283 810.424 92.1061 810.62 92.0839C811.405 91.9952 811.842 92.3435 811.953 93.3249C811.997 93.7175 811.823 93.936 811.475 94.3729C808.752 96.6684 805.833 98.9861 802.87 100.911C801.17 101.7 799.84 102.248 799.055 102.336Z" fill="#9A28CD"/>
<path d="M823.747 100.938C823.551 100.96 823.355 100.983 823.136 100.808C822.744 100.853 822.503 100.482 822.044 99.9379C822.022 99.7416 821.781 99.3712 821.737 98.9786C821.711 96.9935 822.382 94.1345 823.75 90.4017C824.054 89.5722 824.38 88.9389 824.88 88.0872C825.25 87.8466 825.621 87.606 825.817 87.5839C826.406 87.5173 826.843 87.8656 827.106 88.4323C827.128 88.6286 827.128 88.6285 827.15 88.8248C827.194 89.2173 827.02 89.4358 826.672 89.8727C825.801 90.9651 825.368 92.4057 824.934 93.8462C824.326 95.5053 824.089 96.9237 824.178 97.7088C825.222 96.398 826.615 94.6503 828.116 92.0952C828.616 91.2435 829.16 90.7844 829.553 90.7401C829.946 90.6957 830.383 91.044 831.038 91.5663C831.038 91.5663 831.279 91.9367 831.301 92.133L831.215 93.1366C831.086 93.7477 831.152 94.3365 831.196 94.7291C831.219 94.9254 831.241 95.1216 831.263 95.3179C831.307 95.7105 831.526 95.8846 831.766 96.255C831.985 96.4291 832.181 96.407 832.377 96.3849C834.122 95.989 836.126 94.371 838.76 91.2903C838.738 91.094 838.738 91.094 838.715 90.8977C838.582 89.72 839.038 88.4757 839.887 87.1871L840.083 87.1649C840.409 86.5317 840.779 86.291 840.976 86.2688C841.957 86.158 842.59 86.4841 842.831 86.8545C842.853 87.0507 842.875 87.247 842.897 87.4433C842.986 88.2285 842.508 89.2764 841.53 91.1761L841.726 91.1539C842.556 91.4578 843.756 91.5211 844.933 91.3881C847.289 91.122 849.644 90.8558 851.956 90.1971L852.152 90.175C852.544 90.1306 852.959 90.2825 853.2 90.6529C853.418 90.827 853.463 91.2197 853.485 91.416C853.507 91.6123 853.529 91.8085 853.355 92.027C853.181 92.2454 853.007 92.4639 852.44 92.7267C849.344 93.4741 846.596 93.7846 844.437 94.0285C843.651 94.1172 843.04 93.9874 842.255 94.0761C841.448 93.9685 840.641 93.8609 839.985 93.3386C839.463 93.994 838.963 94.8457 838.244 95.5232L836.981 96.6599C835.347 98.0372 833.647 98.8257 832.273 98.981C832.077 99.0031 831.684 99.0475 831.466 98.8734C829.829 98.462 828.911 97.3728 828.515 95.6284C827.666 96.917 826.992 97.9872 825.925 99.1017L825.751 99.3202C825.47 100.346 824.532 100.849 823.747 100.938Z" fill="#9A28CD"/>
<path d="M855.372 97.5648C854.979 97.6091 854.368 97.4795 853.953 97.3275C852.687 96.6754 851.943 95.3679 851.94 93.5791C851.917 93.3828 851.917 93.3828 851.895 93.1865C851.914 91.594 852.544 90.1313 853.37 88.6464C853.741 88.4057 853.915 88.1872 854.307 88.1429C854.219 87.3577 854.545 86.7245 854.871 86.0913C855.393 85.4359 855.938 84.9768 856.745 85.0844C857.137 85.0401 857.552 85.1919 857.967 85.3439C859.015 85.8219 859.693 86.5405 860.196 87.4776C860.699 88.4147 860.81 89.3962 860.921 90.3776C862.121 90.4409 863.125 90.5262 864.325 90.5895C866.31 90.564 868.25 90.1461 870.169 89.5317L870.562 89.4874C870.954 89.443 871.173 89.617 871.391 89.7912C871.61 89.9653 871.654 90.3579 871.676 90.5542C871.676 90.5542 871.698 90.7504 871.546 91.1652C871.569 91.3615 871.198 91.6021 870.631 91.8649C868.517 92.5014 866.38 92.9417 864.198 92.9893C863.02 93.1224 861.821 93.0592 860.598 92.7997C860.209 94.6328 859.187 96.1399 857.509 97.1246C857.335 97.3431 856.942 97.3874 856.746 97.4096C856.549 97.4317 856.353 97.4539 856.353 97.4539L855.372 97.5648ZM855.498 95.1651C855.498 95.1651 855.694 95.1429 856.087 95.0985C857.22 94.5729 857.895 93.5026 858.154 92.2806C857.325 91.9767 856.495 91.6729 855.84 91.1505C855.621 90.9764 855.403 90.8022 855.184 90.6281C854.662 91.2835 854.358 92.113 854.273 93.1167C854.295 93.313 854.317 93.5093 854.317 93.5093L854.339 93.7055C854.45 94.687 854.887 95.0353 855.498 95.1651ZM858.236 89.4882C857.929 88.5289 857.666 87.9622 857.033 87.6362L856.837 87.6584L856.859 87.8546C856.859 87.8546 856.859 87.8547 856.881 88.051L856.903 88.2472C856.926 88.4435 857.166 88.8139 857.407 89.1843C857.407 89.1843 857.822 89.3363 858.236 89.4882Z" fill="#9A28CD"/>
<path d="M879.37 98.8284C878.585 98.9171 877.952 98.5911 877.297 98.0687C877.078 97.8946 877.056 97.6983 876.837 97.5242C876.815 97.3279 876.815 97.328 876.619 97.3501C876.356 96.7835 876.071 96.0205 876.201 95.4094C876.198 93.6206 876.913 91.1542 878.739 87.9659C878.369 88.2066 877.999 88.4473 877.432 88.7101C876.669 88.9951 876.124 89.4541 875.361 89.7391C874.599 90.0241 873.858 90.5055 873.291 90.7683C872.528 91.0533 871.765 91.3383 870.98 91.427L870.587 91.4713C870.195 91.5157 869.78 91.3637 869.343 91.0154C868.884 90.4709 868.425 89.9265 868.555 89.3154C868.444 88.334 868.725 87.3081 869.422 86.4342C869.966 85.9751 870.337 85.7345 870.729 85.6902C870.926 85.668 871.122 85.6458 871.144 85.8421C871.974 86.1459 872.236 86.7127 872.303 87.3016C872.325 87.4979 872.173 87.9126 872.021 88.3274C873.155 87.8018 874.462 87.0576 876.533 86.0285C878.407 85.0216 879.54 84.4959 880.107 84.2331L880.674 83.9704L881.263 83.9038C881.459 83.8817 881.481 84.0779 881.677 84.0557C882.288 84.1855 882.529 84.556 882.596 85.1448C882.662 85.7337 882.336 86.3669 881.64 87.2408C880.443 88.9663 879.639 90.6475 878.835 92.3287C878.379 93.5729 878.075 94.4024 878.142 94.9913C878.208 95.5802 878.253 95.9728 878.667 96.1248L878.864 96.1026C879.06 96.0804 879.06 96.0804 879.256 96.0582C879.452 96.0361 879.452 96.0361 879.649 96.0139L879.845 95.9917C880.215 95.7511 880.804 95.6846 881.349 95.2255C881.545 95.2033 881.719 94.9847 881.915 94.9626C884.901 93.2337 887.646 91.1345 890.172 88.8612C890.542 88.6205 890.739 88.5983 890.935 88.5761C891.72 88.4874 892.157 88.8357 892.268 89.8171C892.312 90.2097 892.138 90.4281 891.79 90.8651C889.067 93.1606 886.148 95.4783 883.185 97.4034C881.485 98.1919 880.155 98.7397 879.37 98.8284Z" fill="#9A28CD"/>
<path d="M889.362 99.29C888.969 99.3343 888.751 99.1602 888.533 98.9861C888.314 98.812 888.073 98.4416 888.029 98.049C887.963 97.4601 888.678 94.9938 890.131 90.2573C890.109 90.0611 890.086 89.8647 890.283 89.8426C891.736 85.1061 893.429 80.7401 895.537 76.526C896.167 75.0632 897.212 73.7524 898.038 72.2675C899.257 70.7383 900.15 69.8423 900.935 69.7536C901.131 69.7314 901.546 69.8834 901.961 70.0353C902.42 70.5798 902.66 70.9501 902.705 71.3427C902.749 71.7353 902.619 72.3464 902.315 73.1759C902.338 73.3722 902.141 73.3944 902.164 73.5907C900.689 78.1308 898.254 82.9781 894.642 87.9585C896.713 86.9294 898.391 85.9447 899.654 84.808C900.024 84.5673 900.198 84.3489 900.591 84.3045C901.376 84.2158 901.835 84.7603 901.924 85.5455C901.968 85.9381 901.794 86.1565 901.446 86.5935C899.812 87.9708 897.568 89.2184 895.105 90.2918C896.938 90.6811 898.945 90.8519 900.734 90.8486C901.126 90.8042 901.519 90.7599 902.108 90.6933C902.304 90.6712 902.5 90.649 902.697 90.6268C904.463 90.4272 906.208 90.0314 907.711 89.2652C908.278 89.0023 908.649 88.7617 908.845 88.7395C909.041 88.7173 909.237 88.6952 909.434 88.673C909.63 88.6508 910.045 88.8028 910.263 88.9769C910.482 89.151 910.722 89.5214 910.767 89.914C910.767 89.914 910.789 90.1102 910.811 90.3065C910.833 90.5028 910.463 90.7435 910.092 90.9841C907.063 92.3204 904.163 93.0456 901 93.2041C898.426 93.2961 895.808 92.9955 893.363 92.4765L892.949 92.3245C892.534 92.1725 892.141 92.217 891.923 92.0428C891.185 94.3129 890.818 96.3423 890.407 97.9791C890.321 98.9828 889.951 99.2235 889.362 99.29ZM895.114 83.3329C897.136 80.1225 898.615 77.3711 899.526 74.8826C897.981 77.0451 896.525 79.9927 895.114 83.3329Z" fill="#9A28CD"/>
<path d="M921.95 97.3976C921.361 97.4642 921.12 97.0937 921.009 96.1123C921.05 94.7161 921.288 93.2977 921.721 91.8572C921.851 91.2461 921.959 90.4388 922.285 89.8056C922.848 87.754 923.411 85.7024 923.975 83.6508C924.323 83.2138 924.671 82.7769 925.086 82.9289C925.086 82.9289 925.282 82.9067 925.479 82.8845C925.675 82.8623 925.893 83.0364 926.33 83.3847C926.549 83.5588 926.571 83.755 926.593 83.9513C926.615 84.1476 926.463 84.5624 926.486 84.7587C926.204 85.7845 925.726 86.8325 925.444 87.8583C925.944 87.0066 926.445 86.1548 926.967 85.4994C927.815 84.2108 928.882 83.0964 929.949 81.9819C930.319 81.7412 930.712 81.6969 930.908 81.6747C932.086 81.5417 932.764 82.2602 932.941 83.8305C933.03 84.6157 932.77 85.8378 932.577 87.6488C932.318 88.8709 932.232 89.8745 932.277 90.2671C932.299 90.4634 932.321 90.6597 932.321 90.6597C933.41 89.7415 934.477 88.6269 935.544 87.5124C936.088 87.0533 936.436 86.6164 936.981 86.1573C938.418 84.8022 939.333 84.1024 940.118 84.0137C940.707 83.9471 941.122 84.0991 941.34 84.2732C941.559 84.4473 941.8 84.8177 942.04 85.1881C942.062 85.3844 942.303 85.7549 942.37 86.3438C942.699 87.4994 943.202 88.4364 943.639 88.7847C944.098 89.3292 944.709 89.4589 945.495 89.3702C946.476 89.2593 947.457 89.1485 948.395 88.645C950.465 87.616 952.513 86.3905 954.321 84.7947C954.691 84.5541 954.888 84.5319 955.084 84.5098C955.28 84.4876 955.499 84.6617 955.695 84.6395C956.11 84.7914 956.351 85.1619 956.221 85.7729C956.265 86.1655 956.091 86.384 955.743 86.8209C953.739 88.4389 951.516 89.8826 949.053 90.9561L948.487 91.219C947.527 91.5261 946.372 91.8555 945.587 91.9442C943.994 91.9253 942.554 91.4917 941.635 90.4026C941.395 90.0322 941.176 89.858 941.176 89.858C940.695 89.1172 940.191 88.1802 939.84 86.8283C939.818 86.632 939.818 86.6321 939.818 86.6321C939.644 86.8505 938.925 87.528 937.858 88.6425C935.724 90.8716 934.287 92.2268 933.568 92.9043C933.024 93.3634 932.457 93.6262 932.065 93.6706C930.472 93.6517 929.795 92.933 929.791 91.1442C929.855 89.9443 929.94 88.9407 930.025 87.9371C930.133 87.1298 930.241 86.3225 930.174 85.7336L930 85.952C929.478 86.6074 929.129 87.0443 928.955 87.2628C927.41 89.4253 926.258 91.5435 925.128 93.8579C924.954 94.0763 924.824 94.6874 924.498 95.3206C924.194 96.1501 923.846 96.5871 923.694 97.0018C923.105 97.0683 922.538 97.3311 921.95 97.3976Z" fill="#9A28CD"/>
<path d="M955.344 95.6128C954.559 95.7015 953.73 95.3976 953.27 94.8531L952.833 94.5048L952.593 94.1345C952.33 93.5678 952.067 93.0011 952.001 92.4122C951.934 91.8233 952.042 91.016 952.368 90.3828C953.302 88.0905 954.498 86.3649 956.154 85.1839C956.132 84.9876 955.891 84.6173 956.065 84.3988C955.999 83.8099 956.347 83.373 956.695 82.9361C957.414 82.2585 958.373 81.9513 959.747 81.796L960.14 81.7517C962.125 81.7262 963.413 82.5746 964.202 84.2747C964.224 84.471 964.465 84.8415 964.531 85.4303C964.553 85.6266 964.576 85.8229 964.598 86.0192C966.823 86.3641 969.005 86.3165 971.382 86.2467C972.168 86.158 972.756 86.0914 973.542 86.0027C974.327 85.914 974.697 85.6734 974.894 85.6513C975.112 85.8254 975.549 86.1736 975.79 86.544C976.271 87.2848 976.511 87.6551 976.534 87.8514C976.534 87.8514 976.534 87.8515 976.36 88.07C975.641 88.7475 975.141 89.5992 974.859 90.625C974.685 90.8435 974.707 91.0398 974.729 91.2361C974.751 91.4324 974.774 91.6287 974.97 91.6065C976.518 91.2328 977.826 90.4887 978.674 89.2001L979.022 88.7631C977.778 88.3073 976.686 87.4368 976.182 86.4997C975.942 86.1293 975.897 85.7366 975.853 85.344C975.72 84.1663 976.394 83.0961 977.483 82.1779C978.05 81.9151 978.42 81.6745 978.594 81.456C978.965 81.2154 979.554 81.1489 980.142 81.0824C981.124 80.9715 981.976 81.4716 982.675 82.3865C982.894 82.5607 982.916 82.7569 982.96 83.1495C982.982 83.3458 982.982 83.3458 983.201 83.5199L983.29 84.3051C983.378 85.0903 983.097 86.116 982.815 87.1418L983.796 87.0309C985.585 87.0276 987.526 86.6096 989.27 86.2138L989.467 86.1916C991.211 85.7957 993.13 85.1814 994.83 84.393C995.026 84.3708 995.222 84.3486 995.419 84.3264C995.811 84.2821 996.03 84.4561 996.248 84.6302C996.467 84.8043 996.707 85.1747 996.752 85.5673C996.752 85.5673 996.774 85.7636 996.796 85.9599C996.818 86.1562 996.448 86.3968 996.077 86.6375C994.181 87.4481 992.262 88.0625 990.322 88.4806C987.792 88.9651 985.851 89.3831 984.259 89.3642C983.474 89.4529 982.863 89.3232 982.077 89.4119C980.577 91.967 978.573 93.5849 976.066 94.2658C975.869 94.288 975.673 94.3101 975.477 94.3323C974.299 94.4654 973.643 93.943 973.14 93.0059C972.877 92.4393 972.614 91.8726 972.526 91.0874C972.481 90.6948 972.611 90.0837 972.763 89.669L973.241 88.621C970.275 88.7574 967.482 88.6752 964.645 88.2005C963.841 89.8817 962.819 91.3888 961.556 92.5255C960.118 93.8806 958.811 94.6248 957.481 95.1726C956.129 95.5241 955.737 95.5684 955.344 95.6128ZM954.882 93.2795C955.078 93.2573 955.274 93.2352 955.252 93.0389L955.448 93.0167C956.778 92.4689 958.086 91.7247 959.175 90.8065C960.09 90.1068 960.764 89.0366 961.242 87.9886C960.238 87.9032 959.212 87.6215 958.383 87.3177C958.209 87.5361 957.816 87.5805 957.424 87.6249C956.857 87.8877 956.138 88.5653 955.638 89.417C955.138 90.2686 954.638 91.1203 954.356 92.1461C954.378 92.3424 954.4 92.5387 954.226 92.7571C954.641 92.9091 954.641 92.909 954.882 93.2795ZM961.783 85.7408L961.761 85.5444C961.498 84.9777 960.669 84.6739 959.469 84.6107C959.272 84.6329 959.076 84.655 958.88 84.6772C959.732 85.1774 960.757 85.4591 961.783 85.7408ZM979.978 86.6672C980.282 85.8377 980.586 85.0082 980.475 84.0267C980.431 83.6341 980.408 83.4377 980.212 83.4599C979.82 83.5043 979.449 83.745 978.708 84.2263C978.36 84.6632 978.186 84.8817 978.23 85.2743C978.253 85.4706 978.275 85.6668 978.493 85.8409C978.493 85.8409 978.93 86.1891 979.367 86.5373C979.563 86.5152 979.782 86.6893 979.978 86.6672Z" fill="#9A28CD"/>
<path d="M994.45 91.5921C993.665 91.6808 993.032 91.3547 992.791 90.9843C992.551 90.6139 992.31 90.2436 992.243 89.6547L992.199 89.2621C992.436 87.8437 992.892 86.5994 993.544 85.333C994.697 83.2148 995.893 81.4893 997.505 79.9157L997.679 79.6973C998.223 79.2381 998.79 78.9754 999.379 78.9088C999.968 78.8423 1000.6 79.1683 1001.26 79.6907C1001.5 80.0611 1001.74 80.4315 1001.76 80.6278C1002.26 79.7761 1002.61 79.3391 1002.59 79.1429C1003.21 75.8913 1004.45 72.7695 1006.47 69.559C1007.32 68.2704 1008 67.2003 1008.54 66.7412C1009.26 66.0636 1009.61 65.6268 1010.02 65.7787C1011.03 65.8641 1011.66 66.1901 1011.79 67.3678C1011.84 67.7604 1011.68 68.1752 1011.53 68.59C1011.23 69.4195 1010.9 70.0527 1010.4 70.9044C1010.25 71.3191 1009.92 71.9524 1009.77 72.3671C1008.64 74.6815 1006.97 77.4551 1004.73 80.4914C1004.62 81.2987 1004.51 82.1061 1004.6 82.8913C1004.71 83.8727 1005 84.6357 1005.45 85.1802C1005.91 85.7248 1006.74 86.0286 1007.94 86.0918C1009.32 85.9366 1010.69 85.7813 1012.02 85.2335C1013.35 84.6857 1014.68 84.138 1015.81 83.6123C1016.01 83.5901 1016.21 83.568 1016.4 83.5458C1016.6 83.5236 1016.82 83.6977 1017.01 83.6755C1017.23 83.8496 1017.47 84.22 1017.52 84.6126L1017.56 85.0052C1017.61 85.3978 1015.73 86.4047 1012.31 87.7853C1010.98 88.3331 1009.41 88.5105 1007.64 88.7101L1005.83 88.5171L1005.42 88.3652C1005 88.2132 1004.78 88.0392 1004.37 87.8872C1003.08 87.0388 1002.53 85.7091 1002.36 84.1388C1000.81 86.3013 999.047 88.2897 997.065 90.1039L996.891 90.3224C996.15 90.8037 995.213 91.3071 994.45 91.5921ZM995.077 88.3406C995.273 88.3185 995.273 88.3185 995.077 88.3406C995.251 88.1222 995.251 88.1221 995.447 88.0999C997.103 86.9189 998.714 85.3452 1000.26 83.1828C1000.24 82.9865 1000.21 82.7903 1000.17 82.3977C1000.1 81.8088 999.863 81.4384 999.863 81.4384C999.667 81.4606 999.667 81.4605 999.297 81.7012C997.337 83.7117 995.989 85.8521 995.077 88.3406Z" fill="#9A28CD"/>
<path d="M1017.21 94.1904C1017.01 94.2126 1016.62 94.257 1016.01 94.1272C1014.57 93.6936 1013.48 92.823 1012.34 91.5599C1012.1 91.1895 1012.05 90.7969 1012.01 90.4044C1011.92 89.6192 1012.27 89.1822 1013.01 88.7009C1013.38 88.4602 1013.97 88.3938 1014.95 88.2829L1017.31 88.0168C1017.04 87.4501 1017 87.0575 1016.74 86.4908C1016.47 85.9241 1016.23 85.5537 1016.21 85.3574C1015.66 84.0277 1015.35 83.0685 1015.27 82.2833C1015.16 81.3019 1015.63 80.2539 1016.35 79.5763C1017.09 79.095 1017.86 78.8101 1018.84 78.6992C1020.01 78.5661 1021.26 79.0219 1022.13 79.7183C1022.37 80.0887 1022.59 80.2628 1022.64 80.6554C1022.7 81.2443 1022.35 81.6813 1021.79 81.9441C1021.59 81.9663 1021.59 81.9663 1021.4 81.9885C1021 82.0328 1020.78 81.8587 1020.35 81.5105C1019.91 81.1623 1019.3 81.0324 1018.71 81.0989C1018.12 81.1655 1017.75 81.4061 1017.58 81.6246C1017.6 81.8209 1017.62 82.0172 1017.64 82.2134C1017.71 82.8023 1018.04 83.9579 1018.81 85.4617C1019.07 86.0284 1019.35 86.7914 1019.62 87.3581C1024.28 86.4333 1027.73 85.2489 1029.75 83.8273C1030.12 83.5866 1030.49 83.3461 1030.69 83.3239C1030.89 83.3017 1031.11 83.4757 1031.32 83.6498C1031.54 83.824 1031.78 84.1944 1031.83 84.5869C1031.87 84.9795 1031.72 85.3943 1031.35 85.6349C1029.89 86.7938 1027.41 87.671 1024.13 88.6369C1023.76 88.8775 1022.39 89.0327 1020.08 89.6914L1020.12 90.084C1020.19 90.6729 1020.06 91.2839 1019.93 91.8949C1019.45 92.9429 1018.73 93.6205 1017.77 93.9277C1017.6 94.1461 1017.4 94.1683 1017.21 94.1904ZM1017.12 91.6165C1017.31 91.5943 1017.7 91.55 1017.68 91.3537C1017.86 91.1353 1017.81 90.7426 1017.94 90.1316C1016.96 90.2425 1016.2 90.5275 1015.22 90.6384L1015.02 90.6606C1015.46 91.0088 1015.89 91.357 1016.31 91.509C1016.53 91.6831 1016.72 91.6609 1017.12 91.6165Z" fill="#9A28CD"/>
<path d="M1031.64 98.723C1031.24 98.7673 1031.02 98.5932 1030.61 98.4412C1030.39 98.2671 1030.15 97.8968 1030.08 97.3079C1030.04 96.9153 1030.02 96.719 1030.19 96.5005L1030.15 96.1079C1030.45 95.2784 1030.82 95.0377 1031.61 94.949C1032 94.9047 1032.22 95.0788 1032.63 95.2308C1032.85 95.4049 1033.09 95.7753 1033.14 96.1679C1033.18 96.5604 1033.2 96.7568 1033.03 96.9752L1033.05 97.1715C1032.77 98.1973 1032.42 98.6343 1031.64 98.723ZM1032.56 92.8531C1032.17 92.8974 1031.95 92.7233 1031.73 92.5492C1031.52 92.3751 1031.27 92.0047 1031.25 91.8084C1031.23 91.6122 1031.23 91.6121 1031.21 91.4158C1032.53 85.5017 1034.04 79.5653 1035.76 73.6068C1036.06 72.7773 1036.19 72.1663 1036.49 71.3367C1038.05 65.793 1039.1 62.6933 1039.2 61.886L1039.31 61.0787L1039.29 60.8824C1039.4 60.075 1039.94 59.616 1040.73 59.5273C1041.12 59.4829 1041.34 59.657 1041.56 59.8312C1041.97 59.9831 1042.21 60.3535 1042.08 60.9645C1042.13 61.3571 1041.71 62.9939 1040.63 65.7009C1040.17 66.9452 1039.43 69.2153 1038.42 72.5112L1037.81 74.1702C1036.07 79.9325 1034.56 85.8688 1033.43 91.7608C1033.5 92.3496 1033.15 92.7866 1032.56 92.8531Z" fill="#9A28CD"/>
<path d="M1064.66 95.3907C1064.07 95.4572 1063.65 95.3051 1063.41 94.9347C1063.19 94.7606 1063.15 94.3681 1063.13 94.1718C1063.11 93.9755 1063.08 93.7793 1063.26 93.5608C1063.41 93.1461 1063.58 92.9276 1063.74 92.5128C1065.45 88.3431 1067.17 84.1733 1069.1 80.1777C1069.27 79.9592 1069.23 79.5666 1069.4 79.3481L1070.69 76.619C1067.74 76.9516 1064.82 77.4806 1062.09 77.9873C1061.51 78.0538 1060.87 77.7277 1060.63 77.3573C1060.41 77.1832 1060.37 76.7907 1060.35 76.5944C1060.32 76.3981 1060.5 76.1796 1060.45 75.787C1060.61 75.3723 1060.98 75.1317 1061.57 75.0651C1063.72 74.8212 1065.69 74.5994 1067.85 74.3555L1071.77 73.912L1072.12 73.475C1074.21 69.0647 1075.77 65.3097 1076.64 62.4286C1076.92 61.4028 1077.03 60.5955 1077.13 59.7881C1077.09 59.3955 1077.24 58.9807 1077.2 58.5881C1077.15 58.1956 1077.11 57.803 1076.67 57.4548L1076.02 56.9325C1075.82 56.9547 1075.82 56.9546 1075.6 56.7805C1074.97 56.4544 1073.99 56.5653 1072.98 56.4799C1072.59 56.5243 1072.2 56.5686 1071.81 56.613C1068.67 56.9678 1065.81 58.0856 1062.8 59.6181C1061.69 60.34 1060.58 61.062 1059.71 62.1544C1059.53 62.3728 1059.36 62.5912 1059.41 62.9838L1059.43 63.1802C1059.67 63.5506 1059.69 63.7469 1059.73 64.1394C1059.76 64.3357 1059.58 64.5541 1059.43 64.9689C1059.28 65.3836 1058.91 65.6243 1058.32 65.6908C1057.93 65.7351 1057.51 65.5833 1057.05 65.0388C1056.79 64.4721 1056.53 63.9053 1056.46 63.3164C1056.42 62.9239 1056.55 62.3128 1056.7 61.898C1056.87 61.6796 1057.02 61.2649 1057.2 61.0464L1057.37 60.8279C1058.24 59.7356 1059.51 58.5989 1061.4 57.7883C1064.8 56.2114 1068.05 55.0492 1071.39 54.6722C1071.98 54.6057 1072.57 54.5392 1072.96 54.4948C1074.14 54.3618 1075.14 54.4472 1075.97 54.751L1076.58 54.8809C1077.41 55.1847 1077.85 55.5329 1077.85 55.5329C1078.94 56.4035 1079.46 57.5369 1079.64 59.1072C1079.77 60.285 1079.34 61.7256 1078.76 63.5809L1078.63 64.1919C1077.26 67.9247 1075.85 71.265 1074.37 74.0163C1075.55 73.8833 1076.72 73.7502 1077.92 73.8134C1078.51 73.7469 1078.95 74.0951 1079.19 74.4655C1079.21 74.6618 1079.43 74.8359 1079.45 75.0322C1079.54 75.8174 1079 76.2764 1078.21 76.3651C1076.64 76.5425 1074.85 76.5459 1073.28 76.7233L1071.67 80.0856C1069.72 83.885 1067.85 88.4695 1065.88 93.8614L1065.59 94.8872C1065.4 94.9093 1065.05 95.3463 1064.66 95.3907Z" fill="#9A28CD"/>
<path d="M1085.26 87.6958C1084.86 87.7401 1084.25 87.6103 1083.84 87.4584C1082.57 86.8063 1081.83 85.4988 1081.83 83.71C1081.8 83.5137 1081.8 83.5137 1081.78 83.3174C1081.8 81.7249 1082.43 80.2621 1083.26 78.7772C1083.63 78.5366 1083.8 78.3182 1084.19 78.2739C1084.1 77.4887 1084.43 76.8555 1084.76 76.2222C1085.28 75.5669 1085.82 75.1077 1086.63 75.2153C1087.02 75.1709 1087.44 75.3229 1087.85 75.4748C1088.9 75.9528 1089.58 76.6715 1090.08 77.6086C1090.58 78.5457 1090.7 79.5271 1090.81 80.5086C1092.01 80.5718 1093.01 80.6572 1094.21 80.7204C1096.2 80.695 1098.14 80.2769 1100.05 79.6626L1100.45 79.6182C1100.84 79.5739 1101.06 79.748 1101.28 79.9221C1101.5 80.0962 1101.54 80.4887 1101.56 80.685C1101.56 80.685 1101.58 80.8814 1101.43 81.2962C1101.45 81.4925 1101.08 81.7331 1100.52 81.9959C1098.4 82.6324 1096.27 83.0727 1094.08 83.1203C1092.91 83.2534 1091.71 83.19 1090.48 82.9305C1090.09 84.7636 1089.07 86.2707 1087.39 87.2555C1087.22 87.4739 1086.83 87.5184 1086.63 87.5405C1086.44 87.5627 1086.24 87.5849 1086.24 87.5849L1085.26 87.6958ZM1085.36 85.0997C1085.36 85.0997 1085.56 85.0775 1085.95 85.0331C1087.08 84.5075 1087.76 83.4372 1088.02 82.2152C1087.19 81.9113 1086.36 81.6075 1085.7 81.0852C1085.48 80.911 1085.27 80.7368 1085.05 80.5627C1084.53 81.2181 1084.22 82.0476 1084.14 83.0513C1084.16 83.2476 1084.18 83.4439 1084.18 83.4439L1084.2 83.6401C1084.34 84.8179 1084.77 85.1662 1085.36 85.0997ZM1088.12 79.6191C1087.81 78.6598 1087.55 78.0931 1086.92 77.767L1086.72 77.7892L1086.74 77.9856C1086.74 77.9856 1086.74 77.9855 1086.77 78.1818L1086.79 78.3781C1086.81 78.5743 1087.05 78.9447 1087.29 79.3152C1087.49 79.293 1087.71 79.4671 1088.12 79.6191Z" fill="#9A28CD"/>
<path d="M1109.26 88.9604C1108.47 89.0491 1107.84 88.723 1107.18 88.2007C1106.96 88.0266 1106.94 87.8303 1106.72 87.6562C1106.7 87.4599 1106.7 87.4598 1106.5 87.482C1106.24 86.9153 1105.96 86.1523 1106.09 85.5413C1106.08 83.7525 1106.8 81.2862 1108.62 78.0979C1108.25 78.3385 1107.88 78.5791 1107.32 78.8419C1106.55 79.1269 1106.01 79.5861 1105.25 79.8711C1104.48 80.1561 1103.74 80.6373 1103.18 80.9001C1102.41 81.1851 1101.65 81.4701 1100.87 81.5588L1100.47 81.6032C1100.08 81.6475 1099.67 81.4956 1099.23 81.1474C1098.77 80.6029 1098.31 80.0583 1098.44 79.4473C1098.33 78.4658 1098.61 77.4401 1099.31 76.5662C1099.85 76.1071 1100.22 75.8664 1100.61 75.822C1100.81 75.7998 1101.01 75.7777 1101.03 75.974C1101.86 76.2779 1102.12 76.8446 1102.19 77.4334C1102.21 77.6297 1102.06 78.0445 1101.91 78.4592C1103.04 77.9336 1104.35 77.1895 1106.42 76.1604C1108.29 75.1534 1109.43 74.6279 1109.99 74.3651L1110.56 74.1022L1111.15 74.0357C1111.34 74.0135 1111.37 74.2099 1111.56 74.1877C1112.17 74.3174 1112.41 74.6878 1112.48 75.2767C1112.55 75.8655 1112.22 76.4988 1111.52 77.3726C1110.33 79.0982 1109.52 80.7794 1108.72 82.4606C1108.26 83.7049 1107.96 84.5344 1108.03 85.1233C1108.09 85.7121 1108.14 86.1047 1108.55 86.2566L1108.75 86.2344C1108.95 86.2123 1108.95 86.2123 1109.14 86.1901C1109.34 86.1679 1109.34 86.1679 1109.53 86.1457C1109.73 86.1236 1109.73 86.1235 1109.73 86.1235C1110.1 85.8829 1110.69 85.8164 1111.23 85.3573C1111.43 85.3351 1111.6 85.1167 1111.8 85.0945C1114.79 83.3657 1117.53 81.2664 1120.06 78.993C1120.43 78.7524 1120.62 78.7302 1120.82 78.7081C1121.61 78.6194 1122.04 78.9676 1122.15 79.9491C1122.2 80.3416 1122.02 80.5601 1121.68 80.997C1118.95 83.2926 1116.03 85.6103 1113.07 87.5354C1111.37 88.3239 1110.04 88.8717 1109.26 88.9604Z" fill="#9A28CD"/>
<path d="M1133.27 85.0551C1132.48 85.1438 1131.85 84.8178 1131.56 84.0548C1131.54 83.8585 1131.52 83.6622 1131.47 83.2696C1131.41 82.6807 1131.71 81.8513 1132.19 80.8033L1132.49 79.9737C1133.12 78.511 1133.99 77.4187 1135.08 76.5005C1135.82 76.0192 1136.59 75.7341 1137.57 75.6233C1138.55 75.5124 1139.6 75.9904 1140.67 76.6647C1140.67 76.6647 1141.1 77.0129 1141.72 77.1427C1141.96 77.5131 1142.2 77.8835 1142.26 78.4724C1142.33 79.0612 1142.4 79.6501 1142.83 79.9983C1143.47 80.3244 1144.3 80.6283 1145.28 80.5174C1147.46 80.4698 1149.55 79.637 1151.58 78.2153C1152.12 77.7562 1152.67 77.297 1153.02 76.8601C1153.02 76.8601 1153.02 76.8601 1153.19 76.6417C1153.19 76.6417 1153.36 76.4232 1153.34 76.2269C1153.69 75.79 1154.06 75.5493 1154.45 75.505C1155.04 75.4385 1155.48 75.7867 1155.72 76.1571C1155.74 76.3534 1155.96 76.5275 1155.79 76.746C1155.81 76.9423 1155.66 77.357 1155.48 77.5754L1154.79 78.4493C1154.61 78.6678 1154.44 78.8862 1154.07 79.1269C1152.26 80.7227 1150.21 81.9481 1147.7 82.629C1147.51 82.6511 1147.31 82.6733 1147.31 82.6733C1146.53 82.762 1145.94 82.8286 1145.35 82.8951C1143.36 82.9206 1141.92 82.4869 1141.03 81.5941L1140.81 81.4201C1140.35 80.8755 1140.09 80.3089 1140.04 79.9163C1138.63 81.4677 1136.77 82.6708 1135.12 83.8519L1134.92 83.874C1134.25 84.9442 1133.66 85.0107 1133.27 85.0551ZM1134.48 81.7371C1135.4 81.0373 1136.49 80.1191 1138.12 78.7418C1137.92 78.764 1137.7 78.5898 1137.51 78.612C1137.12 78.6563 1136.53 78.7229 1136.16 78.9636C1135.63 79.619 1134.96 80.6891 1134.48 81.7371Z" fill="#9A28CD"/>
<path d="M1155.22 87.5445C1155.02 87.5667 1155.02 87.5667 1154.63 87.6111C1154.43 87.6332 1154.02 87.4813 1153.58 87.1331C1152.92 86.6108 1152.64 85.8478 1152.55 85.0627C1152.44 84.0812 1152.55 83.2738 1152.48 82.685L1152.59 81.8776C1152.37 81.7035 1152.13 81.3331 1152.11 81.1369C1152.06 80.7443 1152.21 80.3295 1152.39 80.1111L1153.09 79.2371C1153.91 75.9634 1155.3 72.427 1157.21 68.235C1159.1 63.8468 1161.21 61.4215 1163.3 60.5887C1163.5 60.5666 1163.5 60.5666 1163.7 60.5444C1163.89 60.5222 1163.89 60.5222 1164.09 60.5C1164.29 60.4779 1164.29 60.4779 1164.48 60.4557C1165.11 60.7817 1165.55 61.13 1165.42 61.741C1165.49 62.3299 1165.34 62.7446 1165.21 63.3557L1165.23 63.5519C1164.67 65.6035 1163.88 67.4811 1163.1 69.3586C1161.65 72.3062 1159.99 75.2761 1157.9 77.8977C1157.38 78.5531 1156.86 79.2084 1156.34 79.8638L1155.47 80.9561C1155.34 81.5672 1155.23 82.3745 1155.14 83.3781C1155.01 83.9892 1155.06 84.3817 1155.08 84.578C1155.15 85.1669 1155.19 85.5595 1155.41 85.7337C1156.37 85.4265 1156.94 85.1637 1157.31 84.923C1159.94 83.6311 1163.12 81.88 1166.81 79.2773L1167.41 77.6183L1168.02 75.9593C1169.56 72.008 1171.72 68.1865 1174.48 64.4947L1174.65 64.2763C1176.05 62.5286 1177.29 61.1956 1178.38 60.2774C1178.75 60.0368 1179.12 59.7961 1179.51 59.7518C1179.51 59.7518 1179.9 59.7074 1180.32 59.8593C1180.34 60.0556 1180.54 60.0335 1180.75 60.2076C1180.97 60.3817 1181.19 60.5558 1181.43 60.9263C1181.45 61.1225 1181.48 61.3188 1181.52 61.7113L1181.54 61.9077C1181.61 62.4966 1181.28 63.1297 1180.61 64.1999C1180.46 64.6147 1180.28 64.8332 1180.11 65.0516C1178.11 68.4584 1175.91 71.8873 1173.71 75.3162L1173.54 75.5346C1172.37 77.4565 1170.8 79.4227 1169.21 81.1926C1169.04 81.4111 1168.84 81.4332 1168.64 81.4554C1168.54 82.2628 1168.41 82.8739 1168.49 83.659C1168.56 84.2479 1168.61 84.6404 1168.85 85.0108L1169.06 85.185L1169.26 85.1628C1171.81 84.8745 1174.65 83.5604 1177.56 81.2427C1177.74 81.0243 1177.91 80.8058 1178.31 80.7614L1179.59 79.821L1180.51 79.1212C1180.7 79.0991 1180.88 78.8806 1181.05 78.6621C1181.22 78.4436 1181.59 78.2031 1182.14 77.744C1182.51 77.5033 1182.71 77.4811 1182.9 77.4589C1183.49 77.3924 1183.93 77.7406 1183.99 78.3295L1184.02 78.5258C1184.06 78.9184 1183.89 79.1369 1183.54 79.5738L1182.47 80.6883C1182.12 81.1253 1181.58 81.5843 1181.03 82.0434L1179.58 83.2023C1177 85.0831 1174.78 86.5269 1173.08 87.3154C1171.75 87.8632 1170.6 88.1925 1169.81 88.2812C1169.22 88.3478 1168.81 88.1958 1168.18 87.8698C1167.98 87.892 1167.76 87.7179 1167.56 87.7401L1167.13 87.3918C1166.91 87.2177 1166.67 86.8472 1166.45 86.6731C1166.19 86.1064 1166.12 85.5176 1166.03 84.7324C1165.99 84.3398 1165.96 84.1435 1166.12 83.7288L1166.09 83.5325C1162.59 85.9168 1159.97 87.4049 1158.08 88.2155C1157.31 88.5005 1156.75 88.7634 1156.55 88.7855L1155.96 88.8521C1155.61 87.5002 1155.41 87.5224 1155.22 87.5445ZM1157.81 73.5349C1159.66 70.5429 1161.14 67.7915 1162.22 65.0845L1162.05 65.303C1160.68 67.247 1159.2 69.9984 1157.81 73.5349ZM1171.18 74.012C1173.42 70.9757 1175.25 67.7873 1177.27 64.5769L1176.4 65.6692C1174.29 68.0945 1172.62 70.8681 1171.18 74.012Z" fill="#9A28CD"/>
<path d="M1196.14 99.6195C1195.55 99.686 1195.11 99.3378 1194.48 99.0117C1194 98.2709 1193.72 97.508 1193.58 96.3302C1193.54 95.9377 1193.47 95.3488 1193.62 94.934C1194.03 91.5084 1195.49 88.5608 1197.97 85.8948C1199.19 84.3656 1200.82 82.9882 1202.65 81.5887C1203.24 79.7334 1203.6 77.704 1203.97 75.6746C1204.1 75.0635 1204.06 74.6709 1204.03 74.4746C1201.73 76.9221 1200.31 78.4735 1200.16 78.8883C1198.92 80.2212 1198.22 81.0951 1197.5 81.7727C1197.13 82.0133 1196.76 82.254 1196.37 82.2983C1195.59 82.387 1194.95 82.061 1194.47 81.3202C1194.45 81.1239 1194.21 80.7535 1194.36 80.3387C1194.27 79.5536 1194.36 78.55 1194.66 77.7205C1195.2 75.4726 1195.81 73.8135 1196.88 72.699C1197.25 72.4584 1197.42 72.2399 1197.81 72.1955C1198.6 72.1068 1199.06 72.6513 1199.15 73.4365C1199.19 73.8291 1199.04 74.2439 1198.67 74.4845C1197.82 75.7731 1197.36 77.0174 1197.13 78.4358L1200.13 75.1145C1201.37 73.7815 1202.61 72.4485 1203.88 71.3118L1204.05 71.0933C1204.22 70.8748 1204.62 70.8305 1205.01 70.7862C1205.99 70.6753 1206.65 71.1977 1206.74 71.9828C1206.76 72.1791 1206.78 72.3754 1206.8 72.5717C1206.85 72.9642 1206.78 74.1641 1206.37 75.801C1206.11 77.023 1205.85 78.2452 1205.57 79.271C1208.16 77.5865 1211.54 75.8133 1215.7 73.9514C1217.03 73.4036 1217.8 73.1187 1217.99 73.0965C1218.19 73.0743 1218.6 73.2261 1218.82 73.4003C1219.04 73.5744 1219.28 73.9448 1219.13 74.3595C1219.13 74.3595 1219.15 74.5558 1219.17 74.7521C1219.2 74.9484 1218.83 75.189 1218.46 75.4297C1216.93 75.9997 1215.6 76.5476 1214.47 77.0732C1210.87 78.6723 1207.51 80.6418 1204.94 82.5226C1203.8 86.4295 1202.6 89.9437 1201.19 93.284C1199.78 96.6242 1198.21 98.5905 1196.9 99.3346C1196.53 99.5752 1196.34 99.5973 1196.14 99.6195ZM1196.4 96.6086C1196.4 96.6086 1196.57 96.3901 1196.94 96.1495C1198.49 93.987 1200.07 90.4283 1201.72 85.6697C1199.57 87.7024 1198.02 89.8649 1197.09 92.1572C1196.46 93.6199 1196.22 95.0384 1196.37 96.4124L1196.4 96.6086Z" fill="#9A28CD"/>
<path d="M1220.17 81.7973C1219.78 81.8417 1219.17 81.7119 1218.75 81.56C1217.48 80.9079 1216.74 79.6003 1216.74 77.8116C1216.71 77.6153 1216.71 77.6152 1216.69 77.419C1216.71 75.8265 1217.34 74.3637 1218.17 72.8788C1218.54 72.6381 1218.71 72.4197 1219.1 72.3753C1219.02 71.5901 1219.34 70.9569 1219.67 70.3237C1220.19 69.6683 1220.74 69.2093 1221.54 69.3169C1221.94 69.2725 1222.35 69.4245 1222.76 69.5764C1223.81 70.0544 1224.49 70.7729 1224.99 71.71C1225.5 72.6471 1225.61 73.6286 1225.72 74.61C1226.92 74.6733 1227.92 74.7588 1229.12 74.822C1231.11 74.7966 1233.05 74.3785 1234.97 73.7641L1235.36 73.7198C1235.75 73.6754 1235.97 73.8496 1236.19 74.0237C1236.41 74.1978 1236.45 74.5903 1236.47 74.7866C1236.47 74.7866 1236.5 74.9829 1236.34 75.3976C1236.37 75.5939 1236 75.8347 1235.43 76.0975C1233.31 76.734 1231.18 77.1741 1229 77.2218C1227.82 77.3548 1226.62 77.2916 1225.4 77.0321C1225.01 78.8652 1223.98 80.3723 1222.31 81.357C1222.13 81.5755 1221.74 81.6199 1221.54 81.6421C1221.35 81.6643 1221.15 81.6865 1221.15 81.6865L1220.17 81.7973ZM1220.3 79.3975C1220.3 79.3975 1220.49 79.3753 1220.88 79.3309C1222.02 78.8053 1222.69 77.7352 1222.95 76.5131C1222.12 76.2092 1221.29 75.9053 1220.64 75.383C1220.42 75.2089 1220.2 75.0348 1219.98 74.8607C1219.46 75.516 1219.16 76.3455 1219.07 77.3491C1219.09 77.5454 1219.11 77.7417 1219.11 77.7417L1219.14 77.9381C1219.44 78.8973 1219.68 79.2677 1220.3 79.3975ZM1223.03 73.7206C1222.73 72.7614 1222.46 72.1947 1221.83 71.8686L1221.63 71.8908L1221.66 72.087C1221.66 72.087 1221.66 72.0871 1221.68 72.2834L1221.7 72.4796C1221.72 72.6759 1221.96 73.0463 1222.2 73.4167C1222.4 73.3946 1222.62 73.5687 1223.03 73.7206Z" fill="#9A28CD"/>
</svg>
