<svg width="265" height="266" viewBox="0 0 265 266" fill="none" xmlns="http://www.w3.org/2000/svg">
<path d="M265 212.037C265 226.349 259.315 240.075 249.195 250.195C239.075 260.315 225.349 266 211.037 266H53.9627C39.6509 266 25.9253 260.315 15.8053 250.195C5.68533 240.075 0 226.349 0 212.037V54.7681C0 40.4563 5.68533 26.7307 15.8053 16.6107C25.9253 6.49076 39.6509 0.80542 53.9627 0.80542H211.037C225.349 0.80542 239.075 6.49076 249.195 16.6107C259.315 26.7307 265 40.4563 265 54.7681V212.037ZM156.267 144.32C158.018 145.665 159.811 145.5 161.918 145.724C165.222 146.076 168.53 146.408 171.841 146.718C175.542 147.065 176.937 144.531 177.432 141.19C181.515 113.524 185.597 85.8593 189.677 58.1942C189.993 56.0483 190.003 54.5171 189.707 53.6007C189.092 51.7114 187.574 50.6427 185.151 50.3946C181.855 50.0562 175.199 49.4062 165.183 48.4447C160.285 47.9752 158.978 50.2677 158.741 54.9204C157.317 83.2651 155.868 111.61 154.393 139.955C154.294 141.833 154.919 143.288 156.267 144.32ZM114.101 189.975H121.202C121.358 189.975 121.439 190.053 121.448 190.208L122.137 206.001C122.146 206.244 122.271 206.365 122.514 206.365H146.665C146.696 206.365 146.727 206.359 146.755 206.347C146.784 206.335 146.809 206.317 146.83 206.295C146.851 206.273 146.867 206.246 146.878 206.218C146.888 206.189 146.892 206.159 146.889 206.128C144.213 166.552 141.378 127.013 138.384 87.5103C138.189 84.9006 137.91 84.0166 134.966 84.0166C123.371 84.0194 111.777 84.0222 100.185 84.025C97.0042 84.025 97.2623 87.7514 97.0592 90.6065C94.403 128.014 91.6663 165.426 89.3442 202.855C89.3329 202.998 89.3781 203.122 89.4796 203.227L92.2712 206.15C92.3367 206.218 92.4155 206.272 92.5027 206.309C92.5899 206.346 92.6838 206.365 92.7788 206.365H113.678C113.734 206.365 113.788 206.343 113.827 206.303C113.867 206.264 113.889 206.21 113.889 206.154V190.187C113.889 190.046 113.96 189.975 114.101 189.975ZM175.169 160.337C175.169 157.738 174.137 155.246 172.299 153.408C170.461 151.57 167.968 150.537 165.369 150.537C164.082 150.537 162.808 150.791 161.619 151.283C160.43 151.776 159.349 152.498 158.439 153.408C157.529 154.318 156.807 155.398 156.315 156.587C155.822 157.776 155.569 159.051 155.569 160.337C155.569 161.624 155.822 162.899 156.315 164.088C156.807 165.277 157.529 166.357 158.439 167.267C159.349 168.177 160.43 168.899 161.619 169.392C162.808 169.884 164.082 170.138 165.369 170.138C167.968 170.138 170.461 169.105 172.299 167.267C174.137 165.429 175.169 162.937 175.169 160.337Z" fill="#0000F8"/>
<path d="M156.267 144.32C154.919 143.288 154.294 141.833 154.393 139.955C155.868 111.61 157.317 83.2652 158.741 54.9204C158.978 50.2678 160.285 47.9753 165.183 48.4447C175.199 49.4063 181.855 50.0563 185.151 50.3946C187.574 50.6428 189.092 51.7115 189.707 53.6008C190.003 54.5172 189.993 56.0484 189.677 58.1942C185.597 85.8594 181.515 113.525 177.432 141.19C176.937 144.531 175.541 147.065 171.84 146.718C168.53 146.408 165.222 146.076 161.918 145.724C159.811 145.5 158.018 145.665 156.267 144.32Z" fill="#FF73C6"/>
<path d="M113.889 190.187V206.154C113.889 206.21 113.867 206.264 113.827 206.303C113.788 206.343 113.734 206.365 113.678 206.365H92.7788C92.6838 206.365 92.5899 206.346 92.5027 206.309C92.4155 206.272 92.3367 206.218 92.2712 206.15L89.4796 203.227C89.3781 203.123 89.3329 202.998 89.3442 202.855C91.6663 165.426 94.403 128.014 97.0592 90.6065C97.2623 87.7514 97.0042 84.0251 100.185 84.0251C111.777 84.0222 123.371 84.0194 134.966 84.0166C137.91 84.0166 138.189 84.9006 138.384 87.5103C141.378 127.013 144.213 166.552 146.889 206.128C146.892 206.159 146.888 206.189 146.878 206.218C146.867 206.246 146.851 206.273 146.83 206.295C146.809 206.317 146.784 206.335 146.755 206.347C146.727 206.359 146.696 206.365 146.665 206.365H122.514C122.271 206.365 122.146 206.244 122.137 206.002L121.448 190.208C121.439 190.053 121.358 189.975 121.202 189.975H114.101C113.96 189.975 113.889 190.046 113.889 190.187ZM115.78 167.883C118.102 169.719 121.524 168.133 121.427 165.231C120.77 145.868 120.11 126.501 119.447 107.132C119.445 107.059 119.415 106.991 119.362 106.94C119.31 106.89 119.241 106.861 119.168 106.861H116.546C116.41 106.861 116.341 106.929 116.338 107.064C115.752 125.086 115.181 143.109 114.625 161.133C114.558 163.226 113.872 166.378 115.78 167.883Z" fill="#FF73C6"/>
<path d="M115.78 167.883C113.872 166.378 114.558 163.226 114.625 161.133C115.181 143.108 115.752 125.086 116.338 107.064C116.341 106.929 116.41 106.861 116.546 106.861H119.168C119.241 106.861 119.31 106.889 119.362 106.94C119.415 106.99 119.445 107.059 119.447 107.132C120.11 126.501 120.77 145.868 121.427 165.231C121.524 168.133 118.102 169.719 115.78 167.883Z" fill="#0000F8"/>
<path d="M165.369 170.138C170.782 170.138 175.169 165.75 175.169 160.337C175.169 154.925 170.782 150.537 165.369 150.537C159.957 150.537 155.569 154.925 155.569 160.337C155.569 165.75 159.957 170.138 165.369 170.138Z" fill="#FF73C6"/>
</svg>
