<svg width="31" height="25" viewBox="0 0 31 25" fill="none" xmlns="http://www.w3.org/2000/svg">
<path d="M12.6624 21.8264V24.9585C12.6624 24.9695 12.658 24.9801 12.6502 24.9879C12.6423 24.9956 12.6317 25 12.6205 25H8.48051C8.4617 25 8.4431 24.9962 8.42582 24.989C8.40854 24.9817 8.39295 24.9711 8.37997 24.9577L7.82695 24.3844C7.80684 24.3639 7.79791 24.3396 7.80014 24.3113C8.26014 16.9693 8.80226 9.63058 9.32846 2.29268C9.36868 1.73263 9.31756 1.00166 9.94766 1.00166C12.244 1.00111 14.5407 1.00055 16.8377 1C17.4208 1 17.4761 1.17341 17.5147 1.68534C18.1079 9.43421 18.6696 17.1903 19.1997 24.9535C19.2001 24.9595 19.1993 24.9654 19.1973 24.9711C19.1953 24.9767 19.1921 24.9818 19.1879 24.9862C19.1837 24.9906 19.1787 24.994 19.1731 24.9964C19.1675 24.9988 19.1614 25 19.1553 25H14.3709C14.3229 25 14.298 24.9762 14.2963 24.9286L14.1597 21.8305C14.1581 21.8001 14.1419 21.7849 14.1112 21.7849H12.7043C12.6764 21.7849 12.6624 21.7987 12.6624 21.8264ZM13.037 17.4514C13.497 17.8115 14.1748 17.5003 14.1556 16.9311C14.0254 13.1328 13.8947 9.33382 13.7634 5.53433C13.763 5.5201 13.757 5.50659 13.7466 5.49668C13.7363 5.48676 13.7225 5.48122 13.7081 5.48123H13.1886C13.1618 5.48123 13.1481 5.4945 13.1476 5.52106C13.0314 9.05614 12.9183 12.5915 12.8082 16.1272C12.7948 16.5379 12.6591 17.156 13.037 17.4514Z" fill="#7C7C7C"/>
<path d="M25.2015 24.8683C26.2869 24.8683 27.1668 23.9855 27.1668 22.8966C27.1668 21.8076 26.2869 20.9248 25.2015 20.9248C24.1162 20.9248 23.2363 21.8076 23.2363 22.8966C23.2363 23.9855 24.1162 24.8683 25.2015 24.8683Z" fill="#7C7C7C"/>
<path d="M26.2756 20.0707C25.1418 20.0308 22.9339 20.0906 23.0015 18.6737C23.3012 12.7212 23.5916 6.81124 23.8727 0.943868C23.8788 0.812761 23.9108 0.684162 23.9669 0.565581C24.0229 0.447001 24.102 0.340801 24.1993 0.253143C24.2967 0.165486 24.4105 0.0981204 24.534 0.054986C24.6576 0.0118515 24.7884 -0.00620272 24.919 0.00187764C26.3166 0.0896886 27.7435 0.233386 29.1995 0.432957C30.0628 0.548707 30.2696 0.987767 30.1543 1.81C29.3401 7.50174 28.5073 13.1882 27.656 18.8693C27.5167 19.7793 27.2542 20.1066 26.2756 20.0707Z" fill="#7C7C7C"/>
</svg>
