<svg width="18" height="18" viewBox="0 0 18 18" fill="none" xmlns="http://www.w3.org/2000/svg">
    <g id="filled">
        <path id="vector"
            d="M16.9501 15.3003L13.6501 12.0003C14.4751 10.8003 15 9.37532 15 7.80032C15 3.90032 11.775 0.675293 7.875 0.675293C3.975 0.675293 0.75 3.90032 0.75 7.80032C0.75 11.7003 3.975 14.9253 7.875 14.9253C9.45 14.9253 10.8751 14.4003 12.0751 13.5753L15.375 16.8753L16.9501 15.3003ZM3 7.8753C3 5.1753 5.175 3.0003 7.875 3.0003C10.575 3.0003 12.75 5.1753 12.75 7.8753C12.75 10.5753 10.575 12.7503 7.875 12.7503C5.175 12.7503 3 10.5753 3 7.8753Z"
            fill="white" />
    </g>
</svg>
