<svg width="24" height="24" viewBox="0 0 24 24" fill="none" xmlns="http://www.w3.org/2000/svg">
<path d="M12 19.5C12 20.8807 10.8807 22 9.5 22C8.11929 22 7 20.8807 7 19.5C7 18.1193 8.11929 17 9.5 17C10.8807 17 12 18.1193 12 19.5Z" stroke="#1C274C" stroke-width="1.5"/>
<path d="M22 17.5C22 18.8807 20.8807 20 19.5 20C18.1193 20 17 18.8807 17 17.5C17 16.1193 18.1193 15 19.5 15C20.8807 15 22 16.1193 22 17.5Z" stroke="#1C274C" stroke-width="1.5"/>
<path d="M22 8L12 12" stroke="#1C274C" stroke-width="1.5" stroke-linecap="round"/>
<path d="M12.75 19.0004V8.84785H11.25V19.0004H12.75ZM22.75 17.1542V8.01076H21.25V17.1542H22.75ZM14.7452 5.84985L16.7452 5.01276L16.1661 3.62907L14.1661 4.46616L14.7452 5.84985ZM22.75 8.01076C22.75 6.67664 22.752 5.59089 22.6304 4.76935C22.5067 3.93326 22.2308 3.18687 21.5236 2.7162L20.6925 3.96494C20.8772 4.08785 21.0473 4.31769 21.1466 4.98887C21.248 5.6746 21.25 6.62715 21.25 8.01076H22.75ZM16.7452 5.01276C18.0215 4.47856 18.901 4.11261 19.5727 3.94143C20.2302 3.77389 20.5079 3.84202 20.6925 3.96494L21.5236 2.7162C20.8164 2.24552 20.0213 2.27918 19.2023 2.48789C18.3975 2.69296 17.3967 3.11398 16.1661 3.62907L16.7452 5.01276ZM12.75 8.84785C12.75 8.18632 12.751 7.74989 12.7875 7.41414C12.822 7.0966 12.8823 6.94004 12.9594 6.82428L11.7106 5.99323C11.4527 6.38087 11.3455 6.79862 11.2963 7.25216C11.249 7.6875 11.25 8.21891 11.25 8.84785H12.75ZM14.1661 4.46616C13.5859 4.70899 13.0953 4.91322 12.712 5.12492C12.3126 5.34547 11.9686 5.6056 11.7106 5.99323L12.9594 6.82428C13.0364 6.70853 13.1575 6.5924 13.4371 6.43798C13.7328 6.27471 14.135 6.10526 14.7452 5.84985L14.1661 4.46616Z" fill="#1C274C"/>
<path d="M7 11V6.5V2" stroke="#1C274C" stroke-width="1.5" stroke-linecap="round"/>
<path d="M4.5 13C5.88071 13 7 11.8807 7 10.5C7 9.11929 5.88071 8 4.5 8C3.11929 8 2 9.11929 2 10.5C2 11.8807 3.11929 13 4.5 13Z" stroke="#1C274C" stroke-width="1.5"/>
<path d="M10 5C8.75736 5 7 4.07107 7 2" stroke="#1C274C" stroke-width="1.5" stroke-linecap="round"/>
</svg>
