<svg xmlns="http://www.w3.org/2000/svg" width="28" height="28" viewBox="0 0 28 28" fill="none">
  <path d="M23.4105 0.553711H4.61379C2.25443 0.553711 0.341797 2.46635 0.341797 4.8257V23.6225C0.341797 25.9818 2.25443 27.8944 4.61379 27.8944H23.4105C25.7699 27.8944 27.6825 25.9818 27.6825 23.6225V4.8257C27.6825 2.46635 25.7699 0.553711 23.4105 0.553711Z" fill="#F00073"/>
  <path d="M14.0124 8.41417C15.8921 8.41417 16.1484 8.41417 16.9174 8.41417C17.6009 8.41417 17.9426 8.58505 18.199 8.67048C18.5407 8.84136 18.797 8.9268 19.0534 9.18312C19.3097 9.43944 19.4805 9.69576 19.566 10.0375C19.6514 10.2938 19.7369 10.6356 19.8223 11.3191C19.8223 12.0881 19.8223 12.259 19.8223 14.2241C19.8223 16.1892 19.8223 16.3601 19.8223 17.129C19.8223 17.8125 19.6514 18.1543 19.566 18.4106C19.3951 18.7524 19.3097 19.0087 19.0534 19.265C18.797 19.5213 18.5407 19.6922 18.199 19.7777C17.9426 19.8631 17.6009 19.9485 16.9174 20.034C16.1484 20.034 15.9775 20.034 14.0124 20.034C12.0473 20.034 11.8764 20.034 11.1074 20.034C10.4239 20.034 10.0822 19.8631 9.82585 19.7777C9.48409 19.6068 9.22777 19.5213 8.97145 19.265C8.71513 19.0087 8.54425 18.7524 8.45881 18.4106C8.37338 18.1543 8.28794 17.8125 8.2025 17.129C8.2025 16.3601 8.2025 16.1892 8.2025 14.2241C8.2025 12.259 8.2025 12.0881 8.2025 11.3191C8.2025 10.6356 8.37338 10.2938 8.45881 10.0375C8.62969 9.69576 8.71513 9.43944 8.97145 9.18312C9.22777 8.9268 9.48409 8.75592 9.82585 8.67048C10.0822 8.58505 10.4239 8.49961 11.1074 8.41417C11.8764 8.41417 12.1327 8.41417 14.0124 8.41417ZM14.0124 7.13257C12.0473 7.13257 11.8764 7.13257 11.1074 7.13257C10.3385 7.13257 9.82585 7.30345 9.39865 7.47433C8.97145 7.64521 8.54426 7.90153 8.11706 8.32873C7.68986 8.75593 7.51898 9.09768 7.26266 9.61032C7.09178 10.0375 7.00634 10.5502 6.9209 11.3191C6.9209 12.0881 6.9209 12.3444 6.9209 14.2241C6.9209 16.1892 6.9209 16.3601 6.9209 17.129C6.9209 17.898 7.09178 18.4106 7.26266 18.8378C7.43354 19.265 7.68986 19.6922 8.11706 20.1194C8.54426 20.5466 8.88601 20.7175 9.39865 20.9738C9.82585 21.1447 10.3385 21.2301 11.1074 21.3156C11.8764 21.3156 12.1327 21.3156 14.0124 21.3156C15.8921 21.3156 16.1484 21.3156 16.9174 21.3156C17.6863 21.3156 18.199 21.1447 18.6262 20.9738C19.0534 20.8029 19.4805 20.5466 19.9077 20.1194C20.3349 19.6922 20.5058 19.3505 20.7621 18.8378C20.933 18.4106 21.0185 17.898 21.1039 17.129C21.1039 16.3601 21.1039 16.1037 21.1039 14.2241C21.1039 12.3444 21.1039 12.0881 21.1039 11.3191C21.1039 10.5502 20.933 10.0375 20.7621 9.61032C20.5913 9.18312 20.3349 8.75593 19.9077 8.32873C19.4805 7.90153 19.1388 7.73065 18.6262 7.47433C18.199 7.30345 17.6863 7.21801 16.9174 7.13257C16.1484 7.13257 15.9775 7.13257 14.0124 7.13257Z" fill="white"/>
  <path d="M14.0124 10.5502C11.9618 10.5502 10.3385 12.1735 10.3385 14.2241C10.3385 16.2746 11.9618 17.898 14.0124 17.898C16.063 17.898 17.6863 16.2746 17.6863 14.2241C17.6863 12.1735 16.063 10.5502 14.0124 10.5502ZM14.0124 16.6164C12.7308 16.6164 11.6201 15.5911 11.6201 14.2241C11.6201 12.9425 12.6454 11.8318 14.0124 11.8318C15.294 11.8318 16.4047 12.857 16.4047 14.2241C16.4047 15.5057 15.294 16.6164 14.0124 16.6164Z" fill="white"/>
  <path d="M17.7718 11.3191C18.2436 11.3191 18.6262 10.9366 18.6262 10.4647C18.6262 9.99285 18.2436 9.61032 17.7718 9.61032C17.2999 9.61032 16.9174 9.99285 16.9174 10.4647C16.9174 10.9366 17.2999 11.3191 17.7718 11.3191Z" fill="white"/>
</svg>