<svg height="20.307" viewBox="0 0 20.303 20.307" width="20.303" xmlns="http://www.w3.org/2000/svg">
    <g stroke="#000" stroke-width=".3">
        <path
            d="m102.733 221.782a.333.333 0 0 0 -.333.333v2a.333.333 0 0 0 .667 0v-2a.333.333 0 0 0 -.334-.333z"
            transform="translate(-98.25 -212.962)" />
        <path
            d="m4.37.112-3.152 1.261a1.542 1.542 0 0 0 -1.218 1.646v14a1.538 1.538 0 0 0 1.209 1.643l3.167 1.267a1.32 1.32 0 0 0 .468.089 1.212 1.212 0 0 0 1.156-1.327v-17.339a1.194 1.194 0 0 0 -1.63-1.24zm.964 18.579c0 .4-.2.665-.49.665a.66.66 0 0 1 -.227-.044l-3.168-1.267c-.629-.233-.783-.434-.783-1.021v-14c0-.587.154-.788.791-1.024l3.154-1.266a.663.663 0 0 1 .233-.047c.293 0 .49.267.49.665z"
            transform="translate(.15 .134)" />
        <path
            d="m169.933 34.715h4.709a1 1 0 0 1 1 1v5a.333.333 0 0 0 .667 0v-5a1.669 1.669 0 0 0 -1.667-1.667h-4.709a.333.333 0 0 0 0 .667z"
            transform="translate(-162.824 -32.562)" />
        <path
            d="m177 298.582a.333.333 0 0 0 -.333.333v5a1 1 0 0 1 -1 1h-4.667a.333.333 0 1 0 0 .667h4.667a1.669 1.669 0 0 0 1.667-1.667v-5a.333.333 0 0 0 -.334-.333z"
            transform="translate(-163.85 -286.761)" />
        <path
            d="m200.376 165.578a.333.333 0 0 0 -.072-.109l-3.333-3.334a.333.333 0 0 0 -.471.471l2.765 2.765h-11.2a.333.333 0 1 0 0 .667h11.2l-2.765 2.762a.333.333 0 1 0 .471.471l3.333-3.333a.334.334 0 0 0 .072-.363z"
            transform="translate(-180.25 -155.552)" />
    </g>
</svg>