<svg width="40" height="40" viewBox="0 0 40 40" fill="none" xmlns="http://www.w3.org/2000/svg">
    <g clip-path="url(#clip0_733_975)">
        <path d="M24.9997 21.6673C24.0781 21.6673 23.3332 22.4141 23.3332 23.3339V30.0007C23.3332 30.9189 22.5864 31.6672 21.6663 31.6672H16.6664V6.66747C16.6664 5.24415 15.7597 3.97249 14.3965 3.49917L13.9031 3.33407H21.6663C22.5864 3.33407 23.3332 4.08235 23.3332 5.00092V10.0009C23.3332 10.9207 24.0781 11.6674 24.9997 11.6674C25.9214 11.6674 26.6663 10.9207 26.6663 10.0009V5.00092C26.6663 2.2443 24.423 0.000976562 21.6663 0.000976562H3.74996C3.68649 0.000976562 3.63339 0.0293576 3.57174 0.0375972C3.49148 0.0308835 3.41488 0.000976562 3.3334 0.000976562C1.49504 0.000976562 0 1.49571 0 3.33407V33.3338C0 34.7571 0.906668 36.0287 2.26987 36.5021L12.3 39.8455C12.6399 39.9505 12.9781 40.0005 13.3333 40.0005C15.1717 40.0005 16.6664 38.5055 16.6664 36.6671V35.0006H21.6663C24.423 35.0006 26.6663 32.7573 26.6663 30.0007V23.3339C26.6663 22.4141 25.9214 21.6673 24.9997 21.6673Z" fill="#B345E4"/>
        <path d="M39.5115 15.4888L32.8447 8.82228C32.3683 8.3456 31.6514 8.20217 31.0283 8.46034C30.4066 8.71882 29.9999 9.32703 29.9999 10.0005V15.0005H23.3334C22.4133 15.0005 21.6665 15.7469 21.6665 16.667C21.6665 17.5871 22.4133 18.3336 23.3334 18.3336H29.9999V23.3335C29.9999 24.0071 30.4066 24.6153 31.0283 24.8737C31.6514 25.1319 32.3683 24.9885 32.8447 24.5121L39.5115 17.8453C40.163 17.1938 40.163 16.1403 39.5115 15.4888Z" fill="#B345E4"/>
    </g>
    <defs>
        <clipPath id="clip0_733_975">
            <rect width="40" height="40" fill="white"/>
        </clipPath>
    </defs>
</svg>
