<svg width="135" height="71" viewBox="0 0 135 71" fill="none" xmlns="http://www.w3.org/2000/svg">
<g clip-path="url(#clip0_909_6)">
<path d="M92.7578 10.6391C89.8332 8.97282 86.5075 8.14085 83.1429 8.23383C80.5188 8.19701 77.919 8.73954 75.5287 9.82277C73.1384 10.906 71.0164 12.5033 69.3143 14.5006C66.8186 17.5216 64.7587 20.8775 63.1945 24.4704C62.9204 25.059 62.6004 25.625 62.2372 26.1632C62.0791 26.3958 61.8737 26.5923 61.6345 26.74C61.4764 26.8309 61.2977 26.8796 61.1154 26.8813C60.8476 26.8778 60.5907 26.775 60.3944 26.5929C60.2411 26.4449 60.1108 26.2748 60.0079 26.0883C59.7725 25.6493 59.573 25.1922 59.411 24.7213C59.0072 23.6312 58.5458 22.1718 57.8796 20.5626C56.5088 16.7636 54.048 13.4532 50.8053 11.0457C47.8695 9.11921 44.4116 8.14351 40.9018 8.25117C38.3001 8.1678 35.7102 8.63666 33.3028 9.62686C30.8954 10.6171 28.725 12.1061 26.9349 13.996C24.2 16.8477 22.0149 20.1796 20.4893 23.8244C19.2954 27.0515 18.3639 31.1467 16.2384 30.8496C15.6934 30.7746 11.9644 29.6095 15.0617 24.2165C17.2022 21.3622 18.9141 18.2104 20.1433 14.8611C20.4202 13.4857 20.3761 12.0649 20.0144 10.7093C19.6528 9.35369 18.9834 8.09978 18.0581 7.04507C17.1329 5.99036 15.9769 5.16331 14.6799 4.62822C13.383 4.09312 11.98 3.86439 10.5802 3.95986C7.86265 3.95986 5.25627 5.03941 3.33466 6.96102C1.41305 8.88263 0.333496 11.4889 0.333496 14.2065C0.333496 14.5295 0.353767 14.8467 0.382606 15.161C0.352034 15.2818 0.335498 15.4056 0.333496 15.5302V69.6096C0.338016 69.8402 0.432611 70.0598 0.597 70.2215C0.761389 70.3832 0.982492 70.4741 1.21307 70.4748H17.8476C18.0787 70.4748 18.3006 70.3843 18.4656 70.2225C18.6306 70.0608 18.7256 69.8407 18.7302 69.6096V51.5908C18.6111 46.6863 19.2135 41.7909 20.5182 37.0616C21.3872 33.5707 23.431 30.4852 26.3063 28.3233C28.1807 27.0898 30.3783 26.4386 32.6221 26.4517C34.2994 26.5208 35.9629 26.7839 37.5796 27.236C38.8777 27.797 39.9556 28.7687 40.648 30.0017C42.2872 33.8915 42.9516 38.1227 42.5832 42.3276V69.6096C42.5877 69.8402 42.6823 70.0598 42.8467 70.2215C43.0111 70.3832 43.2322 70.4741 43.4627 70.4748H60.0973C60.3279 70.4741 60.549 70.3832 60.7134 70.2215C60.8777 70.0598 60.9723 69.8402 60.9769 69.6096V51.5908C60.8395 46.709 61.2996 41.8288 62.3468 37.0587C63.004 33.5207 64.9955 30.3707 67.9098 28.2598C69.6905 27.2857 71.653 26.6894 73.6747 26.5082C75.6963 26.3271 77.7336 26.5651 79.659 27.2072C80.9879 27.7384 82.1033 28.6947 82.8313 29.9267C84.3598 32.4761 84.8212 36.3608 84.8298 42.3276V69.6096C84.8336 69.8379 84.9259 70.0558 85.0874 70.2173C85.2488 70.3787 85.4667 70.4711 85.695 70.4748H102.33C102.56 70.4741 102.781 70.3832 102.946 70.2215C103.11 70.0598 103.205 69.8402 103.209 69.6096V38.6881C103.345 32.9286 102.56 27.1843 100.882 21.6729C99.597 17.1337 96.7108 13.2139 92.7578 10.6391Z" fill="#9A28CD"/>
<path d="M130.849 4.44421C129.792 3.01237 128.402 1.85952 126.8 1.08521C125.197 0.310894 123.431 -0.0615425 121.652 0.000126256C120.255 -0.0744991 118.859 0.159701 117.563 0.68608C116.267 1.21246 115.103 2.01807 114.153 3.04555C112.357 5.04477 111.388 7.65196 111.443 10.339C111.374 11.6013 111.573 12.8639 112.027 14.0439C112.481 15.2238 113.179 16.2945 114.076 17.1855C115.564 18.7289 117.602 19.6223 119.746 19.6714C120.55 19.6414 121.349 19.5292 122.13 19.3368C122.767 19.14 123.423 19.0096 124.086 18.9475C125.532 18.9475 126.255 19.879 126.257 21.7421C126.227 23.3424 125.812 24.9119 125.046 26.3175C124.281 27.7232 123.187 28.9236 121.859 29.817C119.536 31.6771 116.725 32.8276 113.764 33.1307C113.384 33.1631 113.029 33.3367 112.77 33.6175C112.511 33.8982 112.367 34.2658 112.365 34.6476V38.2727C112.366 38.4857 112.411 38.6962 112.497 38.891C112.583 39.0857 112.709 39.2604 112.866 39.4039C113.023 39.5474 113.209 39.6565 113.411 39.7244C113.612 39.7924 113.826 39.8175 114.038 39.7983C119.781 39.371 125.123 36.6941 128.904 32.3496C132.684 28.0051 134.597 22.3441 134.226 16.5971C134.472 12.2846 133.284 8.01173 130.849 4.44421Z" fill="#9A28CD"/>
</g>
<defs>
<clipPath id="clip0_909_6">
<rect width="133.907" height="70.4861" fill="white" transform="translate(0.333496)"/>
</clipPath>
</defs>
</svg>
