<svg height="27.9" viewBox="0 0 133 27.9" width="133" xmlns="http://www.w3.org/2000/svg">
    <g data-name="Moca Logo" id="Moca_Logo" transform="translate(-721.652 -490)">
        <path
            d="M756.737,497.924a6.985,6.985,0,0,0-3.65-.913,6.772,6.772,0,0,0-5.249,2.379,15.916,15.916,0,0,0-2.323,3.784,4.69,4.69,0,0,1-.364.643.758.758,0,0,1-.229.22.4.4,0,0,1-.2.054.41.41,0,0,1-.274-.113.807.807,0,0,1-.147-.191,3.526,3.526,0,0,1-.227-.518c-.153-.414-.331-.967-.581-1.579a7.794,7.794,0,0,0-2.685-3.617,6.491,6.491,0,0,0-3.759-1.061,6.994,6.994,0,0,0-5.3,2.181,12.191,12.191,0,0,0-2.447,3.731c-.453,1.225-.806,2.78-1.613,2.667-.206-.029-1.623-.47-.447-2.516.4-.7,1.693-2.338,1.928-3.551a3.463,3.463,0,0,0-3.631-4.138,3.89,3.89,0,0,0-3.89,3.89c0,.122.007.243.018.362a.611.611,0,0,0-.018.14V520.3a.335.335,0,0,0,.334.334H728.3a.335.335,0,0,0,.335-.334v-6.84a19.008,19.008,0,0,1,.678-5.515,5.947,5.947,0,0,1,2.2-3.317,4.315,4.315,0,0,1,2.4-.711,8.257,8.257,0,0,1,1.881.3,2.451,2.451,0,0,1,1.165,1.05c.561.974.731,2.446.734,4.679V520.3a.335.335,0,0,0,.334.334h6.314a.335.335,0,0,0,.334-.334v-6.84a22.735,22.735,0,0,1,.52-5.516,5.324,5.324,0,0,1,2.111-3.34,5.6,5.6,0,0,1,4.46-.4,2.46,2.46,0,0,1,1.2,1.033c.58.968.755,2.442.759,4.706V520.3a.335.335,0,0,0,.334.334h6.314a.335.335,0,0,0,.334-.334V508.567a20.521,20.521,0,0,0-.884-6.457A7.406,7.406,0,0,0,756.737,497.924Z"
            data-name="Path 13251" fill="#FFE54D" id="Path_13251" transform="translate(0 -3.881)" />
        <path
            d="M892.176,501.947a15.26,15.26,0,0,0-18.566,0c-2.349,2.1-3.8,5.254-3.8,9.549,0,4.32,1.451,7.487,3.8,9.593a15.235,15.235,0,0,0,18.566,0c2.343-2.107,3.791-5.273,3.793-9.593C895.967,507.2,894.519,504.048,892.176,501.947ZM887.321,516.3a6.089,6.089,0,0,1-4.408,1.54,6.162,6.162,0,0,1-4.448-1.54,6.443,6.443,0,0,1-1.673-4.8,6.365,6.365,0,0,1,1.673-4.761,6.187,6.187,0,0,1,4.447-1.532,6.111,6.111,0,0,1,4.407,1.533,6.383,6.383,0,0,1,1.667,4.76A6.463,6.463,0,0,1,887.321,516.3Z"
            data-name="Path 13252" fill="#FFE54D" id="Path_13252"
            transform="translate(-106.822 -6.344)" />
        <path
            d="M982.755,506.573a6.377,6.377,0,0,1,3.537.953,4.268,4.268,0,0,1,1.816,2.462.422.422,0,0,0,.4.321h6.21a.427.427,0,0,0,.422-.427l0-.05a9.618,9.618,0,0,0-4.149-6.974,14.4,14.4,0,0,0-8.237-2.382,13.225,13.225,0,0,0-9.126,3.147,13.173,13.173,0,0,0,0,18,13.2,13.2,0,0,0,9.126,3.153,14.4,14.4,0,0,0,8.237-2.381,9.62,9.62,0,0,0,4.149-6.974l0-.05a.428.428,0,0,0-.422-.427h-6.21a.422.422,0,0,0-.4.321,4.263,4.263,0,0,1-1.816,2.461,6.375,6.375,0,0,1-3.537.953,5.528,5.528,0,0,1-4.246-1.609,6.419,6.419,0,0,1-1.453-4.47,6.338,6.338,0,0,1,1.454-4.429A5.545,5.545,0,0,1,982.755,506.573Z"
            data-name="Path 13253" fill="#FFE54D" id="Path_13253"
            transform="translate(-179.111 -7.553)" />
        <path
            d="M1094.848,518.645h-2.364a.962.962,0,0,1-.962-.962v-5.912c0-3.839-1.4-6.491-3.592-8.211a15.277,15.277,0,0,0-16.349-.249,8.3,8.3,0,0,0-3.554,6.262l0,.042a.535.535,0,0,0,.533.531h5.6a.5.5,0,0,0,.489-.439,3.136,3.136,0,0,1,1.52-2.216,6.39,6.39,0,0,1,3.332-.767,7.3,7.3,0,0,1,3.31.631,2.837,2.837,0,0,1,1.537,1.827.869.869,0,0,1,.03.229.963.963,0,0,1-.836.938l-6.73.931c-3.5.488-5.828,1.329-7.264,2.519a5.685,5.685,0,0,0-2.019,4.721,6.51,6.51,0,0,0,1.5,4.242c1.191,1.375,3.271,2.478,6.91,2.481,3.567,0,5.786-1.043,7.254-2.522a11.391,11.391,0,0,0,2.675-5.267.966.966,0,0,1,.932-.722.881.881,0,0,1,.644.274.911.911,0,0,1,.25.627.924.924,0,0,1-.092.4,16.411,16.411,0,0,0-.946,3.462,4.993,4.993,0,0,0-.027.506,2.5,2.5,0,0,0,.907,2.115,3.933,3.933,0,0,0,2.422.658h4.891a.531.531,0,0,0,.529-.529v-5.073A.53.53,0,0,0,1094.848,518.645Zm-10.536-3.159a4.99,4.99,0,0,1-2.647,3.159,11.2,11.2,0,0,1-5.223,1.1,5.023,5.023,0,0,1-1.636-.247,2.285,2.285,0,0,1-1.232-.917,2.026,2.026,0,0,1-.288-1.085,1.842,1.842,0,0,1,1.079-1.783,9.96,9.96,0,0,1,2.956-.73h0l5.815-.811a1.079,1.079,0,0,1,.149-.01,1.057,1.057,0,0,1,1.026,1.32Z"
            data-name="Path 13254" fill="#FFE54D" id="Path_13254"
            transform="translate(-249.375 -7.976)" />
        <path
            d="M1174.709,491.687a4.161,4.161,0,0,0-3.491-1.687,3.61,3.61,0,0,0-2.842,1.156,4.021,4.021,0,0,0-1.03,2.768,3.4,3.4,0,0,0,1,2.6,3.087,3.087,0,0,0,2.152.944,4.481,4.481,0,0,0,.906-.127,3.673,3.673,0,0,1,.742-.148q.824,0,.824,1.061a3.78,3.78,0,0,1-1.669,3.065,5.875,5.875,0,0,1-3.073,1.258.58.58,0,0,0-.531.576v1.377a.582.582,0,0,0,.635.579A8.3,8.3,0,0,0,1176,496.3,7.432,7.432,0,0,0,1174.709,491.687Z"
            data-name="Path 13255" fill="#FFE54D" id="Path_13255" transform="translate(-321.343)" />
    </g>
</svg>
