<svg xmlns="http://www.w3.org/2000/svg" width="17" height="17" viewBox="0 0 17 17" fill="none">
  <path d="M8.61442 15.3681C4.67375 15.3681 1.4707 12.1651 1.4707 8.2244C1.4707 4.28373 4.67375 1.08069 8.61442 1.08069C12.5551 1.08069 15.7581 4.28373 15.7581 8.2244C15.7581 12.1651 12.5551 15.3681 8.61442 15.3681ZM8.61442 2.07749C5.22531 2.07749 2.4675 4.83529 2.4675 8.2244C2.4675 11.6135 5.22531 14.3713 8.61442 14.3713C12.0035 14.3713 14.7613 11.6135 14.7613 8.2244C14.7613 4.83529 12.0035 2.07749 8.61442 2.07749Z" fill="white"/>
  <path d="M6.62144 14.7036H5.95691C5.68445 14.7036 5.45851 14.4777 5.45851 14.2052C5.45851 13.9328 5.67116 13.7135 5.94362 13.7068C4.9003 10.1449 4.9003 6.30393 5.94362 2.74204C5.67116 2.73539 5.45851 2.5161 5.45851 2.24364C5.45851 1.97118 5.68445 1.74524 5.95691 1.74524H6.62144C6.78093 1.74524 6.93377 1.82498 7.02681 1.95124C7.11984 2.08415 7.14642 2.25028 7.09326 2.40313C5.84394 6.15773 5.84394 10.2911 7.09326 14.0524C7.14642 14.2052 7.11984 14.3713 7.02681 14.5043C6.93377 14.6239 6.78093 14.7036 6.62144 14.7036Z" fill="white"/>
  <path d="M10.6084 14.7036C10.5552 14.7036 10.502 14.697 10.4489 14.677C10.1897 14.5907 10.0435 14.3049 10.1365 14.0457C11.3859 10.2911 11.3859 6.15775 10.1365 2.3965C10.0502 2.13733 10.1897 1.85158 10.4489 1.7652C10.7147 1.67881 10.9938 1.81836 11.0802 2.07753C12.4026 6.03814 12.4026 10.3975 11.0802 14.3514C11.0137 14.5707 10.8144 14.7036 10.6084 14.7036Z" fill="white"/>
  <path d="M8.61493 11.68C6.76088 11.68 4.91349 11.4208 3.13254 10.8959C3.12589 11.1617 2.9066 11.381 2.63414 11.381C2.36168 11.381 2.13574 11.155 2.13574 10.8826V10.218C2.13574 10.0585 2.21549 9.9057 2.34175 9.81266C2.47465 9.71963 2.64079 9.69305 2.79363 9.74621C6.54823 10.9955 10.6883 10.9955 14.4429 9.74621C14.5957 9.69305 14.7618 9.71963 14.8948 9.81266C15.0277 9.9057 15.1008 10.0585 15.1008 10.218V10.8826C15.1008 11.155 14.8748 11.381 14.6024 11.381C14.3299 11.381 14.1106 11.1683 14.104 10.8959C12.3164 11.4208 10.469 11.68 8.61493 11.68Z" fill="white"/>
  <path d="M14.5962 6.72924C14.543 6.72924 14.4899 6.7226 14.4367 6.70266C10.6821 5.45334 6.54209 5.45334 2.78748 6.70266C2.52167 6.78905 2.24257 6.6495 2.15618 6.39033C2.07643 6.12452 2.21598 5.84541 2.47515 5.75903C6.43576 4.43661 10.7951 4.43661 14.7491 5.75903C15.0082 5.84541 15.1544 6.13116 15.0614 6.39033C15.0016 6.59634 14.8022 6.72924 14.5962 6.72924Z" fill="white"/>
</svg>