<svg width="33" height="34" viewBox="0 0 33 34" fill="none" xmlns="http://www.w3.org/2000/svg">
<g clip-path="url(#clip0_781_699)">
<path d="M25.8784 33.1355H7.63515C5.95947 33.1355 4.5946 31.772 4.5946 30.095V15.9058C4.5946 14.2287 5.95947 12.8652 7.63515 12.8652H25.8784C27.5541 12.8652 28.9189 14.2287 28.9189 15.9058V30.095C28.9189 31.772 27.5541 33.1355 25.8784 33.1355ZM7.63515 14.8923C7.07704 14.8923 6.62163 15.3463 6.62163 15.9058V30.095C6.62163 30.6544 7.07704 31.1085 7.63515 31.1085H25.8784C26.4365 31.1085 26.8919 30.6544 26.8919 30.095V15.9058C26.8919 15.3463 26.4365 14.8923 25.8784 14.8923H7.63515Z" fill="white"/>
<path d="M23.8513 14.8923C23.2919 14.8923 22.8378 14.4383 22.8378 13.8788V8.81123C22.8378 5.45853 20.1094 2.73015 16.7567 2.73015C13.404 2.73015 10.6756 5.45853 10.6756 8.81123V13.8788C10.6756 14.4383 10.2216 14.8923 9.66213 14.8923C9.10267 14.8923 8.64862 14.4383 8.64862 13.8788V8.81123C8.64862 4.33961 12.2851 0.703125 16.7567 0.703125C21.2284 0.703125 24.8648 4.33961 24.8648 8.81123V13.8788C24.8648 14.4383 24.4108 14.8923 23.8513 14.8923Z" fill="white"/>
<path d="M16.7567 23.6759C15.2662 23.6759 14.054 22.4638 14.054 20.9732C14.054 19.4827 15.2662 18.2705 16.7567 18.2705C18.2473 18.2705 19.4594 19.4827 19.4594 20.9732C19.4594 22.4638 18.2473 23.6759 16.7567 23.6759ZM16.7567 20.2975C16.3851 20.2975 16.081 20.6002 16.081 20.9732C16.081 21.3462 16.3851 21.6489 16.7567 21.6489C17.1283 21.6489 17.4324 21.3462 17.4324 20.9732C17.4324 20.6002 17.1283 20.2975 16.7567 20.2975Z" fill="white"/>
<path d="M16.7567 27.7305C16.1973 27.7305 15.7432 27.2765 15.7432 26.717V23.0008C15.7432 22.4414 16.1973 21.9873 16.7567 21.9873C17.3162 21.9873 17.7703 22.4414 17.7703 23.0008V26.717C17.7703 27.2765 17.3162 27.7305 16.7567 27.7305Z" fill="white"/>
</g>
<defs>
<clipPath id="clip0_781_699">
<rect width="32.4324" height="32.4324" fill="white" transform="translate(0.540527 0.703125)"/>
</clipPath>
</defs>
</svg>
