<svg width="214" height="39" viewBox="0 0 214 39" fill="none" xmlns="http://www.w3.org/2000/svg">
<path d="M2.88281 29.6445C2.58333 29.6445 2.1862 29.612 1.69141 29.5469C1.19661 29.4948 0.825521 29.1302 0.578125 28.4531L0.558594 28.1016C0.558594 27.0859 1.18359 26.1094 2.43359 25.1719C4.38672 23.6354 6.89974 22.2292 9.97266 20.9531L7.47266 19.7617C6.20964 19.1237 5.07682 18.4661 4.07422 17.7891C3.00651 17.0599 2.14062 16.1354 1.47656 15.0156C1.30729 14.6771 1.13151 14.2344 0.949219 13.6875L0.832031 13.082C0.766927 12.6914 0.734375 12.3203 0.734375 11.9688C0.734375 11.6953 0.786458 11.3307 0.890625 10.875C1.33333 9.09115 2.53776 7.40495 4.50391 5.81641L4.99219 5.46484C7.77865 3.45964 10.9427 2.18359 14.4844 1.63672L14.9922 1.57812C15.5781 1.51302 16.0664 1.48047 16.457 1.48047C18.3451 1.48047 19.7904 1.96224 20.793 2.92578C20.9492 3.09505 21.0859 3.29036 21.2031 3.51172L21.3984 3.80469C21.4245 3.92188 21.457 4.03255 21.4961 4.13672C21.6133 4.54036 21.6719 4.89193 21.6719 5.19141C21.6719 6.44141 21.0664 7.89323 19.8555 9.54688C19.7773 9.625 19.7057 9.70964 19.6406 9.80078C18.8464 10.8034 17.8698 11.6823 16.7109 12.4375C16.4896 12.5286 16.2878 12.5742 16.1055 12.5742C15.8841 12.5742 15.6562 12.4831 15.4219 12.3008C15.1875 12.1185 15.0703 11.819 15.0703 11.4023C15.0703 11.0247 15.2917 10.7122 15.7344 10.4648C16.724 9.87891 17.5703 9.13021 18.2734 8.21875C19.1589 7.02083 19.6016 6.02474 19.6016 5.23047C19.6016 4.83984 19.5039 4.54688 19.3086 4.35156C18.931 3.97396 18.3581 3.72656 17.5898 3.60938C17.1471 3.54427 16.6068 3.51172 15.9688 3.51172C15.7995 3.51172 15.3568 3.54427 14.6406 3.60938C11.8672 4.01302 9.30208 4.96354 6.94531 6.46094C5.72135 7.25521 4.69271 8.17318 3.85938 9.21484C3.10417 10.1784 2.72656 11.2526 2.72656 12.4375C2.7526 12.6198 2.82422 12.9258 2.94141 13.3555C3.47526 14.6055 4.32812 15.6211 5.5 16.4023C6.67188 17.1706 8.24089 17.9974 10.207 18.8828C11.2487 19.3385 12.0039 19.7031 12.4727 19.9766L12.5703 19.957C15.4089 18.9674 18.3125 18.1862 21.2812 17.6133L21.5156 17.5938C21.8411 17.5938 22.082 17.6979 22.2383 17.9062C22.3945 18.1146 22.4727 18.3229 22.4727 18.5312C22.4727 18.6224 22.4401 18.7786 22.375 19C22.3229 19.2214 22.082 19.3841 21.6523 19.4883C19.1523 19.9049 16.6914 20.4974 14.2695 21.2656L14.7188 21.832C14.9141 22.3398 15.0182 22.6719 15.0312 22.8281C15.0312 23.8438 14.6276 24.6966 13.8203 25.3867C13.013 26.0638 12.1927 26.6172 11.3594 27.0469C11.3073 27.0859 11.2487 27.1185 11.1836 27.1445C8.82682 28.3424 6.50911 29.1302 4.23047 29.5078L3.85938 29.5664C3.54688 29.6185 3.22135 29.6445 2.88281 29.6445ZM3.60547 27.5547C3.73568 27.5417 4.02865 27.4896 4.48438 27.3984C7.15365 26.8516 9.46484 25.9336 11.418 24.6445C12.0169 24.2409 12.4401 23.8828 12.6875 23.5703C12.7266 23.5182 12.7591 23.4792 12.7852 23.4531C12.8242 23.4141 12.8568 23.388 12.8828 23.375C12.9219 23.349 12.9479 23.3164 12.9609 23.2773C12.987 23.2383 13.0065 23.1927 13.0195 23.1406C13.0195 22.8281 12.694 22.4701 12.043 22.0664L10.8711 22.5352C8.01953 23.7201 5.66927 25.0807 3.82031 26.6172C3.36458 27.0078 3.13672 27.2747 3.13672 27.418C3.13672 27.5091 3.21484 27.5547 3.37109 27.5547H3.60547ZM23.8594 25.3477C23.7161 25.3477 23.2734 25.3086 22.5312 25.2305L22.1406 25.0938C21.6328 24.9635 21.2096 24.7096 20.8711 24.332C20.4935 23.8893 20.3047 23.401 20.3047 22.8672C20.3047 22.4115 20.3698 21.9557 20.5 21.5C20.5391 21.4349 20.5716 21.3633 20.5977 21.2852C20.6497 21.1419 20.7083 21.0052 20.7734 20.875C21.7891 18.7786 23.2799 17.1641 25.2461 16.0312C25.6237 15.8229 25.9883 15.7188 26.3398 15.7188C26.7305 15.7188 27.1016 15.8424 27.4531 16.0898C27.8177 16.4544 28 16.8581 28 17.3008C28 17.5091 27.9609 17.724 27.8828 17.9453C27.6484 18.7135 27.3034 19.4297 26.8477 20.0938C26.457 20.3932 26.125 20.543 25.8516 20.543C25.8255 20.543 25.7344 20.5299 25.5781 20.5039C25.4349 20.4779 25.3177 20.3346 25.2266 20.0742C25.2005 19.9831 25.1875 19.8919 25.1875 19.8008C25.1875 19.6445 25.2331 19.4753 25.3242 19.293C25.7539 18.5638 26.0273 18.0299 26.1445 17.6914C25.5065 18.082 24.9206 18.5508 24.3867 19.0977C23.4362 20.0482 22.7461 21.0898 22.3164 22.2227C22.2643 22.418 22.2383 22.6133 22.2383 22.8086C22.2383 23.2383 22.8372 23.4596 24.0352 23.4727C25.8971 23.4727 28.0846 23.1146 30.5977 22.3984C32.1732 22.0339 33.9049 21.4154 35.793 20.543C35.9622 20.4779 36.1185 20.4453 36.2617 20.4453C36.457 20.4453 36.6263 20.5104 36.7695 20.6406C36.9909 20.8229 37.1016 21.0573 37.1016 21.3438C37.1016 21.3828 37.0951 21.4935 37.082 21.6758C37.082 21.8451 36.8932 22.0208 36.5156 22.2031C33.4427 23.5052 30.1094 24.4688 26.5156 25.0938C25.6432 25.263 24.7578 25.3477 23.8594 25.3477ZM35.6758 25.2891C35.0638 25.2891 34.6211 25.0091 34.3477 24.4492C34.3086 24.332 34.276 24.1432 34.25 23.8828C34.263 23.375 34.4779 22.7826 34.8945 22.1055L35.1875 21.5391C35.6823 20.5234 36.3789 19.6836 37.2773 19.0195C37.8763 18.668 38.5078 18.4922 39.1719 18.4922C39.9401 18.4922 40.7148 18.7982 41.4961 19.4102C41.5742 19.4753 41.8607 19.625 42.3555 19.8594C42.5768 20.1068 42.6875 20.4714 42.6875 20.9531C42.6875 21.4219 42.8177 21.7865 43.0781 22.0469C43.599 22.3854 44.2305 22.5547 44.9727 22.5547C46.6654 22.5547 48.2799 22.0469 49.8164 21.0312C50.2201 20.7318 50.6042 20.3997 50.9688 20.0352C50.9948 19.9961 51.0208 19.9635 51.0469 19.9375C51.0729 19.9115 51.138 19.8138 51.2422 19.6445C51.5026 19.3451 51.776 19.1953 52.0625 19.1953C52.4792 19.1953 52.7852 19.3971 52.9805 19.8008C53.0456 19.918 53.0781 20.0417 53.0781 20.1719C53.0781 20.3802 52.9935 20.6081 52.8242 20.8555L52.3359 21.4219C52.2057 21.526 52.0365 21.6823 51.8281 21.8906C50.4609 23.0495 48.8008 23.8438 46.8477 24.2734C46.7174 24.2865 46.5938 24.306 46.4766 24.332C45.8906 24.4232 45.3828 24.4688 44.9531 24.4688C43.4948 24.4688 42.401 24.1042 41.6719 23.375C41.6198 23.3099 41.5547 23.2513 41.4766 23.1992C41.151 22.7044 40.9557 22.3268 40.8906 22.0664C39.6927 23.1602 38.3906 24.1107 36.9844 24.918L36.8672 24.957C36.3854 25.1784 35.9883 25.2891 35.6758 25.2891ZM36.7305 22.8086C37.4076 22.3659 38.3776 21.6302 39.6406 20.6016C39.5104 20.5365 39.3737 20.4909 39.2305 20.4648C38.8659 20.4648 38.5339 20.5625 38.2344 20.7578C37.5964 21.2917 37.0951 21.9753 36.7305 22.8086ZM50.9883 26.2461C50.7669 26.2461 50.5456 26.194 50.3242 26.0898C50.0638 25.8424 49.9336 25.582 49.9336 25.3086C49.9336 24.7096 50.3307 23.1797 51.125 20.7188C51.4245 19.8203 51.6979 18.9154 51.9453 18.0039C52.1146 17.444 52.4466 17.1641 52.9414 17.1641C53.1888 17.1641 53.4167 17.2552 53.625 17.4375C53.8333 17.6068 53.9375 17.8477 53.9375 18.1602C53.9375 18.2643 53.9245 18.375 53.8984 18.4922C53.4948 19.612 53.1107 20.7383 52.7461 21.8711C52.7721 21.832 52.8047 21.7995 52.8438 21.7734C52.8828 21.7344 52.9219 21.6888 52.9609 21.6367C54.4714 20.0612 56.138 18.6745 57.9609 17.4766C58.5339 17.0599 59.0612 16.8516 59.543 16.8516C59.9596 16.8516 60.3372 17.099 60.6758 17.5938C60.8451 17.8542 60.9297 18.3294 60.9297 19.0195C60.9297 19.3841 60.9232 19.6901 60.9102 19.9375C60.8971 20.1719 60.8906 20.3997 60.8906 20.6211C60.8906 20.9336 60.9102 21.2982 60.9492 21.7148C60.9883 22.1185 61.1576 22.5091 61.457 22.8867C61.9388 23.3164 62.4727 23.5312 63.0586 23.5312C63.8268 23.5312 64.9922 23.0951 66.5547 22.2227C67.7656 21.5326 68.8529 20.7773 69.8164 19.957C70.1289 19.7227 70.3958 19.6055 70.6172 19.6055C71.0859 19.6055 71.3724 19.8659 71.4766 20.3867C71.4896 20.4388 71.4961 20.4974 71.4961 20.5625C71.4961 20.8099 71.3594 21.0508 71.0859 21.2852C69.9271 22.2227 68.6901 23.043 67.375 23.7461C67.2057 23.8242 67.043 23.9089 66.8867 24C65.207 24.8073 63.9505 25.2109 63.1172 25.2109C62.7005 25.2109 62.2253 25.1589 61.6914 25.0547C60.8841 24.7812 60.2721 24.3451 59.8555 23.7461C59.4388 23.1471 59.1849 22.5026 59.0938 21.8125C59.0286 21.2786 58.9961 20.7448 58.9961 20.2109V19.293C58.9831 19.2409 58.9766 19.1758 58.9766 19.0977C56.6198 20.543 54.4974 22.5026 52.6094 24.9766C52.6094 25.0156 52.4141 25.2826 52.0234 25.7773C51.776 26.0898 51.431 26.2461 50.9883 26.2461ZM80.0898 38.4141C79.7122 38.4141 79.3216 38.2188 78.918 37.8281C78.5664 37.2812 78.3906 36.5911 78.3906 35.7578C78.3906 35.4062 78.4167 35.0677 78.4688 34.7422C78.9635 32.1771 80.1484 29.957 82.0234 28.082C83.0521 26.9622 84.276 25.9206 85.6953 24.957C86.151 23.5247 86.5286 22.0664 86.8281 20.582C86.9062 20.1393 86.9518 19.8529 86.9648 19.7227C85.0898 21.5846 84.0352 22.6458 83.8008 22.9062C82.8763 23.9089 82.1927 24.5924 81.75 24.957C81.4896 25.1654 81.2161 25.2695 80.9297 25.2695C80.2786 25.2695 79.8099 24.9961 79.5234 24.4492C79.4453 24.2539 79.4062 23.9935 79.4062 23.668C79.4062 23.0039 79.5039 22.3594 79.6992 21.7344C80.1289 20.0807 80.7214 18.8438 81.4766 18.0234C81.724 17.8281 81.9648 17.7305 82.1992 17.7305C82.7721 17.7305 83.0977 18.0755 83.1758 18.7656C83.1758 19.0391 83.0391 19.306 82.7656 19.5664C82.0625 20.5169 81.6393 21.513 81.4961 22.5547L83.8984 20.0742C84.8229 19.0716 85.806 18.1406 86.8477 17.2812L87.0234 17.1641C87.1797 17.0469 87.4076 16.9883 87.707 16.9883C88.4232 16.9883 88.8659 17.3138 89.0352 17.9648C89.0612 18.069 89.0742 18.1992 89.0742 18.3555C89.0742 18.694 88.944 19.5143 88.6836 20.8164C88.4622 21.7539 88.2344 22.6458 88 23.4922C90.0573 22.2682 92.6745 21.0378 95.8516 19.8008C96.8672 19.4362 97.4466 19.2539 97.5898 19.2539C97.8112 19.2539 98 19.3255 98.1562 19.4688C98.3385 19.6641 98.4297 19.8919 98.4297 20.1523C98.4297 20.1914 98.4167 20.3021 98.3906 20.4844C98.3776 20.6667 98.1758 20.8359 97.7852 20.9922C96.6523 21.3828 95.6172 21.7539 94.6797 22.1055C91.8281 23.2513 89.3477 24.5208 87.2383 25.9141C86.2487 28.7917 85.1615 31.4544 83.9766 33.9023C82.7656 36.4023 81.6068 37.8802 80.5 38.3359C80.3698 38.388 80.2331 38.4141 80.0898 38.4141ZM80.3633 36.1094C80.4284 36.1094 80.5456 35.9857 80.7148 35.7383C81.9648 34.1758 83.2799 31.5651 84.6602 27.9062C82.9544 29.3906 81.7305 30.9922 80.9883 32.7109C80.5195 33.7917 80.2852 34.8398 80.2852 35.8555C80.2852 36.0247 80.3112 36.1094 80.3633 36.1094ZM98.9961 25.6992C98.6445 25.6992 98.2865 25.6016 97.9219 25.4062C96.9453 24.8203 96.457 23.8568 96.457 22.5156C96.4701 22.4375 96.4766 22.3529 96.4766 22.2617C96.5677 21.0378 96.9974 19.9245 97.7656 18.9219C98 18.7135 98.2344 18.6029 98.4688 18.5898C98.4688 18.0299 98.6315 17.5352 98.957 17.1055C99.3346 16.6107 99.8229 16.3568 100.422 16.3438C100.695 16.3438 101.014 16.4023 101.379 16.5195C102.095 16.8841 102.616 17.431 102.941 18.1602C103.228 18.8503 103.371 19.5859 103.371 20.3672C104.23 20.5234 105.103 20.6016 105.988 20.6016C107.512 20.6016 108.983 20.3867 110.402 19.957L110.695 19.9375C110.982 19.9375 111.203 20.0286 111.359 20.2109C111.516 20.3932 111.594 20.6016 111.594 20.8359C111.594 20.901 111.574 21.0378 111.535 21.2461C111.496 21.4414 111.268 21.6042 110.852 21.7344C109.263 22.1771 107.616 22.3984 105.91 22.3984C104.96 22.3984 104.042 22.3203 103.156 22.1641C102.766 23.5703 101.939 24.6315 100.676 25.3477C100.48 25.4388 100.279 25.5169 100.07 25.582C99.9531 25.6081 99.8424 25.6406 99.7383 25.6797L98.9961 25.6992ZM101.398 19.6641C101.268 18.9219 100.982 18.4466 100.539 18.2383L100.363 18.2188L100.324 18.3164H100.344C100.357 18.3164 100.363 18.3424 100.363 18.3945L100.344 18.5117C100.344 18.7201 100.48 18.9479 100.754 19.1953C100.897 19.3516 101.112 19.5078 101.398 19.6641ZM99.1523 23.8047C99.2174 23.8047 99.3737 23.7852 99.6211 23.7461C100.48 23.3164 101.053 22.6328 101.34 21.6953C100.702 21.4609 100.135 21.1419 99.6406 20.7383C99.4844 20.6211 99.3477 20.4844 99.2305 20.3281L99.1914 20.3477C98.7747 20.8815 98.5208 21.4935 98.4297 22.1836C98.4036 22.3008 98.3906 22.418 98.3906 22.5352C98.3906 22.6003 98.3841 22.6589 98.3711 22.7109C98.4102 23.4401 98.6706 23.8047 99.1523 23.8047ZM111.184 26.0508C110.923 26.0508 110.65 25.9596 110.363 25.7773L110.07 25.6211C110.031 25.543 109.979 25.4714 109.914 25.4062C109.654 25.0156 109.523 24.5859 109.523 24.1172C109.523 23.5052 109.745 22.6589 110.188 21.5781C110.37 21.0573 110.702 20.3672 111.184 19.5078C111.509 18.9349 111.919 18.4271 112.414 17.9844C112.648 17.8411 112.87 17.7695 113.078 17.7695C113.234 17.7695 113.417 17.8346 113.625 17.9648C113.846 18.0951 113.983 18.3359 114.035 18.6875C114.035 19.0911 113.866 19.4167 113.527 19.6641C112.902 20.3411 112.421 21.1159 112.082 21.9883C112.043 22.1185 111.997 22.2227 111.945 22.3008C111.724 22.8346 111.574 23.3815 111.496 23.9414C111.9 23.7461 112.505 23.3034 113.312 22.6133C114.276 21.7148 114.862 21.1549 115.07 20.9336C115.63 20.3607 116.216 19.8138 116.828 19.293C117.167 19.1237 117.421 19.026 117.59 19C117.798 19 118.039 19.0781 118.312 19.2344C118.625 19.4688 118.853 19.8398 118.996 20.3477C119.074 20.6341 119.152 20.862 119.23 21.0312C119.582 21.7083 120.155 22.0469 120.949 22.0469C121.509 22.0469 122.036 21.9948 122.531 21.8906L122.805 21.8516C124.641 21.4219 126.457 20.6667 128.254 19.5859C128.462 19.4818 128.651 19.4297 128.82 19.4297C128.977 19.4297 129.159 19.5013 129.367 19.6445C129.576 19.7878 129.686 20.0221 129.699 20.3477C129.699 20.6992 129.53 20.9857 129.191 21.207C127.277 22.3138 125.253 23.1341 123.117 23.668C122.323 23.8503 121.646 23.9414 121.086 23.9414C119.862 23.9414 118.853 23.5443 118.059 22.75C117.85 22.5156 117.59 22.0859 117.277 21.4609L116.926 21.793C115.09 23.6289 113.664 24.8724 112.648 25.5234C112.089 25.875 111.6 26.0508 111.184 26.0508ZM134.836 27.418C134.276 27.418 133.749 27.2227 133.254 26.832C133.124 26.7148 133.013 26.5846 132.922 26.4414C132.883 26.3633 132.837 26.2917 132.785 26.2266C132.577 25.7318 132.473 25.2435 132.473 24.7617C132.473 23.4466 133.202 21.5846 134.66 19.1758C134.335 19.319 134.016 19.4688 133.703 19.625C133.182 19.8724 132.648 20.1263 132.102 20.3867C131.568 20.6471 131.014 20.888 130.441 21.1094C129.868 21.3307 129.276 21.474 128.664 21.5391L128.43 21.5C128.091 21.474 127.798 21.3633 127.551 21.168C127.16 20.8034 126.965 20.3737 126.965 19.8789C126.965 19.1107 127.238 18.4076 127.785 17.7695C128.15 17.4049 128.488 17.2227 128.801 17.2227C128.918 17.2227 129.035 17.2422 129.152 17.2812C129.712 17.5417 129.992 17.9323 129.992 18.4531C129.992 18.5833 129.934 18.8568 129.816 19.2734C130.624 18.9609 131.789 18.4336 133.312 17.6914C134.719 16.9753 135.656 16.5586 136.125 16.4414L136.633 16.2852H137.023C137.115 16.3503 137.212 16.4089 137.316 16.4609C137.746 16.6432 137.961 16.9362 137.961 17.3398C137.961 17.7174 137.714 18.2122 137.219 18.8242C136.294 20.1263 135.552 21.3958 134.992 22.6328C134.602 23.5182 134.406 24.2083 134.406 24.7031C134.406 25.1198 134.51 25.3997 134.719 25.543C134.758 25.543 134.816 25.5365 134.895 25.5234C134.973 25.4974 135.051 25.4779 135.129 25.4648C135.22 25.4388 135.298 25.4193 135.363 25.4062C135.428 25.3802 135.467 25.3672 135.48 25.3672C135.819 25.25 136.216 25.0938 136.672 24.8984C136.776 24.8333 136.913 24.7617 137.082 24.6836C139.361 23.4076 141.509 21.9297 143.527 20.25C143.749 20.0938 143.964 20.0156 144.172 20.0156C144.719 20.0156 145.025 20.3216 145.09 20.9336C145.09 21.207 144.953 21.4609 144.68 21.6953C142.518 23.4141 140.259 24.9701 137.902 26.3633C136.483 27.0664 135.461 27.418 134.836 27.418ZM157.277 28.8438C157.03 28.8438 156.802 28.7591 156.594 28.5898C156.385 28.4076 156.281 28.1667 156.281 27.8672C156.281 27.4896 156.835 25.5495 157.941 22.0469C157.863 22.0599 157.792 22.0794 157.727 22.1055C157.297 22.1836 156.861 22.2422 156.418 22.2812C155.962 22.2812 155.552 22.2487 155.188 22.1836C154.888 22.1315 154.621 21.9883 154.387 21.7539C153.97 21.3372 153.762 20.888 153.762 20.4062C153.762 20.0547 153.846 19.6836 154.016 19.293C154.38 18.5378 154.888 17.8802 155.539 17.3203C156.841 16.0182 158.54 14.8659 160.637 13.8633C162.069 9.56641 163.28 5.8099 164.27 2.59375C162.043 3.3099 160.005 4.37109 158.156 5.77734C157.583 6.20703 157.089 6.71484 156.672 7.30078C156.424 7.78255 156.092 8.02344 155.676 8.02344C155.311 8.02344 155.012 7.88672 154.777 7.61328C154.621 7.43099 154.543 7.22266 154.543 6.98828C154.543 6.81901 154.582 6.63672 154.66 6.44141C155.168 5.66016 155.793 4.98958 156.535 4.42969C159.191 2.39844 162.128 1.03125 165.344 0.328125C165.461 0.276042 165.585 0.25 165.715 0.25H165.793C166.066 0.197917 166.333 0.158854 166.594 0.132812L168.332 0.015625C168.514 0.0416667 168.703 0.0611979 168.898 0.0742188C169.276 0.0872396 169.647 0.126302 170.012 0.191406C171.848 0.542969 173.15 1.4349 173.918 2.86719C174.296 3.80469 174.484 4.6901 174.484 5.52344C174.484 5.54948 174.478 5.79036 174.465 6.24609C174.452 6.6888 174.289 7.35938 173.977 8.25781C173.612 9.29948 173.13 10.2891 172.531 11.2266C172.857 11.4219 173.02 11.7018 173.02 12.0664C173.02 12.6654 172.694 12.9844 172.043 13.0234L171.262 13.043C170.467 14.0456 169.615 14.9701 168.703 15.8164C168.117 16.3372 167.486 16.8776 166.809 17.4375C164.712 19.1042 162.486 20.3997 160.129 21.3242C159.439 23.5378 158.827 25.7708 158.293 28.0234C158.124 28.5703 157.785 28.8438 157.277 28.8438ZM162.902 12.9062C164.27 12.3854 165.682 11.9753 167.141 11.6758C167.661 11.5716 168.358 11.4544 169.23 11.3242C169.764 11.2461 170.129 11.2005 170.324 11.1875C171.079 10.1328 171.672 9 172.102 7.78906C172.375 6.95573 172.512 6.14193 172.512 5.34766C172.512 4.85286 172.44 4.41667 172.297 4.03906C171.854 3.03646 171.021 2.40495 169.797 2.14453C169.484 2.07943 169.029 2.02083 168.43 1.96875C168.273 1.98177 168.111 1.98828 167.941 1.98828C167.408 1.98828 167.01 2.01432 166.75 2.06641H166.672C165.24 6.07682 163.983 9.6901 162.902 12.9062ZM156.555 20.25C157.062 20.25 157.766 20.1068 158.664 19.8203L159.777 16.4805C159.126 16.8711 158.449 17.3659 157.746 17.9648L157.336 18.3164C156.464 19.1237 156.027 19.6771 156.027 19.9766C156.027 20.1589 156.203 20.25 156.555 20.25ZM160.891 18.9609C162.583 18.1797 164.159 17.2161 165.617 16.0703L166.203 15.5625C167.062 14.8724 167.876 14.1107 168.645 13.2773L167.59 13.4727C165.754 13.8112 163.931 14.3971 162.121 15.2305C161.704 16.4674 161.294 17.7109 160.891 18.9609ZM170.598 25.2891C169.986 25.2891 169.543 25.0091 169.27 24.4492C169.23 24.332 169.198 24.1432 169.172 23.8828C169.185 23.375 169.4 22.7826 169.816 22.1055L170.109 21.5391C170.604 20.5234 171.301 19.6836 172.199 19.0195C172.798 18.668 173.43 18.4922 174.094 18.4922C174.862 18.4922 175.637 18.7982 176.418 19.4102C176.496 19.4753 176.783 19.625 177.277 19.8594C177.499 20.1068 177.609 20.4714 177.609 20.9531C177.609 21.4219 177.74 21.7865 178 22.0469C178.521 22.3854 179.152 22.5547 179.895 22.5547C181.587 22.5547 183.202 22.0469 184.738 21.0312C185.142 20.7318 185.526 20.3997 185.891 20.0352C185.917 19.9961 185.943 19.9635 185.969 19.9375C185.995 19.9115 186.06 19.8138 186.164 19.6445C186.424 19.3451 186.698 19.1953 186.984 19.1953C187.401 19.1953 187.707 19.3971 187.902 19.8008C187.967 19.918 188 20.0417 188 20.1719C188 20.3802 187.915 20.6081 187.746 20.8555L187.258 21.4219C187.128 21.526 186.958 21.6823 186.75 21.8906C185.383 23.0495 183.723 23.8438 181.77 24.2734C181.639 24.2865 181.516 24.306 181.398 24.332C180.812 24.4232 180.305 24.4688 179.875 24.4688C178.417 24.4688 177.323 24.1042 176.594 23.375C176.542 23.3099 176.477 23.2513 176.398 23.1992C176.073 22.7044 175.878 22.3268 175.812 22.0664C174.615 23.1602 173.312 24.1107 171.906 24.918L171.789 24.957C171.307 25.1784 170.91 25.2891 170.598 25.2891ZM171.652 22.8086C172.329 22.3659 173.299 21.6302 174.562 20.6016C174.432 20.5365 174.296 20.4909 174.152 20.4648C173.788 20.4648 173.456 20.5625 173.156 20.7578C172.518 21.2917 172.017 21.9753 171.652 22.8086ZM197.141 29.2344C195.786 29.2344 195.109 28.7982 195.109 27.9258C195.109 27.3789 195.259 26.9427 195.559 26.6172C195.936 26.2396 196.867 25.8164 198.352 25.3477C198.026 24.4883 197.837 23.6224 197.785 22.75C194.947 23.3099 191.665 24.0326 187.941 24.918C187.967 25.1263 187.98 25.3346 187.98 25.543C187.98 26.194 187.837 26.8125 187.551 27.3984C187.316 27.8802 186.971 28.2383 186.516 28.4727L185.852 28.8047C185.331 29.0521 184.686 29.1758 183.918 29.1758C183.124 29.1758 182.336 29.026 181.555 28.7266C181.398 28.6615 181.249 28.5833 181.105 28.4922C181.04 28.4531 180.969 28.4206 180.891 28.3945C180.826 28.3164 180.76 28.2513 180.695 28.1992C180.292 27.8737 180.09 27.5091 180.09 27.1055C180.09 25.9727 181.086 25.1003 183.078 24.4883C184.068 24.1888 185.064 23.9154 186.066 23.668C185.871 22.3659 185.773 21.3372 185.773 20.582C185.773 19.2409 186.099 18.1341 186.75 17.2617C187.401 16.3763 188.293 15.9336 189.426 15.9336C190.493 15.9336 191.503 16.207 192.453 16.7539C192.909 17.0273 193.306 17.4375 193.645 17.9844C193.775 18.1797 193.84 18.3685 193.84 18.5508C193.84 18.7201 193.762 18.9154 193.605 19.1367C193.462 19.3581 193.215 19.4688 192.863 19.4688C192.551 19.4688 192.277 19.293 192.043 18.9414C191.743 18.4727 191.19 18.1276 190.383 17.9062C190.07 17.8281 189.719 17.7891 189.328 17.7891C188.651 17.7891 188.156 18.1341 187.844 18.8242C187.622 19.293 187.512 19.8984 187.512 20.6406C187.512 21.3698 187.596 22.2422 187.766 23.2578C189.289 22.8932 190.819 22.5482 192.355 22.2227C193.345 22.0273 195.259 21.5977 198.098 20.9336C198.15 20.7773 198.215 20.6276 198.293 20.4844C198.84 19.4818 199.621 18.7396 200.637 18.2578C201.053 18.0495 201.529 17.9453 202.062 17.9453C203.078 17.9453 203.788 18.1016 204.191 18.4141L204.621 18.7461C204.738 19.1237 204.797 19.3841 204.797 19.5273C204.771 20.543 203.033 21.474 199.582 22.3203C199.582 23.2839 199.745 24.1432 200.07 24.8984C201.268 24.612 202.349 24.3776 203.312 24.1953C205.578 23.7656 207.792 23.1471 209.953 22.3398C210.513 22.1315 210.995 21.9167 211.398 21.6953C211.815 21.4609 212.115 21.3438 212.297 21.3438C212.479 21.3438 212.661 21.4219 212.844 21.5781C213.026 21.7344 213.117 21.9753 213.117 22.3008C213.117 22.6263 212.928 22.8867 212.551 23.082C211.535 23.5768 210.845 23.8893 210.48 24.0195C208.371 24.7487 206.229 25.3346 204.055 25.7773C203.312 25.9206 202.167 26.1745 200.617 26.5391C200.656 26.6953 200.676 26.8451 200.676 26.9883C200.676 27.418 200.533 27.8281 200.246 28.2188C199.999 28.5443 199.628 28.7786 199.133 28.9219C198.352 29.1302 197.688 29.2344 197.141 29.2344ZM198.527 27.3203C198.762 27.3203 198.879 27.2227 198.879 27.0273L198.273 27.2422C198.365 27.2943 198.449 27.3203 198.527 27.3203ZM183.918 27.3203C184.361 27.3203 184.81 27.2487 185.266 27.1055C185.917 26.8971 186.242 26.3763 186.242 25.543V25.3867C183.885 26.0508 182.538 26.5521 182.199 26.8906C182.173 26.9167 182.141 26.9362 182.102 26.9492C182.701 27.1966 183.306 27.3203 183.918 27.3203Z" fill="white"/>
</svg>
