<svg width="35" height="35" viewBox="0 0 35 35" fill="none" xmlns="http://www.w3.org/2000/svg">
<path d="M29.4046 22.2728C28.8095 22.2728 28.2142 22.7202 28.2142 23.466V26.4489C28.2142 27.4929 27.3212 28.2387 26.4284 28.2387H23.4523C22.857 28.2387 22.2618 28.6861 22.2618 29.4319C22.2618 30.1776 22.7082 30.6251 23.4523 30.6251H26.4284C28.6606 30.6251 30.595 28.8353 30.595 26.4489V23.466C30.595 22.8694 29.9999 22.2728 29.4046 22.2728Z" fill="#9A28CD"/>
<path d="M23.4523 6.76143H26.4284C27.4701 6.76143 28.2142 7.65631 28.2142 8.5512V11.5341C28.2142 12.1307 28.6607 12.7273 29.4048 12.7273C30.1488 12.7273 30.5952 12.2799 30.5952 11.5341V8.5512C30.5952 6.31399 28.8095 4.37506 26.4284 4.37506H23.4523C22.8571 4.37506 22.2618 4.82251 22.2618 5.56824C22.2618 6.31399 22.8571 6.76143 23.4523 6.76143Z" fill="#9A28CD"/>
<path d="M11.5475 28.2387H8.57132C7.52965 28.2387 6.78561 27.3439 6.78561 26.4489V23.466C6.78561 22.8694 6.33919 22.2728 5.59513 22.2728C4.85109 22.2728 4.40466 22.8694 4.40466 23.466V26.4489C4.40466 28.6861 6.19038 30.6251 8.57132 30.6251H11.5475C12.1428 30.6251 12.738 30.1776 12.738 29.4319C12.738 28.6861 12.1428 28.2387 11.5475 28.2387Z" fill="#9A28CD"/>
<path d="M5.59525 12.7273C6.1905 12.7273 6.78573 12.2799 6.78573 11.5341V8.5512C6.78573 7.50717 7.6786 6.76143 8.57145 6.76143H11.5476C12.1429 6.76143 12.7381 6.31399 12.7381 5.56824C12.7381 4.82251 12.1429 4.37506 11.5476 4.37506H8.57145C6.33931 4.37506 4.40479 6.31399 4.40479 8.5512V11.5341C4.40479 12.1307 5.00002 12.7273 5.59525 12.7273Z" fill="#9A28CD"/>
<path d="M23.4523 26.4489C25.0893 26.4489 26.4286 25.1066 26.4286 23.466V20.7814H8.57141V23.466C8.57141 25.1066 9.9107 26.4489 11.5476 26.4489H23.4523Z" fill="#9A28CD"/>
<path d="M30.8929 16.3069H26.4286V11.5342C26.4286 9.89359 25.0893 8.55127 23.4523 8.55127H11.5476C9.91068 8.55127 8.57139 9.89359 8.57139 11.5342V16.6053H4.10711C3.51186 16.6053 2.91663 17.0527 2.91663 17.7985C2.91663 18.5441 3.36305 18.9916 4.10711 18.9916H30.8929C31.488 18.9916 32.0833 18.5441 32.0833 17.7985C32.0833 17.0527 31.488 16.3069 30.8929 16.3069Z" fill="#9A28CD"/>
</svg>
