<svg width="95" height="329" viewBox="0 0 95 329" fill="none" xmlns="http://www.w3.org/2000/svg">
<path d="M29.0419 328.071C43.3602 328.071 54.9675 316.425 54.9675 302.059C54.9675 287.693 43.3602 276.047 29.0419 276.047C14.7235 276.047 3.11621 287.693 3.11621 302.059C3.11621 316.425 14.7235 328.071 29.0419 328.071Z" fill="#FF73C6" fill-opacity="0.2"/>
<path d="M43.2118 264.777C28.2547 264.251 -0.872144 265.04 0.0200343 246.348C3.97361 167.821 7.80442 89.8554 11.5131 12.4517C11.5933 10.7221 12.0156 9.02562 12.7553 7.46128C13.495 5.89693 14.5376 4.49592 15.822 3.33953C17.1064 2.18313 18.6071 1.29443 20.237 0.725387C21.8668 0.156348 23.5932 -0.0818277 25.3156 0.0247703C43.754 1.18319 62.5772 3.07888 81.7853 5.71166C93.1737 7.23867 95.9028 13.0308 94.3809 23.8779C83.6397 98.9647 72.6536 173.981 61.4226 248.928C59.5858 260.933 56.1222 265.251 43.2118 264.777Z" fill="#FF73C6" fill-opacity="0.2"/>
</svg>
