<svg width="28" height="21" viewBox="0 0 28 21" fill="none" xmlns="http://www.w3.org/2000/svg">
<g id="Users">
<g id="Group 222">
<circle id="Ellipse 33" cx="4.31853" cy="4.31853" r="4.31853" transform="matrix(-1 0 0 1 18.2744 1)" stroke="white" stroke-width="1.90285"/>
<path id="Rectangle 2" d="M6.39844 16.0449C6.39844 15.116 6.98236 14.2874 7.85712 13.975V13.975C11.801 12.5665 16.1108 12.5665 20.0546 13.975V13.975C20.9294 14.2874 21.5133 15.116 21.5133 16.0449V17.4651C21.5133 18.7471 20.3778 19.7319 19.1087 19.5506L18.6856 19.4902C15.5484 19.042 12.3634 19.042 9.22614 19.4902L8.80301 19.5506C7.53389 19.7319 6.39844 18.7471 6.39844 17.4651V16.0449Z" stroke="white" stroke-width="1.90285"/>
</g>
<g id="Group 223">
<path id="Ellipse 33_2" d="M20.434 9.75599C22.308 9.75599 23.8271 8.23684 23.8271 6.36286C23.8271 4.48888 22.308 2.96973 20.434 2.96973" stroke="white" stroke-width="1.90285" stroke-linecap="round"/>
<path id="Rectangle 2_2" d="M24.1499 17.4972L24.4824 17.5447C25.4796 17.6871 26.3717 16.9134 26.3717 15.9061V14.7902C26.3717 14.0603 25.9129 13.4093 25.2256 13.1638C24.54 12.919 23.8403 12.7283 23.1328 12.5918" stroke="white" stroke-width="1.90285" stroke-linecap="round"/>
</g>
<g id="Group 224">
<path id="Ellipse 33_3" d="M6.93708 9.75599C5.0631 9.75599 3.54395 8.23684 3.54395 6.36286C3.54395 4.48888 5.0631 2.96973 6.93708 2.96973" stroke="white" stroke-width="1.90285" stroke-linecap="round"/>
<path id="Rectangle 2_3" d="M3.22115 17.4972L2.88869 17.5447C1.89153 17.6871 0.999382 16.9134 0.999382 15.9061V14.7902C0.999382 14.0603 1.45818 13.4093 2.14549 13.1638C2.83109 12.919 3.53076 12.7283 4.23828 12.5918" stroke="white" stroke-width="1.90285" stroke-linecap="round"/>
</g>
</g>
</svg>
