<svg width="28" height="18" viewBox="0 0 28 18" fill="none" xmlns="http://www.w3.org/2000/svg">
<g clip-path="url(#clip0_1_54)">
<path d="M14.25 17.0459C11.2457 17.0498 8.3126 16.215 5.84722 14.6542C3.4359 13.137 1.57476 11.0027 0.5 8.52225C1.58551 6.01109 3.47783 3.85537 5.9304 2.33596C8.38298 0.816551 11.2821 0.00390625 14.25 0.00390625C17.2179 0.00390625 20.117 0.816551 22.5696 2.33596C25.0222 3.85537 26.9145 6.01109 28 8.52225C26.9258 11.0034 25.0646 13.1382 22.6528 14.6556C20.1872 16.2159 17.2541 17.0502 14.25 17.0459ZM14.25 2.84169C13.0138 2.84169 11.8054 3.17494 10.7776 3.79928C9.74978 4.42362 8.94868 5.31101 8.47563 6.34925C8.00257 7.38749 7.87879 8.52994 8.11996 9.63213C8.36112 10.7343 8.95639 11.7467 9.83048 12.5414C10.7046 13.336 11.8182 13.8772 13.0307 14.0964C14.2431 14.3156 15.4998 14.2031 16.6418 13.7731C17.7839 13.343 18.76 12.6147 19.4468 11.6804C20.1336 10.746 20.5001 9.64742 20.5001 8.52364C20.4965 7.01771 19.8368 5.5744 18.6655 4.50955C17.4942 3.44469 15.9065 2.845 14.25 2.84169ZM14.25 11.932C13.5082 11.932 12.783 11.732 12.1662 11.3573C11.5494 10.9827 11.0687 10.4501 10.7848 9.8271C10.5009 9.20405 10.4267 8.51847 10.5714 7.85705C10.7161 7.19563 11.0733 6.58807 11.5979 6.11121C12.1224 5.63435 12.7907 5.30961 13.5183 5.17804C14.2458 5.04648 15 5.114 15.6853 5.37208C16.3707 5.63015 16.9565 6.06718 17.3686 6.62791C17.7807 7.18864 18.0007 7.84787 18.0007 8.52225C17.9999 9.42634 17.6045 10.2932 16.9012 10.9325C16.198 11.5718 15.2445 11.9312 14.25 11.932Z" fill="white"/>
</g>
<defs>
<clipPath id="clip0_1_54">
<rect width="27.5" height="17.0458" fill="white" transform="translate(0.5)"/>
</clipPath>
</defs>
</svg>
