<svg xmlns="http://www.w3.org/2000/svg" width="28" height="28" viewBox="0 0 28 28" fill="none">
  <path d="M23.1469 0.553711H4.35011C1.99076 0.553711 0.078125 2.46635 0.078125 4.8257V23.6225C0.078125 25.9818 1.99076 27.8944 4.35011 27.8944H23.1469C25.5062 27.8944 27.4189 25.9818 27.4189 23.6225V4.8257C27.4189 2.46635 25.5062 0.553711 23.1469 0.553711Z" fill="#25D366"/>
  <path fill-rule="evenodd" clip-rule="evenodd" d="M18.5329 9.35403C17.2513 8.07243 15.5425 7.38892 13.7483 7.38892C9.98892 7.38892 6.91309 10.4647 6.91309 14.2241C6.91309 15.4203 7.25485 16.6164 7.85293 17.6417L6.91309 21.0593L10.5016 20.1194C11.5268 20.6321 12.6376 20.9738 13.7483 20.9738C17.5076 20.9738 20.5835 17.898 20.5835 14.1387C20.5835 12.3444 19.8145 10.6356 18.5329 9.35403ZM13.7483 19.8631C12.723 19.8631 11.6977 19.6068 10.8433 19.0942L10.6724 19.0087L8.53644 19.6068L9.13453 17.5563L8.96364 17.2999C8.36556 16.3601 8.10924 15.3348 8.10924 14.3095C8.10924 11.2337 10.6724 8.67051 13.7483 8.67051C15.2862 8.67051 16.6532 9.26859 17.764 10.2939C18.8747 11.4046 19.3873 12.7716 19.3873 14.3095C19.3873 17.2999 16.9095 19.8631 13.7483 19.8631ZM16.8241 15.5911C16.6532 15.5057 15.7988 15.0785 15.628 15.0785C15.4571 14.9931 15.3716 14.9931 15.2862 15.1639C15.2007 15.3348 14.859 15.6766 14.7736 15.8475C14.6881 15.9329 14.6027 15.9329 14.4318 15.9329C14.2609 15.8475 13.7483 15.6766 13.0648 15.0785C12.5521 14.6513 12.2104 14.0532 12.1249 13.8823C12.0395 13.7115 12.1249 13.626 12.2104 13.5406C12.2958 13.4551 12.3812 13.3697 12.4667 13.2843C12.5521 13.1988 12.5521 13.1134 12.6376 13.0279C12.723 12.9425 12.6376 12.8571 12.6376 12.7716C12.6376 12.6862 12.2958 11.8318 12.1249 11.49C12.0395 11.2337 11.8686 11.2337 11.7832 11.2337C11.6977 11.2337 11.6123 11.2337 11.4414 11.2337C11.3559 11.2337 11.1851 11.2337 11.0142 11.4046C10.8433 11.5755 10.4161 12.0027 10.4161 12.8571C10.4161 13.7115 11.0142 14.4804 11.0996 14.6513C11.1851 14.7367 12.2958 16.531 14.0046 17.2145C15.4571 17.8126 15.7134 17.6417 16.0552 17.6417C16.3969 17.6417 17.0804 17.2145 17.1659 16.8727C17.3367 16.4455 17.3367 16.1038 17.2513 16.1038C17.1659 15.6766 16.995 15.6766 16.8241 15.5911Z" fill="white"/>
</svg>