<svg width="289" height="46" viewBox="0 0 289 46" fill="none" xmlns="http://www.w3.org/2000/svg">
<path d="M2.88989 45.6582C1.93286 45.6582 1.22648 45.1911 0.770752 44.2568C0.406169 43.5277 0.223877 42.582 0.223877 41.4199C0.223877 39.9844 0.713786 37.5007 1.6936 33.9688C2.19491 32.123 2.81014 30.1862 3.53931 28.1582C5.84074 22.1198 8.31307 16.6738 10.9563 11.8203C13.3261 7.33138 15.5136 3.86784 17.5188 1.42969C18.0201 0.996745 18.51 0.780273 18.9885 0.780273C19.9228 0.780273 20.538 1.2474 20.8342 2.18164C20.9026 2.36393 20.9368 2.54622 20.9368 2.72852C20.9368 3.20703 20.7089 3.68555 20.2532 4.16406C18.9771 5.50846 17.8492 6.9554 16.8694 8.50488C15.6161 10.4417 14.4996 12.3216 13.5198 14.1445C10.831 19.0436 8.52954 24.1022 6.61548 29.3203C6.04582 30.847 5.47616 32.6927 4.90649 34.8574C4.10897 37.7741 3.71021 39.7109 3.71021 40.668C3.71021 41.0326 3.78996 41.2148 3.94946 41.2148C4.17733 41.2148 4.5647 40.8617 5.11157 40.1553C5.5673 39.5856 6.85474 37.7399 8.97388 34.6182C9.49797 33.8662 9.93091 33.2282 10.2727 32.7041C11.1386 31.4281 11.5829 30.79 11.6057 30.79C11.4234 30.9951 11.1956 31.3141 10.9221 31.7471C13.7704 27.5544 16.539 23.7604 19.2278 20.3652C21.9166 16.9473 24.4915 14.2129 26.9524 12.1621L27.5676 11.6494C28.5702 10.9886 29.4817 10.6582 30.302 10.6582C30.8717 10.6582 31.4071 10.8177 31.9084 11.1367C32.9111 11.7975 33.4124 12.8571 33.4124 14.3154C33.4124 15.1813 33.2642 16.8333 32.968 19.2715L32.6262 21.7666C32.1705 25.2074 31.9426 27.9189 31.9426 29.9014C31.9426 30.8812 31.9882 31.861 32.0793 32.8408C32.2161 34.6637 32.7629 36.3727 33.72 37.9678C34.6542 39.1299 35.691 39.7109 36.8303 39.7109C38.1292 39.7109 39.4622 39.3577 40.8293 38.6514C42.8346 37.6032 44.6233 36.2474 46.1956 34.584C46.8792 33.8548 47.7564 32.818 48.8274 31.4736C49.5566 30.5166 50.3883 29.3089 51.3225 27.8506C55.0823 21.6071 57.5774 14.9876 58.8079 7.99219L59.1497 5.29199C59.1952 4.92741 59.218 4.48307 59.218 3.95898L59.2522 2.48926C59.3889 1.32715 59.9814 0.746094 61.0295 0.746094C62.1917 0.746094 62.7727 1.38411 62.7727 2.66016L62.6702 4.30078C62.6246 5.16667 62.5334 5.93001 62.3967 6.59082C61.1207 14.6117 58.318 22.2907 53.9885 29.6279C53.4189 30.5166 52.8264 31.3939 52.2112 32.2598C51.915 32.6699 51.6187 33.1029 51.3225 33.5586L50.3655 34.7207C47.9501 37.8652 45.1474 40.2464 41.9573 41.8643C40.2711 42.7301 38.6418 43.1631 37.0696 43.1631C36.4771 43.1631 35.8733 43.0947 35.2581 42.958C33.1845 42.2744 31.6122 41.0667 30.5413 39.335C29.4703 37.3298 28.8778 35.1992 28.7639 32.9434C28.6956 31.8724 28.6614 30.8128 28.6614 29.7646C28.6614 27.5088 28.8095 25.2643 29.1057 23.0312C29.1969 21.8919 29.2994 20.7982 29.4133 19.75C29.6184 17.5625 29.7209 16.0814 29.7209 15.3066L29.7551 14.8623C29.7551 14.6344 29.7096 14.5205 29.6184 14.5205C29.4817 14.5205 28.9918 14.9079 28.1487 15.6826C25.8245 17.7334 23.7053 19.9665 21.7913 22.3818C18.7834 26.1644 16.2428 29.6621 14.1692 32.875L11.7766 36.4639L11.1956 37.3867C9.32707 40.235 8.23332 41.8187 7.91431 42.1377C6.82056 43.7555 5.64705 44.8151 4.3938 45.3164C3.86971 45.5443 3.36841 45.6582 2.88989 45.6582ZM66.9084 38.8223C66.1337 38.8223 65.3476 38.6969 64.55 38.4463C63.0006 37.8311 62.1347 36.7031 61.9524 35.0625C61.9524 34.4928 61.9752 34.0713 62.0208 33.7979L62.3284 32.5674C63.7411 28.9671 65.7236 26.21 68.2756 24.2959C69.1643 23.6351 70.2011 23.2705 71.386 23.2021C71.6822 23.2021 71.967 23.2363 72.2405 23.3047C73.676 23.6693 74.4849 24.6149 74.6672 26.1416C74.6672 26.415 74.6331 26.7113 74.5647 27.0303C74.109 29.0811 72.9583 30.7217 71.1125 31.9521C70.0188 32.7952 68.5035 33.4788 66.5667 34.0029L66.1565 34.0371C65.9058 34.0371 65.678 33.9915 65.4729 33.9004C65.3818 34.2194 65.3362 34.4473 65.3362 34.584C65.4045 35.2448 65.9514 35.5752 66.9768 35.5752C67.5009 35.5752 67.9224 35.5524 68.2415 35.5068C70.8619 35.3018 73.4254 34.8688 75.9319 34.208C80.7854 32.9548 84.2717 31.8496 86.3909 30.8926C87.3707 30.4824 88.0087 30.2773 88.3049 30.2773C88.6923 30.2773 89.0227 30.4027 89.2961 30.6533C89.6607 30.9951 89.843 31.4281 89.843 31.9521C89.843 31.9977 89.8316 32.18 89.8088 32.499C89.7861 32.818 89.4215 33.1257 88.7151 33.4219L85.7415 34.5156C81.8905 35.7461 78.7688 36.6803 76.3762 37.3184C73.7102 38.0247 71.0214 38.5146 68.3098 38.7881C67.8313 38.7881 67.3642 38.7995 66.9084 38.8223ZM67.4553 30.0723C68.1617 29.776 68.8339 29.4001 69.4719 28.9443C70.6568 27.9645 71.2493 27.3379 71.2493 27.0645C71.2493 26.9733 71.1923 26.9277 71.0784 26.9277C70.9417 26.9277 70.6454 27.0531 70.1897 27.3037C69.3694 27.7367 68.4579 28.6595 67.4553 30.0723ZM89.0911 43.334C88.9316 43.334 88.7037 43.3226 88.4075 43.2998C88.1112 43.2542 87.6669 43.015 87.0745 42.582C86.2086 41.8301 85.7756 40.7705 85.7756 39.4033C85.7756 38.4463 85.844 37.5348 85.9807 36.6689C85.9807 36.6234 85.9921 36.5892 86.0149 36.5664C86.0833 36.1562 86.163 35.7575 86.2542 35.3701C85.8668 35.0055 85.6731 34.584 85.6731 34.1055C85.6731 33.6953 85.844 33.2965 86.1858 32.9092C86.5048 32.5218 86.8352 32.1458 87.177 31.7812C88.6125 27.3379 90.6519 22.5755 93.2952 17.4941C96.2346 11.8887 99.0601 8.59603 101.772 7.61621L102.66 7.54785C102.797 7.54785 102.934 7.58203 103.071 7.65039C103.914 8.15169 104.347 8.70996 104.369 9.3252C104.369 9.96322 104.233 10.6696 103.959 11.4443C103.071 14.0876 101.965 16.6169 100.644 19.0322C98.5702 22.9287 96.1093 26.5745 93.261 29.9697L89.9114 33.9004C89.7291 34.584 89.5354 35.4499 89.3303 36.498L89.1594 37.8311C89.0911 38.264 89.0569 38.7083 89.0569 39.1641C89.0569 39.6198 89.1708 40.0072 89.3987 40.3262C90.2646 40.0299 90.9368 39.7793 91.4153 39.5742C91.5976 39.4831 91.814 39.3919 92.0647 39.3008C95.5966 37.8652 99.983 35.484 105.224 32.1572C105.976 31.6104 106.773 31.0635 107.616 30.5166C107.958 30.3115 108.289 30.209 108.608 30.209C108.836 30.209 109.12 30.3001 109.462 30.4824C109.895 30.7331 110.112 31.1774 110.112 31.8154C110.112 32.2939 109.85 32.7155 109.325 33.0801L106.83 34.7549C99.3336 39.3577 94.2864 42.0693 91.6887 42.8896C91.4381 42.958 91.1988 43.0378 90.9709 43.1289C90.6519 43.1517 90.3671 43.1859 90.1165 43.2314C89.7519 43.2998 89.4101 43.334 89.0911 43.334ZM93.261 24.8086C95.9954 21.0033 98.0917 17.3118 99.55 13.7344C98.4335 15.0788 97.26 16.9017 96.0295 19.2031C94.8219 21.4818 93.899 23.3503 93.261 24.8086ZM113.085 39.6084C112.835 39.6084 112.06 39.54 110.761 39.4033L110.077 39.1641C109.189 38.9362 108.448 38.4919 107.856 37.8311C107.195 37.0563 106.865 36.2018 106.865 35.2676C106.865 34.4701 106.978 33.6725 107.206 32.875C107.275 32.7611 107.332 32.6357 107.377 32.499C107.468 32.2484 107.571 32.0091 107.685 31.7812C109.462 28.1126 112.071 25.2871 115.512 23.3047C116.173 22.9401 116.811 22.7578 117.426 22.7578C118.11 22.7578 118.759 22.9743 119.374 23.4072C120.012 24.0452 120.331 24.7516 120.331 25.5264C120.331 25.891 120.263 26.2669 120.126 26.6543C119.716 27.9987 119.112 29.252 118.315 30.4141C117.631 30.9382 117.05 31.2002 116.572 31.2002C116.526 31.2002 116.366 31.1774 116.093 31.1318C115.842 31.0863 115.637 30.8356 115.478 30.3799C115.432 30.2204 115.409 30.0609 115.409 29.9014C115.409 29.6279 115.489 29.3317 115.649 29.0127C116.401 27.7367 116.879 26.8024 117.084 26.21C115.968 26.8936 114.942 27.7139 114.008 28.6709C112.345 30.3343 111.137 32.1572 110.385 34.1396C110.294 34.4814 110.248 34.8232 110.248 35.165C110.248 35.917 111.296 36.3044 113.393 36.3271C116.651 36.3271 120.479 35.7005 124.877 34.4473C127.634 33.8092 130.665 32.7269 133.969 31.2002C134.265 31.0863 134.539 31.0293 134.789 31.0293C135.131 31.0293 135.427 31.1432 135.678 31.3711C136.065 31.6901 136.259 32.1003 136.259 32.6016C136.259 32.6699 136.248 32.8636 136.225 33.1826C136.225 33.4788 135.894 33.7865 135.234 34.1055C129.856 36.3841 124.023 38.0703 117.734 39.1641C116.207 39.4603 114.657 39.6084 113.085 39.6084ZM137.592 40.2236C136.977 40.2236 136.35 40.0527 135.712 39.7109C134.003 38.6855 133.149 36.9993 133.149 34.6523C133.171 34.5156 133.183 34.3675 133.183 34.208C133.342 32.0661 134.094 30.1178 135.439 28.3633C135.849 27.9987 136.259 27.805 136.669 27.7822C136.669 26.8024 136.954 25.9365 137.524 25.1846C138.184 24.3187 139.039 23.8743 140.087 23.8516C140.566 23.8516 141.124 23.9541 141.762 24.1592C143.015 24.7972 143.927 25.7542 144.496 27.0303C144.998 28.238 145.248 29.5254 145.248 30.8926C146.752 31.166 148.279 31.3027 149.828 31.3027C152.494 31.3027 155.069 30.9268 157.553 30.1748L158.066 30.1406C158.567 30.1406 158.954 30.3001 159.228 30.6191C159.501 30.9382 159.638 31.3027 159.638 31.7129C159.638 31.8268 159.604 32.0661 159.535 32.4307C159.467 32.7725 159.068 33.0573 158.339 33.2852C155.559 34.0599 152.677 34.4473 149.692 34.4473C148.028 34.4473 146.422 34.3105 144.872 34.0371C144.189 36.498 142.742 38.3551 140.531 39.6084C140.19 39.7679 139.837 39.9046 139.472 40.0186C139.267 40.0641 139.073 40.1211 138.891 40.1895L137.592 40.2236ZM141.796 29.6621C141.568 28.3633 141.067 27.5316 140.292 27.167L139.985 27.1328L139.916 27.3037H139.95C139.973 27.3037 139.985 27.3493 139.985 27.4404L139.95 27.6455C139.95 28.0101 140.19 28.4089 140.668 28.8418C140.919 29.1152 141.295 29.3887 141.796 29.6621ZM137.865 36.9082C137.979 36.9082 138.253 36.874 138.686 36.8057C140.19 36.0537 141.192 34.8574 141.694 33.2168C140.577 32.8066 139.586 32.2484 138.72 31.542C138.447 31.3369 138.207 31.0977 138.002 30.8242L137.934 30.8584C137.205 31.7926 136.76 32.8636 136.601 34.0713C136.555 34.2764 136.532 34.4814 136.532 34.6865C136.532 34.8005 136.521 34.903 136.498 34.9941C136.567 36.2702 137.022 36.9082 137.865 36.9082ZM156.254 43.8125C155.479 43.8125 155.069 43.2542 155.024 42.1377C155.229 40.2464 155.639 38.3893 156.254 36.5664C156.528 35.6777 156.778 34.7777 157.006 33.8662C157.804 31.109 158.681 28.3861 159.638 25.6973C160.071 25.0365 160.584 24.7061 161.176 24.7061C161.199 24.7061 161.37 24.7174 161.689 24.7402C162.031 24.763 162.384 25.0365 162.748 25.5605C162.908 25.8112 162.988 26.0846 162.988 26.3809C162.988 26.6999 162.896 27.0531 162.714 27.4404C162.167 28.762 161.666 30.0837 161.21 31.4053C161.917 30.3343 162.657 29.2747 163.432 28.2266C164.662 26.5404 166.087 25.0592 167.704 23.7832C168.206 23.5326 168.639 23.4072 169.003 23.4072C170.644 23.4072 171.464 24.3643 171.464 26.2783C171.464 27.2354 171.213 28.9102 170.712 31.3027C170.348 33.0345 170.165 34.1738 170.165 34.7207C170.165 35.0169 170.211 35.165 170.302 35.165L170.37 35.1309C171.897 33.9004 173.355 32.6016 174.745 31.2344C175.383 30.6191 176.044 30.0153 176.728 29.4229C178.642 27.6455 180.1 26.7568 181.103 26.7568C181.832 26.8252 182.356 27.0075 182.675 27.3037C183.017 27.5771 183.313 27.9531 183.564 28.4316C183.7 28.7734 183.86 29.3203 184.042 30.0723C184.407 31.7357 184.908 32.8408 185.546 33.3877C186.207 34.0485 187.061 34.3789 188.11 34.3789C189.317 34.3789 190.616 34.1169 192.006 33.5928C194.946 32.4079 197.669 30.847 200.175 28.9102C200.562 28.6595 200.927 28.5342 201.269 28.5342C201.497 28.5342 201.793 28.6367 202.157 28.8418C202.636 29.0697 202.875 29.5368 202.875 30.2432C202.875 30.7217 202.613 31.166 202.089 31.5762C199.264 33.6725 196.222 35.3815 192.963 36.7031L192.109 36.9766C190.696 37.4551 189.363 37.6943 188.11 37.6943C185.877 37.6943 184.122 36.9196 182.846 35.3701C182.504 34.96 182.299 34.6979 182.231 34.584C181.593 33.6042 181.057 32.2598 180.624 30.5508C180.579 30.4141 180.545 30.3457 180.522 30.3457C180.248 30.7103 179.337 31.5762 177.787 32.9434C174.893 35.7689 172.911 37.5348 171.84 38.2412C171.111 38.7881 170.439 39.0615 169.823 39.0615C167.841 39.0615 166.85 37.8652 166.85 35.4727C166.918 34.0143 167.112 32.5674 167.431 31.1318C167.613 30.1292 167.761 29.1152 167.875 28.0898C167.784 28.2266 167.67 28.3633 167.533 28.5C166.918 29.3203 166.44 29.9014 166.098 30.2432C164.002 32.9775 162.19 35.8714 160.663 38.9248C160.481 39.2666 160.139 39.9388 159.638 40.9414C159.137 41.9212 158.726 42.6048 158.407 42.9922C157.929 43.5163 157.211 43.7897 156.254 43.8125ZM204.584 38.8223C203.809 38.8223 203.023 38.6969 202.226 38.4463C200.676 37.8311 199.81 36.7031 199.628 35.0625C199.628 34.4928 199.651 34.0713 199.697 33.7979L200.004 32.5674C201.417 28.9671 203.399 26.21 205.951 24.2959C206.84 23.6351 207.877 23.2705 209.062 23.2021C209.358 23.2021 209.643 23.2363 209.916 23.3047C211.352 23.6693 212.161 24.6149 212.343 26.1416C212.343 26.415 212.309 26.7113 212.24 27.0303C211.785 29.0811 210.634 30.7217 208.788 31.9521C207.695 32.7952 206.179 33.4788 204.242 34.0029L203.832 34.0371C203.582 34.0371 203.354 33.9915 203.149 33.9004C203.058 34.2194 203.012 34.4473 203.012 34.584C203.08 35.2448 203.627 35.5752 204.653 35.5752C205.177 35.5752 205.598 35.5524 205.917 35.5068C208.538 35.3018 211.101 34.8688 213.608 34.208C218.461 32.9548 221.948 31.8496 224.067 30.8926C225.046 30.4824 225.684 30.2773 225.981 30.2773C226.368 30.2773 226.698 30.4027 226.972 30.6533C227.337 30.9951 227.519 31.4281 227.519 31.9521C227.519 31.9977 227.507 32.18 227.485 32.499C227.462 32.818 227.097 33.1257 226.391 33.4219L223.417 34.5156C219.566 35.7461 216.445 36.6803 214.052 37.3184C211.386 38.0247 208.697 38.5146 205.986 38.7881C205.507 38.7881 205.04 38.7995 204.584 38.8223ZM205.131 30.0723C205.837 29.776 206.51 29.4001 207.148 28.9443C208.333 27.9645 208.925 27.3379 208.925 27.0645C208.925 26.9733 208.868 26.9277 208.754 26.9277C208.617 26.9277 208.321 27.0531 207.865 27.3037C207.045 27.7367 206.134 28.6595 205.131 30.0723ZM246.078 43.6074C245.623 43.5618 245.178 43.4479 244.745 43.2656L244.062 43.0605L243.583 42.6846C242.398 41.7275 241.806 40.349 241.806 38.5488C241.806 36.3385 242.125 34.1624 242.763 32.0205L243.515 29.3887C244.426 26.4948 245.566 23.6921 246.933 20.9805C245.11 21.0944 243.298 21.1742 241.498 21.2197C240.678 21.2197 240.12 20.9235 239.823 20.3311C239.687 20.0348 239.618 19.75 239.618 19.4766C239.618 18.3145 240.245 17.7334 241.498 17.7334C242.706 17.779 243.902 17.8018 245.087 17.8018C246.295 17.8018 247.503 17.779 248.71 17.7334C249.075 17.0042 249.861 15.8193 251.069 14.1787C252.299 12.5381 253.564 11.4215 254.863 10.8291C255.227 10.6468 255.649 10.5557 256.127 10.5557C256.993 10.5557 257.688 10.9658 258.212 11.7861C258.303 11.9456 258.36 12.0938 258.383 12.2305C258.406 12.3444 258.417 12.4242 258.417 12.4697C258.44 12.4925 258.486 12.7432 258.554 13.2217C258.463 14.5889 258.11 15.8877 257.494 17.1182V17.1523L263.715 16.6055C264.399 16.6055 264.877 16.8333 265.151 17.2891C265.31 17.5625 265.39 17.8359 265.39 18.1094C265.39 18.3372 265.322 18.6335 265.185 18.998C265.048 19.3626 264.615 19.5905 263.886 19.6816L255.683 20.3311C252.538 25.2757 249.531 29.3089 246.659 32.4307C246.386 32.7041 246.101 32.875 245.805 32.9434C245.782 32.9889 245.771 33.0459 245.771 33.1143C245.315 34.7321 245.087 36.3841 245.087 38.0703V38.5146C245.087 39.335 245.292 39.9274 245.702 40.292C245.748 40.3376 245.794 40.3604 245.839 40.3604C245.976 40.3604 246.067 40.3717 246.113 40.3945L247.104 40.1895C249.474 39.6654 252.96 37.8766 257.563 34.8232C258.337 34.2764 258.907 33.889 259.272 33.6611C259.636 33.4105 259.91 33.2168 260.092 33.0801C260.274 32.9434 260.457 32.8066 260.639 32.6699C261.026 32.4193 261.801 31.8268 262.963 30.8926C263.328 30.6419 263.67 30.5166 263.989 30.5166C264.194 30.5166 264.467 30.5964 264.809 30.7559C265.265 30.9837 265.492 31.4281 265.492 32.0889C265.492 32.5218 265.265 32.932 264.809 33.3193L262.348 35.1309C258.337 38.1387 254.475 40.5312 250.761 42.3086C249.029 43.1745 247.468 43.6074 246.078 43.6074ZM248.539 24.9795C249.587 23.5667 250.601 22.1312 251.581 20.6729L250.693 20.7412C249.895 22.1084 249.177 23.5212 248.539 24.9795ZM252.778 17.4941L253.53 17.4258C254.054 16.4915 254.395 15.7965 254.555 15.3408C253.917 16.0016 253.324 16.7194 252.778 17.4941ZM266.723 40.2236C266.108 40.2236 265.481 40.0527 264.843 39.7109C263.134 38.6855 262.28 36.9993 262.28 34.6523C262.302 34.5156 262.314 34.3675 262.314 34.208C262.473 32.0661 263.225 30.1178 264.57 28.3633C264.98 27.9987 265.39 27.805 265.8 27.7822C265.8 26.8024 266.085 25.9365 266.655 25.1846C267.315 24.3187 268.17 23.8743 269.218 23.8516C269.697 23.8516 270.255 23.9541 270.893 24.1592C272.146 24.7972 273.058 25.7542 273.627 27.0303C274.128 28.238 274.379 29.5254 274.379 30.8926C275.883 31.166 277.41 31.3027 278.959 31.3027C281.625 31.3027 284.2 30.9268 286.684 30.1748L287.197 30.1406C287.698 30.1406 288.085 30.3001 288.359 30.6191C288.632 30.9382 288.769 31.3027 288.769 31.7129C288.769 31.8268 288.735 32.0661 288.666 32.4307C288.598 32.7725 288.199 33.0573 287.47 33.2852C284.69 34.0599 281.808 34.4473 278.823 34.4473C277.159 34.4473 275.553 34.3105 274.003 34.0371C273.32 36.498 271.873 38.3551 269.662 39.6084C269.321 39.7679 268.967 39.9046 268.603 40.0186C268.398 40.0641 268.204 40.1211 268.022 40.1895L266.723 40.2236ZM270.927 29.6621C270.699 28.3633 270.198 27.5316 269.423 27.167L269.115 27.1328L269.047 27.3037H269.081C269.104 27.3037 269.115 27.3493 269.115 27.4404L269.081 27.6455C269.081 28.0101 269.321 28.4089 269.799 28.8418C270.05 29.1152 270.426 29.3887 270.927 29.6621ZM266.996 36.9082C267.11 36.9082 267.384 36.874 267.817 36.8057C269.321 36.0537 270.323 34.8574 270.824 33.2168C269.708 32.8066 268.717 32.2484 267.851 31.542C267.577 31.3369 267.338 31.0977 267.133 30.8242L267.065 30.8584C266.336 31.7926 265.891 32.8636 265.732 34.0713C265.686 34.2764 265.663 34.4814 265.663 34.6865C265.663 34.8005 265.652 34.903 265.629 34.9941C265.698 36.2702 266.153 36.9082 266.996 36.9082Z" fill="#FFE54D"/>
</svg>
