<svg xmlns="http://www.w3.org/2000/svg" width="28" height="28" viewBox="0 0 28 28" fill="none">
  <path d="M23.2797 0.553711H4.48293C2.12357 0.553711 0.210938 2.46635 0.210938 4.8257V23.6225C0.210938 25.9818 2.12357 27.8944 4.48293 27.8944H23.2797C25.639 27.8944 27.5517 25.9818 27.5517 23.6225V4.8257C27.5517 2.46635 25.639 0.553711 23.2797 0.553711Z" fill="#FF0000"/>
  <path d="M20.3745 10.8919C20.2036 10.2939 19.7764 9.86665 19.1784 9.69577C18.1531 9.43945 13.7956 9.43945 13.7956 9.43945C13.7956 9.43945 9.52366 9.43945 8.41294 9.69577C7.81486 9.86665 7.38766 10.2939 7.21678 10.8919C7.0459 12.0026 7.0459 14.2241 7.0459 14.2241C7.0459 14.2241 7.0459 16.4455 7.30222 17.5562C7.4731 18.1543 7.90029 18.5815 8.49837 18.7524C9.52365 19.0087 13.8811 19.0087 13.8811 19.0087C13.8811 19.0087 18.1531 19.0087 19.2638 18.7524C19.8619 18.5815 20.2891 18.1543 20.46 17.5562C20.7163 16.4455 20.7163 14.2241 20.7163 14.2241C20.7163 14.2241 20.7163 12.0026 20.3745 10.8919ZM12.514 16.2746V12.1735L16.1025 14.2241L12.514 16.2746Z" fill="white"/>
</svg>